<svg width="727" height="209" viewBox="0 0 727 209" fill="none" xmlns="http://www.w3.org/2000/svg">
<g filter="url(#filter0_i_1301_708)">
<path d="M35.2077 102.393C28.2427 102.393 22.1136 100.954 16.8202 98.0747C11.5268 95.1959 7.39427 91.0633 4.42255 85.6771C1.54369 80.198 0.104266 73.6973 0.104266 66.1752C0.104266 58.653 1.54369 52.1988 4.42255 46.8126C7.39427 41.3335 11.4804 37.1545 16.6809 34.2756C21.8814 31.3968 27.7784 29.9573 34.3719 29.9573C41.1511 29.9573 46.9088 31.3503 51.645 34.1363C56.3812 36.9223 60.003 40.7298 62.5104 45.5589C65.0178 50.3879 66.2715 55.867 66.2715 61.9962C66.2715 63.6678 66.225 65.2465 66.1322 66.7324C66.0393 68.2182 65.9 69.5184 65.7143 70.6327H9.71592V59.2102H59.1672L51.7843 61.439C51.7843 55.1241 50.2056 50.295 47.0481 46.9519C43.8907 43.5158 39.5724 41.7978 34.0933 41.7978C30.1001 41.7978 26.6176 42.7264 23.6459 44.5838C20.6741 46.4411 18.3989 49.2271 16.8202 52.9417C15.2415 56.5635 14.4521 61.0211 14.4521 66.3145C14.4521 71.515 15.2879 75.9261 16.9595 79.5479C18.6311 83.1697 20.9992 85.9092 24.0638 87.7666C27.1283 89.6239 30.7501 90.5525 34.9291 90.5525C39.5724 90.5525 43.3335 89.6703 46.2123 87.9059C49.0912 86.1414 51.3664 83.6804 53.038 80.523L64.8785 86.095C63.2069 89.4382 60.9316 92.3634 58.0528 94.8708C55.2668 97.2854 51.9236 99.1427 48.0232 100.443C44.1229 101.743 39.851 102.393 35.2077 102.393ZM91.9199 0.00798122V81.4981C91.9199 84.9341 92.5236 87.3022 93.7308 88.6024C94.9381 89.9025 96.9347 90.5525 99.7207 90.5525C101.392 90.5525 102.785 90.4597 103.9 90.274C105.107 89.9954 106.593 89.531 108.357 88.881L106.686 100.025C105.107 100.768 103.296 101.325 101.253 101.696C99.2099 102.161 97.1669 102.393 95.1238 102.393C88.9018 102.393 84.3049 100.814 81.3332 97.6568C78.4543 94.4065 77.0149 89.4382 77.0149 82.7518V0.00798122H91.9199ZM143.812 102.393C136.847 102.393 130.718 100.954 125.425 98.0747C120.131 95.1959 115.999 91.0633 113.027 85.6771C110.148 80.198 108.709 73.6973 108.709 66.1752C108.709 58.653 110.148 52.1988 113.027 46.8126C115.999 41.3335 120.085 37.1545 125.285 34.2756C130.486 31.3968 136.383 29.9573 142.976 29.9573C149.756 29.9573 155.513 31.3503 160.25 34.1363C164.986 36.9223 168.607 40.7298 171.115 45.5589C173.622 50.3879 174.876 55.867 174.876 61.9962C174.876 63.6678 174.83 65.2465 174.737 66.7324C174.644 68.2182 174.504 69.5184 174.319 70.6327H118.32V59.2102H167.772L160.389 61.439C160.389 55.1241 158.81 50.295 155.653 46.9519C152.495 43.5158 148.177 41.7978 142.698 41.7978C138.705 41.7978 135.222 42.7264 132.25 44.5838C129.279 46.4411 127.003 49.2271 125.425 52.9417C123.846 56.5635 123.057 61.0211 123.057 66.3145C123.057 71.515 123.892 75.9261 125.564 79.5479C127.236 83.1697 129.604 85.9092 132.668 87.7666C135.733 89.6239 139.355 90.5525 143.534 90.5525C148.177 90.5525 151.938 89.6703 154.817 87.9059C157.696 86.1414 159.971 83.6804 161.643 80.523L173.483 86.095C171.811 89.4382 169.536 92.3634 166.657 94.8708C163.871 97.2854 160.528 99.1427 156.628 100.443C152.727 101.743 148.456 102.393 143.812 102.393ZM229.826 31.3503H245.428L217.707 101H201.409L173.549 31.3503H189.847L209.628 88.0452L229.826 31.3503ZM289.099 56.2849C289.099 51.6416 287.799 48.0663 285.199 45.5589C282.691 42.9586 279.209 41.6585 274.751 41.6585C270.572 41.6585 266.997 42.6336 264.025 44.5838C261.054 46.534 258.871 49.6914 257.478 54.0561L244.941 48.7627C246.706 43.0979 250.142 38.5475 255.249 35.1114C260.45 31.6754 267.136 29.9573 275.309 29.9573C280.881 29.9573 285.802 30.886 290.074 32.7433C294.346 34.5078 297.689 37.2009 300.104 40.8227C302.611 44.4445 303.865 49.0878 303.865 54.7526V85.8164C303.865 89.2524 305.583 90.9704 309.019 90.9704C310.691 90.9704 312.316 90.7383 313.895 90.274L313.059 100.582C310.923 101.604 308.23 102.114 304.979 102.114C302.008 102.114 299.315 101.604 296.9 100.582C294.578 99.4677 292.721 97.8425 291.328 95.7066C290.028 93.4778 289.378 90.7383 289.378 87.488V86.5129L292.442 86.3736C291.607 89.9954 289.889 93.0135 287.288 95.428C284.688 97.7497 281.67 99.5141 278.234 100.721C274.798 101.836 271.315 102.393 267.786 102.393C263.422 102.393 259.475 101.696 255.946 100.304C252.51 98.9105 249.77 96.821 247.727 94.035C245.777 91.1562 244.802 87.6273 244.802 83.4483C244.802 78.2478 246.474 73.9759 249.817 70.6327C253.253 67.2896 258.082 65.0143 264.304 63.8071L291.328 58.5137L291.189 68.9612L271.548 73.0008C267.647 73.7438 264.722 74.8117 262.772 76.2047C260.821 77.5977 259.846 79.6408 259.846 82.3339C259.846 84.9341 260.821 87.0236 262.772 88.6024C264.815 90.0882 267.508 90.8311 270.851 90.8311C273.173 90.8311 275.401 90.5525 277.537 89.9954C279.766 89.4382 281.763 88.5559 283.527 87.3487C285.292 86.0485 286.638 84.4234 287.567 82.4732C288.588 80.4301 289.099 78.0156 289.099 75.2296V56.2849ZM338.241 10.8733V80.1051C338.241 83.5411 339.124 86.0485 340.888 87.6273C342.745 89.206 345.206 89.9954 348.271 89.9954C350.778 89.9954 352.961 89.6239 354.818 88.881C356.675 88.0452 358.393 86.9308 359.972 85.5378L363.315 96.4031C361.179 98.2604 358.533 99.7463 355.375 100.861C352.311 101.882 348.875 102.393 345.067 102.393C341.074 102.393 337.406 101.743 334.062 100.443C330.719 99.1427 328.119 97.0532 326.262 94.1743C324.404 91.2026 323.429 87.3487 323.336 82.6125V15.0523L338.241 10.8733ZM362.201 31.3503V43.0515H309.964V31.3503H362.201ZM399.927 102.393C392.962 102.393 386.833 100.954 381.54 98.0747C376.246 95.1959 372.114 91.0633 369.142 85.6771C366.263 80.198 364.824 73.6973 364.824 66.1752C364.824 58.653 366.263 52.1988 369.142 46.8126C372.114 41.3335 376.2 37.1545 381.4 34.2756C386.601 31.3968 392.498 29.9573 399.091 29.9573C405.871 29.9573 411.628 31.3503 416.364 34.1363C421.101 36.9223 424.722 40.7298 427.23 45.5589C429.737 50.3879 430.991 55.867 430.991 61.9962C430.991 63.6678 430.944 65.2465 430.852 66.7324C430.759 68.2182 430.619 69.5184 430.434 70.6327H374.435V59.2102H423.887L416.504 61.439C416.504 55.1241 414.925 50.295 411.768 46.9519C408.61 43.5158 404.292 41.7978 398.813 41.7978C394.819 41.7978 391.337 42.7264 388.365 44.5838C385.394 46.4411 383.118 49.2271 381.54 52.9417C379.961 56.5635 379.171 61.0211 379.171 66.3145C379.171 71.515 380.007 75.9261 381.679 79.5479C383.35 83.1697 385.719 85.9092 388.783 87.7666C391.848 89.6239 395.47 90.5525 399.648 90.5525C404.292 90.5525 408.053 89.6703 410.932 87.9059C413.811 86.1414 416.086 83.6804 417.757 80.523L429.598 86.095C427.926 89.4382 425.651 92.3634 422.772 94.8708C419.986 97.2854 416.643 99.1427 412.743 100.443C408.842 101.743 404.57 102.393 399.927 102.393ZM449.674 82.1946C452.832 82.1946 455.339 83.1233 457.197 84.9806C459.147 86.745 460.122 89.1596 460.122 92.2241C460.122 95.2887 459.147 97.7497 457.197 99.607C455.339 101.464 452.832 102.393 449.674 102.393C446.424 102.393 443.824 101.464 441.874 99.607C440.016 97.7497 439.088 95.2887 439.088 92.2241C439.088 89.1596 440.016 86.745 441.874 84.9806C443.824 83.1233 446.424 82.1946 449.674 82.1946ZM524.21 31.3503L493.704 109.219C491.661 114.605 489.432 118.877 487.017 122.034C484.696 125.192 482.003 127.467 478.938 128.86C475.874 130.253 472.298 130.949 468.212 130.949C464.869 130.949 461.758 130.485 458.879 129.556C456.093 128.721 453.632 127.56 451.496 126.074L455.118 114.512C456.882 115.998 458.74 117.112 460.69 117.855C462.733 118.598 464.915 118.97 467.237 118.97C469.744 118.97 471.973 118.273 473.923 116.88C475.966 115.58 477.777 112.933 479.356 108.94L482.421 101.418L475.038 84.1448L453.307 31.3503H470.023L485.485 75.0903L489.525 88.1845L494.122 73.8366L508.748 31.3503H524.21ZM559.083 29.9573C565.862 29.9573 571.852 31.3968 577.053 34.2756C582.253 37.1545 586.293 41.3335 589.172 46.8126C592.143 52.1988 593.629 58.653 593.629 66.1752C593.629 73.6973 592.143 80.198 589.172 85.6771C586.293 91.0633 582.253 95.1959 577.053 98.0747C571.852 100.954 565.862 102.393 559.083 102.393C552.304 102.393 546.314 100.954 541.113 98.0747C535.913 95.1959 531.827 91.0633 528.855 85.6771C525.883 80.198 524.398 73.6973 524.398 66.1752C524.398 58.653 525.883 52.1988 528.855 46.8126C531.827 41.3335 535.913 37.1545 541.113 34.2756C546.314 31.3968 552.304 29.9573 559.083 29.9573ZM559.083 41.6585C554.904 41.6585 551.329 42.6336 548.357 44.5838C545.478 46.4411 543.249 49.1806 541.671 52.8024C540.092 56.4242 539.303 60.8818 539.303 66.1752C539.303 71.3757 540.092 75.8333 541.671 79.5479C543.249 83.1697 545.478 85.9557 548.357 87.9059C551.329 89.7632 554.904 90.6918 559.083 90.6918C563.262 90.6918 566.791 89.7632 569.67 87.9059C572.549 85.9557 574.777 83.1697 576.356 79.5479C577.935 75.8333 578.724 71.3757 578.724 66.1752C578.724 60.8818 577.935 56.4242 576.356 52.8024C574.777 49.1806 572.549 46.4411 569.67 44.5838C566.791 42.6336 563.262 41.6585 559.083 41.6585ZM629.514 102.393C624.964 102.393 620.738 101.557 616.838 99.8856C613.03 98.214 609.966 95.5209 607.644 91.8062C605.323 88.0916 604.162 83.2626 604.162 77.3191V31.3503H619.067V73.558C619.067 79.8729 620.413 84.2376 623.106 86.6522C625.8 88.9738 629.561 90.1347 634.39 90.1347C636.711 90.1347 638.94 89.7632 641.076 89.0203C643.305 88.1845 645.301 86.9308 647.066 85.2592C648.83 83.4947 650.177 81.2659 651.106 78.5728C652.127 75.8797 652.638 72.7222 652.638 69.1005V31.3503H667.543V101H654.449L653.752 89.7168C651.338 94.0815 648.087 97.2854 644.001 99.3284C639.915 101.371 635.086 102.393 629.514 102.393ZM683.167 101V31.3503H695.843L697.236 43.8873C699.094 39.3368 701.833 35.9008 705.455 33.5791C709.17 31.1646 713.72 29.9573 719.106 29.9573C720.499 29.9573 721.892 30.0966 723.285 30.3752C724.678 30.561 725.839 30.886 726.768 31.3503L724.678 44.4445C723.657 44.073 722.496 43.7944 721.196 43.6087C719.989 43.3301 718.317 43.1908 716.181 43.1908C713.302 43.1908 710.47 43.9801 707.684 45.5589C704.898 47.0447 702.576 49.3199 700.719 52.3845C698.955 55.4491 698.072 59.3495 698.072 64.0857V101H683.167ZM19.049 106.008V187.498C19.049 190.934 19.6526 193.302 20.8599 194.602C22.0671 195.902 24.0638 196.553 26.8497 196.553C28.5213 196.553 29.9143 196.46 31.0287 196.274C32.236 195.995 33.7218 195.531 35.4863 194.881L33.8147 206.025C32.236 206.768 30.4251 207.325 28.382 207.696C26.339 208.161 24.2959 208.393 22.2529 208.393C16.0308 208.393 11.4339 206.814 8.46223 203.657C5.58337 200.406 4.14395 195.438 4.14395 188.752V106.008H19.049ZM47.8176 125.649C44.5672 125.649 42.0598 124.86 40.2954 123.281C38.6238 121.61 37.788 119.288 37.788 116.316C37.788 113.344 38.6238 111.069 40.2954 109.49C42.0598 107.912 44.5672 107.122 47.8176 107.122C50.975 107.122 53.3895 107.912 55.0611 109.49C56.8256 111.069 57.7078 113.344 57.7078 116.316C57.7078 119.288 56.8256 121.61 55.0611 123.281C53.3895 124.86 50.975 125.649 47.8176 125.649ZM55.2004 137.35V207H40.2954V137.35H55.2004ZM100.391 105.033C103.27 105.033 105.87 105.358 108.192 106.008C110.606 106.565 112.417 107.355 113.625 108.376L110.839 119.102C109.817 118.452 108.656 117.988 107.356 117.709C106.056 117.338 104.57 117.152 102.898 117.152C99.091 117.152 96.0728 118.034 93.844 119.799C91.7081 121.563 90.6401 124.442 90.6401 128.435V138.604L91.058 142.365V207H76.153V127.321C76.153 123.792 76.6638 120.634 77.6853 117.848C78.7997 115.062 80.4248 112.741 82.5608 110.883C84.6967 108.933 87.2505 107.494 90.2222 106.565C93.2868 105.544 96.6764 105.033 100.391 105.033ZM113.207 137.35V149.051H63.0589V137.35H113.207ZM148.122 208.393C141.157 208.393 135.028 206.954 129.734 204.075C124.441 201.196 120.308 197.063 117.337 191.677C114.458 186.198 113.018 179.697 113.018 172.175C113.018 164.653 114.458 158.199 117.337 152.813C120.308 147.333 124.394 143.154 129.595 140.276C134.795 137.397 140.692 135.957 147.286 135.957C154.065 135.957 159.823 137.35 164.559 140.136C169.295 142.922 172.917 146.73 175.424 151.559C177.932 156.388 179.186 161.867 179.186 167.996C179.186 169.668 179.139 171.247 179.046 172.732C178.953 174.218 178.814 175.518 178.628 176.633H122.63V165.21H172.081L164.698 167.439C164.698 161.124 163.12 156.295 159.962 152.952C156.805 149.516 152.486 147.798 147.007 147.798C143.014 147.798 139.532 148.726 136.56 150.584C133.588 152.441 131.313 155.227 129.734 158.942C128.156 162.564 127.366 167.021 127.366 172.314C127.366 177.515 128.202 181.926 129.874 185.548C131.545 189.17 133.913 191.909 136.978 193.767C140.042 195.624 143.664 196.553 147.843 196.553C152.486 196.553 156.248 195.67 159.126 193.906C162.005 192.141 164.281 189.68 165.952 186.523L177.793 192.095C176.121 195.438 173.846 198.363 170.967 200.871C168.181 203.285 164.838 205.143 160.937 206.443C157.037 207.743 152.765 208.393 148.122 208.393ZM216.814 208.393C209.849 208.393 203.487 207.046 197.73 204.353C191.972 201.66 187.422 197.853 184.078 192.931L194.387 184.016C196.43 187.823 199.355 190.888 203.162 193.209C207.063 195.438 211.706 196.553 217.092 196.553C221.364 196.553 224.754 195.81 227.261 194.324C229.769 192.838 231.022 190.748 231.022 188.055C231.022 186.291 230.419 184.759 229.211 183.458C228.097 182.065 225.915 180.997 222.664 180.255L208.038 177.19C200.609 175.704 195.315 173.336 192.158 170.086C189 166.742 187.422 162.517 187.422 157.409C187.422 153.602 188.536 150.073 190.765 146.823C192.994 143.572 196.244 140.972 200.516 139.022C204.88 136.979 210.081 135.957 216.117 135.957C223.082 135.957 229.026 137.211 233.948 139.718C238.869 142.133 242.631 145.615 245.231 150.166L234.923 158.802C233.158 155.088 230.558 152.348 227.122 150.584C223.686 148.726 220.111 147.798 216.396 147.798C213.424 147.798 210.87 148.169 208.734 148.912C206.598 149.655 204.973 150.677 203.859 151.977C202.745 153.277 202.187 154.809 202.187 156.574C202.187 158.431 202.884 160.056 204.277 161.449C205.67 162.842 208.177 163.91 211.799 164.653L227.679 167.996C234.365 169.296 239.055 171.525 241.748 174.683C244.534 177.747 245.927 181.508 245.927 185.966C245.927 190.423 244.767 194.37 242.445 197.806C240.123 201.149 236.78 203.75 232.415 205.607C228.051 207.464 222.85 208.393 216.814 208.393ZM263.938 188.195C267.096 188.195 269.603 189.123 271.46 190.981C273.411 192.745 274.386 195.16 274.386 198.224C274.386 201.289 273.411 203.75 271.46 205.607C269.603 207.464 267.096 208.393 263.938 208.393C260.688 208.393 258.088 207.464 256.138 205.607C254.28 203.75 253.352 201.289 253.352 198.224C253.352 195.16 254.28 192.745 256.138 190.981C258.088 189.123 260.688 188.195 263.938 188.195ZM299.7 116.873V186.105C299.7 189.541 300.582 192.049 302.347 193.627C304.204 195.206 306.665 195.995 309.73 195.995C312.237 195.995 314.419 195.624 316.277 194.881C318.134 194.045 319.852 192.931 321.431 191.538L324.774 202.403C322.638 204.26 319.991 205.746 316.834 206.861C313.769 207.882 310.333 208.393 306.526 208.393C302.533 208.393 298.864 207.743 295.521 206.443C292.178 205.143 289.578 203.053 287.72 200.174C285.863 197.203 284.888 193.349 284.795 188.612V121.052L299.7 116.873ZM323.66 137.35V149.051H271.422V137.35H323.66ZM338.262 125.649C335.012 125.649 332.504 124.86 330.74 123.281C329.068 121.61 328.233 119.288 328.233 116.316C328.233 113.344 329.068 111.069 330.74 109.49C332.504 107.912 335.012 107.122 338.262 107.122C341.42 107.122 343.834 107.912 345.506 109.49C347.27 111.069 348.152 113.344 348.152 116.316C348.152 119.288 347.27 121.61 345.506 123.281C343.834 124.86 341.42 125.649 338.262 125.649ZM345.645 137.35V207H330.74V137.35H345.645ZM375.791 106.008V187.498C375.791 190.934 376.395 193.302 377.602 194.602C378.809 195.902 380.806 196.553 383.592 196.553C385.264 196.553 386.657 196.46 387.771 196.274C388.978 195.995 390.464 195.531 392.229 194.881L390.557 206.025C388.978 206.768 387.167 207.325 385.124 207.696C383.081 208.161 381.038 208.393 378.995 208.393C372.773 208.393 368.176 206.814 365.205 203.657C362.326 200.406 360.886 195.438 360.886 188.752V106.008H375.791ZM427.684 208.393C420.719 208.393 414.589 206.954 409.296 204.075C404.003 201.196 399.87 197.063 396.898 191.677C394.02 186.198 392.58 179.697 392.58 172.175C392.58 164.653 394.02 158.199 396.898 152.813C399.87 147.333 403.956 143.154 409.157 140.276C414.357 137.397 420.254 135.957 426.848 135.957C433.627 135.957 439.385 137.35 444.121 140.136C448.857 142.922 452.479 146.73 454.986 151.559C457.494 156.388 458.747 161.867 458.747 167.996C458.747 169.668 458.701 171.247 458.608 172.732C458.515 174.218 458.376 175.518 458.19 176.633H402.192V165.21H451.643L444.26 167.439C444.26 161.124 442.681 156.295 439.524 152.952C436.367 149.516 432.048 147.798 426.569 147.798C422.576 147.798 419.093 148.726 416.122 150.584C413.15 152.441 410.875 155.227 409.296 158.942C407.717 162.564 406.928 167.021 406.928 172.314C406.928 177.515 407.764 181.926 409.435 185.548C411.107 189.17 413.475 191.909 416.54 193.767C419.604 195.624 423.226 196.553 427.405 196.553C432.048 196.553 435.809 195.67 438.688 193.906C441.567 192.141 443.842 189.68 445.514 186.523L457.354 192.095C455.683 195.438 453.408 198.363 450.529 200.871C447.743 203.285 444.399 205.143 440.499 206.443C436.599 207.743 432.327 208.393 427.684 208.393Z" fill="#858585"/>
</g>
<defs>
<filter id="filter0_i_1301_708" x="0.104492" y="0.0078125" width="726.664" height="213.385" filterUnits="userSpaceOnUse" color-interpolation-filters="sRGB">
<feFlood flood-opacity="0" result="BackgroundImageFix"/>
<feBlend mode="normal" in="SourceGraphic" in2="BackgroundImageFix" result="shape"/>
<feColorMatrix in="SourceAlpha" type="matrix" values="0 0 0 0 0 0 0 0 0 0 0 0 0 0 0 0 0 0 127 0" result="hardAlpha"/>
<feOffset dy="4.99951"/>
<feGaussianBlur stdDeviation="28.1222"/>
<feComposite in2="hardAlpha" operator="arithmetic" k2="-1" k3="1"/>
<feColorMatrix type="matrix" values="0 0 0 0 0 0 0 0 0 0 0 0 0 0 0 0 0 0 0.25 0"/>
<feBlend mode="normal" in2="shape" result="effect1_innerShadow_1301_708"/>
</filter>
</defs>
</svg>
