<svg width="450" height="143" viewBox="0 0 450 143" fill="none" xmlns="http://www.w3.org/2000/svg">
<g clip-path="url(#clip0_1402_128)">
<g filter="url(#filter0_d_1402_128)">
<rect x="50" y="34" width="350" height="93" rx="46.5" fill="#3F3F3F" shape-rendering="crispEdges"/>
<g filter="url(#filter1_i_1402_128)">
<path d="M140.725 66.9102C143.241 66.9102 145.449 67.3434 147.349 68.2098C149.25 69.0763 150.871 70.362 152.213 72.0669L148.984 75.7983C147.838 74.3449 146.581 73.2828 145.211 72.612C143.869 71.9132 142.304 71.5638 140.515 71.5638C139.342 71.5638 138.363 71.7176 137.581 72.025C136.826 72.3325 136.267 72.7378 135.904 73.2409C135.568 73.744 135.401 74.303 135.401 74.9179C135.401 75.6725 135.694 76.3154 136.281 76.8464C136.868 77.3495 137.874 77.7688 139.3 78.1042L144.456 79.2781C147.196 79.893 149.152 80.8153 150.326 82.0451C151.528 83.247 152.129 84.8122 152.129 86.7407C152.129 88.5575 151.654 90.1227 150.703 91.4364C149.753 92.7221 148.425 93.7143 146.72 94.413C145.015 95.0839 143.059 95.4193 140.851 95.4193C138.922 95.4193 137.147 95.1957 135.526 94.7484C133.933 94.2733 132.508 93.6304 131.25 92.8199C129.992 92.0093 128.944 91.073 128.106 90.0109L131.376 86.1119C132.019 87.0063 132.815 87.8029 133.765 88.5016C134.716 89.2004 135.792 89.7594 136.994 90.1786C138.224 90.5699 139.509 90.7656 140.851 90.7656C141.997 90.7656 142.961 90.6398 143.744 90.3882C144.554 90.1087 145.155 89.7314 145.546 89.2563C145.966 88.7532 146.175 88.1522 146.175 87.4535C146.175 86.7268 145.924 86.1119 145.421 85.6088C144.946 85.0777 144.051 84.6724 142.737 84.3929L137.12 83.1352C135.498 82.7439 134.101 82.2408 132.927 81.6259C131.781 80.983 130.901 80.1725 130.286 79.1942C129.699 78.188 129.405 77.0001 129.405 75.6306C129.405 73.9815 129.852 72.5002 130.747 71.1865C131.641 69.8729 132.927 68.8387 134.604 68.0841C136.309 67.3015 138.349 66.9102 140.725 66.9102ZM155.129 95V64.8558H160.872V77.6011C161.543 76.2595 162.466 75.2672 163.639 74.6244C164.813 73.9536 166.141 73.6182 167.622 73.6182C169.076 73.6182 170.361 73.8977 171.479 74.4567C172.625 75.0157 173.52 75.8682 174.163 77.0141C174.833 78.1321 175.169 79.5436 175.169 81.2486V95H169.425V82.9256C169.425 81.1088 169.076 79.865 168.377 79.1942C167.678 78.4955 166.784 78.1461 165.694 78.1461C164.883 78.1461 164.101 78.3417 163.346 78.733C162.619 79.0964 162.018 79.7113 161.543 80.5778C161.096 81.4163 160.872 82.5343 160.872 83.9318V95H155.129ZM188.758 73.6182C190.883 73.6182 192.741 74.0514 194.335 74.9179C195.956 75.7843 197.213 77.0281 198.108 78.6492C199.03 80.2703 199.491 82.2268 199.491 84.5187C199.491 86.7827 199.03 88.7392 198.108 90.3882C197.213 92.0093 195.956 93.2531 194.335 94.1196C192.741 94.986 190.883 95.4193 188.758 95.4193C186.662 95.4193 184.804 94.986 183.182 94.1196C181.561 93.2531 180.29 92.0093 179.367 90.3882C178.473 88.7392 178.026 86.7827 178.026 84.5187C178.026 82.2268 178.473 80.2703 179.367 78.6492C180.29 77.0281 181.561 75.7843 183.182 74.9179C184.804 74.0514 186.662 73.6182 188.758 73.6182ZM188.758 77.8945C187.696 77.8945 186.788 78.1461 186.033 78.6492C185.307 79.1243 184.748 79.851 184.356 80.8293C183.965 81.8076 183.769 83.0374 183.769 84.5187C183.769 86.0001 183.965 87.2299 184.356 88.2081C184.748 89.1864 185.307 89.9271 186.033 90.4302C186.788 90.9053 187.696 91.1429 188.758 91.1429C189.793 91.1429 190.673 90.9053 191.4 90.4302C192.154 89.9271 192.727 89.1864 193.119 88.2081C193.51 87.2299 193.706 86.0001 193.706 84.5187C193.706 83.0374 193.51 81.8076 193.119 80.8293C192.727 79.851 192.154 79.1243 191.4 78.6492C190.673 78.1461 189.793 77.8945 188.758 77.8945ZM202.411 103.804V74.0374H207.567L207.945 80.7035L207.232 79.9489C207.484 78.7191 207.945 77.629 208.616 76.6787C209.314 75.7284 210.195 74.9877 211.257 74.4567C212.319 73.8977 213.507 73.6182 214.821 73.6182C216.525 73.6182 218.049 74.0514 219.39 74.9179C220.732 75.7843 221.78 77.0281 222.535 78.6492C223.317 80.2424 223.709 82.1849 223.709 84.4768C223.709 86.7687 223.317 88.7392 222.535 90.3882C221.752 92.0093 220.676 93.2531 219.307 94.1196C217.965 94.986 216.428 95.4193 214.695 95.4193C212.85 95.4193 211.313 94.9022 210.083 93.868C208.881 92.8339 208.057 91.5342 207.609 89.969L208.154 89.0886V103.804H202.411ZM213.018 91.0171C214.555 91.0171 215.757 90.4721 216.623 89.382C217.518 88.264 217.965 86.6429 217.965 84.5187C217.965 82.3945 217.532 80.7874 216.665 79.6973C215.827 78.5793 214.639 78.0203 213.102 78.0203C212.123 78.0203 211.257 78.2858 210.502 78.8169C209.776 79.32 209.203 80.0607 208.783 81.0389C208.364 81.9892 208.154 83.1492 208.154 84.5187C208.154 85.8603 208.35 87.0202 208.741 87.9985C209.133 88.9768 209.692 89.7314 210.418 90.2625C211.173 90.7656 212.04 91.0171 213.018 91.0171ZM262.096 67.3294V95H255.472L245.787 78.733L243.397 74.2051H243.356L243.523 78.9846V95H238.324V67.3294H244.907L254.591 83.5544L256.981 88.1243H257.065L256.897 83.3448V67.3294H262.096ZM276.199 73.6182C278.323 73.6182 280.182 74.0514 281.775 74.9179C283.396 75.7843 284.654 77.0281 285.548 78.6492C286.47 80.2703 286.931 82.2268 286.931 84.5187C286.931 86.7827 286.47 88.7392 285.548 90.3882C284.654 92.0093 283.396 93.2531 281.775 94.1196C280.182 94.986 278.323 95.4193 276.199 95.4193C274.102 95.4193 272.244 94.986 270.623 94.1196C269.001 93.2531 267.73 92.0093 266.807 90.3882C265.913 88.7392 265.466 86.7827 265.466 84.5187C265.466 82.2268 265.913 80.2703 266.807 78.6492C267.73 77.0281 269.001 75.7843 270.623 74.9179C272.244 74.0514 274.102 73.6182 276.199 73.6182ZM276.199 77.8945C275.137 77.8945 274.228 78.1461 273.473 78.6492C272.747 79.1243 272.188 79.851 271.796 80.8293C271.405 81.8076 271.21 83.0374 271.21 84.5187C271.21 86.0001 271.405 87.2299 271.796 88.2081C272.188 89.1864 272.747 89.9271 273.473 90.4302C274.228 90.9053 275.137 91.1429 276.199 91.1429C277.233 91.1429 278.113 90.9053 278.84 90.4302C279.595 89.9271 280.168 89.1864 280.559 88.2081C280.95 87.2299 281.146 86.0001 281.146 84.5187C281.146 83.0374 280.95 81.8076 280.559 80.8293C280.168 79.851 279.595 79.1243 278.84 78.6492C278.113 78.1461 277.233 77.8945 276.199 77.8945ZM316.319 74.0374H322.44L315.732 95H309.108L304.538 80.7455L300.136 95H293.512L286.804 74.0374H292.925L297.118 90.0948L301.771 74.0374H307.473L312.169 90.0948L316.319 74.0374Z" fill="#E3DFD9"/>
</g>
</g>
</g>
<defs>
<filter id="filter0_d_1402_128" x="9" y="-3" width="432" height="175" filterUnits="userSpaceOnUse" color-interpolation-filters="sRGB">
<feFlood flood-opacity="0" result="BackgroundImageFix"/>
<feColorMatrix in="SourceAlpha" type="matrix" values="0 0 0 0 0 0 0 0 0 0 0 0 0 0 0 0 0 0 127 0" result="hardAlpha"/>
<feMorphology radius="1" operator="dilate" in="SourceAlpha" result="effect1_dropShadow_1402_128"/>
<feOffset dy="4"/>
<feGaussianBlur stdDeviation="20"/>
<feComposite in2="hardAlpha" operator="out"/>
<feColorMatrix type="matrix" values="0 0 0 0 0 0 0 0 0 0 0 0 0 0 0 0 0 0 0.25 0"/>
<feBlend mode="normal" in2="BackgroundImageFix" result="effect1_dropShadow_1402_128"/>
<feBlend mode="normal" in="SourceGraphic" in2="effect1_dropShadow_1402_128" result="shape"/>
</filter>
<filter id="filter1_i_1402_128" x="128.105" y="64.8555" width="194.335" height="42.9492" filterUnits="userSpaceOnUse" color-interpolation-filters="sRGB">
<feFlood flood-opacity="0" result="BackgroundImageFix"/>
<feBlend mode="normal" in="SourceGraphic" in2="BackgroundImageFix" result="shape"/>
<feColorMatrix in="SourceAlpha" type="matrix" values="0 0 0 0 0 0 0 0 0 0 0 0 0 0 0 0 0 0 127 0" result="hardAlpha"/>
<feOffset dy="4"/>
<feGaussianBlur stdDeviation="2"/>
<feComposite in2="hardAlpha" operator="arithmetic" k2="-1" k3="1"/>
<feColorMatrix type="matrix" values="0 0 0 0 0 0 0 0 0 0 0 0 0 0 0 0 0 0 0.25 0"/>
<feBlend mode="normal" in2="shape" result="effect1_innerShadow_1402_128"/>
</filter>
<clipPath id="clip0_1402_128">
<rect width="450" height="150" fill="white"/>
</clipPath>
</defs>
</svg>
