<svg width="450" height="150" viewBox="0 0 450 150" fill="none" xmlns="http://www.w3.org/2000/svg">
<g clip-path="url(#clip0_1402_120)">
<g filter="url(#filter0_d_1402_120)">
<rect x="50" y="29" width="350" height="93" rx="46.5" fill="#BF1901" shape-rendering="crispEdges"/>
<path d="M140.725 61.9102C143.241 61.9102 145.449 62.3434 147.349 63.2098C149.25 64.0763 150.871 65.362 152.213 67.0669L148.984 70.7983C147.838 69.3449 146.581 68.2828 145.211 67.612C143.869 66.9132 142.304 66.5638 140.515 66.5638C139.342 66.5638 138.363 66.7176 137.581 67.025C136.826 67.3325 136.267 67.7378 135.904 68.2409C135.568 68.744 135.401 69.303 135.401 69.9179C135.401 70.6725 135.694 71.3154 136.281 71.8464C136.868 72.3495 137.874 72.7688 139.3 73.1042L144.456 74.2781C147.196 74.893 149.152 75.8153 150.326 77.0451C151.528 78.247 152.129 79.8122 152.129 81.7407C152.129 83.5575 151.654 85.1227 150.703 86.4364C149.753 87.7221 148.425 88.7143 146.72 89.413C145.015 90.0839 143.059 90.4193 140.851 90.4193C138.922 90.4193 137.147 90.1957 135.526 89.7484C133.933 89.2733 132.508 88.6304 131.25 87.8199C129.992 87.0093 128.944 86.073 128.106 85.0109L131.376 81.1119C132.019 82.0063 132.815 82.8029 133.765 83.5016C134.716 84.2004 135.792 84.7594 136.994 85.1786C138.224 85.5699 139.509 85.7656 140.851 85.7656C141.997 85.7656 142.961 85.6398 143.744 85.3882C144.554 85.1087 145.155 84.7314 145.546 84.2563C145.966 83.7532 146.175 83.1522 146.175 82.4535C146.175 81.7268 145.924 81.1119 145.421 80.6088C144.946 80.0777 144.051 79.6724 142.737 79.3929L137.12 78.1352C135.498 77.7439 134.101 77.2408 132.927 76.6259C131.781 75.983 130.901 75.1725 130.286 74.1942C129.699 73.188 129.405 72.0001 129.405 70.6306C129.405 68.9815 129.852 67.5002 130.747 66.1865C131.641 64.8729 132.927 63.8387 134.604 63.0841C136.309 62.3015 138.349 61.9102 140.725 61.9102ZM155.129 90V59.8558H160.872V72.6011C161.543 71.2595 162.466 70.2672 163.639 69.6244C164.813 68.9536 166.141 68.6182 167.622 68.6182C169.076 68.6182 170.361 68.8977 171.479 69.4567C172.625 70.0157 173.52 70.8682 174.163 72.0141C174.833 73.1321 175.169 74.5436 175.169 76.2486V90H169.425V77.9256C169.425 76.1088 169.076 74.865 168.377 74.1942C167.678 73.4955 166.784 73.1461 165.694 73.1461C164.883 73.1461 164.101 73.3417 163.346 73.733C162.619 74.0964 162.018 74.7113 161.543 75.5778C161.096 76.4163 160.872 77.5343 160.872 78.9318V90H155.129ZM188.758 68.6182C190.883 68.6182 192.741 69.0514 194.335 69.9179C195.956 70.7843 197.213 72.0281 198.108 73.6492C199.03 75.2703 199.491 77.2268 199.491 79.5187C199.491 81.7827 199.03 83.7392 198.108 85.3882C197.213 87.0093 195.956 88.2531 194.335 89.1196C192.741 89.986 190.883 90.4193 188.758 90.4193C186.662 90.4193 184.804 89.986 183.182 89.1196C181.561 88.2531 180.29 87.0093 179.367 85.3882C178.473 83.7392 178.026 81.7827 178.026 79.5187C178.026 77.2268 178.473 75.2703 179.367 73.6492C180.29 72.0281 181.561 70.7843 183.182 69.9179C184.804 69.0514 186.662 68.6182 188.758 68.6182ZM188.758 72.8945C187.696 72.8945 186.788 73.1461 186.033 73.6492C185.307 74.1243 184.748 74.851 184.356 75.8293C183.965 76.8076 183.769 78.0374 183.769 79.5187C183.769 81.0001 183.965 82.2299 184.356 83.2081C184.748 84.1864 185.307 84.9271 186.033 85.4302C186.788 85.9053 187.696 86.1429 188.758 86.1429C189.793 86.1429 190.673 85.9053 191.4 85.4302C192.154 84.9271 192.727 84.1864 193.119 83.2081C193.51 82.2299 193.706 81.0001 193.706 79.5187C193.706 78.0374 193.51 76.8076 193.119 75.8293C192.727 74.851 192.154 74.1243 191.4 73.6492C190.673 73.1461 189.793 72.8945 188.758 72.8945ZM202.411 98.8043V69.0374H207.567L207.945 75.7035L207.232 74.9489C207.484 73.7191 207.945 72.629 208.616 71.6787C209.314 70.7284 210.195 69.9877 211.257 69.4567C212.319 68.8977 213.507 68.6182 214.821 68.6182C216.525 68.6182 218.049 69.0514 219.39 69.9179C220.732 70.7843 221.78 72.0281 222.535 73.6492C223.317 75.2424 223.709 77.1849 223.709 79.4768C223.709 81.7687 223.317 83.7392 222.535 85.3882C221.752 87.0093 220.676 88.2531 219.307 89.1196C217.965 89.986 216.428 90.4193 214.695 90.4193C212.85 90.4193 211.313 89.9022 210.083 88.868C208.881 87.8339 208.057 86.5342 207.609 84.969L208.154 84.0886V98.8043H202.411ZM213.018 86.0171C214.555 86.0171 215.757 85.4721 216.623 84.382C217.518 83.264 217.965 81.6429 217.965 79.5187C217.965 77.3945 217.532 75.7874 216.665 74.6973C215.827 73.5793 214.639 73.0203 213.102 73.0203C212.123 73.0203 211.257 73.2858 210.502 73.8169C209.776 74.32 209.203 75.0607 208.783 76.0389C208.364 76.9892 208.154 78.1492 208.154 79.5187C208.154 80.8603 208.35 82.0202 208.741 82.9985C209.133 83.9768 209.692 84.7314 210.418 85.2625C211.173 85.7656 212.04 86.0171 213.018 86.0171ZM262.096 62.3294V90H255.472L245.787 73.733L243.397 69.2051H243.356L243.523 73.9846V90H238.324V62.3294H244.907L254.591 78.5544L256.981 83.1243H257.065L256.897 78.3448V62.3294H262.096ZM276.199 68.6182C278.323 68.6182 280.182 69.0514 281.775 69.9179C283.396 70.7843 284.654 72.0281 285.548 73.6492C286.47 75.2703 286.931 77.2268 286.931 79.5187C286.931 81.7827 286.47 83.7392 285.548 85.3882C284.654 87.0093 283.396 88.2531 281.775 89.1196C280.182 89.986 278.323 90.4193 276.199 90.4193C274.102 90.4193 272.244 89.986 270.623 89.1196C269.001 88.2531 267.73 87.0093 266.807 85.3882C265.913 83.7392 265.466 81.7827 265.466 79.5187C265.466 77.2268 265.913 75.2703 266.807 73.6492C267.73 72.0281 269.001 70.7843 270.623 69.9179C272.244 69.0514 274.102 68.6182 276.199 68.6182ZM276.199 72.8945C275.137 72.8945 274.228 73.1461 273.473 73.6492C272.747 74.1243 272.188 74.851 271.796 75.8293C271.405 76.8076 271.21 78.0374 271.21 79.5187C271.21 81.0001 271.405 82.2299 271.796 83.2081C272.188 84.1864 272.747 84.9271 273.473 85.4302C274.228 85.9053 275.137 86.1429 276.199 86.1429C277.233 86.1429 278.113 85.9053 278.84 85.4302C279.595 84.9271 280.168 84.1864 280.559 83.2081C280.95 82.2299 281.146 81.0001 281.146 79.5187C281.146 78.0374 280.95 76.8076 280.559 75.8293C280.168 74.851 279.595 74.1243 278.84 73.6492C278.113 73.1461 277.233 72.8945 276.199 72.8945ZM316.319 69.0374H322.44L315.732 90H309.108L304.538 75.7455L300.136 90H293.512L286.804 69.0374H292.925L297.118 85.0948L301.771 69.0374H307.473L312.169 85.0948L316.319 69.0374Z" fill="#E3DFD9"/>
</g>
</g>
<defs>
<filter id="filter0_d_1402_120" x="9" y="-8" width="432" height="175" filterUnits="userSpaceOnUse" color-interpolation-filters="sRGB">
<feFlood flood-opacity="0" result="BackgroundImageFix"/>
<feColorMatrix in="SourceAlpha" type="matrix" values="0 0 0 0 0 0 0 0 0 0 0 0 0 0 0 0 0 0 127 0" result="hardAlpha"/>
<feMorphology radius="1" operator="dilate" in="SourceAlpha" result="effect1_dropShadow_1402_120"/>
<feOffset dy="4"/>
<feGaussianBlur stdDeviation="20"/>
<feComposite in2="hardAlpha" operator="out"/>
<feColorMatrix type="matrix" values="0 0 0 0 0 0 0 0 0 0 0 0 0 0 0 0 0 0 0.25 0"/>
<feBlend mode="normal" in2="BackgroundImageFix" result="effect1_dropShadow_1402_120"/>
<feBlend mode="normal" in="SourceGraphic" in2="effect1_dropShadow_1402_120" result="shape"/>
</filter>
<clipPath id="clip0_1402_120">
<rect width="450" height="150" fill="white"/>
</clipPath>
</defs>
</svg>
