<svg width="300" height="408" viewBox="0 0 300 408" fill="none" xmlns="http://www.w3.org/2000/svg">
<rect width="300" height="355" fill="#D9D9D9"/>
<path d="M74.5991 387V376.5H76.6091L81.0791 383.91H80.0141L84.4091 376.5H86.4041L86.4341 387H84.1541L84.1391 379.995H84.5591L81.0491 385.89H79.9541L76.3691 379.995H76.8791V387H74.5991ZM86.8703 387L91.5503 376.5H93.9503L98.6453 387H96.0953L92.2553 377.73H93.2153L89.3603 387H86.8703ZM89.2103 384.75L89.8553 382.905H95.2553L95.9153 384.75H89.2103ZM99.0597 387V376.5H103.605C104.545 376.5 105.355 376.655 106.035 376.965C106.715 377.265 107.24 377.7 107.61 378.27C107.98 378.84 108.165 379.52 108.165 380.31C108.165 381.09 107.98 381.765 107.61 382.335C107.24 382.895 106.715 383.325 106.035 383.625C105.355 383.925 104.545 384.075 103.605 384.075H100.41L101.49 383.01V387H99.0597ZM105.735 387L103.11 383.19H105.705L108.36 387H105.735ZM101.49 383.28L100.41 382.14H103.47C104.22 382.14 104.78 381.98 105.15 381.66C105.52 381.33 105.705 380.88 105.705 380.31C105.705 379.73 105.52 379.28 105.15 378.96C104.78 378.64 104.22 378.48 103.47 378.48H100.41L101.49 377.325V383.28ZM109.415 387V376.5H114.545C115.865 376.5 116.855 376.75 117.515 377.25C118.185 377.75 118.52 378.41 118.52 379.23C118.52 379.78 118.385 380.26 118.115 380.67C117.845 381.07 117.475 381.38 117.005 381.6C116.535 381.82 115.995 381.93 115.385 381.93L115.67 381.315C116.33 381.315 116.915 381.425 117.425 381.645C117.935 381.855 118.33 382.17 118.61 382.59C118.9 383.01 119.045 383.525 119.045 384.135C119.045 385.035 118.69 385.74 117.98 386.25C117.27 386.75 116.225 387 114.845 387H109.415ZM111.83 385.17H114.665C115.295 385.17 115.77 385.07 116.09 384.87C116.42 384.66 116.585 384.33 116.585 383.88C116.585 383.44 116.42 383.115 116.09 382.905C115.77 382.685 115.295 382.575 114.665 382.575H111.65V380.805H114.245C114.835 380.805 115.285 380.705 115.595 380.505C115.915 380.295 116.075 379.98 116.075 379.56C116.075 379.15 115.915 378.845 115.595 378.645C115.285 378.435 114.835 378.33 114.245 378.33H111.83V385.17ZM120.21 387V376.5H122.64V385.02H127.905V387H120.21ZM130.822 380.73H135.877V382.62H130.822V380.73ZM131.002 385.05H136.717V387H128.587V376.5H136.522V378.45H131.002V385.05ZM141.549 387V376.5H143.979V385.02H149.244V387H141.549ZM154.851 387.18C154.021 387.18 153.251 387.045 152.541 386.775C151.841 386.505 151.231 386.125 150.711 385.635C150.201 385.145 149.801 384.57 149.511 383.91C149.231 383.25 149.091 382.53 149.091 381.75C149.091 380.97 149.231 380.25 149.511 379.59C149.801 378.93 150.206 378.355 150.726 377.865C151.246 377.375 151.856 376.995 152.556 376.725C153.256 376.455 154.016 376.32 154.836 376.32C155.666 376.32 156.426 376.455 157.116 376.725C157.816 376.995 158.421 377.375 158.931 377.865C159.451 378.355 159.856 378.93 160.146 379.59C160.436 380.24 160.581 380.96 160.581 381.75C160.581 382.53 160.436 383.255 160.146 383.925C159.856 384.585 159.451 385.16 158.931 385.65C158.421 386.13 157.816 386.505 157.116 386.775C156.426 387.045 155.671 387.18 154.851 387.18ZM154.836 385.11C155.306 385.11 155.736 385.03 156.126 384.87C156.526 384.71 156.876 384.48 157.176 384.18C157.476 383.88 157.706 383.525 157.866 383.115C158.036 382.705 158.121 382.25 158.121 381.75C158.121 381.25 158.036 380.795 157.866 380.385C157.706 379.975 157.476 379.62 157.176 379.32C156.886 379.02 156.541 378.79 156.141 378.63C155.741 378.47 155.306 378.39 154.836 378.39C154.366 378.39 153.931 378.47 153.531 378.63C153.141 378.79 152.796 379.02 152.496 379.32C152.196 379.62 151.961 379.975 151.791 380.385C151.631 380.795 151.551 381.25 151.551 381.75C151.551 382.24 151.631 382.695 151.791 383.115C151.961 383.525 152.191 383.88 152.481 384.18C152.781 384.48 153.131 384.71 153.531 384.87C153.931 385.03 154.366 385.11 154.836 385.11ZM166.832 387.18C166.002 387.18 165.232 387.045 164.522 386.775C163.822 386.505 163.212 386.125 162.692 385.635C162.182 385.145 161.782 384.57 161.492 383.91C161.212 383.25 161.072 382.53 161.072 381.75C161.072 380.97 161.212 380.25 161.492 379.59C161.782 378.93 162.187 378.355 162.707 377.865C163.227 377.375 163.837 376.995 164.537 376.725C165.237 376.455 165.997 376.32 166.817 376.32C167.647 376.32 168.407 376.455 169.097 376.725C169.797 376.995 170.402 377.375 170.912 377.865C171.432 378.355 171.837 378.93 172.127 379.59C172.417 380.24 172.562 380.96 172.562 381.75C172.562 382.53 172.417 383.255 172.127 383.925C171.837 384.585 171.432 385.16 170.912 385.65C170.402 386.13 169.797 386.505 169.097 386.775C168.407 387.045 167.652 387.18 166.832 387.18ZM166.817 385.11C167.287 385.11 167.717 385.03 168.107 384.87C168.507 384.71 168.857 384.48 169.157 384.18C169.457 383.88 169.687 383.525 169.847 383.115C170.017 382.705 170.102 382.25 170.102 381.75C170.102 381.25 170.017 380.795 169.847 380.385C169.687 379.975 169.457 379.62 169.157 379.32C168.867 379.02 168.522 378.79 168.122 378.63C167.722 378.47 167.287 378.39 166.817 378.39C166.347 378.39 165.912 378.47 165.512 378.63C165.122 378.79 164.777 379.02 164.477 379.32C164.177 379.62 163.942 379.975 163.772 380.385C163.612 380.795 163.532 381.25 163.532 381.75C163.532 382.24 163.612 382.695 163.772 383.115C163.942 383.525 164.172 383.88 164.462 384.18C164.762 384.48 165.112 384.71 165.512 384.87C165.912 385.03 166.347 385.11 166.817 385.11ZM175.888 384.6L175.753 381.795L180.778 376.5H183.478L178.948 381.375L177.598 382.815L175.888 384.6ZM173.713 387V376.5H176.128V387H173.713ZM180.898 387L177.163 382.425L178.753 380.7L183.733 387H180.898ZM189.89 387V378.48H186.53V376.5H195.68V378.48H192.32V387H189.89ZM196.312 387V376.5H198.742V387H196.312ZM200.559 387V376.5H202.989V385.02H208.254V387H200.559ZM211.172 380.73H216.227V382.62H211.172V380.73ZM211.352 385.05H217.067V387H208.937V376.5H216.872V378.45H211.352V385.05ZM221.775 387.18C220.935 387.18 220.13 387.07 219.36 386.85C218.59 386.62 217.97 386.325 217.5 385.965L218.325 384.135C218.775 384.455 219.305 384.72 219.915 384.93C220.535 385.13 221.16 385.23 221.79 385.23C222.27 385.23 222.655 385.185 222.945 385.095C223.245 384.995 223.465 384.86 223.605 384.69C223.745 384.52 223.815 384.325 223.815 384.105C223.815 383.825 223.705 383.605 223.485 383.445C223.265 383.275 222.975 383.14 222.615 383.04C222.255 382.93 221.855 382.83 221.415 382.74C220.985 382.64 220.55 382.52 220.11 382.38C219.68 382.24 219.285 382.06 218.925 381.84C218.565 381.62 218.27 381.33 218.04 380.97C217.82 380.61 217.71 380.15 217.71 379.59C217.71 378.99 217.87 378.445 218.19 377.955C218.52 377.455 219.01 377.06 219.66 376.77C220.32 376.47 221.145 376.32 222.135 376.32C222.795 376.32 223.445 376.4 224.085 376.56C224.725 376.71 225.29 376.94 225.78 377.25L225.03 379.095C224.54 378.815 224.05 378.61 223.56 378.48C223.07 378.34 222.59 378.27 222.12 378.27C221.65 378.27 221.265 378.325 220.965 378.435C220.665 378.545 220.45 378.69 220.32 378.87C220.19 379.04 220.125 379.24 220.125 379.47C220.125 379.74 220.235 379.96 220.455 380.13C220.675 380.29 220.965 380.42 221.325 380.52C221.685 380.62 222.08 380.72 222.51 380.82C222.95 380.92 223.385 381.035 223.815 381.165C224.255 381.295 224.655 381.47 225.015 381.69C225.375 381.91 225.665 382.2 225.885 382.56C226.115 382.92 226.23 383.375 226.23 383.925C226.23 384.515 226.065 385.055 225.735 385.545C225.405 386.035 224.91 386.43 224.25 386.73C223.6 387.03 222.775 387.18 221.775 387.18Z" fill="#1C1C1C"/>
</svg>
