<svg width="300" height="408" viewBox="0 0 300 408" fill="none" xmlns="http://www.w3.org/2000/svg">
<rect width="300" height="355" fill="#D9D9D9"/>
<path d="M82.7503 387L79.3153 376.5H81.8353L84.8203 385.8H83.5603L86.6803 376.5H88.9303L91.9303 385.8H90.7153L93.7753 376.5H96.1003L92.6653 387H90.0553L87.4003 378.84H88.0903L85.3603 387H82.7503ZM101.765 387.18C100.935 387.18 100.165 387.045 99.4546 386.775C98.7546 386.505 98.1446 386.125 97.6246 385.635C97.1146 385.145 96.7146 384.57 96.4246 383.91C96.1446 383.25 96.0046 382.53 96.0046 381.75C96.0046 380.97 96.1446 380.25 96.4246 379.59C96.7146 378.93 97.1196 378.355 97.6396 377.865C98.1596 377.375 98.7696 376.995 99.4696 376.725C100.17 376.455 100.93 376.32 101.75 376.32C102.58 376.32 103.34 376.455 104.03 376.725C104.73 376.995 105.335 377.375 105.845 377.865C106.365 378.355 106.77 378.93 107.06 379.59C107.35 380.24 107.495 380.96 107.495 381.75C107.495 382.53 107.35 383.255 107.06 383.925C106.77 384.585 106.365 385.16 105.845 385.65C105.335 386.13 104.73 386.505 104.03 386.775C103.34 387.045 102.585 387.18 101.765 387.18ZM101.75 385.11C102.22 385.11 102.65 385.03 103.04 384.87C103.44 384.71 103.79 384.48 104.09 384.18C104.39 383.88 104.62 383.525 104.78 383.115C104.95 382.705 105.035 382.25 105.035 381.75C105.035 381.25 104.95 380.795 104.78 380.385C104.62 379.975 104.39 379.62 104.09 379.32C103.8 379.02 103.455 378.79 103.055 378.63C102.655 378.47 102.22 378.39 101.75 378.39C101.28 378.39 100.845 378.47 100.445 378.63C100.055 378.79 99.7096 379.02 99.4096 379.32C99.1096 379.62 98.8746 379.975 98.7046 380.385C98.5446 380.795 98.4646 381.25 98.4646 381.75C98.4646 382.24 98.5446 382.695 98.7046 383.115C98.8746 383.525 99.1046 383.88 99.3946 384.18C99.6946 384.48 100.045 384.71 100.445 384.87C100.845 385.03 101.28 385.11 101.75 385.11ZM113.746 387.18C112.916 387.18 112.146 387.045 111.436 386.775C110.736 386.505 110.126 386.125 109.606 385.635C109.096 385.145 108.696 384.57 108.406 383.91C108.126 383.25 107.986 382.53 107.986 381.75C107.986 380.97 108.126 380.25 108.406 379.59C108.696 378.93 109.101 378.355 109.621 377.865C110.141 377.375 110.751 376.995 111.451 376.725C112.151 376.455 112.911 376.32 113.731 376.32C114.561 376.32 115.321 376.455 116.011 376.725C116.711 376.995 117.316 377.375 117.826 377.865C118.346 378.355 118.751 378.93 119.041 379.59C119.331 380.24 119.476 380.96 119.476 381.75C119.476 382.53 119.331 383.255 119.041 383.925C118.751 384.585 118.346 385.16 117.826 385.65C117.316 386.13 116.711 386.505 116.011 386.775C115.321 387.045 114.566 387.18 113.746 387.18ZM113.731 385.11C114.201 385.11 114.631 385.03 115.021 384.87C115.421 384.71 115.771 384.48 116.071 384.18C116.371 383.88 116.601 383.525 116.761 383.115C116.931 382.705 117.016 382.25 117.016 381.75C117.016 381.25 116.931 380.795 116.761 380.385C116.601 379.975 116.371 379.62 116.071 379.32C115.781 379.02 115.436 378.79 115.036 378.63C114.636 378.47 114.201 378.39 113.731 378.39C113.261 378.39 112.826 378.47 112.426 378.63C112.036 378.79 111.691 379.02 111.391 379.32C111.091 379.62 110.856 379.975 110.686 380.385C110.526 380.795 110.446 381.25 110.446 381.75C110.446 382.24 110.526 382.695 110.686 383.115C110.856 383.525 111.086 383.88 111.376 384.18C111.676 384.48 112.026 384.71 112.426 384.87C112.826 385.03 113.261 385.11 113.731 385.11ZM120.627 387V376.5H125.397C126.537 376.5 127.542 376.72 128.412 377.16C129.282 377.59 129.962 378.195 130.452 378.975C130.942 379.755 131.187 380.68 131.187 381.75C131.187 382.81 130.942 383.735 130.452 384.525C129.962 385.305 129.282 385.915 128.412 386.355C127.542 386.785 126.537 387 125.397 387H120.627ZM123.057 385.005H125.277C125.977 385.005 126.582 384.875 127.092 384.615C127.612 384.345 128.012 383.965 128.292 383.475C128.582 382.985 128.727 382.41 128.727 381.75C128.727 381.08 128.582 380.505 128.292 380.025C128.012 379.535 127.612 379.16 127.092 378.9C126.582 378.63 125.977 378.495 125.277 378.495H123.057V385.005ZM135.918 387V376.5H138.348V385.02H143.613V387H135.918ZM149.22 387.18C148.39 387.18 147.62 387.045 146.91 386.775C146.21 386.505 145.6 386.125 145.08 385.635C144.57 385.145 144.17 384.57 143.88 383.91C143.6 383.25 143.46 382.53 143.46 381.75C143.46 380.97 143.6 380.25 143.88 379.59C144.17 378.93 144.575 378.355 145.095 377.865C145.615 377.375 146.225 376.995 146.925 376.725C147.625 376.455 148.385 376.32 149.205 376.32C150.035 376.32 150.795 376.455 151.485 376.725C152.185 376.995 152.79 377.375 153.3 377.865C153.82 378.355 154.225 378.93 154.515 379.59C154.805 380.24 154.95 380.96 154.95 381.75C154.95 382.53 154.805 383.255 154.515 383.925C154.225 384.585 153.82 385.16 153.3 385.65C152.79 386.13 152.185 386.505 151.485 386.775C150.795 387.045 150.04 387.18 149.22 387.18ZM149.205 385.11C149.675 385.11 150.105 385.03 150.495 384.87C150.895 384.71 151.245 384.48 151.545 384.18C151.845 383.88 152.075 383.525 152.235 383.115C152.405 382.705 152.49 382.25 152.49 381.75C152.49 381.25 152.405 380.795 152.235 380.385C152.075 379.975 151.845 379.62 151.545 379.32C151.255 379.02 150.91 378.79 150.51 378.63C150.11 378.47 149.675 378.39 149.205 378.39C148.735 378.39 148.3 378.47 147.9 378.63C147.51 378.79 147.165 379.02 146.865 379.32C146.565 379.62 146.33 379.975 146.16 380.385C146 380.795 145.92 381.25 145.92 381.75C145.92 382.24 146 382.695 146.16 383.115C146.33 383.525 146.56 383.88 146.85 384.18C147.15 384.48 147.5 384.71 147.9 384.87C148.3 385.03 148.735 385.11 149.205 385.11ZM161.201 387.18C160.371 387.18 159.601 387.045 158.891 386.775C158.191 386.505 157.581 386.125 157.061 385.635C156.551 385.145 156.151 384.57 155.861 383.91C155.581 383.25 155.441 382.53 155.441 381.75C155.441 380.97 155.581 380.25 155.861 379.59C156.151 378.93 156.556 378.355 157.076 377.865C157.596 377.375 158.206 376.995 158.906 376.725C159.606 376.455 160.366 376.32 161.186 376.32C162.016 376.32 162.776 376.455 163.466 376.725C164.166 376.995 164.771 377.375 165.281 377.865C165.801 378.355 166.206 378.93 166.496 379.59C166.786 380.24 166.931 380.96 166.931 381.75C166.931 382.53 166.786 383.255 166.496 383.925C166.206 384.585 165.801 385.16 165.281 385.65C164.771 386.13 164.166 386.505 163.466 386.775C162.776 387.045 162.021 387.18 161.201 387.18ZM161.186 385.11C161.656 385.11 162.086 385.03 162.476 384.87C162.876 384.71 163.226 384.48 163.526 384.18C163.826 383.88 164.056 383.525 164.216 383.115C164.386 382.705 164.471 382.25 164.471 381.75C164.471 381.25 164.386 380.795 164.216 380.385C164.056 379.975 163.826 379.62 163.526 379.32C163.236 379.02 162.891 378.79 162.491 378.63C162.091 378.47 161.656 378.39 161.186 378.39C160.716 378.39 160.281 378.47 159.881 378.63C159.491 378.79 159.146 379.02 158.846 379.32C158.546 379.62 158.311 379.975 158.141 380.385C157.981 380.795 157.901 381.25 157.901 381.75C157.901 382.24 157.981 382.695 158.141 383.115C158.311 383.525 158.541 383.88 158.831 384.18C159.131 384.48 159.481 384.71 159.881 384.87C160.281 385.03 160.716 385.11 161.186 385.11ZM170.257 384.6L170.122 381.795L175.147 376.5H177.847L173.317 381.375L171.967 382.815L170.257 384.6ZM168.082 387V376.5H170.497V387H168.082ZM175.267 387L171.532 382.425L173.122 380.7L178.102 387H175.267ZM184.259 387V378.48H180.899V376.5H190.049V378.48H186.689V387H184.259ZM190.681 387V376.5H193.111V387H190.681ZM194.928 387V376.5H197.358V385.02H202.623V387H194.928ZM205.541 380.73H210.596V382.62H205.541V380.73ZM205.721 385.05H211.436V387H203.306V376.5H211.241V378.45H205.721V385.05ZM216.144 387.18C215.304 387.18 214.499 387.07 213.729 386.85C212.959 386.62 212.339 386.325 211.869 385.965L212.694 384.135C213.144 384.455 213.674 384.72 214.284 384.93C214.904 385.13 215.529 385.23 216.159 385.23C216.639 385.23 217.024 385.185 217.314 385.095C217.614 384.995 217.834 384.86 217.974 384.69C218.114 384.52 218.184 384.325 218.184 384.105C218.184 383.825 218.074 383.605 217.854 383.445C217.634 383.275 217.344 383.14 216.984 383.04C216.624 382.93 216.224 382.83 215.784 382.74C215.354 382.64 214.919 382.52 214.479 382.38C214.049 382.24 213.654 382.06 213.294 381.84C212.934 381.62 212.639 381.33 212.409 380.97C212.189 380.61 212.079 380.15 212.079 379.59C212.079 378.99 212.239 378.445 212.559 377.955C212.889 377.455 213.379 377.06 214.029 376.77C214.689 376.47 215.514 376.32 216.504 376.32C217.164 376.32 217.814 376.4 218.454 376.56C219.094 376.71 219.659 376.94 220.149 377.25L219.399 379.095C218.909 378.815 218.419 378.61 217.929 378.48C217.439 378.34 216.959 378.27 216.489 378.27C216.019 378.27 215.634 378.325 215.334 378.435C215.034 378.545 214.819 378.69 214.689 378.87C214.559 379.04 214.494 379.24 214.494 379.47C214.494 379.74 214.604 379.96 214.824 380.13C215.044 380.29 215.334 380.42 215.694 380.52C216.054 380.62 216.449 380.72 216.879 380.82C217.319 380.92 217.754 381.035 218.184 381.165C218.624 381.295 219.024 381.47 219.384 381.69C219.744 381.91 220.034 382.2 220.254 382.56C220.484 382.92 220.599 383.375 220.599 383.925C220.599 384.515 220.434 385.055 220.104 385.545C219.774 386.035 219.279 386.43 218.619 386.73C217.969 387.03 217.144 387.18 216.144 387.18Z" fill="#1C1C1C"/>
</svg>
