<svg width="330" height="75" viewBox="0 0 330 75" fill="none" xmlns="http://www.w3.org/2000/svg">
<rect x="15" y="10" width="300" height="55" fill="white" stroke="#505050" stroke-width="2"/>
<path d="M67.7309 27.88L59.8909 49H55.8909L48.0509 27.88H51.6989L56.6269 41.928L57.9069 46.12L59.1869 41.96L64.1149 27.88H67.7309ZM71.3846 30.312C70.638 30.312 70.062 30.1307 69.6566 29.768C69.2726 29.384 69.0806 28.8507 69.0806 28.168C69.0806 27.4853 69.2726 26.9627 69.6566 26.6C70.062 26.2373 70.638 26.056 71.3846 26.056C72.11 26.056 72.6646 26.2373 73.0486 26.6C73.454 26.9627 73.6566 27.4853 73.6566 28.168C73.6566 28.8507 73.454 29.384 73.0486 29.768C72.6646 30.1307 72.11 30.312 71.3846 30.312ZM73.0806 33V49H69.6566V33H73.0806ZM84.0379 49.32C82.4379 49.32 81.0299 48.9893 79.8139 48.328C78.5979 47.6667 77.6485 46.7173 76.9659 45.48C76.3045 44.2213 75.9739 42.728 75.9739 41C75.9739 39.272 76.3045 37.7893 76.9659 36.552C77.6485 35.2933 78.5872 34.3333 79.7819 33.672C80.9765 33.0107 82.3312 32.68 83.8459 32.68C85.4032 32.68 86.7259 33 87.8139 33.64C88.9019 34.28 89.7339 35.1547 90.3099 36.264C90.8859 37.3733 91.1739 38.632 91.1739 40.04C91.1739 40.424 91.1632 40.7867 91.1419 41.128C91.1205 41.4693 91.0885 41.768 91.0459 42.024H78.1819V39.4H89.5419L87.8459 39.912C87.8459 38.4613 87.4832 37.352 86.7579 36.584C86.0325 35.7947 85.0405 35.4 83.7819 35.4C82.8645 35.4 82.0645 35.6133 81.3819 36.04C80.6992 36.4667 80.1765 37.1067 79.8139 37.96C79.4512 38.792 79.2699 39.816 79.2699 41.032C79.2699 42.2267 79.4619 43.24 79.8459 44.072C80.2299 44.904 80.7739 45.5333 81.4779 45.96C82.1819 46.3867 83.0139 46.6 83.9739 46.6C85.0405 46.6 85.9045 46.3973 86.5659 45.992C87.2272 45.5867 87.7499 45.0213 88.1339 44.296L90.8539 45.576C90.4699 46.344 89.9472 47.016 89.2859 47.592C88.6459 48.1467 87.8779 48.5733 86.9819 48.872C86.0859 49.1707 85.1045 49.32 84.0379 49.32ZM114.004 33H117.716L112.34 49H108.596L104.564 37.128L100.756 49H97.0116L91.6676 33H95.3476L98.9956 45.64L102.964 33H106.388L110.356 45.64L114.004 33ZM144.756 49H141.14L139.124 43.464H130.26L128.244 49H124.724L132.692 27.88H136.788L144.756 49ZM131.22 40.68H138.164L134.708 30.824L131.22 40.68ZM149.91 25.8V44.52C149.91 45.3093 150.048 45.8533 150.326 46.152C150.603 46.4507 151.062 46.6 151.702 46.6C152.086 46.6 152.406 46.5787 152.662 46.536C152.939 46.472 153.28 46.3653 153.686 46.216L153.302 48.776C152.939 48.9467 152.523 49.0747 152.054 49.16C151.584 49.2667 151.115 49.32 150.646 49.32C149.216 49.32 148.16 48.9573 147.478 48.232C146.816 47.4853 146.486 46.344 146.486 44.808V25.8H149.91ZM158.438 25.8V44.52C158.438 45.3093 158.577 45.8533 158.854 46.152C159.132 46.4507 159.59 46.6 160.23 46.6C160.614 46.6 160.934 46.5787 161.19 46.536C161.468 46.472 161.809 46.3653 162.214 46.216L161.83 48.776C161.468 48.9467 161.052 49.0747 160.582 49.16C160.113 49.2667 159.644 49.32 159.174 49.32C157.745 49.32 156.689 48.9573 156.006 48.232C155.345 47.4853 155.014 46.344 155.014 44.808V25.8H158.438ZM179.604 27.88C182.911 27.88 185.481 28.7973 187.316 30.632C189.172 32.4453 190.1 35.048 190.1 38.44C190.1 41.832 189.172 44.4453 187.316 46.28C185.481 48.0933 182.911 49 179.604 49H172.148V27.88H179.604ZM179.604 46.088C181.844 46.088 183.551 45.4267 184.724 44.104C185.919 42.76 186.516 40.872 186.516 38.44C186.516 36.008 185.919 34.1307 184.724 32.808C183.551 31.464 181.844 30.792 179.604 30.792H175.572V46.088H179.604ZM200.299 49.32C198.699 49.32 197.291 48.9893 196.075 48.328C194.859 47.6667 193.91 46.7173 193.227 45.48C192.566 44.2213 192.235 42.728 192.235 41C192.235 39.272 192.566 37.7893 193.227 36.552C193.91 35.2933 194.848 34.3333 196.043 33.672C197.238 33.0107 198.592 32.68 200.107 32.68C201.664 32.68 202.987 33 204.075 33.64C205.163 34.28 205.995 35.1547 206.571 36.264C207.147 37.3733 207.435 38.632 207.435 40.04C207.435 40.424 207.424 40.7867 207.403 41.128C207.382 41.4693 207.35 41.768 207.307 42.024H194.443V39.4H205.803L204.107 39.912C204.107 38.4613 203.744 37.352 203.019 36.584C202.294 35.7947 201.302 35.4 200.043 35.4C199.126 35.4 198.326 35.6133 197.643 36.04C196.96 36.4667 196.438 37.1067 196.075 37.96C195.712 38.792 195.531 39.816 195.531 41.032C195.531 42.2267 195.723 43.24 196.107 44.072C196.491 44.904 197.035 45.5333 197.739 45.96C198.443 46.3867 199.275 46.6 200.235 46.6C201.302 46.6 202.166 46.3973 202.827 45.992C203.488 45.5867 204.011 45.0213 204.395 44.296L207.115 45.576C206.731 46.344 206.208 47.016 205.547 47.592C204.907 48.1467 204.139 48.5733 203.243 48.872C202.347 49.1707 201.366 49.32 200.299 49.32ZM216.399 49.32C214.799 49.32 213.338 49.0107 212.015 48.392C210.692 47.7733 209.647 46.8987 208.879 45.768L211.247 43.72C211.716 44.5947 212.388 45.2987 213.263 45.832C214.159 46.344 215.226 46.6 216.463 46.6C217.444 46.6 218.223 46.4293 218.799 46.088C219.375 45.7467 219.663 45.2667 219.663 44.648C219.663 44.2427 219.524 43.8907 219.247 43.592C218.991 43.272 218.49 43.0267 217.743 42.856L214.383 42.152C212.676 41.8107 211.46 41.2667 210.735 40.52C210.01 39.752 209.647 38.7813 209.647 37.608C209.647 36.7333 209.903 35.9227 210.415 35.176C210.927 34.4293 211.674 33.832 212.655 33.384C213.658 32.9147 214.852 32.68 216.239 32.68C217.839 32.68 219.204 32.968 220.335 33.544C221.466 34.0987 222.33 34.8987 222.927 35.944L220.559 37.928C220.154 37.0747 219.556 36.4453 218.767 36.04C217.978 35.6133 217.156 35.4 216.303 35.4C215.62 35.4 215.034 35.4853 214.543 35.656C214.052 35.8267 213.679 36.0613 213.423 36.36C213.167 36.6587 213.039 37.0107 213.039 37.416C213.039 37.8427 213.199 38.216 213.519 38.536C213.839 38.856 214.415 39.1013 215.247 39.272L218.895 40.04C220.431 40.3387 221.508 40.8507 222.127 41.576C222.767 42.28 223.087 43.144 223.087 44.168C223.087 45.192 222.82 46.0987 222.287 46.888C221.754 47.656 220.986 48.2533 219.983 48.68C218.98 49.1067 217.786 49.32 216.399 49.32ZM227.545 30.312C226.798 30.312 226.222 30.1307 225.817 29.768C225.433 29.384 225.241 28.8507 225.241 28.168C225.241 27.4853 225.433 26.9627 225.817 26.6C226.222 26.2373 226.798 26.056 227.545 26.056C228.27 26.056 228.825 26.2373 229.209 26.6C229.614 26.9627 229.817 27.4853 229.817 28.168C229.817 28.8507 229.614 29.384 229.209 29.768C228.825 30.1307 228.27 30.312 227.545 30.312ZM229.241 33V49H225.817V33H229.241ZM247.238 29.64L247.782 32.328C247.718 32.328 247.654 32.328 247.59 32.328C247.526 32.3067 247.462 32.296 247.398 32.296C246.374 32.296 245.595 32.52 245.062 32.968C244.529 33.3947 244.262 34.024 244.262 34.856L242.598 34.088C242.598 33.2347 242.779 32.4773 243.142 31.816C243.505 31.1333 244.017 30.6 244.678 30.216C245.361 29.832 246.129 29.64 246.982 29.64C247.025 29.64 247.067 29.64 247.11 29.64C247.153 29.64 247.195 29.64 247.238 29.64ZM242.182 46.504C243.803 46.504 245.062 46.8667 245.958 47.592C246.854 48.296 247.302 49.2773 247.302 50.536C247.302 51.6453 246.95 52.5947 246.246 53.384C245.542 54.1947 244.582 54.8133 243.366 55.24C242.171 55.6667 240.795 55.88 239.238 55.88C236.614 55.88 234.673 55.4747 233.414 54.664C232.155 53.8533 231.526 52.84 231.526 51.624C231.526 50.7707 231.825 50.024 232.422 49.384C233.041 48.744 234.075 48.3813 235.526 48.296L235.334 48.808C234.438 48.616 233.713 48.2747 233.158 47.784C232.625 47.272 232.358 46.5573 232.358 45.64C232.358 44.7227 232.71 43.944 233.414 43.304C234.118 42.664 235.11 42.2907 236.39 42.184L238.182 43.048H237.798C236.817 43.1333 236.123 43.3573 235.718 43.72C235.313 44.0827 235.11 44.488 235.11 44.936C235.11 45.4693 235.302 45.864 235.686 46.12C236.091 46.376 236.657 46.504 237.382 46.504H242.182ZM239.238 53.32C240.411 53.32 241.371 53.2027 242.118 52.968C242.886 52.7547 243.451 52.4667 243.814 52.104C244.198 51.7627 244.39 51.3787 244.39 50.952C244.39 50.4613 244.187 50.0667 243.782 49.768C243.398 49.4693 242.694 49.32 241.67 49.32H236.518C235.921 49.32 235.419 49.4693 235.014 49.768C234.609 50.088 234.406 50.5147 234.406 51.048C234.406 51.752 234.833 52.3067 235.686 52.712C236.539 53.1173 237.723 53.32 239.238 53.32ZM239.11 32.68C240.518 32.68 241.734 32.904 242.758 33.352C243.803 33.8 244.603 34.4293 245.158 35.24C245.734 36.0507 246.022 37 246.022 38.088C246.022 39.176 245.734 40.1253 245.158 40.936C244.603 41.7467 243.803 42.376 242.758 42.824C241.734 43.272 240.518 43.496 239.11 43.496C236.891 43.496 235.185 43.0053 233.99 42.024C232.817 41.0213 232.23 39.7093 232.23 38.088C232.23 37 232.518 36.0507 233.094 35.24C233.67 34.4293 234.47 33.8 235.494 33.352C236.539 32.904 237.745 32.68 239.11 32.68ZM239.11 35.08C238.129 35.08 237.307 35.3573 236.646 35.912C236.006 36.4453 235.686 37.1707 235.686 38.088C235.686 39.0053 236.006 39.7413 236.646 40.296C237.307 40.8507 238.129 41.128 239.11 41.128C240.113 41.128 240.934 40.8507 241.574 40.296C242.235 39.7413 242.566 39.0053 242.566 38.088C242.566 37.1707 242.235 36.4453 241.574 35.912C240.934 35.3573 240.113 35.08 239.11 35.08ZM248.999 49V33H252.039L252.263 37.16L251.815 36.712C252.114 35.7947 252.54 35.0373 253.095 34.44C253.671 33.8213 254.343 33.3733 255.111 33.096C255.9 32.8187 256.732 32.68 257.607 32.68C258.738 32.68 259.751 32.904 260.647 33.352C261.564 33.7787 262.29 34.4293 262.823 35.304C263.356 36.1787 263.623 37.288 263.623 38.632V49H260.199V39.688C260.199 38.1093 259.868 37.0213 259.207 36.424C258.567 35.8053 257.756 35.496 256.775 35.496C256.071 35.496 255.388 35.6667 254.727 36.008C254.066 36.328 253.511 36.8507 253.063 37.576C252.636 38.3013 252.423 39.272 252.423 40.488V49H248.999ZM273.452 49.32C271.852 49.32 270.39 49.0107 269.068 48.392C267.745 47.7733 266.7 46.8987 265.932 45.768L268.3 43.72C268.769 44.5947 269.441 45.2987 270.316 45.832C271.212 46.344 272.278 46.6 273.516 46.6C274.497 46.6 275.276 46.4293 275.852 46.088C276.428 45.7467 276.716 45.2667 276.716 44.648C276.716 44.2427 276.577 43.8907 276.3 43.592C276.044 43.272 275.542 43.0267 274.796 42.856L271.436 42.152C269.729 41.8107 268.513 41.2667 267.788 40.52C267.062 39.752 266.7 38.7813 266.7 37.608C266.7 36.7333 266.956 35.9227 267.468 35.176C267.98 34.4293 268.726 33.832 269.708 33.384C270.71 32.9147 271.905 32.68 273.292 32.68C274.892 32.68 276.257 32.968 277.388 33.544C278.518 34.0987 279.382 34.8987 279.98 35.944L277.612 37.928C277.206 37.0747 276.609 36.4453 275.82 36.04C275.03 35.6133 274.209 35.4 273.356 35.4C272.673 35.4 272.086 35.4853 271.596 35.656C271.105 35.8267 270.732 36.0613 270.476 36.36C270.22 36.6587 270.092 37.0107 270.092 37.416C270.092 37.8427 270.252 38.216 270.572 38.536C270.892 38.856 271.468 39.1013 272.3 39.272L275.948 40.04C277.484 40.3387 278.561 40.8507 279.18 41.576C279.82 42.28 280.14 43.144 280.14 44.168C280.14 45.192 279.873 46.0987 279.34 46.888C278.806 47.656 278.038 48.2533 277.036 48.68C276.033 49.1067 274.838 49.32 273.452 49.32Z" fill="#353535"/>
</svg>
