<svg width="300" height="408" viewBox="0 0 300 408" fill="none" xmlns="http://www.w3.org/2000/svg">
<rect width="300" height="355" fill="#D9D9D9"/>
<path d="M73.076 387V378.48H69.716V376.5H78.866V378.48H75.506V387H73.076ZM81.7334 380.73H86.7884V382.62H81.7334V380.73ZM81.9134 385.05H87.6284V387H79.4984V376.5H87.4334V378.45H81.9134V385.05ZM88.8869 387V376.5H93.4319C94.3719 376.5 95.1819 376.655 95.8619 376.965C96.5419 377.265 97.0669 377.7 97.4369 378.27C97.8069 378.84 97.9919 379.52 97.9919 380.31C97.9919 381.09 97.8069 381.765 97.4369 382.335C97.0669 382.895 96.5419 383.325 95.8619 383.625C95.1819 383.925 94.3719 384.075 93.4319 384.075H90.2369L91.3169 383.01V387H88.8869ZM95.5619 387L92.9369 383.19H95.5319L98.1869 387H95.5619ZM91.3169 383.28L90.2369 382.14H93.2969C94.0469 382.14 94.6069 381.98 94.9769 381.66C95.3469 381.33 95.5319 380.88 95.5319 380.31C95.5319 379.73 95.3469 379.28 94.9769 378.96C94.6069 378.64 94.0469 378.48 93.2969 378.48H90.2369L91.3169 377.325V383.28ZM99.2422 387V376.5H103.787C104.727 376.5 105.537 376.655 106.217 376.965C106.897 377.265 107.422 377.7 107.792 378.27C108.162 378.84 108.347 379.52 108.347 380.31C108.347 381.09 108.162 381.765 107.792 382.335C107.422 382.895 106.897 383.325 106.217 383.625C105.537 383.925 104.727 384.075 103.787 384.075H100.592L101.672 383.01V387H99.2422ZM105.917 387L103.292 383.19H105.887L108.542 387H105.917ZM101.672 383.28L100.592 382.14H103.652C104.402 382.14 104.962 381.98 105.332 381.66C105.702 381.33 105.887 380.88 105.887 380.31C105.887 379.73 105.702 379.28 105.332 378.96C104.962 378.64 104.402 378.48 103.652 378.48H100.592L101.672 377.325V383.28ZM108.217 387L112.897 376.5H115.297L119.992 387H117.442L113.602 377.73H114.562L110.707 387H108.217ZM110.557 384.75L111.202 382.905H116.602L117.262 384.75H110.557ZM119.732 387V385.425L126.227 377.595L126.527 378.48H119.852V376.5H128.687V378.075L122.207 385.905L121.907 385.02H128.912V387H119.732ZM134.793 387.18C133.963 387.18 133.193 387.045 132.483 386.775C131.783 386.505 131.173 386.125 130.653 385.635C130.143 385.145 129.743 384.57 129.453 383.91C129.173 383.25 129.033 382.53 129.033 381.75C129.033 380.97 129.173 380.25 129.453 379.59C129.743 378.93 130.148 378.355 130.668 377.865C131.188 377.375 131.798 376.995 132.498 376.725C133.198 376.455 133.958 376.32 134.778 376.32C135.608 376.32 136.368 376.455 137.058 376.725C137.758 376.995 138.363 377.375 138.873 377.865C139.393 378.355 139.798 378.93 140.088 379.59C140.378 380.24 140.523 380.96 140.523 381.75C140.523 382.53 140.378 383.255 140.088 383.925C139.798 384.585 139.393 385.16 138.873 385.65C138.363 386.13 137.758 386.505 137.058 386.775C136.368 387.045 135.613 387.18 134.793 387.18ZM134.778 385.11C135.248 385.11 135.678 385.03 136.068 384.87C136.468 384.71 136.818 384.48 137.118 384.18C137.418 383.88 137.648 383.525 137.808 383.115C137.978 382.705 138.063 382.25 138.063 381.75C138.063 381.25 137.978 380.795 137.808 380.385C137.648 379.975 137.418 379.62 137.118 379.32C136.828 379.02 136.483 378.79 136.083 378.63C135.683 378.47 135.248 378.39 134.778 378.39C134.308 378.39 133.873 378.47 133.473 378.63C133.083 378.79 132.738 379.02 132.438 379.32C132.138 379.62 131.903 379.975 131.733 380.385C131.573 380.795 131.493 381.25 131.493 381.75C131.493 382.24 131.573 382.695 131.733 383.115C131.903 383.525 132.133 383.88 132.423 384.18C132.723 384.48 133.073 384.71 133.473 384.87C133.873 385.03 134.308 385.11 134.778 385.11ZM145.247 387V376.5H147.677V385.02H152.942V387H145.247ZM158.549 387.18C157.719 387.18 156.949 387.045 156.239 386.775C155.539 386.505 154.929 386.125 154.409 385.635C153.899 385.145 153.499 384.57 153.209 383.91C152.929 383.25 152.789 382.53 152.789 381.75C152.789 380.97 152.929 380.25 153.209 379.59C153.499 378.93 153.904 378.355 154.424 377.865C154.944 377.375 155.554 376.995 156.254 376.725C156.954 376.455 157.714 376.32 158.534 376.32C159.364 376.32 160.124 376.455 160.814 376.725C161.514 376.995 162.119 377.375 162.629 377.865C163.149 378.355 163.554 378.93 163.844 379.59C164.134 380.24 164.279 380.96 164.279 381.75C164.279 382.53 164.134 383.255 163.844 383.925C163.554 384.585 163.149 385.16 162.629 385.65C162.119 386.13 161.514 386.505 160.814 386.775C160.124 387.045 159.369 387.18 158.549 387.18ZM158.534 385.11C159.004 385.11 159.434 385.03 159.824 384.87C160.224 384.71 160.574 384.48 160.874 384.18C161.174 383.88 161.404 383.525 161.564 383.115C161.734 382.705 161.819 382.25 161.819 381.75C161.819 381.25 161.734 380.795 161.564 380.385C161.404 379.975 161.174 379.62 160.874 379.32C160.584 379.02 160.239 378.79 159.839 378.63C159.439 378.47 159.004 378.39 158.534 378.39C158.064 378.39 157.629 378.47 157.229 378.63C156.839 378.79 156.494 379.02 156.194 379.32C155.894 379.62 155.659 379.975 155.489 380.385C155.329 380.795 155.249 381.25 155.249 381.75C155.249 382.24 155.329 382.695 155.489 383.115C155.659 383.525 155.889 383.88 156.179 384.18C156.479 384.48 156.829 384.71 157.229 384.87C157.629 385.03 158.064 385.11 158.534 385.11ZM170.53 387.18C169.7 387.18 168.93 387.045 168.22 386.775C167.52 386.505 166.91 386.125 166.39 385.635C165.88 385.145 165.48 384.57 165.19 383.91C164.91 383.25 164.77 382.53 164.77 381.75C164.77 380.97 164.91 380.25 165.19 379.59C165.48 378.93 165.885 378.355 166.405 377.865C166.925 377.375 167.535 376.995 168.235 376.725C168.935 376.455 169.695 376.32 170.515 376.32C171.345 376.32 172.105 376.455 172.795 376.725C173.495 376.995 174.1 377.375 174.61 377.865C175.13 378.355 175.535 378.93 175.825 379.59C176.115 380.24 176.26 380.96 176.26 381.75C176.26 382.53 176.115 383.255 175.825 383.925C175.535 384.585 175.13 385.16 174.61 385.65C174.1 386.13 173.495 386.505 172.795 386.775C172.105 387.045 171.35 387.18 170.53 387.18ZM170.515 385.11C170.985 385.11 171.415 385.03 171.805 384.87C172.205 384.71 172.555 384.48 172.855 384.18C173.155 383.88 173.385 383.525 173.545 383.115C173.715 382.705 173.8 382.25 173.8 381.75C173.8 381.25 173.715 380.795 173.545 380.385C173.385 379.975 173.155 379.62 172.855 379.32C172.565 379.02 172.22 378.79 171.82 378.63C171.42 378.47 170.985 378.39 170.515 378.39C170.045 378.39 169.61 378.47 169.21 378.63C168.82 378.79 168.475 379.02 168.175 379.32C167.875 379.62 167.64 379.975 167.47 380.385C167.31 380.795 167.23 381.25 167.23 381.75C167.23 382.24 167.31 382.695 167.47 383.115C167.64 383.525 167.87 383.88 168.16 384.18C168.46 384.48 168.81 384.71 169.21 384.87C169.61 385.03 170.045 385.11 170.515 385.11ZM179.587 384.6L179.452 381.795L184.477 376.5H187.177L182.647 381.375L181.297 382.815L179.587 384.6ZM177.412 387V376.5H179.827V387H177.412ZM184.597 387L180.862 382.425L182.452 380.7L187.432 387H184.597ZM193.588 387V378.48H190.228V376.5H199.378V378.48H196.018V387H193.588ZM200.011 387V376.5H202.441V387H200.011ZM204.257 387V376.5H206.687V385.02H211.952V387H204.257ZM214.87 380.73H219.925V382.62H214.87V380.73ZM215.05 385.05H220.765V387H212.635V376.5H220.57V378.45H215.05V385.05ZM225.474 387.18C224.634 387.18 223.829 387.07 223.059 386.85C222.289 386.62 221.669 386.325 221.199 385.965L222.024 384.135C222.474 384.455 223.004 384.72 223.614 384.93C224.234 385.13 224.859 385.23 225.489 385.23C225.969 385.23 226.354 385.185 226.644 385.095C226.944 384.995 227.164 384.86 227.304 384.69C227.444 384.52 227.514 384.325 227.514 384.105C227.514 383.825 227.404 383.605 227.184 383.445C226.964 383.275 226.674 383.14 226.314 383.04C225.954 382.93 225.554 382.83 225.114 382.74C224.684 382.64 224.249 382.52 223.809 382.38C223.379 382.24 222.984 382.06 222.624 381.84C222.264 381.62 221.969 381.33 221.739 380.97C221.519 380.61 221.409 380.15 221.409 379.59C221.409 378.99 221.569 378.445 221.889 377.955C222.219 377.455 222.709 377.06 223.359 376.77C224.019 376.47 224.844 376.32 225.834 376.32C226.494 376.32 227.144 376.4 227.784 376.56C228.424 376.71 228.989 376.94 229.479 377.25L228.729 379.095C228.239 378.815 227.749 378.61 227.259 378.48C226.769 378.34 226.289 378.27 225.819 378.27C225.349 378.27 224.964 378.325 224.664 378.435C224.364 378.545 224.149 378.69 224.019 378.87C223.889 379.04 223.824 379.24 223.824 379.47C223.824 379.74 223.934 379.96 224.154 380.13C224.374 380.29 224.664 380.42 225.024 380.52C225.384 380.62 225.779 380.72 226.209 380.82C226.649 380.92 227.084 381.035 227.514 381.165C227.954 381.295 228.354 381.47 228.714 381.69C229.074 381.91 229.364 382.2 229.584 382.56C229.814 382.92 229.929 383.375 229.929 383.925C229.929 384.515 229.764 385.055 229.434 385.545C229.104 386.035 228.609 386.43 227.949 386.73C227.299 387.03 226.474 387.18 225.474 387.18Z" fill="#1C1C1C"/>
</svg>
