<svg width="300" height="408" viewBox="0 0 300 408" fill="none" xmlns="http://www.w3.org/2000/svg">
<rect width="300" height="355" fill="#D9D9D9"/>
<path d="M78.828 387.18C77.998 387.18 77.233 387.05 76.533 386.79C75.843 386.52 75.238 386.14 74.718 385.65C74.208 385.16 73.808 384.585 73.518 383.925C73.238 383.265 73.098 382.54 73.098 381.75C73.098 380.96 73.238 380.235 73.518 379.575C73.808 378.915 74.213 378.34 74.733 377.85C75.253 377.36 75.863 376.985 76.563 376.725C77.263 376.455 78.033 376.32 78.873 376.32C79.803 376.32 80.638 376.475 81.378 376.785C82.128 377.095 82.758 377.545 83.268 378.135L81.708 379.575C81.328 379.175 80.913 378.88 80.463 378.69C80.013 378.49 79.523 378.39 78.993 378.39C78.483 378.39 78.018 378.47 77.598 378.63C77.178 378.79 76.813 379.02 76.503 379.32C76.203 379.62 75.968 379.975 75.798 380.385C75.638 380.795 75.558 381.25 75.558 381.75C75.558 382.24 75.638 382.69 75.798 383.1C75.968 383.51 76.203 383.87 76.503 384.18C76.813 384.48 77.173 384.71 77.583 384.87C78.003 385.03 78.463 385.11 78.963 385.11C79.443 385.11 79.908 385.035 80.358 384.885C80.818 384.725 81.263 384.46 81.693 384.09L83.073 385.845C82.503 386.275 81.838 386.605 81.078 386.835C80.328 387.065 79.578 387.18 78.828 387.18ZM80.853 385.53V381.585H83.073V385.845L80.853 385.53ZM84.6552 387V376.5H89.2002C90.1402 376.5 90.9502 376.655 91.6302 376.965C92.3102 377.265 92.8352 377.7 93.2052 378.27C93.5752 378.84 93.7602 379.52 93.7602 380.31C93.7602 381.09 93.5752 381.765 93.2052 382.335C92.8352 382.895 92.3102 383.325 91.6302 383.625C90.9502 383.925 90.1402 384.075 89.2002 384.075H86.0052L87.0852 383.01V387H84.6552ZM91.3302 387L88.7052 383.19H91.3002L93.9552 387H91.3302ZM87.0852 383.28L86.0052 382.14H89.0652C89.8152 382.14 90.3752 381.98 90.7452 381.66C91.1152 381.33 91.3002 380.88 91.3002 380.31C91.3002 379.73 91.1152 379.28 90.7452 378.96C90.3752 378.64 89.8152 378.48 89.0652 378.48H86.0052L87.0852 377.325V383.28ZM93.6305 387L98.3105 376.5H100.711L105.406 387H102.856L99.0155 377.73H99.9755L96.1205 387H93.6305ZM95.9705 384.75L96.6155 382.905H102.016L102.676 384.75H95.9705ZM105.82 387V376.5H107.83L114.025 384.06H113.05V376.5H115.45V387H113.455L107.245 379.44H108.22V387H105.82ZM117.259 387V376.5H119.689V387H117.259ZM123.681 387V378.48H120.321V376.5H129.471V378.48H126.111V387H123.681ZM132.338 380.73H137.393V382.62H132.338V380.73ZM132.518 385.05H138.233V387H130.103V376.5H138.038V378.45H132.518V385.05ZM143.065 387V376.5H145.495V385.02H150.76V387H143.065ZM156.367 387.18C155.537 387.18 154.767 387.045 154.057 386.775C153.357 386.505 152.747 386.125 152.227 385.635C151.717 385.145 151.317 384.57 151.027 383.91C150.747 383.25 150.607 382.53 150.607 381.75C150.607 380.97 150.747 380.25 151.027 379.59C151.317 378.93 151.722 378.355 152.242 377.865C152.762 377.375 153.372 376.995 154.072 376.725C154.772 376.455 155.532 376.32 156.352 376.32C157.182 376.32 157.942 376.455 158.632 376.725C159.332 376.995 159.937 377.375 160.447 377.865C160.967 378.355 161.372 378.93 161.662 379.59C161.952 380.24 162.097 380.96 162.097 381.75C162.097 382.53 161.952 383.255 161.662 383.925C161.372 384.585 160.967 385.16 160.447 385.65C159.937 386.13 159.332 386.505 158.632 386.775C157.942 387.045 157.187 387.18 156.367 387.18ZM156.352 385.11C156.822 385.11 157.252 385.03 157.642 384.87C158.042 384.71 158.392 384.48 158.692 384.18C158.992 383.88 159.222 383.525 159.382 383.115C159.552 382.705 159.637 382.25 159.637 381.75C159.637 381.25 159.552 380.795 159.382 380.385C159.222 379.975 158.992 379.62 158.692 379.32C158.402 379.02 158.057 378.79 157.657 378.63C157.257 378.47 156.822 378.39 156.352 378.39C155.882 378.39 155.447 378.47 155.047 378.63C154.657 378.79 154.312 379.02 154.012 379.32C153.712 379.62 153.477 379.975 153.307 380.385C153.147 380.795 153.067 381.25 153.067 381.75C153.067 382.24 153.147 382.695 153.307 383.115C153.477 383.525 153.707 383.88 153.997 384.18C154.297 384.48 154.647 384.71 155.047 384.87C155.447 385.03 155.882 385.11 156.352 385.11ZM168.348 387.18C167.518 387.18 166.748 387.045 166.038 386.775C165.338 386.505 164.728 386.125 164.208 385.635C163.698 385.145 163.298 384.57 163.008 383.91C162.728 383.25 162.588 382.53 162.588 381.75C162.588 380.97 162.728 380.25 163.008 379.59C163.298 378.93 163.703 378.355 164.223 377.865C164.743 377.375 165.353 376.995 166.053 376.725C166.753 376.455 167.513 376.32 168.333 376.32C169.163 376.32 169.923 376.455 170.613 376.725C171.313 376.995 171.918 377.375 172.428 377.865C172.948 378.355 173.353 378.93 173.643 379.59C173.933 380.24 174.078 380.96 174.078 381.75C174.078 382.53 173.933 383.255 173.643 383.925C173.353 384.585 172.948 385.16 172.428 385.65C171.918 386.13 171.313 386.505 170.613 386.775C169.923 387.045 169.168 387.18 168.348 387.18ZM168.333 385.11C168.803 385.11 169.233 385.03 169.623 384.87C170.023 384.71 170.373 384.48 170.673 384.18C170.973 383.88 171.203 383.525 171.363 383.115C171.533 382.705 171.618 382.25 171.618 381.75C171.618 381.25 171.533 380.795 171.363 380.385C171.203 379.975 170.973 379.62 170.673 379.32C170.383 379.02 170.038 378.79 169.638 378.63C169.238 378.47 168.803 378.39 168.333 378.39C167.863 378.39 167.428 378.47 167.028 378.63C166.638 378.79 166.293 379.02 165.993 379.32C165.693 379.62 165.458 379.975 165.288 380.385C165.128 380.795 165.048 381.25 165.048 381.75C165.048 382.24 165.128 382.695 165.288 383.115C165.458 383.525 165.688 383.88 165.978 384.18C166.278 384.48 166.628 384.71 167.028 384.87C167.428 385.03 167.863 385.11 168.333 385.11ZM177.404 384.6L177.269 381.795L182.294 376.5H184.994L180.464 381.375L179.114 382.815L177.404 384.6ZM175.229 387V376.5H177.644V387H175.229ZM182.414 387L178.679 382.425L180.269 380.7L185.249 387H182.414ZM191.406 387V378.48H188.046V376.5H197.196V378.48H193.836V387H191.406ZM197.828 387V376.5H200.258V387H197.828ZM202.075 387V376.5H204.505V385.02H209.77V387H202.075ZM212.688 380.73H217.743V382.62H212.688V380.73ZM212.868 385.05H218.583V387H210.453V376.5H218.388V378.45H212.868V385.05ZM223.292 387.18C222.452 387.18 221.647 387.07 220.877 386.85C220.107 386.62 219.487 386.325 219.017 385.965L219.842 384.135C220.292 384.455 220.822 384.72 221.432 384.93C222.052 385.13 222.677 385.23 223.307 385.23C223.787 385.23 224.172 385.185 224.462 385.095C224.762 384.995 224.982 384.86 225.122 384.69C225.262 384.52 225.332 384.325 225.332 384.105C225.332 383.825 225.222 383.605 225.002 383.445C224.782 383.275 224.492 383.14 224.132 383.04C223.772 382.93 223.372 382.83 222.932 382.74C222.502 382.64 222.067 382.52 221.627 382.38C221.197 382.24 220.802 382.06 220.442 381.84C220.082 381.62 219.787 381.33 219.557 380.97C219.337 380.61 219.227 380.15 219.227 379.59C219.227 378.99 219.387 378.445 219.707 377.955C220.037 377.455 220.527 377.06 221.177 376.77C221.837 376.47 222.662 376.32 223.652 376.32C224.312 376.32 224.962 376.4 225.602 376.56C226.242 376.71 226.807 376.94 227.297 377.25L226.547 379.095C226.057 378.815 225.567 378.61 225.077 378.48C224.587 378.34 224.107 378.27 223.637 378.27C223.167 378.27 222.782 378.325 222.482 378.435C222.182 378.545 221.967 378.69 221.837 378.87C221.707 379.04 221.642 379.24 221.642 379.47C221.642 379.74 221.752 379.96 221.972 380.13C222.192 380.29 222.482 380.42 222.842 380.52C223.202 380.62 223.597 380.72 224.027 380.82C224.467 380.92 224.902 381.035 225.332 381.165C225.772 381.295 226.172 381.47 226.532 381.69C226.892 381.91 227.182 382.2 227.402 382.56C227.632 382.92 227.747 383.375 227.747 383.925C227.747 384.515 227.582 385.055 227.252 385.545C226.922 386.035 226.427 386.43 225.767 386.73C225.117 387.03 224.292 387.18 223.292 387.18Z" fill="#1C1C1C"/>
</svg>
