<svg width="330" height="75" viewBox="0 0 330 75" fill="none" xmlns="http://www.w3.org/2000/svg">
<g filter="url(#filter0_d_1415_103)">
<rect x="15" y="10" width="300" height="55" fill="#E0E0E0"/>
<rect x="15" y="10" width="300" height="55" stroke="#434141" stroke-width="2"/>
</g>
<path d="M58.3884 27.88L50.5484 49H46.5484L38.7084 27.88H42.3564L47.2844 41.928L48.5644 46.12L49.8444 41.96L54.7724 27.88H58.3884ZM62.0421 30.312C61.2955 30.312 60.7195 30.1307 60.3141 29.768C59.9301 29.384 59.7381 28.8507 59.7381 28.168C59.7381 27.4853 59.9301 26.9627 60.3141 26.6C60.7195 26.2373 61.2955 26.056 62.0421 26.056C62.7675 26.056 63.3221 26.2373 63.7061 26.6C64.1115 26.9627 64.3141 27.4853 64.3141 28.168C64.3141 28.8507 64.1115 29.384 63.7061 29.768C63.3221 30.1307 62.7675 30.312 62.0421 30.312ZM63.7381 33V49H60.3141V33H63.7381ZM74.6954 49.32C73.0954 49.32 71.6874 48.9893 70.4714 48.328C69.2554 47.6667 68.306 46.7173 67.6234 45.48C66.962 44.2213 66.6314 42.728 66.6314 41C66.6314 39.272 66.962 37.7893 67.6234 36.552C68.306 35.2933 69.2447 34.3333 70.4394 33.672C71.634 33.0107 72.9887 32.68 74.5034 32.68C76.0607 32.68 77.3834 33 78.4714 33.64C79.5594 34.28 80.3914 35.1547 80.9674 36.264C81.5434 37.3733 81.8314 38.632 81.8314 40.04C81.8314 40.424 81.8207 40.7867 81.7994 41.128C81.778 41.4693 81.746 41.768 81.7034 42.024H68.8394V39.4H80.1994L78.5034 39.912C78.5034 38.4613 78.1407 37.352 77.4154 36.584C76.69 35.7947 75.698 35.4 74.4394 35.4C73.522 35.4 72.722 35.6133 72.0394 36.04C71.3567 36.4667 70.834 37.1067 70.4714 37.96C70.1087 38.792 69.9274 39.816 69.9274 41.032C69.9274 42.2267 70.1194 43.24 70.5034 44.072C70.8874 44.904 71.4314 45.5333 72.1354 45.96C72.8394 46.3867 73.6714 46.6 74.6314 46.6C75.698 46.6 76.562 46.3973 77.2234 45.992C77.8847 45.5867 78.4074 45.0213 78.7914 44.296L81.5114 45.576C81.1274 46.344 80.6047 47.016 79.9434 47.592C79.3034 48.1467 78.5354 48.5733 77.6394 48.872C76.7434 49.1707 75.762 49.32 74.6954 49.32ZM104.661 33H108.373L102.997 49H99.2531L95.2211 37.128L91.4131 49H87.6691L82.3251 33H86.0051L89.6531 45.64L93.6211 33H97.0451L101.013 45.64L104.661 33ZM135.414 49H131.798L129.782 43.464H120.918L118.902 49H115.382L123.35 27.88H127.446L135.414 49ZM121.878 40.68H128.822L125.366 30.824L121.878 40.68ZM140.567 25.8V44.52C140.567 45.3093 140.706 45.8533 140.983 46.152C141.26 46.4507 141.719 46.6 142.359 46.6C142.743 46.6 143.063 46.5787 143.319 46.536C143.596 46.472 143.938 46.3653 144.343 46.216L143.959 48.776C143.596 48.9467 143.18 49.0747 142.711 49.16C142.242 49.2667 141.772 49.32 141.303 49.32C139.874 49.32 138.818 48.9573 138.135 48.232C137.474 47.4853 137.143 46.344 137.143 44.808V25.8H140.567ZM149.096 25.8V44.52C149.096 45.3093 149.235 45.8533 149.512 46.152C149.789 46.4507 150.248 46.6 150.888 46.6C151.272 46.6 151.592 46.5787 151.848 46.536C152.125 46.472 152.467 46.3653 152.872 46.216L152.488 48.776C152.125 48.9467 151.709 49.0747 151.24 49.16C150.771 49.2667 150.301 49.32 149.832 49.32C148.403 49.32 147.347 48.9573 146.664 48.232C146.003 47.4853 145.672 46.344 145.672 44.808V25.8H149.096ZM170.933 27.88C172.448 27.88 173.749 28.1467 174.837 28.68C175.947 29.2133 176.811 29.9707 177.429 30.952C178.048 31.9333 178.357 33.1173 178.357 34.504C178.357 35.8693 178.048 37.0533 177.429 38.056C176.811 39.0373 175.947 39.7947 174.837 40.328C173.749 40.8613 172.448 41.128 170.933 41.128H166.229V49H162.805V27.88H170.933ZM170.389 38.184C171.904 38.184 173.013 37.8747 173.717 37.256C174.443 36.616 174.805 35.6987 174.805 34.504C174.805 33.288 174.443 32.3707 173.717 31.752C173.013 31.112 171.904 30.792 170.389 30.792H166.229V38.184H170.389ZM180.948 49V33H183.86L184.18 35.88C184.607 34.8347 185.236 34.0453 186.068 33.512C186.921 32.9573 187.967 32.68 189.204 32.68C189.524 32.68 189.844 32.712 190.164 32.776C190.484 32.8187 190.751 32.8933 190.964 33L190.484 36.008C190.249 35.9227 189.983 35.8587 189.684 35.816C189.407 35.752 189.023 35.72 188.532 35.72C187.871 35.72 187.22 35.9013 186.58 36.264C185.94 36.6053 185.407 37.128 184.98 37.832C184.575 38.536 184.372 39.432 184.372 40.52V49H180.948ZM199.296 32.68C200.853 32.68 202.229 33.0107 203.424 33.672C204.618 34.3333 205.546 35.2933 206.208 36.552C206.89 37.7893 207.232 39.272 207.232 41C207.232 42.728 206.89 44.2213 206.208 45.48C205.546 46.7173 204.618 47.6667 203.424 48.328C202.229 48.9893 200.853 49.32 199.296 49.32C197.738 49.32 196.362 48.9893 195.168 48.328C193.973 47.6667 193.034 46.7173 192.352 45.48C191.669 44.2213 191.328 42.728 191.328 41C191.328 39.272 191.669 37.7893 192.352 36.552C193.034 35.2933 193.973 34.3333 195.168 33.672C196.362 33.0107 197.738 32.68 199.296 32.68ZM199.296 35.368C198.336 35.368 197.514 35.592 196.832 36.04C196.17 36.4667 195.658 37.096 195.296 37.928C194.933 38.76 194.752 39.784 194.752 41C194.752 42.1947 194.933 43.2187 195.296 44.072C195.658 44.904 196.17 45.544 196.832 45.992C197.514 46.4187 198.336 46.632 199.296 46.632C200.256 46.632 201.066 46.4187 201.728 45.992C202.389 45.544 202.901 44.904 203.264 44.072C203.626 43.2187 203.808 42.1947 203.808 41C203.808 39.784 203.626 38.76 203.264 37.928C202.901 37.096 202.389 36.4667 201.728 36.04C201.066 35.592 200.256 35.368 199.296 35.368ZM216.243 49.32C214.92 49.32 213.715 48.9893 212.627 48.328C211.56 47.6667 210.718 46.7173 210.099 45.48C209.48 44.2427 209.171 42.76 209.171 41.032C209.171 39.24 209.502 37.7253 210.163 36.488C210.824 35.2507 211.71 34.312 212.819 33.672C213.928 33.0107 215.144 32.68 216.467 32.68C217.832 32.68 218.984 33.0533 219.923 33.8C220.862 34.5467 221.491 35.5173 221.811 36.712L221.427 37.064V25.8H224.851V49H221.811L221.555 44.648L222.003 44.68C221.854 45.64 221.502 46.472 220.947 47.176C220.392 47.8587 219.699 48.392 218.867 48.776C218.056 49.1387 217.182 49.32 216.243 49.32ZM216.979 46.568C217.896 46.568 218.686 46.3333 219.347 45.864C220.008 45.3947 220.52 44.7333 220.883 43.88C221.246 43.0267 221.427 42.0027 221.427 40.808C221.427 39.6987 221.246 38.7493 220.883 37.96C220.52 37.1493 220.008 36.5307 219.347 36.104C218.707 35.6773 217.96 35.464 217.107 35.464C215.678 35.464 214.568 35.9547 213.779 36.936C212.99 37.9173 212.595 39.272 212.595 41C212.595 42.728 212.979 44.0933 213.747 45.096C214.515 46.0773 215.592 46.568 216.979 46.568ZM234.418 49.32C233.372 49.32 232.402 49.128 231.506 48.744C230.631 48.36 229.927 47.7413 229.394 46.888C228.86 46.0347 228.594 44.9253 228.594 43.56V33H232.018V42.696C232.018 44.1467 232.327 45.1493 232.946 45.704C233.564 46.2373 234.428 46.504 235.538 46.504C236.071 46.504 236.583 46.4187 237.074 46.248C237.586 46.056 238.044 45.768 238.45 45.384C238.855 44.9787 239.164 44.4667 239.378 43.848C239.612 43.2293 239.73 42.504 239.73 41.672V33H243.154V49H240.146L239.986 46.408C239.431 47.4107 238.684 48.1467 237.746 48.616C236.807 49.0853 235.698 49.32 234.418 49.32ZM253.975 32.68C255.255 32.68 256.343 32.872 257.239 33.256C258.156 33.6187 258.924 34.1413 259.543 34.824C260.162 35.5067 260.631 36.2853 260.951 37.16L257.719 38.44C257.442 37.4587 256.994 36.712 256.375 36.2C255.778 35.6667 254.988 35.4 254.007 35.4C253.047 35.4 252.226 35.624 251.543 36.072C250.86 36.4987 250.338 37.128 249.975 37.96C249.634 38.792 249.463 39.816 249.463 41.032C249.463 42.2267 249.644 43.24 250.007 44.072C250.37 44.904 250.892 45.5333 251.575 45.96C252.258 46.3867 253.068 46.6 254.007 46.6C254.732 46.6 255.362 46.4827 255.895 46.248C256.428 45.992 256.866 45.64 257.207 45.192C257.57 44.7227 257.815 44.1573 257.943 43.496L261.047 44.552C260.748 45.512 260.279 46.3547 259.639 47.08C259.02 47.784 258.242 48.3387 257.303 48.744C256.364 49.128 255.287 49.32 254.071 49.32C252.492 49.32 251.095 48.9893 249.879 48.328C248.663 47.6667 247.714 46.7173 247.031 45.48C246.37 44.2213 246.039 42.728 246.039 41C246.039 39.272 246.37 37.7893 247.031 36.552C247.714 35.2933 248.652 34.3333 249.847 33.672C251.063 33.0107 252.439 32.68 253.975 32.68ZM268.264 28.296V44.2C268.264 44.9893 268.466 45.5653 268.872 45.928C269.298 46.2907 269.864 46.472 270.568 46.472C271.144 46.472 271.645 46.3867 272.072 46.216C272.498 46.024 272.893 45.768 273.256 45.448L274.024 47.944C273.533 48.3707 272.925 48.712 272.2 48.968C271.496 49.2027 270.706 49.32 269.832 49.32C268.914 49.32 268.072 49.1707 267.304 48.872C266.536 48.5733 265.938 48.0933 265.512 47.432C265.085 46.7493 264.861 45.864 264.84 44.776V29.256L268.264 28.296ZM273.768 33V35.688H261.768V33H273.768ZM281.794 49.32C280.194 49.32 278.733 49.0107 277.41 48.392C276.087 47.7733 275.042 46.8987 274.274 45.768L276.642 43.72C277.111 44.5947 277.783 45.2987 278.658 45.832C279.554 46.344 280.621 46.6 281.858 46.6C282.839 46.6 283.618 46.4293 284.194 46.088C284.77 45.7467 285.058 45.2667 285.058 44.648C285.058 44.2427 284.919 43.8907 284.642 43.592C284.386 43.272 283.885 43.0267 283.138 42.856L279.778 42.152C278.071 41.8107 276.855 41.2667 276.13 40.52C275.405 39.752 275.042 38.7813 275.042 37.608C275.042 36.7333 275.298 35.9227 275.81 35.176C276.322 34.4293 277.069 33.832 278.05 33.384C279.053 32.9147 280.247 32.68 281.634 32.68C283.234 32.68 284.599 32.968 285.73 33.544C286.861 34.0987 287.725 34.8987 288.322 35.944L285.954 37.928C285.549 37.0747 284.951 36.4453 284.162 36.04C283.373 35.6133 282.551 35.4 281.698 35.4C281.015 35.4 280.429 35.4853 279.938 35.656C279.447 35.8267 279.074 36.0613 278.818 36.36C278.562 36.6587 278.434 37.0107 278.434 37.416C278.434 37.8427 278.594 38.216 278.914 38.536C279.234 38.856 279.81 39.1013 280.642 39.272L284.29 40.04C285.826 40.3387 286.903 40.8507 287.522 41.576C288.162 42.28 288.482 43.144 288.482 44.168C288.482 45.192 288.215 46.0987 287.682 46.888C287.149 47.656 286.381 48.2533 285.378 48.68C284.375 49.1067 283.181 49.32 281.794 49.32Z" fill="#0C0C0C"/>
<defs>
<filter id="filter0_d_1415_103" x="10" y="9" width="310" height="65" filterUnits="userSpaceOnUse" color-interpolation-filters="sRGB">
<feFlood flood-opacity="0" result="BackgroundImageFix"/>
<feColorMatrix in="SourceAlpha" type="matrix" values="0 0 0 0 0 0 0 0 0 0 0 0 0 0 0 0 0 0 127 0" result="hardAlpha"/>
<feOffset dy="4"/>
<feGaussianBlur stdDeviation="2"/>
<feComposite in2="hardAlpha" operator="out"/>
<feColorMatrix type="matrix" values="0 0 0 0 0 0 0 0 0 0 0 0 0 0 0 0 0 0 0.25 0"/>
<feBlend mode="normal" in2="BackgroundImageFix" result="effect1_dropShadow_1415_103"/>
<feBlend mode="normal" in="SourceGraphic" in2="effect1_dropShadow_1415_103" result="shape"/>
</filter>
</defs>
</svg>
