<svg width="310" height="410" viewBox="0 0 310 410" fill="none" xmlns="http://www.w3.org/2000/svg">
<g filter="url(#filter0_di_1415_111)">
<rect x="5" y="1" width="300" height="400" fill="white"/>
<rect x="4.95" y="0.95" width="300.1" height="400.1" stroke="#757575" stroke-width="0.1"/>
</g>
<rect x="27" y="29" width="250" height="250" fill="#959191"/>
<path d="M28.88 374V360H34.64C35.88 360 36.94 360.2 37.82 360.6C38.7133 361 39.4 361.573 39.88 362.32C40.36 363.067 40.6 363.953 40.6 364.98C40.6 366.007 40.36 366.893 39.88 367.64C39.4 368.387 38.7133 368.96 37.82 369.36C36.94 369.76 35.88 369.96 34.64 369.96H30.32L31.48 368.74V374H28.88ZM31.48 369.02L30.32 367.76H34.52C35.6667 367.76 36.5267 367.52 37.1 367.04C37.6867 366.547 37.98 365.86 37.98 364.98C37.98 364.087 37.6867 363.4 37.1 362.92C36.5267 362.44 35.6667 362.2 34.52 362.2H30.32L31.48 360.92V369.02ZM45.9191 370.82V369.02L52.8191 360H55.5991L48.7991 369.02L47.4991 368.62H58.5991V370.82H45.9191ZM53.5991 374V370.82L53.6791 368.62V365.8H56.1191V374H53.5991ZM63.4156 359.8C64.6956 359.8 65.7823 360.073 66.6756 360.62C67.5823 361.153 68.2756 361.933 68.7556 362.96C69.2356 363.987 69.4756 365.253 69.4756 366.76C69.4756 368.36 69.1823 369.713 68.5956 370.82C68.0223 371.927 67.2223 372.767 66.1956 373.34C65.169 373.913 63.9756 374.2 62.6156 374.2C61.909 374.2 61.2356 374.127 60.5956 373.98C59.9556 373.833 59.4023 373.607 58.9356 373.3L59.8956 371.34C60.2823 371.593 60.7023 371.773 61.1556 371.88C61.609 371.973 62.0756 372.02 62.5556 372.02C63.8756 372.02 64.9223 371.613 65.6956 370.8C66.469 369.987 66.8556 368.787 66.8556 367.2C66.8556 366.947 66.849 366.653 66.8356 366.32C66.8223 365.973 66.7756 365.627 66.6956 365.28L67.4956 366.16C67.269 366.707 66.9423 367.167 66.5156 367.54C66.089 367.9 65.589 368.173 65.0156 368.36C64.4423 368.547 63.809 368.64 63.1156 368.64C62.209 368.64 61.389 368.467 60.6556 368.12C59.9356 367.76 59.3623 367.26 58.9356 366.62C58.509 365.967 58.2956 365.207 58.2956 364.34C58.2956 363.407 58.5223 362.607 58.9756 361.94C59.429 361.26 60.0423 360.733 60.8156 360.36C61.6023 359.987 62.469 359.8 63.4156 359.8ZM63.5556 361.84C63.0223 361.84 62.549 361.94 62.1356 362.14C61.7223 362.327 61.3956 362.6 61.1556 362.96C60.929 363.307 60.8156 363.727 60.8156 364.22C60.8156 364.953 61.069 365.533 61.5756 365.96C62.0823 366.387 62.7623 366.6 63.6156 366.6C64.1756 366.6 64.669 366.5 65.0956 366.3C65.5223 366.087 65.8556 365.8 66.0956 365.44C66.3356 365.067 66.4556 364.653 66.4556 364.2C66.4556 363.76 66.3423 363.367 66.1156 363.02C65.889 362.66 65.5623 362.373 65.1356 362.16C64.709 361.947 64.1823 361.84 63.5556 361.84ZM75.0547 359.8C76.3347 359.8 77.4214 360.073 78.3147 360.62C79.2214 361.153 79.9147 361.933 80.3947 362.96C80.8747 363.987 81.1147 365.253 81.1147 366.76C81.1147 368.36 80.8214 369.713 80.2347 370.82C79.6614 371.927 78.8614 372.767 77.8347 373.34C76.808 373.913 75.6147 374.2 74.2547 374.2C73.548 374.2 72.8747 374.127 72.2347 373.98C71.5947 373.833 71.0414 373.607 70.5747 373.3L71.5347 371.34C71.9214 371.593 72.3414 371.773 72.7947 371.88C73.248 371.973 73.7147 372.02 74.1947 372.02C75.5147 372.02 76.5614 371.613 77.3347 370.8C78.108 369.987 78.4947 368.787 78.4947 367.2C78.4947 366.947 78.488 366.653 78.4747 366.32C78.4614 365.973 78.4147 365.627 78.3347 365.28L79.1347 366.16C78.908 366.707 78.5814 367.167 78.1547 367.54C77.728 367.9 77.228 368.173 76.6547 368.36C76.0814 368.547 75.448 368.64 74.7547 368.64C73.848 368.64 73.028 368.467 72.2947 368.12C71.5747 367.76 71.0014 367.26 70.5747 366.62C70.148 365.967 69.9347 365.207 69.9347 364.34C69.9347 363.407 70.1614 362.607 70.6147 361.94C71.068 361.26 71.6814 360.733 72.4547 360.36C73.2414 359.987 74.108 359.8 75.0547 359.8ZM75.1947 361.84C74.6614 361.84 74.188 361.94 73.7747 362.14C73.3614 362.327 73.0347 362.6 72.7947 362.96C72.568 363.307 72.4547 363.727 72.4547 364.22C72.4547 364.953 72.708 365.533 73.2147 365.96C73.7214 366.387 74.4014 366.6 75.2547 366.6C75.8147 366.6 76.308 366.5 76.7347 366.3C77.1614 366.087 77.4947 365.8 77.7347 365.44C77.9747 365.067 78.0947 364.653 78.0947 364.2C78.0947 363.76 77.9814 363.367 77.7547 363.02C77.528 362.66 77.2014 362.373 76.7747 362.16C76.348 361.947 75.8214 361.84 75.1947 361.84ZM83.2994 374.14C82.846 374.14 82.4594 373.987 82.1394 373.68C81.8194 373.36 81.6594 372.96 81.6594 372.48C81.6594 371.973 81.8194 371.573 82.1394 371.28C82.4594 370.973 82.846 370.82 83.2994 370.82C83.7527 370.82 84.1394 370.973 84.4594 371.28C84.7794 371.573 84.9394 371.973 84.9394 372.48C84.9394 372.96 84.7794 373.36 84.4594 373.68C84.1394 373.987 83.7527 374.14 83.2994 374.14ZM91.3278 374.2C90.2211 374.2 89.2211 373.92 88.3278 373.36C87.4478 372.8 86.7545 371.987 86.2478 370.92C85.7411 369.84 85.4878 368.533 85.4878 367C85.4878 365.467 85.7411 364.167 86.2478 363.1C86.7545 362.02 87.4478 361.2 88.3278 360.64C89.2211 360.08 90.2211 359.8 91.3278 359.8C92.4478 359.8 93.4478 360.08 94.3278 360.64C95.2078 361.2 95.9011 362.02 96.4078 363.1C96.9278 364.167 97.1878 365.467 97.1878 367C97.1878 368.533 96.9278 369.84 96.4078 370.92C95.9011 371.987 95.2078 372.8 94.3278 373.36C93.4478 373.92 92.4478 374.2 91.3278 374.2ZM91.3278 371.94C91.9811 371.94 92.5478 371.767 93.0278 371.42C93.5078 371.06 93.8811 370.513 94.1478 369.78C94.4278 369.047 94.5678 368.12 94.5678 367C94.5678 365.867 94.4278 364.94 94.1478 364.22C93.8811 363.487 93.5078 362.947 93.0278 362.6C92.5478 362.24 91.9811 362.06 91.3278 362.06C90.7011 362.06 90.1411 362.24 89.6478 362.6C89.1678 362.947 88.7878 363.487 88.5078 364.22C88.2411 364.94 88.1078 365.867 88.1078 367C88.1078 368.12 88.2411 369.047 88.5078 369.78C88.7878 370.513 89.1678 371.06 89.6478 371.42C90.1411 371.767 90.7011 371.94 91.3278 371.94ZM103.885 374.2C102.778 374.2 101.778 373.92 100.885 373.36C100.005 372.8 99.3115 371.987 98.8048 370.92C98.2982 369.84 98.0448 368.533 98.0448 367C98.0448 365.467 98.2982 364.167 98.8048 363.1C99.3115 362.02 100.005 361.2 100.885 360.64C101.778 360.08 102.778 359.8 103.885 359.8C105.005 359.8 106.005 360.08 106.885 360.64C107.765 361.2 108.458 362.02 108.965 363.1C109.485 364.167 109.745 365.467 109.745 367C109.745 368.533 109.485 369.84 108.965 370.92C108.458 371.987 107.765 372.8 106.885 373.36C106.005 373.92 105.005 374.2 103.885 374.2ZM103.885 371.94C104.538 371.94 105.105 371.767 105.585 371.42C106.065 371.06 106.438 370.513 106.705 369.78C106.985 369.047 107.125 368.12 107.125 367C107.125 365.867 106.985 364.94 106.705 364.22C106.438 363.487 106.065 362.947 105.585 362.6C105.105 362.24 104.538 362.06 103.885 362.06C103.258 362.06 102.698 362.24 102.205 362.6C101.725 362.947 101.345 363.487 101.065 364.22C100.798 364.94 100.665 365.867 100.665 367C100.665 368.12 100.798 369.047 101.065 369.78C101.345 370.513 101.725 371.06 102.205 371.42C102.698 371.767 103.258 371.94 103.885 371.94Z" fill="#1C1C1C"/>
<path d="M28.71 334V323.5H32.64C33.53 323.5 34.295 323.645 34.935 323.935C35.575 324.215 36.065 324.625 36.405 325.165C36.755 325.695 36.93 326.34 36.93 327.1C36.93 327.84 36.755 328.48 36.405 329.02C36.065 329.55 35.575 329.96 34.935 330.25C34.295 330.54 33.53 330.685 32.64 330.685H29.325L29.82 330.16V334H28.71ZM29.82 330.25L29.325 329.71H32.61C33.66 329.71 34.455 329.485 34.995 329.035C35.545 328.575 35.82 327.93 35.82 327.1C35.82 326.26 35.545 325.61 34.995 325.15C34.455 324.69 33.66 324.46 32.61 324.46H29.325L29.82 323.935V330.25ZM41.5962 334.075C40.8362 334.075 40.1512 333.905 39.5412 333.565C38.9412 333.215 38.4662 332.74 38.1162 332.14C37.7662 331.53 37.5912 330.835 37.5912 330.055C37.5912 329.265 37.7662 328.57 38.1162 327.97C38.4662 327.37 38.9412 326.9 39.5412 326.56C40.1412 326.22 40.8262 326.05 41.5962 326.05C42.3762 326.05 43.0662 326.22 43.6662 326.56C44.2762 326.9 44.7512 327.37 45.0912 327.97C45.4412 328.57 45.6162 329.265 45.6162 330.055C45.6162 330.835 45.4412 331.53 45.0912 332.14C44.7512 332.74 44.2762 333.215 43.6662 333.565C43.0562 333.905 42.3662 334.075 41.5962 334.075ZM41.5962 333.13C42.1662 333.13 42.6712 333.005 43.1112 332.755C43.5512 332.495 43.8962 332.135 44.1462 331.675C44.4062 331.205 44.5362 330.665 44.5362 330.055C44.5362 329.435 44.4062 328.895 44.1462 328.435C43.8962 327.975 43.5512 327.62 43.1112 327.37C42.6712 327.11 42.1712 326.98 41.6112 326.98C41.0512 326.98 40.5512 327.11 40.1112 327.37C39.6712 327.62 39.3212 327.975 39.0612 328.435C38.8012 328.895 38.6712 329.435 38.6712 330.055C38.6712 330.665 38.8012 331.205 39.0612 331.675C39.3212 332.135 39.6712 332.495 40.1112 332.755C40.5512 333.005 41.0462 333.13 41.5962 333.13ZM49.6055 334.075C48.8655 334.075 48.2955 333.875 47.8955 333.475C47.4955 333.075 47.2955 332.51 47.2955 331.78V324.385H48.3605V331.72C48.3605 332.18 48.4755 332.535 48.7055 332.785C48.9455 333.035 49.2855 333.16 49.7255 333.16C50.1955 333.16 50.5855 333.025 50.8955 332.755L51.2705 333.52C51.0605 333.71 50.8055 333.85 50.5055 333.94C50.2155 334.03 49.9155 334.075 49.6055 334.075ZM45.8855 327.01V326.125H50.7605V327.01H45.8855ZM55.6009 334.075C54.7809 334.075 54.0609 333.905 53.4409 333.565C52.8209 333.215 52.3359 332.74 51.9859 332.14C51.6359 331.53 51.4609 330.835 51.4609 330.055C51.4609 329.275 51.6259 328.585 51.9559 327.985C52.2959 327.385 52.7559 326.915 53.3359 326.575C53.9259 326.225 54.5859 326.05 55.3159 326.05C56.0559 326.05 56.7109 326.22 57.2809 326.56C57.8609 326.89 58.3159 327.36 58.6459 327.97C58.9759 328.57 59.1409 329.265 59.1409 330.055C59.1409 330.105 59.1359 330.16 59.1259 330.22C59.1259 330.27 59.1259 330.325 59.1259 330.385H52.2709V329.59H58.5559L58.1359 329.905C58.1359 329.335 58.0109 328.83 57.7609 328.39C57.5209 327.94 57.1909 327.59 56.7709 327.34C56.3509 327.09 55.8659 326.965 55.3159 326.965C54.7759 326.965 54.2909 327.09 53.8609 327.34C53.4309 327.59 53.0959 327.94 52.8559 328.39C52.6159 328.84 52.4959 329.355 52.4959 329.935V330.1C52.4959 330.7 52.6259 331.23 52.8859 331.69C53.1559 332.14 53.5259 332.495 53.9959 332.755C54.4759 333.005 55.0209 333.13 55.6309 333.13C56.1109 333.13 56.5559 333.045 56.9659 332.875C57.3859 332.705 57.7459 332.445 58.0459 332.095L58.6459 332.785C58.2959 333.205 57.8559 333.525 57.3259 333.745C56.8059 333.965 56.2309 334.075 55.6009 334.075ZM64.6536 326.05C65.2936 326.05 65.8536 326.175 66.3336 326.425C66.8236 326.665 67.2036 327.035 67.4736 327.535C67.7536 328.035 67.8936 328.665 67.8936 329.425V334H66.8286V329.53C66.8286 328.7 66.6186 328.075 66.1986 327.655C65.7886 327.225 65.2086 327.01 64.4586 327.01C63.8986 327.01 63.4086 327.125 62.9886 327.355C62.5786 327.575 62.2586 327.9 62.0286 328.33C61.8086 328.75 61.6986 329.26 61.6986 329.86V334H60.6336V326.125H61.6536V328.285L61.4886 327.88C61.7386 327.31 62.1386 326.865 62.6886 326.545C63.2386 326.215 63.8936 326.05 64.6536 326.05ZM72.5854 334.075C71.8454 334.075 71.2754 333.875 70.8754 333.475C70.4754 333.075 70.2754 332.51 70.2754 331.78V324.385H71.3404V331.72C71.3404 332.18 71.4554 332.535 71.6854 332.785C71.9254 333.035 72.2654 333.16 72.7054 333.16C73.1754 333.16 73.5654 333.025 73.8754 332.755L74.2504 333.52C74.0404 333.71 73.7854 333.85 73.4854 333.94C73.1954 334.03 72.8954 334.075 72.5854 334.075ZM68.8654 327.01V326.125H73.7404V327.01H68.8654ZM75.5141 334V326.125H76.5791V334H75.5141ZM76.0541 324.385C75.8341 324.385 75.6491 324.31 75.4991 324.16C75.3491 324.01 75.2741 323.83 75.2741 323.62C75.2741 323.41 75.3491 323.235 75.4991 323.095C75.6491 322.945 75.8341 322.87 76.0541 322.87C76.2741 322.87 76.4591 322.94 76.6091 323.08C76.7591 323.22 76.8341 323.395 76.8341 323.605C76.8341 323.825 76.7591 324.01 76.6091 324.16C76.4691 324.31 76.2841 324.385 76.0541 324.385ZM86.1382 326.05C86.7782 326.05 87.3382 326.175 87.8182 326.425C88.3082 326.665 88.6882 327.035 88.9582 327.535C89.2382 328.035 89.3782 328.665 89.3782 329.425V334H88.3132V329.53C88.3132 328.7 88.1032 328.075 87.6832 327.655C87.2732 327.225 86.6932 327.01 85.9432 327.01C85.3832 327.01 84.8932 327.125 84.4732 327.355C84.0632 327.575 83.7432 327.9 83.5132 328.33C83.2932 328.75 83.1832 329.26 83.1832 329.86V334H82.1182V326.125H83.1382V328.285L82.9732 327.88C83.2232 327.31 83.6232 326.865 84.1732 326.545C84.7232 326.215 85.3782 326.05 86.1382 326.05ZM94.8349 334.075C94.1649 334.075 93.5799 333.95 93.0799 333.7C92.5799 333.45 92.1899 333.075 91.9099 332.575C91.6399 332.075 91.5049 331.45 91.5049 330.7V326.125H92.5699V330.58C92.5699 331.42 92.7749 332.055 93.1849 332.485C93.6049 332.905 94.1899 333.115 94.9399 333.115C95.4899 333.115 95.9649 333.005 96.3649 332.785C96.7749 332.555 97.0849 332.225 97.2949 331.795C97.5149 331.365 97.6249 330.85 97.6249 330.25V326.125H98.6899V334H97.6699V331.84L97.8349 332.23C97.5849 332.81 97.1949 333.265 96.6649 333.595C96.1449 333.915 95.5349 334.075 94.8349 334.075ZM100.983 334V322.87H102.048V334H100.983ZM104.336 334V322.87H105.401V334H104.336ZM112.625 334V332.26L112.58 331.975V329.065C112.58 328.395 112.39 327.88 112.01 327.52C111.64 327.16 111.085 326.98 110.345 326.98C109.835 326.98 109.35 327.065 108.89 327.235C108.43 327.405 108.04 327.63 107.72 327.91L107.24 327.115C107.64 326.775 108.12 326.515 108.68 326.335C109.24 326.145 109.83 326.05 110.45 326.05C111.47 326.05 112.255 326.305 112.805 326.815C113.365 327.315 113.645 328.08 113.645 329.11V334H112.625ZM109.91 334.075C109.32 334.075 108.805 333.98 108.365 333.79C107.935 333.59 107.605 333.32 107.375 332.98C107.145 332.63 107.03 332.23 107.03 331.78C107.03 331.37 107.125 331 107.315 330.67C107.515 330.33 107.835 330.06 108.275 329.86C108.725 329.65 109.325 329.545 110.075 329.545H112.79V330.34H110.105C109.345 330.34 108.815 330.475 108.515 330.745C108.225 331.015 108.08 331.35 108.08 331.75C108.08 332.2 108.255 332.56 108.605 332.83C108.955 333.1 109.445 333.235 110.075 333.235C110.675 333.235 111.19 333.1 111.62 332.83C112.06 332.55 112.38 332.15 112.58 331.63L112.82 332.365C112.62 332.885 112.27 333.3 111.77 333.61C111.28 333.92 110.66 334.075 109.91 334.075ZM125.702 326.05C126.342 326.05 126.897 326.175 127.367 326.425C127.847 326.665 128.217 327.035 128.477 327.535C128.747 328.035 128.882 328.665 128.882 329.425V334H127.817V329.53C127.817 328.7 127.617 328.075 127.217 327.655C126.827 327.225 126.272 327.01 125.552 327.01C125.012 327.01 124.542 327.125 124.142 327.355C123.752 327.575 123.447 327.9 123.227 328.33C123.017 328.75 122.912 329.26 122.912 329.86V334H121.847V329.53C121.847 328.7 121.647 328.075 121.247 327.655C120.847 327.225 120.287 327.01 119.567 327.01C119.037 327.01 118.572 327.125 118.172 327.355C117.772 327.575 117.462 327.9 117.242 328.33C117.032 328.75 116.927 329.26 116.927 329.86V334H115.862V326.125H116.882V328.255L116.717 327.88C116.957 327.31 117.342 326.865 117.872 326.545C118.412 326.215 119.047 326.05 119.777 326.05C120.547 326.05 121.202 326.245 121.742 326.635C122.282 327.015 122.632 327.59 122.792 328.36L122.372 328.195C122.602 327.555 123.007 327.04 123.587 326.65C124.177 326.25 124.882 326.05 125.702 326.05ZM139.281 334V332.26L139.236 331.975V329.065C139.236 328.395 139.046 327.88 138.666 327.52C138.296 327.16 137.741 326.98 137.001 326.98C136.491 326.98 136.006 327.065 135.546 327.235C135.086 327.405 134.696 327.63 134.376 327.91L133.896 327.115C134.296 326.775 134.776 326.515 135.336 326.335C135.896 326.145 136.486 326.05 137.106 326.05C138.126 326.05 138.911 326.305 139.461 326.815C140.021 327.315 140.301 328.08 140.301 329.11V334H139.281ZM136.566 334.075C135.976 334.075 135.461 333.98 135.021 333.79C134.591 333.59 134.261 333.32 134.031 332.98C133.801 332.63 133.686 332.23 133.686 331.78C133.686 331.37 133.781 331 133.971 330.67C134.171 330.33 134.491 330.06 134.931 329.86C135.381 329.65 135.981 329.545 136.731 329.545H139.446V330.34H136.761C136.001 330.34 135.471 330.475 135.171 330.745C134.881 331.015 134.736 331.35 134.736 331.75C134.736 332.2 134.911 332.56 135.261 332.83C135.611 333.1 136.101 333.235 136.731 333.235C137.331 333.235 137.846 333.1 138.276 332.83C138.716 332.55 139.036 332.15 139.236 331.63L139.476 332.365C139.276 332.885 138.926 333.3 138.426 333.61C137.936 333.92 137.316 334.075 136.566 334.075ZM145.789 334.075C145.009 334.075 144.309 333.905 143.689 333.565C143.079 333.215 142.599 332.74 142.249 332.14C141.899 331.53 141.724 330.835 141.724 330.055C141.724 329.265 141.899 328.57 142.249 327.97C142.599 327.37 143.079 326.9 143.689 326.56C144.309 326.22 145.009 326.05 145.789 326.05C146.459 326.05 147.064 326.18 147.604 326.44C148.144 326.7 148.569 327.09 148.879 327.61L148.084 328.15C147.814 327.75 147.479 327.455 147.079 327.265C146.679 327.075 146.244 326.98 145.774 326.98C145.214 326.98 144.709 327.11 144.259 327.37C143.809 327.62 143.454 327.975 143.194 328.435C142.934 328.895 142.804 329.435 142.804 330.055C142.804 330.675 142.934 331.215 143.194 331.675C143.454 332.135 143.809 332.495 144.259 332.755C144.709 333.005 145.214 333.13 145.774 333.13C146.244 333.13 146.679 333.035 147.079 332.845C147.479 332.655 147.814 332.365 148.084 331.975L148.879 332.515C148.569 333.025 148.144 333.415 147.604 333.685C147.064 333.945 146.459 334.075 145.789 334.075ZM156.037 334.075C155.297 334.075 154.727 333.875 154.327 333.475C153.927 333.075 153.727 332.51 153.727 331.78V324.385H154.792V331.72C154.792 332.18 154.907 332.535 155.137 332.785C155.377 333.035 155.717 333.16 156.157 333.16C156.627 333.16 157.017 333.025 157.327 332.755L157.702 333.52C157.492 333.71 157.237 333.85 156.937 333.94C156.647 334.03 156.347 334.075 156.037 334.075ZM152.317 327.01V326.125H157.192V327.01H152.317ZM161.897 334.075C161.137 334.075 160.452 333.905 159.842 333.565C159.242 333.215 158.767 332.74 158.417 332.14C158.067 331.53 157.892 330.835 157.892 330.055C157.892 329.265 158.067 328.57 158.417 327.97C158.767 327.37 159.242 326.9 159.842 326.56C160.442 326.22 161.127 326.05 161.897 326.05C162.677 326.05 163.367 326.22 163.967 326.56C164.577 326.9 165.052 327.37 165.392 327.97C165.742 328.57 165.917 329.265 165.917 330.055C165.917 330.835 165.742 331.53 165.392 332.14C165.052 332.74 164.577 333.215 163.967 333.565C163.357 333.905 162.667 334.075 161.897 334.075ZM161.897 333.13C162.467 333.13 162.972 333.005 163.412 332.755C163.852 332.495 164.197 332.135 164.447 331.675C164.707 331.205 164.837 330.665 164.837 330.055C164.837 329.435 164.707 328.895 164.447 328.435C164.197 327.975 163.852 327.62 163.412 327.37C162.972 327.11 162.472 326.98 161.912 326.98C161.352 326.98 160.852 327.11 160.412 327.37C159.972 327.62 159.622 327.975 159.362 328.435C159.102 328.895 158.972 329.435 158.972 330.055C158.972 330.665 159.102 331.205 159.362 331.675C159.622 332.135 159.972 332.495 160.412 332.755C160.852 333.005 161.347 333.13 161.897 333.13ZM167.417 334V326.125H168.437V328.27L168.332 327.895C168.552 327.295 168.922 326.84 169.442 326.53C169.962 326.21 170.607 326.05 171.377 326.05V327.085C171.337 327.085 171.297 327.085 171.257 327.085C171.217 327.075 171.177 327.07 171.137 327.07C170.307 327.07 169.657 327.325 169.187 327.835C168.717 328.335 168.482 329.05 168.482 329.98V334H167.417ZM175.472 334.075C174.732 334.075 174.162 333.875 173.762 333.475C173.362 333.075 173.162 332.51 173.162 331.78V324.385H174.227V331.72C174.227 332.18 174.342 332.535 174.572 332.785C174.812 333.035 175.152 333.16 175.592 333.16C176.062 333.16 176.452 333.025 176.762 332.755L177.137 333.52C176.927 333.71 176.672 333.85 176.372 333.94C176.082 334.03 175.782 334.075 175.472 334.075ZM171.752 327.01V326.125H176.627V327.01H171.752ZM181.332 334.075C180.572 334.075 179.887 333.905 179.277 333.565C178.677 333.215 178.202 332.74 177.852 332.14C177.502 331.53 177.327 330.835 177.327 330.055C177.327 329.265 177.502 328.57 177.852 327.97C178.202 327.37 178.677 326.9 179.277 326.56C179.877 326.22 180.562 326.05 181.332 326.05C182.112 326.05 182.802 326.22 183.402 326.56C184.012 326.9 184.487 327.37 184.827 327.97C185.177 328.57 185.352 329.265 185.352 330.055C185.352 330.835 185.177 331.53 184.827 332.14C184.487 332.74 184.012 333.215 183.402 333.565C182.792 333.905 182.102 334.075 181.332 334.075ZM181.332 333.13C181.902 333.13 182.407 333.005 182.847 332.755C183.287 332.495 183.632 332.135 183.882 331.675C184.142 331.205 184.272 330.665 184.272 330.055C184.272 329.435 184.142 328.895 183.882 328.435C183.632 327.975 183.287 327.62 182.847 327.37C182.407 327.11 181.907 326.98 181.347 326.98C180.787 326.98 180.287 327.11 179.847 327.37C179.407 327.62 179.057 327.975 178.797 328.435C178.537 328.895 178.407 329.435 178.407 330.055C178.407 330.665 178.537 331.205 178.797 331.675C179.057 332.135 179.407 332.495 179.847 332.755C180.287 333.005 180.782 333.13 181.332 333.13ZM186.852 334V326.125H187.872V328.27L187.767 327.895C187.987 327.295 188.357 326.84 188.877 326.53C189.397 326.21 190.042 326.05 190.812 326.05V327.085C190.772 327.085 190.732 327.085 190.692 327.085C190.652 327.075 190.612 327.07 190.572 327.07C189.742 327.07 189.092 327.325 188.622 327.835C188.152 328.335 187.917 329.05 187.917 329.98V334H186.852ZM197.473 334L193.978 326.125H195.088L198.298 333.43H197.773L201.028 326.125H202.078L198.568 334H197.473ZM202.903 334V326.125H203.968V334H202.903ZM203.443 324.385C203.223 324.385 203.038 324.31 202.888 324.16C202.738 324.01 202.663 323.83 202.663 323.62C202.663 323.41 202.738 323.235 202.888 323.095C203.038 322.945 203.223 322.87 203.443 322.87C203.663 322.87 203.848 322.94 203.998 323.08C204.148 323.22 204.223 323.395 204.223 323.605C204.223 323.825 204.148 324.01 203.998 324.16C203.858 324.31 203.673 324.385 203.443 324.385ZM208.746 334.075C208.006 334.075 207.436 333.875 207.036 333.475C206.636 333.075 206.436 332.51 206.436 331.78V324.385H207.501V331.72C207.501 332.18 207.616 332.535 207.846 332.785C208.086 333.035 208.426 333.16 208.866 333.16C209.336 333.16 209.726 333.025 210.036 332.755L210.411 333.52C210.201 333.71 209.946 333.85 209.646 333.94C209.356 334.03 209.056 334.075 208.746 334.075ZM205.026 327.01V326.125H209.901V327.01H205.026ZM216.61 334V332.26L216.565 331.975V329.065C216.565 328.395 216.375 327.88 215.995 327.52C215.625 327.16 215.07 326.98 214.33 326.98C213.82 326.98 213.335 327.065 212.875 327.235C212.415 327.405 212.025 327.63 211.705 327.91L211.225 327.115C211.625 326.775 212.105 326.515 212.665 326.335C213.225 326.145 213.815 326.05 214.435 326.05C215.455 326.05 216.24 326.305 216.79 326.815C217.35 327.315 217.63 328.08 217.63 329.11V334H216.61ZM213.895 334.075C213.305 334.075 212.79 333.98 212.35 333.79C211.92 333.59 211.59 333.32 211.36 332.98C211.13 332.63 211.015 332.23 211.015 331.78C211.015 331.37 211.11 331 211.3 330.67C211.5 330.33 211.82 330.06 212.26 329.86C212.71 329.65 213.31 329.545 214.06 329.545H216.775V330.34H214.09C213.33 330.34 212.8 330.475 212.5 330.745C212.21 331.015 212.065 331.35 212.065 331.75C212.065 332.2 212.24 332.56 212.59 332.83C212.94 333.1 213.43 333.235 214.06 333.235C214.66 333.235 215.175 333.1 215.605 332.83C216.045 332.55 216.365 332.15 216.565 331.63L216.805 332.365C216.605 332.885 216.255 333.3 215.755 333.61C215.265 333.92 214.645 334.075 213.895 334.075ZM223.193 334.075C222.373 334.075 221.653 333.905 221.033 333.565C220.413 333.215 219.928 332.74 219.578 332.14C219.228 331.53 219.053 330.835 219.053 330.055C219.053 329.275 219.218 328.585 219.548 327.985C219.888 327.385 220.348 326.915 220.928 326.575C221.518 326.225 222.178 326.05 222.908 326.05C223.648 326.05 224.303 326.22 224.873 326.56C225.453 326.89 225.908 327.36 226.238 327.97C226.568 328.57 226.733 329.265 226.733 330.055C226.733 330.105 226.728 330.16 226.718 330.22C226.718 330.27 226.718 330.325 226.718 330.385H219.863V329.59H226.148L225.728 329.905C225.728 329.335 225.603 328.83 225.353 328.39C225.113 327.94 224.783 327.59 224.363 327.34C223.943 327.09 223.458 326.965 222.908 326.965C222.368 326.965 221.883 327.09 221.453 327.34C221.023 327.59 220.688 327.94 220.448 328.39C220.208 328.84 220.088 329.355 220.088 329.935V330.1C220.088 330.7 220.218 331.23 220.478 331.69C220.748 332.14 221.118 332.495 221.588 332.755C222.068 333.005 222.613 333.13 223.223 333.13C223.703 333.13 224.148 333.045 224.558 332.875C224.978 332.705 225.338 332.445 225.638 332.095L226.238 332.785C225.888 333.205 225.448 333.525 224.918 333.745C224.398 333.965 223.823 334.075 223.193 334.075ZM235.541 334.075C234.861 334.075 234.246 333.92 233.696 333.61C233.146 333.29 232.706 332.835 232.376 332.245C232.056 331.645 231.896 330.915 231.896 330.055C231.896 329.195 232.056 328.47 232.376 327.88C232.696 327.28 233.131 326.825 233.681 326.515C234.231 326.205 234.851 326.05 235.541 326.05C236.291 326.05 236.961 326.22 237.551 326.56C238.151 326.89 238.621 327.36 238.961 327.97C239.301 328.57 239.471 329.265 239.471 330.055C239.471 330.855 239.301 331.555 238.961 332.155C238.621 332.755 238.151 333.225 237.551 333.565C236.961 333.905 236.291 334.075 235.541 334.075ZM231.476 336.91V326.125H232.496V328.495L232.391 330.07L232.541 331.66V336.91H231.476ZM235.466 333.13C236.026 333.13 236.526 333.005 236.966 332.755C237.406 332.495 237.756 332.135 238.016 331.675C238.276 331.205 238.406 330.665 238.406 330.055C238.406 329.445 238.276 328.91 238.016 328.45C237.756 327.99 237.406 327.63 236.966 327.37C236.526 327.11 236.026 326.98 235.466 326.98C234.906 326.98 234.401 327.11 233.951 327.37C233.511 327.63 233.161 327.99 232.901 328.45C232.651 328.91 232.526 329.445 232.526 330.055C232.526 330.665 232.651 331.205 232.901 331.675C233.161 332.135 233.511 332.495 233.951 332.755C234.401 333.005 234.906 333.13 235.466 333.13ZM244.222 334.075C243.552 334.075 242.967 333.95 242.467 333.7C241.967 333.45 241.577 333.075 241.297 332.575C241.027 332.075 240.892 331.45 240.892 330.7V326.125H241.957V330.58C241.957 331.42 242.162 332.055 242.572 332.485C242.992 332.905 243.577 333.115 244.327 333.115C244.877 333.115 245.352 333.005 245.752 332.785C246.162 332.555 246.472 332.225 246.682 331.795C246.902 331.365 247.012 330.85 247.012 330.25V326.125H248.077V334H247.057V331.84L247.222 332.23C246.972 332.81 246.582 333.265 246.052 333.595C245.532 333.915 244.922 334.075 244.222 334.075ZM250.37 334V326.125H251.39V328.27L251.285 327.895C251.505 327.295 251.875 326.84 252.395 326.53C252.915 326.21 253.56 326.05 254.33 326.05V327.085C254.29 327.085 254.25 327.085 254.21 327.085C254.17 327.075 254.13 327.07 254.09 327.07C253.26 327.07 252.61 327.325 252.14 327.835C251.67 328.335 251.435 329.05 251.435 329.98V334H250.37ZM258.971 334.075C258.301 334.075 257.716 333.95 257.216 333.7C256.716 333.45 256.326 333.075 256.046 332.575C255.776 332.075 255.641 331.45 255.641 330.7V326.125H256.706V330.58C256.706 331.42 256.911 332.055 257.321 332.485C257.741 332.905 258.326 333.115 259.076 333.115C259.626 333.115 260.101 333.005 260.501 332.785C260.911 332.555 261.221 332.225 261.431 331.795C261.651 331.365 261.761 330.85 261.761 330.25V326.125H262.826V334H261.806V331.84L261.971 332.23C261.721 332.81 261.331 333.265 260.801 333.595C260.281 333.915 259.671 334.075 258.971 334.075ZM267.234 334.075C266.584 334.075 265.969 333.985 265.389 333.805C264.809 333.615 264.354 333.38 264.024 333.1L264.504 332.26C264.824 332.5 265.234 332.71 265.734 332.89C266.234 333.06 266.759 333.145 267.309 333.145C268.059 333.145 268.599 333.03 268.929 332.8C269.259 332.56 269.424 332.245 269.424 331.855C269.424 331.565 269.329 331.34 269.139 331.18C268.959 331.01 268.719 330.885 268.419 330.805C268.119 330.715 267.784 330.64 267.414 330.58C267.044 330.52 266.674 330.45 266.304 330.37C265.944 330.29 265.614 330.175 265.314 330.025C265.014 329.865 264.769 329.65 264.579 329.38C264.399 329.11 264.309 328.75 264.309 328.3C264.309 327.87 264.429 327.485 264.669 327.145C264.909 326.805 265.259 326.54 265.719 326.35C266.189 326.15 266.759 326.05 267.429 326.05C267.939 326.05 268.449 326.12 268.959 326.26C269.469 326.39 269.889 326.565 270.219 326.785L269.754 327.64C269.404 327.4 269.029 327.23 268.629 327.13C268.229 327.02 267.829 326.965 267.429 326.965C266.719 326.965 266.194 327.09 265.854 327.34C265.524 327.58 265.359 327.89 265.359 328.27C265.359 328.57 265.449 328.805 265.629 328.975C265.819 329.145 266.064 329.28 266.364 329.38C266.674 329.47 267.009 329.545 267.369 329.605C267.739 329.665 268.104 329.74 268.464 329.83C268.834 329.91 269.169 330.025 269.469 330.175C269.779 330.315 270.024 330.52 270.204 330.79C270.394 331.05 270.489 331.395 270.489 331.825C270.489 332.285 270.359 332.685 270.099 333.025C269.849 333.355 269.479 333.615 268.989 333.805C268.509 333.985 267.924 334.075 267.234 334.075ZM271.873 334.075C271.653 334.075 271.463 333.995 271.303 333.835C271.153 333.675 271.078 333.48 271.078 333.25C271.078 333.01 271.153 332.815 271.303 332.665C271.463 332.515 271.653 332.44 271.873 332.44C272.093 332.44 272.278 332.515 272.428 332.665C272.588 332.815 272.668 333.01 272.668 333.25C272.668 333.48 272.588 333.675 272.428 333.835C272.278 333.995 272.093 334.075 271.873 334.075Z" fill="black"/>
<path d="M28.245 308V297.5H30.255L34.725 304.91H33.66L38.055 297.5H40.05L40.08 308H37.8L37.785 300.995H38.205L34.695 306.89H33.6L30.015 300.995H30.525V308H28.245ZM40.5162 308L45.1962 297.5H47.5962L52.2912 308H49.7412L45.9012 298.73H46.8612L43.0062 308H40.5162ZM42.8562 305.75L43.5012 303.905H48.9012L49.5612 305.75H42.8562ZM52.7055 308V297.5H57.2505C58.1905 297.5 59.0005 297.655 59.6805 297.965C60.3605 298.265 60.8855 298.7 61.2555 299.27C61.6255 299.84 61.8105 300.52 61.8105 301.31C61.8105 302.09 61.6255 302.765 61.2555 303.335C60.8855 303.895 60.3605 304.325 59.6805 304.625C59.0005 304.925 58.1905 305.075 57.2505 305.075H54.0555L55.1355 304.01V308H52.7055ZM59.3805 308L56.7555 304.19H59.3505L62.0055 308H59.3805ZM55.1355 304.28L54.0555 303.14H57.1155C57.8655 303.14 58.4255 302.98 58.7955 302.66C59.1655 302.33 59.3505 301.88 59.3505 301.31C59.3505 300.73 59.1655 300.28 58.7955 299.96C58.4255 299.64 57.8655 299.48 57.1155 299.48H54.0555L55.1355 298.325V304.28ZM63.0608 308V297.5H68.1908C69.5108 297.5 70.5008 297.75 71.1608 298.25C71.8308 298.75 72.1658 299.41 72.1658 300.23C72.1658 300.78 72.0308 301.26 71.7608 301.67C71.4908 302.07 71.1208 302.38 70.6508 302.6C70.1808 302.82 69.6408 302.93 69.0308 302.93L69.3158 302.315C69.9758 302.315 70.5608 302.425 71.0708 302.645C71.5808 302.855 71.9758 303.17 72.2558 303.59C72.5458 304.01 72.6908 304.525 72.6908 305.135C72.6908 306.035 72.3358 306.74 71.6258 307.25C70.9158 307.75 69.8708 308 68.4908 308H63.0608ZM65.4758 306.17H68.3108C68.9408 306.17 69.4158 306.07 69.7358 305.87C70.0658 305.66 70.2308 305.33 70.2308 304.88C70.2308 304.44 70.0658 304.115 69.7358 303.905C69.4158 303.685 68.9408 303.575 68.3108 303.575H65.2958V301.805H67.8908C68.4808 301.805 68.9308 301.705 69.2408 301.505C69.5608 301.295 69.7208 300.98 69.7208 300.56C69.7208 300.15 69.5608 299.845 69.2408 299.645C68.9308 299.435 68.4808 299.33 67.8908 299.33H65.4758V306.17ZM73.8555 308V297.5H76.2855V306.02H81.5505V308H73.8555ZM84.4683 301.73H89.5233V303.62H84.4683V301.73ZM84.6483 306.05H90.3633V308H82.2333V297.5H90.1683V299.45H84.6483V306.05ZM95.1948 308V297.5H97.6248V306.02H102.89V308H95.1948ZM108.497 308.18C107.667 308.18 106.897 308.045 106.187 307.775C105.487 307.505 104.877 307.125 104.357 306.635C103.847 306.145 103.447 305.57 103.157 304.91C102.877 304.25 102.737 303.53 102.737 302.75C102.737 301.97 102.877 301.25 103.157 300.59C103.447 299.93 103.852 299.355 104.372 298.865C104.892 298.375 105.502 297.995 106.202 297.725C106.902 297.455 107.662 297.32 108.482 297.32C109.312 297.32 110.072 297.455 110.762 297.725C111.462 297.995 112.067 298.375 112.577 298.865C113.097 299.355 113.502 299.93 113.792 300.59C114.082 301.24 114.227 301.96 114.227 302.75C114.227 303.53 114.082 304.255 113.792 304.925C113.502 305.585 113.097 306.16 112.577 306.65C112.067 307.13 111.462 307.505 110.762 307.775C110.072 308.045 109.317 308.18 108.497 308.18ZM108.482 306.11C108.952 306.11 109.382 306.03 109.772 305.87C110.172 305.71 110.522 305.48 110.822 305.18C111.122 304.88 111.352 304.525 111.512 304.115C111.682 303.705 111.767 303.25 111.767 302.75C111.767 302.25 111.682 301.795 111.512 301.385C111.352 300.975 111.122 300.62 110.822 300.32C110.532 300.02 110.187 299.79 109.787 299.63C109.387 299.47 108.952 299.39 108.482 299.39C108.012 299.39 107.577 299.47 107.177 299.63C106.787 299.79 106.442 300.02 106.142 300.32C105.842 300.62 105.607 300.975 105.437 301.385C105.277 301.795 105.197 302.25 105.197 302.75C105.197 303.24 105.277 303.695 105.437 304.115C105.607 304.525 105.837 304.88 106.127 305.18C106.427 305.48 106.777 305.71 107.177 305.87C107.577 306.03 108.012 306.11 108.482 306.11ZM120.478 308.18C119.648 308.18 118.878 308.045 118.168 307.775C117.468 307.505 116.858 307.125 116.338 306.635C115.828 306.145 115.428 305.57 115.138 304.91C114.858 304.25 114.718 303.53 114.718 302.75C114.718 301.97 114.858 301.25 115.138 300.59C115.428 299.93 115.833 299.355 116.353 298.865C116.873 298.375 117.483 297.995 118.183 297.725C118.883 297.455 119.643 297.32 120.463 297.32C121.293 297.32 122.053 297.455 122.743 297.725C123.443 297.995 124.048 298.375 124.558 298.865C125.078 299.355 125.483 299.93 125.773 300.59C126.063 301.24 126.208 301.96 126.208 302.75C126.208 303.53 126.063 304.255 125.773 304.925C125.483 305.585 125.078 306.16 124.558 306.65C124.048 307.13 123.443 307.505 122.743 307.775C122.053 308.045 121.298 308.18 120.478 308.18ZM120.463 306.11C120.933 306.11 121.363 306.03 121.753 305.87C122.153 305.71 122.503 305.48 122.803 305.18C123.103 304.88 123.333 304.525 123.493 304.115C123.663 303.705 123.748 303.25 123.748 302.75C123.748 302.25 123.663 301.795 123.493 301.385C123.333 300.975 123.103 300.62 122.803 300.32C122.513 300.02 122.168 299.79 121.768 299.63C121.368 299.47 120.933 299.39 120.463 299.39C119.993 299.39 119.558 299.47 119.158 299.63C118.768 299.79 118.423 300.02 118.123 300.32C117.823 300.62 117.588 300.975 117.418 301.385C117.258 301.795 117.178 302.25 117.178 302.75C117.178 303.24 117.258 303.695 117.418 304.115C117.588 304.525 117.818 304.88 118.108 305.18C118.408 305.48 118.758 305.71 119.158 305.87C119.558 306.03 119.993 306.11 120.463 306.11ZM129.534 305.6L129.399 302.795L134.424 297.5H137.124L132.594 302.375L131.244 303.815L129.534 305.6ZM127.359 308V297.5H129.774V308H127.359ZM134.544 308L130.809 303.425L132.399 301.7L137.379 308H134.544ZM143.536 308V299.48H140.176V297.5H149.326V299.48H145.966V308H143.536ZM149.958 308V297.5H152.388V308H149.958ZM154.205 308V297.5H156.635V306.02H161.9V308H154.205ZM164.818 301.73H169.873V303.62H164.818V301.73ZM164.998 306.05H170.713V308H162.583V297.5H170.518V299.45H164.998V306.05ZM175.421 308.18C174.581 308.18 173.776 308.07 173.006 307.85C172.236 307.62 171.616 307.325 171.146 306.965L171.971 305.135C172.421 305.455 172.951 305.72 173.561 305.93C174.181 306.13 174.806 306.23 175.436 306.23C175.916 306.23 176.301 306.185 176.591 306.095C176.891 305.995 177.111 305.86 177.251 305.69C177.391 305.52 177.461 305.325 177.461 305.105C177.461 304.825 177.351 304.605 177.131 304.445C176.911 304.275 176.621 304.14 176.261 304.04C175.901 303.93 175.501 303.83 175.061 303.74C174.631 303.64 174.196 303.52 173.756 303.38C173.326 303.24 172.931 303.06 172.571 302.84C172.211 302.62 171.916 302.33 171.686 301.97C171.466 301.61 171.356 301.15 171.356 300.59C171.356 299.99 171.516 299.445 171.836 298.955C172.166 298.455 172.656 298.06 173.306 297.77C173.966 297.47 174.791 297.32 175.781 297.32C176.441 297.32 177.091 297.4 177.731 297.56C178.371 297.71 178.936 297.94 179.426 298.25L178.676 300.095C178.186 299.815 177.696 299.61 177.206 299.48C176.716 299.34 176.236 299.27 175.766 299.27C175.296 299.27 174.911 299.325 174.611 299.435C174.311 299.545 174.096 299.69 173.966 299.87C173.836 300.04 173.771 300.24 173.771 300.47C173.771 300.74 173.881 300.96 174.101 301.13C174.321 301.29 174.611 301.42 174.971 301.52C175.331 301.62 175.726 301.72 176.156 301.82C176.596 301.92 177.031 302.035 177.461 302.165C177.901 302.295 178.301 302.47 178.661 302.69C179.021 302.91 179.311 303.2 179.531 303.56C179.761 303.92 179.876 304.375 179.876 304.925C179.876 305.515 179.711 306.055 179.381 306.545C179.051 307.035 178.556 307.43 177.896 307.73C177.246 308.03 176.421 308.18 175.421 308.18Z" fill="#1C1C1C"/>
<defs>
<filter id="filter0_di_1415_111" x="0.900024" y="0.899902" width="325.2" height="413.2" filterUnits="userSpaceOnUse" color-interpolation-filters="sRGB">
<feFlood flood-opacity="0" result="BackgroundImageFix"/>
<feColorMatrix in="SourceAlpha" type="matrix" values="0 0 0 0 0 0 0 0 0 0 0 0 0 0 0 0 0 0 127 0" result="hardAlpha"/>
<feOffset dy="4"/>
<feGaussianBlur stdDeviation="2"/>
<feComposite in2="hardAlpha" operator="out"/>
<feColorMatrix type="matrix" values="0 0 0 0 0 0 0 0 0 0 0 0 0 0 0 0 0 0 0.09 0"/>
<feBlend mode="normal" in2="BackgroundImageFix" result="effect1_dropShadow_1415_111"/>
<feBlend mode="normal" in="SourceGraphic" in2="effect1_dropShadow_1415_111" result="shape"/>
<feColorMatrix in="SourceAlpha" type="matrix" values="0 0 0 0 0 0 0 0 0 0 0 0 0 0 0 0 0 0 127 0" result="hardAlpha"/>
<feMorphology radius="6" operator="dilate" in="SourceAlpha" result="effect2_innerShadow_1415_111"/>
<feOffset dx="21" dy="13"/>
<feGaussianBlur stdDeviation="15"/>
<feComposite in2="hardAlpha" operator="arithmetic" k2="-1" k3="1"/>
<feColorMatrix type="matrix" values="0 0 0 0 0.6375 0 0 0 0 0.589687 0 0 0 0 0.589687 0 0 0 0.1 0"/>
<feBlend mode="normal" in2="shape" result="effect2_innerShadow_1415_111"/>
</filter>
</defs>
</svg>
