<svg width="310" height="410" viewBox="0 0 310 410" fill="none" xmlns="http://www.w3.org/2000/svg">
<g filter="url(#filter0_di_1415_108)">
<rect x="5" y="1" width="300" height="400" fill="white"/>
<rect x="4.95" y="0.95" width="300.1" height="400.1" stroke="#757575" stroke-width="0.1"/>
</g>
<rect x="34" y="28" width="250" height="250" fill="#FDD2D2"/>
<path d="M37.765 310L34.33 299.5H36.85L39.835 308.8H38.575L41.695 299.5H43.945L46.945 308.8H45.73L48.79 299.5H51.115L47.68 310H45.07L42.415 301.84H43.105L40.375 310H37.765ZM56.7794 310.18C55.9494 310.18 55.1794 310.045 54.4694 309.775C53.7694 309.505 53.1594 309.125 52.6394 308.635C52.1294 308.145 51.7294 307.57 51.4394 306.91C51.1594 306.25 51.0194 305.53 51.0194 304.75C51.0194 303.97 51.1594 303.25 51.4394 302.59C51.7294 301.93 52.1344 301.355 52.6544 300.865C53.1744 300.375 53.7844 299.995 54.4844 299.725C55.1844 299.455 55.9444 299.32 56.7644 299.32C57.5944 299.32 58.3544 299.455 59.0444 299.725C59.7444 299.995 60.3494 300.375 60.8594 300.865C61.3794 301.355 61.7844 301.93 62.0744 302.59C62.3644 303.24 62.5094 303.96 62.5094 304.75C62.5094 305.53 62.3644 306.255 62.0744 306.925C61.7844 307.585 61.3794 308.16 60.8594 308.65C60.3494 309.13 59.7444 309.505 59.0444 309.775C58.3544 310.045 57.5994 310.18 56.7794 310.18ZM56.7644 308.11C57.2344 308.11 57.6644 308.03 58.0544 307.87C58.4544 307.71 58.8044 307.48 59.1044 307.18C59.4044 306.88 59.6344 306.525 59.7944 306.115C59.9644 305.705 60.0494 305.25 60.0494 304.75C60.0494 304.25 59.9644 303.795 59.7944 303.385C59.6344 302.975 59.4044 302.62 59.1044 302.32C58.8144 302.02 58.4694 301.79 58.0694 301.63C57.6694 301.47 57.2344 301.39 56.7644 301.39C56.2944 301.39 55.8594 301.47 55.4594 301.63C55.0694 301.79 54.7244 302.02 54.4244 302.32C54.1244 302.62 53.8894 302.975 53.7194 303.385C53.5594 303.795 53.4794 304.25 53.4794 304.75C53.4794 305.24 53.5594 305.695 53.7194 306.115C53.8894 306.525 54.1194 306.88 54.4094 307.18C54.7094 307.48 55.0594 307.71 55.4594 307.87C55.8594 308.03 56.2944 308.11 56.7644 308.11ZM68.7606 310.18C67.9306 310.18 67.1606 310.045 66.4506 309.775C65.7506 309.505 65.1406 309.125 64.6206 308.635C64.1106 308.145 63.7106 307.57 63.4206 306.91C63.1406 306.25 63.0006 305.53 63.0006 304.75C63.0006 303.97 63.1406 303.25 63.4206 302.59C63.7106 301.93 64.1156 301.355 64.6356 300.865C65.1556 300.375 65.7656 299.995 66.4656 299.725C67.1656 299.455 67.9256 299.32 68.7456 299.32C69.5756 299.32 70.3356 299.455 71.0256 299.725C71.7256 299.995 72.3306 300.375 72.8406 300.865C73.3606 301.355 73.7656 301.93 74.0556 302.59C74.3456 303.24 74.4906 303.96 74.4906 304.75C74.4906 305.53 74.3456 306.255 74.0556 306.925C73.7656 307.585 73.3606 308.16 72.8406 308.65C72.3306 309.13 71.7256 309.505 71.0256 309.775C70.3356 310.045 69.5806 310.18 68.7606 310.18ZM68.7456 308.11C69.2156 308.11 69.6456 308.03 70.0356 307.87C70.4356 307.71 70.7856 307.48 71.0856 307.18C71.3856 306.88 71.6156 306.525 71.7756 306.115C71.9456 305.705 72.0306 305.25 72.0306 304.75C72.0306 304.25 71.9456 303.795 71.7756 303.385C71.6156 302.975 71.3856 302.62 71.0856 302.32C70.7956 302.02 70.4506 301.79 70.0506 301.63C69.6506 301.47 69.2156 301.39 68.7456 301.39C68.2756 301.39 67.8406 301.47 67.4406 301.63C67.0506 301.79 66.7056 302.02 66.4056 302.32C66.1056 302.62 65.8706 302.975 65.7006 303.385C65.5406 303.795 65.4606 304.25 65.4606 304.75C65.4606 305.24 65.5406 305.695 65.7006 306.115C65.8706 306.525 66.1006 306.88 66.3906 307.18C66.6906 307.48 67.0406 307.71 67.4406 307.87C67.8406 308.03 68.2756 308.11 68.7456 308.11ZM75.6419 310V299.5H80.4119C81.5519 299.5 82.5569 299.72 83.4269 300.16C84.2969 300.59 84.9769 301.195 85.4669 301.975C85.9569 302.755 86.2019 303.68 86.2019 304.75C86.2019 305.81 85.9569 306.735 85.4669 307.525C84.9769 308.305 84.2969 308.915 83.4269 309.355C82.5569 309.785 81.5519 310 80.4119 310H75.6419ZM78.0719 308.005H80.2919C80.9919 308.005 81.5969 307.875 82.1069 307.615C82.6269 307.345 83.0269 306.965 83.3069 306.475C83.5969 305.985 83.7419 305.41 83.7419 304.75C83.7419 304.08 83.5969 303.505 83.3069 303.025C83.0269 302.535 82.6269 302.16 82.1069 301.9C81.5969 301.63 80.9919 301.495 80.2919 301.495H78.0719V308.005ZM90.9325 310V299.5H93.3625V308.02H98.6275V310H90.9325ZM104.234 310.18C103.404 310.18 102.634 310.045 101.924 309.775C101.224 309.505 100.614 309.125 100.094 308.635C99.5845 308.145 99.1845 307.57 98.8945 306.91C98.6145 306.25 98.4745 305.53 98.4745 304.75C98.4745 303.97 98.6145 303.25 98.8945 302.59C99.1845 301.93 99.5895 301.355 100.109 300.865C100.629 300.375 101.239 299.995 101.939 299.725C102.639 299.455 103.399 299.32 104.219 299.32C105.049 299.32 105.809 299.455 106.499 299.725C107.199 299.995 107.804 300.375 108.314 300.865C108.834 301.355 109.239 301.93 109.529 302.59C109.819 303.24 109.964 303.96 109.964 304.75C109.964 305.53 109.819 306.255 109.529 306.925C109.239 307.585 108.834 308.16 108.314 308.65C107.804 309.13 107.199 309.505 106.499 309.775C105.809 310.045 105.054 310.18 104.234 310.18ZM104.219 308.11C104.689 308.11 105.119 308.03 105.509 307.87C105.909 307.71 106.259 307.48 106.559 307.18C106.859 306.88 107.089 306.525 107.249 306.115C107.419 305.705 107.504 305.25 107.504 304.75C107.504 304.25 107.419 303.795 107.249 303.385C107.089 302.975 106.859 302.62 106.559 302.32C106.269 302.02 105.924 301.79 105.524 301.63C105.124 301.47 104.689 301.39 104.219 301.39C103.749 301.39 103.314 301.47 102.914 301.63C102.524 301.79 102.179 302.02 101.879 302.32C101.579 302.62 101.344 302.975 101.174 303.385C101.014 303.795 100.934 304.25 100.934 304.75C100.934 305.24 101.014 305.695 101.174 306.115C101.344 306.525 101.574 306.88 101.864 307.18C102.164 307.48 102.514 307.71 102.914 307.87C103.314 308.03 103.749 308.11 104.219 308.11ZM116.216 310.18C115.386 310.18 114.616 310.045 113.906 309.775C113.206 309.505 112.596 309.125 112.076 308.635C111.566 308.145 111.166 307.57 110.876 306.91C110.596 306.25 110.456 305.53 110.456 304.75C110.456 303.97 110.596 303.25 110.876 302.59C111.166 301.93 111.571 301.355 112.091 300.865C112.611 300.375 113.221 299.995 113.921 299.725C114.621 299.455 115.381 299.32 116.201 299.32C117.031 299.32 117.791 299.455 118.481 299.725C119.181 299.995 119.786 300.375 120.296 300.865C120.816 301.355 121.221 301.93 121.511 302.59C121.801 303.24 121.946 303.96 121.946 304.75C121.946 305.53 121.801 306.255 121.511 306.925C121.221 307.585 120.816 308.16 120.296 308.65C119.786 309.13 119.181 309.505 118.481 309.775C117.791 310.045 117.036 310.18 116.216 310.18ZM116.201 308.11C116.671 308.11 117.101 308.03 117.491 307.87C117.891 307.71 118.241 307.48 118.541 307.18C118.841 306.88 119.071 306.525 119.231 306.115C119.401 305.705 119.486 305.25 119.486 304.75C119.486 304.25 119.401 303.795 119.231 303.385C119.071 302.975 118.841 302.62 118.541 302.32C118.251 302.02 117.906 301.79 117.506 301.63C117.106 301.47 116.671 301.39 116.201 301.39C115.731 301.39 115.296 301.47 114.896 301.63C114.506 301.79 114.161 302.02 113.861 302.32C113.561 302.62 113.326 302.975 113.156 303.385C112.996 303.795 112.916 304.25 112.916 304.75C112.916 305.24 112.996 305.695 113.156 306.115C113.326 306.525 113.556 306.88 113.846 307.18C114.146 307.48 114.496 307.71 114.896 307.87C115.296 308.03 115.731 308.11 116.201 308.11ZM125.272 307.6L125.137 304.795L130.162 299.5H132.862L128.332 304.375L126.982 305.815L125.272 307.6ZM123.097 310V299.5H125.512V310H123.097ZM130.282 310L126.547 305.425L128.137 303.7L133.117 310H130.282ZM139.274 310V301.48H135.914V299.5H145.064V301.48H141.704V310H139.274ZM145.696 310V299.5H148.126V310H145.696ZM149.943 310V299.5H152.373V308.02H157.638V310H149.943ZM160.556 303.73H165.611V305.62H160.556V303.73ZM160.736 308.05H166.451V310H158.321V299.5H166.256V301.45H160.736V308.05ZM171.159 310.18C170.319 310.18 169.514 310.07 168.744 309.85C167.974 309.62 167.354 309.325 166.884 308.965L167.709 307.135C168.159 307.455 168.689 307.72 169.299 307.93C169.919 308.13 170.544 308.23 171.174 308.23C171.654 308.23 172.039 308.185 172.329 308.095C172.629 307.995 172.849 307.86 172.989 307.69C173.129 307.52 173.199 307.325 173.199 307.105C173.199 306.825 173.089 306.605 172.869 306.445C172.649 306.275 172.359 306.14 171.999 306.04C171.639 305.93 171.239 305.83 170.799 305.74C170.369 305.64 169.934 305.52 169.494 305.38C169.064 305.24 168.669 305.06 168.309 304.84C167.949 304.62 167.654 304.33 167.424 303.97C167.204 303.61 167.094 303.15 167.094 302.59C167.094 301.99 167.254 301.445 167.574 300.955C167.904 300.455 168.394 300.06 169.044 299.77C169.704 299.47 170.529 299.32 171.519 299.32C172.179 299.32 172.829 299.4 173.469 299.56C174.109 299.71 174.674 299.94 175.164 300.25L174.414 302.095C173.924 301.815 173.434 301.61 172.944 301.48C172.454 301.34 171.974 301.27 171.504 301.27C171.034 301.27 170.649 301.325 170.349 301.435C170.049 301.545 169.834 301.69 169.704 301.87C169.574 302.04 169.509 302.24 169.509 302.47C169.509 302.74 169.619 302.96 169.839 303.13C170.059 303.29 170.349 303.42 170.709 303.52C171.069 303.62 171.464 303.72 171.894 303.82C172.334 303.92 172.769 304.035 173.199 304.165C173.639 304.295 174.039 304.47 174.399 304.69C174.759 304.91 175.049 305.2 175.269 305.56C175.499 305.92 175.614 306.375 175.614 306.925C175.614 307.515 175.449 308.055 175.119 308.545C174.789 309.035 174.294 309.43 173.634 309.73C172.984 310.03 172.159 310.18 171.159 310.18Z" fill="#1C1C1C"/>
<path d="M35.88 371V357H41.64C42.88 357 43.94 357.2 44.82 357.6C45.7133 358 46.4 358.573 46.88 359.32C47.36 360.067 47.6 360.953 47.6 361.98C47.6 363.007 47.36 363.893 46.88 364.64C46.4 365.387 45.7133 365.96 44.82 366.36C43.94 366.76 42.88 366.96 41.64 366.96H37.32L38.48 365.74V371H35.88ZM38.48 366.02L37.32 364.76H41.52C42.6667 364.76 43.5267 364.52 44.1 364.04C44.6867 363.547 44.98 362.86 44.98 361.98C44.98 361.087 44.6867 360.4 44.1 359.92C43.5267 359.44 42.6667 359.2 41.52 359.2H37.32L38.48 357.92V366.02ZM52.9191 367.82V366.02L59.8191 357H62.5991L55.7991 366.02L54.4991 365.62H65.5991V367.82H52.9191ZM60.5991 371V367.82L60.6791 365.62V362.8H63.1191V371H60.5991ZM70.4156 356.8C71.6956 356.8 72.7823 357.073 73.6756 357.62C74.5823 358.153 75.2756 358.933 75.7556 359.96C76.2356 360.987 76.4756 362.253 76.4756 363.76C76.4756 365.36 76.1823 366.713 75.5956 367.82C75.0223 368.927 74.2223 369.767 73.1956 370.34C72.169 370.913 70.9756 371.2 69.6156 371.2C68.909 371.2 68.2356 371.127 67.5956 370.98C66.9556 370.833 66.4023 370.607 65.9356 370.3L66.8956 368.34C67.2823 368.593 67.7023 368.773 68.1556 368.88C68.609 368.973 69.0756 369.02 69.5556 369.02C70.8756 369.02 71.9223 368.613 72.6956 367.8C73.469 366.987 73.8556 365.787 73.8556 364.2C73.8556 363.947 73.849 363.653 73.8356 363.32C73.8223 362.973 73.7756 362.627 73.6956 362.28L74.4956 363.16C74.269 363.707 73.9423 364.167 73.5156 364.54C73.089 364.9 72.589 365.173 72.0156 365.36C71.4423 365.547 70.809 365.64 70.1156 365.64C69.209 365.64 68.389 365.467 67.6556 365.12C66.9356 364.76 66.3623 364.26 65.9356 363.62C65.509 362.967 65.2956 362.207 65.2956 361.34C65.2956 360.407 65.5223 359.607 65.9756 358.94C66.429 358.26 67.0423 357.733 67.8156 357.36C68.6023 356.987 69.469 356.8 70.4156 356.8ZM70.5556 358.84C70.0223 358.84 69.549 358.94 69.1356 359.14C68.7223 359.327 68.3956 359.6 68.1556 359.96C67.929 360.307 67.8156 360.727 67.8156 361.22C67.8156 361.953 68.069 362.533 68.5756 362.96C69.0823 363.387 69.7623 363.6 70.6156 363.6C71.1756 363.6 71.669 363.5 72.0956 363.3C72.5223 363.087 72.8556 362.8 73.0956 362.44C73.3356 362.067 73.4556 361.653 73.4556 361.2C73.4556 360.76 73.3423 360.367 73.1156 360.02C72.889 359.66 72.5623 359.373 72.1356 359.16C71.709 358.947 71.1823 358.84 70.5556 358.84ZM82.0547 356.8C83.3347 356.8 84.4214 357.073 85.3147 357.62C86.2214 358.153 86.9147 358.933 87.3947 359.96C87.8747 360.987 88.1147 362.253 88.1147 363.76C88.1147 365.36 87.8214 366.713 87.2347 367.82C86.6614 368.927 85.8614 369.767 84.8347 370.34C83.808 370.913 82.6147 371.2 81.2547 371.2C80.548 371.2 79.8747 371.127 79.2347 370.98C78.5947 370.833 78.0414 370.607 77.5747 370.3L78.5347 368.34C78.9214 368.593 79.3414 368.773 79.7947 368.88C80.248 368.973 80.7147 369.02 81.1947 369.02C82.5147 369.02 83.5614 368.613 84.3347 367.8C85.108 366.987 85.4947 365.787 85.4947 364.2C85.4947 363.947 85.488 363.653 85.4747 363.32C85.4614 362.973 85.4147 362.627 85.3347 362.28L86.1347 363.16C85.908 363.707 85.5814 364.167 85.1547 364.54C84.728 364.9 84.228 365.173 83.6547 365.36C83.0814 365.547 82.448 365.64 81.7547 365.64C80.848 365.64 80.028 365.467 79.2947 365.12C78.5747 364.76 78.0014 364.26 77.5747 363.62C77.148 362.967 76.9347 362.207 76.9347 361.34C76.9347 360.407 77.1614 359.607 77.6147 358.94C78.068 358.26 78.6814 357.733 79.4547 357.36C80.2414 356.987 81.108 356.8 82.0547 356.8ZM82.1947 358.84C81.6614 358.84 81.188 358.94 80.7747 359.14C80.3614 359.327 80.0347 359.6 79.7947 359.96C79.568 360.307 79.4547 360.727 79.4547 361.22C79.4547 361.953 79.708 362.533 80.2147 362.96C80.7214 363.387 81.4014 363.6 82.2547 363.6C82.8147 363.6 83.308 363.5 83.7347 363.3C84.1614 363.087 84.4947 362.8 84.7347 362.44C84.9747 362.067 85.0947 361.653 85.0947 361.2C85.0947 360.76 84.9814 360.367 84.7547 360.02C84.528 359.66 84.2014 359.373 83.7747 359.16C83.348 358.947 82.8214 358.84 82.1947 358.84ZM90.2994 371.14C89.846 371.14 89.4594 370.987 89.1394 370.68C88.8194 370.36 88.6594 369.96 88.6594 369.48C88.6594 368.973 88.8194 368.573 89.1394 368.28C89.4594 367.973 89.846 367.82 90.2994 367.82C90.7527 367.82 91.1394 367.973 91.4594 368.28C91.7794 368.573 91.9394 368.973 91.9394 369.48C91.9394 369.96 91.7794 370.36 91.4594 370.68C91.1394 370.987 90.7527 371.14 90.2994 371.14ZM98.3278 371.2C97.2211 371.2 96.2211 370.92 95.3278 370.36C94.4478 369.8 93.7545 368.987 93.2478 367.92C92.7411 366.84 92.4878 365.533 92.4878 364C92.4878 362.467 92.7411 361.167 93.2478 360.1C93.7545 359.02 94.4478 358.2 95.3278 357.64C96.2211 357.08 97.2211 356.8 98.3278 356.8C99.4478 356.8 100.448 357.08 101.328 357.64C102.208 358.2 102.901 359.02 103.408 360.1C103.928 361.167 104.188 362.467 104.188 364C104.188 365.533 103.928 366.84 103.408 367.92C102.901 368.987 102.208 369.8 101.328 370.36C100.448 370.92 99.4478 371.2 98.3278 371.2ZM98.3278 368.94C98.9811 368.94 99.5478 368.767 100.028 368.42C100.508 368.06 100.881 367.513 101.148 366.78C101.428 366.047 101.568 365.12 101.568 364C101.568 362.867 101.428 361.94 101.148 361.22C100.881 360.487 100.508 359.947 100.028 359.6C99.5478 359.24 98.9811 359.06 98.3278 359.06C97.7011 359.06 97.1411 359.24 96.6478 359.6C96.1678 359.947 95.7878 360.487 95.5078 361.22C95.2411 361.94 95.1078 362.867 95.1078 364C95.1078 365.12 95.2411 366.047 95.5078 366.78C95.7878 367.513 96.1678 368.06 96.6478 368.42C97.1411 368.767 97.7011 368.94 98.3278 368.94ZM110.885 371.2C109.778 371.2 108.778 370.92 107.885 370.36C107.005 369.8 106.312 368.987 105.805 367.92C105.298 366.84 105.045 365.533 105.045 364C105.045 362.467 105.298 361.167 105.805 360.1C106.312 359.02 107.005 358.2 107.885 357.64C108.778 357.08 109.778 356.8 110.885 356.8C112.005 356.8 113.005 357.08 113.885 357.64C114.765 358.2 115.458 359.02 115.965 360.1C116.485 361.167 116.745 362.467 116.745 364C116.745 365.533 116.485 366.84 115.965 367.92C115.458 368.987 114.765 369.8 113.885 370.36C113.005 370.92 112.005 371.2 110.885 371.2ZM110.885 368.94C111.538 368.94 112.105 368.767 112.585 368.42C113.065 368.06 113.438 367.513 113.705 366.78C113.985 366.047 114.125 365.12 114.125 364C114.125 362.867 113.985 361.94 113.705 361.22C113.438 360.487 113.065 359.947 112.585 359.6C112.105 359.24 111.538 359.06 110.885 359.06C110.258 359.06 109.698 359.24 109.205 359.6C108.725 359.947 108.345 360.487 108.065 361.22C107.798 361.94 107.665 362.867 107.665 364C107.665 365.12 107.798 366.047 108.065 366.78C108.345 367.513 108.725 368.06 109.205 368.42C109.698 368.767 110.258 368.94 110.885 368.94Z" fill="#1C1C1C"/>
<path d="M35.71 331V320.5H39.64C40.53 320.5 41.295 320.645 41.935 320.935C42.575 321.215 43.065 321.625 43.405 322.165C43.755 322.695 43.93 323.34 43.93 324.1C43.93 324.84 43.755 325.48 43.405 326.02C43.065 326.55 42.575 326.96 41.935 327.25C41.295 327.54 40.53 327.685 39.64 327.685H36.325L36.82 327.16V331H35.71ZM36.82 327.25L36.325 326.71H39.61C40.66 326.71 41.455 326.485 41.995 326.035C42.545 325.575 42.82 324.93 42.82 324.1C42.82 323.26 42.545 322.61 41.995 322.15C41.455 321.69 40.66 321.46 39.61 321.46H36.325L36.82 320.935V327.25ZM48.5962 331.075C47.8362 331.075 47.1512 330.905 46.5412 330.565C45.9412 330.215 45.4662 329.74 45.1162 329.14C44.7662 328.53 44.5912 327.835 44.5912 327.055C44.5912 326.265 44.7662 325.57 45.1162 324.97C45.4662 324.37 45.9412 323.9 46.5412 323.56C47.1412 323.22 47.8262 323.05 48.5962 323.05C49.3762 323.05 50.0662 323.22 50.6662 323.56C51.2762 323.9 51.7512 324.37 52.0912 324.97C52.4412 325.57 52.6162 326.265 52.6162 327.055C52.6162 327.835 52.4412 328.53 52.0912 329.14C51.7512 329.74 51.2762 330.215 50.6662 330.565C50.0562 330.905 49.3662 331.075 48.5962 331.075ZM48.5962 330.13C49.1662 330.13 49.6712 330.005 50.1112 329.755C50.5512 329.495 50.8962 329.135 51.1462 328.675C51.4062 328.205 51.5362 327.665 51.5362 327.055C51.5362 326.435 51.4062 325.895 51.1462 325.435C50.8962 324.975 50.5512 324.62 50.1112 324.37C49.6712 324.11 49.1712 323.98 48.6112 323.98C48.0512 323.98 47.5512 324.11 47.1112 324.37C46.6712 324.62 46.3212 324.975 46.0612 325.435C45.8012 325.895 45.6712 326.435 45.6712 327.055C45.6712 327.665 45.8012 328.205 46.0612 328.675C46.3212 329.135 46.6712 329.495 47.1112 329.755C47.5512 330.005 48.0462 330.13 48.5962 330.13ZM56.6055 331.075C55.8655 331.075 55.2955 330.875 54.8955 330.475C54.4955 330.075 54.2955 329.51 54.2955 328.78V321.385H55.3605V328.72C55.3605 329.18 55.4755 329.535 55.7055 329.785C55.9455 330.035 56.2855 330.16 56.7255 330.16C57.1955 330.16 57.5855 330.025 57.8955 329.755L58.2705 330.52C58.0605 330.71 57.8055 330.85 57.5055 330.94C57.2155 331.03 56.9155 331.075 56.6055 331.075ZM52.8855 324.01V323.125H57.7605V324.01H52.8855ZM62.6009 331.075C61.7809 331.075 61.0609 330.905 60.4409 330.565C59.8209 330.215 59.3359 329.74 58.9859 329.14C58.6359 328.53 58.4609 327.835 58.4609 327.055C58.4609 326.275 58.6259 325.585 58.9559 324.985C59.2959 324.385 59.7559 323.915 60.3359 323.575C60.9259 323.225 61.5859 323.05 62.3159 323.05C63.0559 323.05 63.7109 323.22 64.2809 323.56C64.8609 323.89 65.3159 324.36 65.6459 324.97C65.9759 325.57 66.1409 326.265 66.1409 327.055C66.1409 327.105 66.1359 327.16 66.1259 327.22C66.1259 327.27 66.1259 327.325 66.1259 327.385H59.2709V326.59H65.5559L65.1359 326.905C65.1359 326.335 65.0109 325.83 64.7609 325.39C64.5209 324.94 64.1909 324.59 63.7709 324.34C63.3509 324.09 62.8659 323.965 62.3159 323.965C61.7759 323.965 61.2909 324.09 60.8609 324.34C60.4309 324.59 60.0959 324.94 59.8559 325.39C59.6159 325.84 59.4959 326.355 59.4959 326.935V327.1C59.4959 327.7 59.6259 328.23 59.8859 328.69C60.1559 329.14 60.5259 329.495 60.9959 329.755C61.4759 330.005 62.0209 330.13 62.6309 330.13C63.1109 330.13 63.5559 330.045 63.9659 329.875C64.3859 329.705 64.7459 329.445 65.0459 329.095L65.6459 329.785C65.2959 330.205 64.8559 330.525 64.3259 330.745C63.8059 330.965 63.2309 331.075 62.6009 331.075ZM71.6536 323.05C72.2936 323.05 72.8536 323.175 73.3336 323.425C73.8236 323.665 74.2036 324.035 74.4736 324.535C74.7536 325.035 74.8936 325.665 74.8936 326.425V331H73.8286V326.53C73.8286 325.7 73.6186 325.075 73.1986 324.655C72.7886 324.225 72.2086 324.01 71.4586 324.01C70.8986 324.01 70.4086 324.125 69.9886 324.355C69.5786 324.575 69.2586 324.9 69.0286 325.33C68.8086 325.75 68.6986 326.26 68.6986 326.86V331H67.6336V323.125H68.6536V325.285L68.4886 324.88C68.7386 324.31 69.1386 323.865 69.6886 323.545C70.2386 323.215 70.8936 323.05 71.6536 323.05ZM79.5854 331.075C78.8454 331.075 78.2754 330.875 77.8754 330.475C77.4754 330.075 77.2754 329.51 77.2754 328.78V321.385H78.3404V328.72C78.3404 329.18 78.4554 329.535 78.6854 329.785C78.9254 330.035 79.2654 330.16 79.7054 330.16C80.1754 330.16 80.5654 330.025 80.8754 329.755L81.2504 330.52C81.0404 330.71 80.7854 330.85 80.4854 330.94C80.1954 331.03 79.8954 331.075 79.5854 331.075ZM75.8654 324.01V323.125H80.7404V324.01H75.8654ZM82.5141 331V323.125H83.5791V331H82.5141ZM83.0541 321.385C82.8341 321.385 82.6491 321.31 82.4991 321.16C82.3491 321.01 82.2741 320.83 82.2741 320.62C82.2741 320.41 82.3491 320.235 82.4991 320.095C82.6491 319.945 82.8341 319.87 83.0541 319.87C83.2741 319.87 83.4591 319.94 83.6091 320.08C83.7591 320.22 83.8341 320.395 83.8341 320.605C83.8341 320.825 83.7591 321.01 83.6091 321.16C83.4691 321.31 83.2841 321.385 83.0541 321.385ZM93.1382 323.05C93.7782 323.05 94.3382 323.175 94.8182 323.425C95.3082 323.665 95.6882 324.035 95.9582 324.535C96.2382 325.035 96.3782 325.665 96.3782 326.425V331H95.3132V326.53C95.3132 325.7 95.1032 325.075 94.6832 324.655C94.2732 324.225 93.6932 324.01 92.9432 324.01C92.3832 324.01 91.8932 324.125 91.4732 324.355C91.0632 324.575 90.7432 324.9 90.5132 325.33C90.2932 325.75 90.1832 326.26 90.1832 326.86V331H89.1182V323.125H90.1382V325.285L89.9732 324.88C90.2232 324.31 90.6232 323.865 91.1732 323.545C91.7232 323.215 92.3782 323.05 93.1382 323.05ZM101.835 331.075C101.165 331.075 100.58 330.95 100.08 330.7C99.5799 330.45 99.1899 330.075 98.9099 329.575C98.6399 329.075 98.5049 328.45 98.5049 327.7V323.125H99.5699V327.58C99.5699 328.42 99.7749 329.055 100.185 329.485C100.605 329.905 101.19 330.115 101.94 330.115C102.49 330.115 102.965 330.005 103.365 329.785C103.775 329.555 104.085 329.225 104.295 328.795C104.515 328.365 104.625 327.85 104.625 327.25V323.125H105.69V331H104.67V328.84L104.835 329.23C104.585 329.81 104.195 330.265 103.665 330.595C103.145 330.915 102.535 331.075 101.835 331.075ZM107.983 331V319.87H109.048V331H107.983ZM111.336 331V319.87H112.401V331H111.336ZM119.625 331V329.26L119.58 328.975V326.065C119.58 325.395 119.39 324.88 119.01 324.52C118.64 324.16 118.085 323.98 117.345 323.98C116.835 323.98 116.35 324.065 115.89 324.235C115.43 324.405 115.04 324.63 114.72 324.91L114.24 324.115C114.64 323.775 115.12 323.515 115.68 323.335C116.24 323.145 116.83 323.05 117.45 323.05C118.47 323.05 119.255 323.305 119.805 323.815C120.365 324.315 120.645 325.08 120.645 326.11V331H119.625ZM116.91 331.075C116.32 331.075 115.805 330.98 115.365 330.79C114.935 330.59 114.605 330.32 114.375 329.98C114.145 329.63 114.03 329.23 114.03 328.78C114.03 328.37 114.125 328 114.315 327.67C114.515 327.33 114.835 327.06 115.275 326.86C115.725 326.65 116.325 326.545 117.075 326.545H119.79V327.34H117.105C116.345 327.34 115.815 327.475 115.515 327.745C115.225 328.015 115.08 328.35 115.08 328.75C115.08 329.2 115.255 329.56 115.605 329.83C115.955 330.1 116.445 330.235 117.075 330.235C117.675 330.235 118.19 330.1 118.62 329.83C119.06 329.55 119.38 329.15 119.58 328.63L119.82 329.365C119.62 329.885 119.27 330.3 118.77 330.61C118.28 330.92 117.66 331.075 116.91 331.075ZM132.702 323.05C133.342 323.05 133.897 323.175 134.367 323.425C134.847 323.665 135.217 324.035 135.477 324.535C135.747 325.035 135.882 325.665 135.882 326.425V331H134.817V326.53C134.817 325.7 134.617 325.075 134.217 324.655C133.827 324.225 133.272 324.01 132.552 324.01C132.012 324.01 131.542 324.125 131.142 324.355C130.752 324.575 130.447 324.9 130.227 325.33C130.017 325.75 129.912 326.26 129.912 326.86V331H128.847V326.53C128.847 325.7 128.647 325.075 128.247 324.655C127.847 324.225 127.287 324.01 126.567 324.01C126.037 324.01 125.572 324.125 125.172 324.355C124.772 324.575 124.462 324.9 124.242 325.33C124.032 325.75 123.927 326.26 123.927 326.86V331H122.862V323.125H123.882V325.255L123.717 324.88C123.957 324.31 124.342 323.865 124.872 323.545C125.412 323.215 126.047 323.05 126.777 323.05C127.547 323.05 128.202 323.245 128.742 323.635C129.282 324.015 129.632 324.59 129.792 325.36L129.372 325.195C129.602 324.555 130.007 324.04 130.587 323.65C131.177 323.25 131.882 323.05 132.702 323.05ZM146.281 331V329.26L146.236 328.975V326.065C146.236 325.395 146.046 324.88 145.666 324.52C145.296 324.16 144.741 323.98 144.001 323.98C143.491 323.98 143.006 324.065 142.546 324.235C142.086 324.405 141.696 324.63 141.376 324.91L140.896 324.115C141.296 323.775 141.776 323.515 142.336 323.335C142.896 323.145 143.486 323.05 144.106 323.05C145.126 323.05 145.911 323.305 146.461 323.815C147.021 324.315 147.301 325.08 147.301 326.11V331H146.281ZM143.566 331.075C142.976 331.075 142.461 330.98 142.021 330.79C141.591 330.59 141.261 330.32 141.031 329.98C140.801 329.63 140.686 329.23 140.686 328.78C140.686 328.37 140.781 328 140.971 327.67C141.171 327.33 141.491 327.06 141.931 326.86C142.381 326.65 142.981 326.545 143.731 326.545H146.446V327.34H143.761C143.001 327.34 142.471 327.475 142.171 327.745C141.881 328.015 141.736 328.35 141.736 328.75C141.736 329.2 141.911 329.56 142.261 329.83C142.611 330.1 143.101 330.235 143.731 330.235C144.331 330.235 144.846 330.1 145.276 329.83C145.716 329.55 146.036 329.15 146.236 328.63L146.476 329.365C146.276 329.885 145.926 330.3 145.426 330.61C144.936 330.92 144.316 331.075 143.566 331.075ZM152.789 331.075C152.009 331.075 151.309 330.905 150.689 330.565C150.079 330.215 149.599 329.74 149.249 329.14C148.899 328.53 148.724 327.835 148.724 327.055C148.724 326.265 148.899 325.57 149.249 324.97C149.599 324.37 150.079 323.9 150.689 323.56C151.309 323.22 152.009 323.05 152.789 323.05C153.459 323.05 154.064 323.18 154.604 323.44C155.144 323.7 155.569 324.09 155.879 324.61L155.084 325.15C154.814 324.75 154.479 324.455 154.079 324.265C153.679 324.075 153.244 323.98 152.774 323.98C152.214 323.98 151.709 324.11 151.259 324.37C150.809 324.62 150.454 324.975 150.194 325.435C149.934 325.895 149.804 326.435 149.804 327.055C149.804 327.675 149.934 328.215 150.194 328.675C150.454 329.135 150.809 329.495 151.259 329.755C151.709 330.005 152.214 330.13 152.774 330.13C153.244 330.13 153.679 330.035 154.079 329.845C154.479 329.655 154.814 329.365 155.084 328.975L155.879 329.515C155.569 330.025 155.144 330.415 154.604 330.685C154.064 330.945 153.459 331.075 152.789 331.075ZM163.037 331.075C162.297 331.075 161.727 330.875 161.327 330.475C160.927 330.075 160.727 329.51 160.727 328.78V321.385H161.792V328.72C161.792 329.18 161.907 329.535 162.137 329.785C162.377 330.035 162.717 330.16 163.157 330.16C163.627 330.16 164.017 330.025 164.327 329.755L164.702 330.52C164.492 330.71 164.237 330.85 163.937 330.94C163.647 331.03 163.347 331.075 163.037 331.075ZM159.317 324.01V323.125H164.192V324.01H159.317ZM168.897 331.075C168.137 331.075 167.452 330.905 166.842 330.565C166.242 330.215 165.767 329.74 165.417 329.14C165.067 328.53 164.892 327.835 164.892 327.055C164.892 326.265 165.067 325.57 165.417 324.97C165.767 324.37 166.242 323.9 166.842 323.56C167.442 323.22 168.127 323.05 168.897 323.05C169.677 323.05 170.367 323.22 170.967 323.56C171.577 323.9 172.052 324.37 172.392 324.97C172.742 325.57 172.917 326.265 172.917 327.055C172.917 327.835 172.742 328.53 172.392 329.14C172.052 329.74 171.577 330.215 170.967 330.565C170.357 330.905 169.667 331.075 168.897 331.075ZM168.897 330.13C169.467 330.13 169.972 330.005 170.412 329.755C170.852 329.495 171.197 329.135 171.447 328.675C171.707 328.205 171.837 327.665 171.837 327.055C171.837 326.435 171.707 325.895 171.447 325.435C171.197 324.975 170.852 324.62 170.412 324.37C169.972 324.11 169.472 323.98 168.912 323.98C168.352 323.98 167.852 324.11 167.412 324.37C166.972 324.62 166.622 324.975 166.362 325.435C166.102 325.895 165.972 326.435 165.972 327.055C165.972 327.665 166.102 328.205 166.362 328.675C166.622 329.135 166.972 329.495 167.412 329.755C167.852 330.005 168.347 330.13 168.897 330.13ZM174.417 331V323.125H175.437V325.27L175.332 324.895C175.552 324.295 175.922 323.84 176.442 323.53C176.962 323.21 177.607 323.05 178.377 323.05V324.085C178.337 324.085 178.297 324.085 178.257 324.085C178.217 324.075 178.177 324.07 178.137 324.07C177.307 324.07 176.657 324.325 176.187 324.835C175.717 325.335 175.482 326.05 175.482 326.98V331H174.417ZM182.472 331.075C181.732 331.075 181.162 330.875 180.762 330.475C180.362 330.075 180.162 329.51 180.162 328.78V321.385H181.227V328.72C181.227 329.18 181.342 329.535 181.572 329.785C181.812 330.035 182.152 330.16 182.592 330.16C183.062 330.16 183.452 330.025 183.762 329.755L184.137 330.52C183.927 330.71 183.672 330.85 183.372 330.94C183.082 331.03 182.782 331.075 182.472 331.075ZM178.752 324.01V323.125H183.627V324.01H178.752ZM188.332 331.075C187.572 331.075 186.887 330.905 186.277 330.565C185.677 330.215 185.202 329.74 184.852 329.14C184.502 328.53 184.327 327.835 184.327 327.055C184.327 326.265 184.502 325.57 184.852 324.97C185.202 324.37 185.677 323.9 186.277 323.56C186.877 323.22 187.562 323.05 188.332 323.05C189.112 323.05 189.802 323.22 190.402 323.56C191.012 323.9 191.487 324.37 191.827 324.97C192.177 325.57 192.352 326.265 192.352 327.055C192.352 327.835 192.177 328.53 191.827 329.14C191.487 329.74 191.012 330.215 190.402 330.565C189.792 330.905 189.102 331.075 188.332 331.075ZM188.332 330.13C188.902 330.13 189.407 330.005 189.847 329.755C190.287 329.495 190.632 329.135 190.882 328.675C191.142 328.205 191.272 327.665 191.272 327.055C191.272 326.435 191.142 325.895 190.882 325.435C190.632 324.975 190.287 324.62 189.847 324.37C189.407 324.11 188.907 323.98 188.347 323.98C187.787 323.98 187.287 324.11 186.847 324.37C186.407 324.62 186.057 324.975 185.797 325.435C185.537 325.895 185.407 326.435 185.407 327.055C185.407 327.665 185.537 328.205 185.797 328.675C186.057 329.135 186.407 329.495 186.847 329.755C187.287 330.005 187.782 330.13 188.332 330.13ZM193.852 331V323.125H194.872V325.27L194.767 324.895C194.987 324.295 195.357 323.84 195.877 323.53C196.397 323.21 197.042 323.05 197.812 323.05V324.085C197.772 324.085 197.732 324.085 197.692 324.085C197.652 324.075 197.612 324.07 197.572 324.07C196.742 324.07 196.092 324.325 195.622 324.835C195.152 325.335 194.917 326.05 194.917 326.98V331H193.852ZM204.473 331L200.978 323.125H202.088L205.298 330.43H204.773L208.028 323.125H209.078L205.568 331H204.473ZM209.903 331V323.125H210.968V331H209.903ZM210.443 321.385C210.223 321.385 210.038 321.31 209.888 321.16C209.738 321.01 209.663 320.83 209.663 320.62C209.663 320.41 209.738 320.235 209.888 320.095C210.038 319.945 210.223 319.87 210.443 319.87C210.663 319.87 210.848 319.94 210.998 320.08C211.148 320.22 211.223 320.395 211.223 320.605C211.223 320.825 211.148 321.01 210.998 321.16C210.858 321.31 210.673 321.385 210.443 321.385ZM215.746 331.075C215.006 331.075 214.436 330.875 214.036 330.475C213.636 330.075 213.436 329.51 213.436 328.78V321.385H214.501V328.72C214.501 329.18 214.616 329.535 214.846 329.785C215.086 330.035 215.426 330.16 215.866 330.16C216.336 330.16 216.726 330.025 217.036 329.755L217.411 330.52C217.201 330.71 216.946 330.85 216.646 330.94C216.356 331.03 216.056 331.075 215.746 331.075ZM212.026 324.01V323.125H216.901V324.01H212.026ZM223.61 331V329.26L223.565 328.975V326.065C223.565 325.395 223.375 324.88 222.995 324.52C222.625 324.16 222.07 323.98 221.33 323.98C220.82 323.98 220.335 324.065 219.875 324.235C219.415 324.405 219.025 324.63 218.705 324.91L218.225 324.115C218.625 323.775 219.105 323.515 219.665 323.335C220.225 323.145 220.815 323.05 221.435 323.05C222.455 323.05 223.24 323.305 223.79 323.815C224.35 324.315 224.63 325.08 224.63 326.11V331H223.61ZM220.895 331.075C220.305 331.075 219.79 330.98 219.35 330.79C218.92 330.59 218.59 330.32 218.36 329.98C218.13 329.63 218.015 329.23 218.015 328.78C218.015 328.37 218.11 328 218.3 327.67C218.5 327.33 218.82 327.06 219.26 326.86C219.71 326.65 220.31 326.545 221.06 326.545H223.775V327.34H221.09C220.33 327.34 219.8 327.475 219.5 327.745C219.21 328.015 219.065 328.35 219.065 328.75C219.065 329.2 219.24 329.56 219.59 329.83C219.94 330.1 220.43 330.235 221.06 330.235C221.66 330.235 222.175 330.1 222.605 329.83C223.045 329.55 223.365 329.15 223.565 328.63L223.805 329.365C223.605 329.885 223.255 330.3 222.755 330.61C222.265 330.92 221.645 331.075 220.895 331.075ZM230.193 331.075C229.373 331.075 228.653 330.905 228.033 330.565C227.413 330.215 226.928 329.74 226.578 329.14C226.228 328.53 226.053 327.835 226.053 327.055C226.053 326.275 226.218 325.585 226.548 324.985C226.888 324.385 227.348 323.915 227.928 323.575C228.518 323.225 229.178 323.05 229.908 323.05C230.648 323.05 231.303 323.22 231.873 323.56C232.453 323.89 232.908 324.36 233.238 324.97C233.568 325.57 233.733 326.265 233.733 327.055C233.733 327.105 233.728 327.16 233.718 327.22C233.718 327.27 233.718 327.325 233.718 327.385H226.863V326.59H233.148L232.728 326.905C232.728 326.335 232.603 325.83 232.353 325.39C232.113 324.94 231.783 324.59 231.363 324.34C230.943 324.09 230.458 323.965 229.908 323.965C229.368 323.965 228.883 324.09 228.453 324.34C228.023 324.59 227.688 324.94 227.448 325.39C227.208 325.84 227.088 326.355 227.088 326.935V327.1C227.088 327.7 227.218 328.23 227.478 328.69C227.748 329.14 228.118 329.495 228.588 329.755C229.068 330.005 229.613 330.13 230.223 330.13C230.703 330.13 231.148 330.045 231.558 329.875C231.978 329.705 232.338 329.445 232.638 329.095L233.238 329.785C232.888 330.205 232.448 330.525 231.918 330.745C231.398 330.965 230.823 331.075 230.193 331.075ZM242.541 331.075C241.861 331.075 241.246 330.92 240.696 330.61C240.146 330.29 239.706 329.835 239.376 329.245C239.056 328.645 238.896 327.915 238.896 327.055C238.896 326.195 239.056 325.47 239.376 324.88C239.696 324.28 240.131 323.825 240.681 323.515C241.231 323.205 241.851 323.05 242.541 323.05C243.291 323.05 243.961 323.22 244.551 323.56C245.151 323.89 245.621 324.36 245.961 324.97C246.301 325.57 246.471 326.265 246.471 327.055C246.471 327.855 246.301 328.555 245.961 329.155C245.621 329.755 245.151 330.225 244.551 330.565C243.961 330.905 243.291 331.075 242.541 331.075ZM238.476 333.91V323.125H239.496V325.495L239.391 327.07L239.541 328.66V333.91H238.476ZM242.466 330.13C243.026 330.13 243.526 330.005 243.966 329.755C244.406 329.495 244.756 329.135 245.016 328.675C245.276 328.205 245.406 327.665 245.406 327.055C245.406 326.445 245.276 325.91 245.016 325.45C244.756 324.99 244.406 324.63 243.966 324.37C243.526 324.11 243.026 323.98 242.466 323.98C241.906 323.98 241.401 324.11 240.951 324.37C240.511 324.63 240.161 324.99 239.901 325.45C239.651 325.91 239.526 326.445 239.526 327.055C239.526 327.665 239.651 328.205 239.901 328.675C240.161 329.135 240.511 329.495 240.951 329.755C241.401 330.005 241.906 330.13 242.466 330.13ZM251.222 331.075C250.552 331.075 249.967 330.95 249.467 330.7C248.967 330.45 248.577 330.075 248.297 329.575C248.027 329.075 247.892 328.45 247.892 327.7V323.125H248.957V327.58C248.957 328.42 249.162 329.055 249.572 329.485C249.992 329.905 250.577 330.115 251.327 330.115C251.877 330.115 252.352 330.005 252.752 329.785C253.162 329.555 253.472 329.225 253.682 328.795C253.902 328.365 254.012 327.85 254.012 327.25V323.125H255.077V331H254.057V328.84L254.222 329.23C253.972 329.81 253.582 330.265 253.052 330.595C252.532 330.915 251.922 331.075 251.222 331.075ZM257.37 331V323.125H258.39V325.27L258.285 324.895C258.505 324.295 258.875 323.84 259.395 323.53C259.915 323.21 260.56 323.05 261.33 323.05V324.085C261.29 324.085 261.25 324.085 261.21 324.085C261.17 324.075 261.13 324.07 261.09 324.07C260.26 324.07 259.61 324.325 259.14 324.835C258.67 325.335 258.435 326.05 258.435 326.98V331H257.37ZM265.971 331.075C265.301 331.075 264.716 330.95 264.216 330.7C263.716 330.45 263.326 330.075 263.046 329.575C262.776 329.075 262.641 328.45 262.641 327.7V323.125H263.706V327.58C263.706 328.42 263.911 329.055 264.321 329.485C264.741 329.905 265.326 330.115 266.076 330.115C266.626 330.115 267.101 330.005 267.501 329.785C267.911 329.555 268.221 329.225 268.431 328.795C268.651 328.365 268.761 327.85 268.761 327.25V323.125H269.826V331H268.806V328.84L268.971 329.23C268.721 329.81 268.331 330.265 267.801 330.595C267.281 330.915 266.671 331.075 265.971 331.075ZM274.234 331.075C273.584 331.075 272.969 330.985 272.389 330.805C271.809 330.615 271.354 330.38 271.024 330.1L271.504 329.26C271.824 329.5 272.234 329.71 272.734 329.89C273.234 330.06 273.759 330.145 274.309 330.145C275.059 330.145 275.599 330.03 275.929 329.8C276.259 329.56 276.424 329.245 276.424 328.855C276.424 328.565 276.329 328.34 276.139 328.18C275.959 328.01 275.719 327.885 275.419 327.805C275.119 327.715 274.784 327.64 274.414 327.58C274.044 327.52 273.674 327.45 273.304 327.37C272.944 327.29 272.614 327.175 272.314 327.025C272.014 326.865 271.769 326.65 271.579 326.38C271.399 326.11 271.309 325.75 271.309 325.3C271.309 324.87 271.429 324.485 271.669 324.145C271.909 323.805 272.259 323.54 272.719 323.35C273.189 323.15 273.759 323.05 274.429 323.05C274.939 323.05 275.449 323.12 275.959 323.26C276.469 323.39 276.889 323.565 277.219 323.785L276.754 324.64C276.404 324.4 276.029 324.23 275.629 324.13C275.229 324.02 274.829 323.965 274.429 323.965C273.719 323.965 273.194 324.09 272.854 324.34C272.524 324.58 272.359 324.89 272.359 325.27C272.359 325.57 272.449 325.805 272.629 325.975C272.819 326.145 273.064 326.28 273.364 326.38C273.674 326.47 274.009 326.545 274.369 326.605C274.739 326.665 275.104 326.74 275.464 326.83C275.834 326.91 276.169 327.025 276.469 327.175C276.779 327.315 277.024 327.52 277.204 327.79C277.394 328.05 277.489 328.395 277.489 328.825C277.489 329.285 277.359 329.685 277.099 330.025C276.849 330.355 276.479 330.615 275.989 330.805C275.509 330.985 274.924 331.075 274.234 331.075ZM278.873 331.075C278.653 331.075 278.463 330.995 278.303 330.835C278.153 330.675 278.078 330.48 278.078 330.25C278.078 330.01 278.153 329.815 278.303 329.665C278.463 329.515 278.653 329.44 278.873 329.44C279.093 329.44 279.278 329.515 279.428 329.665C279.588 329.815 279.668 330.01 279.668 330.25C279.668 330.48 279.588 330.675 279.428 330.835C279.278 330.995 279.093 331.075 278.873 331.075Z" fill="black"/>
<defs>
<filter id="filter0_di_1415_108" x="0.899994" y="0.899902" width="325.2" height="413.2" filterUnits="userSpaceOnUse" color-interpolation-filters="sRGB">
<feFlood flood-opacity="0" result="BackgroundImageFix"/>
<feColorMatrix in="SourceAlpha" type="matrix" values="0 0 0 0 0 0 0 0 0 0 0 0 0 0 0 0 0 0 127 0" result="hardAlpha"/>
<feOffset dy="4"/>
<feGaussianBlur stdDeviation="2"/>
<feComposite in2="hardAlpha" operator="out"/>
<feColorMatrix type="matrix" values="0 0 0 0 0 0 0 0 0 0 0 0 0 0 0 0 0 0 0.09 0"/>
<feBlend mode="normal" in2="BackgroundImageFix" result="effect1_dropShadow_1415_108"/>
<feBlend mode="normal" in="SourceGraphic" in2="effect1_dropShadow_1415_108" result="shape"/>
<feColorMatrix in="SourceAlpha" type="matrix" values="0 0 0 0 0 0 0 0 0 0 0 0 0 0 0 0 0 0 127 0" result="hardAlpha"/>
<feMorphology radius="6" operator="dilate" in="SourceAlpha" result="effect2_innerShadow_1415_108"/>
<feOffset dx="21" dy="13"/>
<feGaussianBlur stdDeviation="15"/>
<feComposite in2="hardAlpha" operator="arithmetic" k2="-1" k3="1"/>
<feColorMatrix type="matrix" values="0 0 0 0 0.6375 0 0 0 0 0.589687 0 0 0 0 0.589687 0 0 0 0.1 0"/>
<feBlend mode="normal" in2="shape" result="effect2_innerShadow_1415_108"/>
</filter>
</defs>
</svg>
