<svg width="310" height="410" viewBox="0 0 310 410" fill="none" xmlns="http://www.w3.org/2000/svg">
<g filter="url(#filter0_di_1415_110)">
<rect x="5" y="1" width="300" height="400" fill="white"/>
<rect x="4.95" y="0.95" width="300.1" height="400.1" stroke="#757575" stroke-width="0.1"/>
</g>
<rect x="30" y="26" width="250" height="250" fill="#CFA9A9"/>
<path d="M30.88 374V360H36.64C37.88 360 38.94 360.2 39.82 360.6C40.7133 361 41.4 361.573 41.88 362.32C42.36 363.067 42.6 363.953 42.6 364.98C42.6 366.007 42.36 366.893 41.88 367.64C41.4 368.387 40.7133 368.96 39.82 369.36C38.94 369.76 37.88 369.96 36.64 369.96H32.32L33.48 368.74V374H30.88ZM33.48 369.02L32.32 367.76H36.52C37.6667 367.76 38.5267 367.52 39.1 367.04C39.6867 366.547 39.98 365.86 39.98 364.98C39.98 364.087 39.6867 363.4 39.1 362.92C38.5267 362.44 37.6667 362.2 36.52 362.2H32.32L33.48 360.92V369.02ZM47.9191 370.82V369.02L54.8191 360H57.5991L50.7991 369.02L49.4991 368.62H60.5991V370.82H47.9191ZM55.5991 374V370.82L55.6791 368.62V365.8H58.1191V374H55.5991ZM65.4156 359.8C66.6956 359.8 67.7823 360.073 68.6756 360.62C69.5823 361.153 70.2756 361.933 70.7556 362.96C71.2356 363.987 71.4756 365.253 71.4756 366.76C71.4756 368.36 71.1823 369.713 70.5956 370.82C70.0223 371.927 69.2223 372.767 68.1956 373.34C67.169 373.913 65.9756 374.2 64.6156 374.2C63.909 374.2 63.2356 374.127 62.5956 373.98C61.9556 373.833 61.4023 373.607 60.9356 373.3L61.8956 371.34C62.2823 371.593 62.7023 371.773 63.1556 371.88C63.609 371.973 64.0756 372.02 64.5556 372.02C65.8756 372.02 66.9223 371.613 67.6956 370.8C68.469 369.987 68.8556 368.787 68.8556 367.2C68.8556 366.947 68.849 366.653 68.8356 366.32C68.8223 365.973 68.7756 365.627 68.6956 365.28L69.4956 366.16C69.269 366.707 68.9423 367.167 68.5156 367.54C68.089 367.9 67.589 368.173 67.0156 368.36C66.4423 368.547 65.809 368.64 65.1156 368.64C64.209 368.64 63.389 368.467 62.6556 368.12C61.9356 367.76 61.3623 367.26 60.9356 366.62C60.509 365.967 60.2956 365.207 60.2956 364.34C60.2956 363.407 60.5223 362.607 60.9756 361.94C61.429 361.26 62.0423 360.733 62.8156 360.36C63.6023 359.987 64.469 359.8 65.4156 359.8ZM65.5556 361.84C65.0223 361.84 64.549 361.94 64.1356 362.14C63.7223 362.327 63.3956 362.6 63.1556 362.96C62.929 363.307 62.8156 363.727 62.8156 364.22C62.8156 364.953 63.069 365.533 63.5756 365.96C64.0823 366.387 64.7623 366.6 65.6156 366.6C66.1756 366.6 66.669 366.5 67.0956 366.3C67.5223 366.087 67.8556 365.8 68.0956 365.44C68.3356 365.067 68.4556 364.653 68.4556 364.2C68.4556 363.76 68.3423 363.367 68.1156 363.02C67.889 362.66 67.5623 362.373 67.1356 362.16C66.709 361.947 66.1823 361.84 65.5556 361.84ZM77.0547 359.8C78.3347 359.8 79.4214 360.073 80.3147 360.62C81.2214 361.153 81.9147 361.933 82.3947 362.96C82.8747 363.987 83.1147 365.253 83.1147 366.76C83.1147 368.36 82.8214 369.713 82.2347 370.82C81.6614 371.927 80.8614 372.767 79.8347 373.34C78.808 373.913 77.6147 374.2 76.2547 374.2C75.548 374.2 74.8747 374.127 74.2347 373.98C73.5947 373.833 73.0414 373.607 72.5747 373.3L73.5347 371.34C73.9214 371.593 74.3414 371.773 74.7947 371.88C75.248 371.973 75.7147 372.02 76.1947 372.02C77.5147 372.02 78.5614 371.613 79.3347 370.8C80.108 369.987 80.4947 368.787 80.4947 367.2C80.4947 366.947 80.488 366.653 80.4747 366.32C80.4614 365.973 80.4147 365.627 80.3347 365.28L81.1347 366.16C80.908 366.707 80.5814 367.167 80.1547 367.54C79.728 367.9 79.228 368.173 78.6547 368.36C78.0814 368.547 77.448 368.64 76.7547 368.64C75.848 368.64 75.028 368.467 74.2947 368.12C73.5747 367.76 73.0014 367.26 72.5747 366.62C72.148 365.967 71.9347 365.207 71.9347 364.34C71.9347 363.407 72.1614 362.607 72.6147 361.94C73.068 361.26 73.6814 360.733 74.4547 360.36C75.2414 359.987 76.108 359.8 77.0547 359.8ZM77.1947 361.84C76.6614 361.84 76.188 361.94 75.7747 362.14C75.3614 362.327 75.0347 362.6 74.7947 362.96C74.568 363.307 74.4547 363.727 74.4547 364.22C74.4547 364.953 74.708 365.533 75.2147 365.96C75.7214 366.387 76.4014 366.6 77.2547 366.6C77.8147 366.6 78.308 366.5 78.7347 366.3C79.1614 366.087 79.4947 365.8 79.7347 365.44C79.9747 365.067 80.0947 364.653 80.0947 364.2C80.0947 363.76 79.9814 363.367 79.7547 363.02C79.528 362.66 79.2014 362.373 78.7747 362.16C78.348 361.947 77.8214 361.84 77.1947 361.84ZM85.2994 374.14C84.846 374.14 84.4594 373.987 84.1394 373.68C83.8194 373.36 83.6594 372.96 83.6594 372.48C83.6594 371.973 83.8194 371.573 84.1394 371.28C84.4594 370.973 84.846 370.82 85.2994 370.82C85.7527 370.82 86.1394 370.973 86.4594 371.28C86.7794 371.573 86.9394 371.973 86.9394 372.48C86.9394 372.96 86.7794 373.36 86.4594 373.68C86.1394 373.987 85.7527 374.14 85.2994 374.14ZM93.3278 374.2C92.2211 374.2 91.2211 373.92 90.3278 373.36C89.4478 372.8 88.7545 371.987 88.2478 370.92C87.7411 369.84 87.4878 368.533 87.4878 367C87.4878 365.467 87.7411 364.167 88.2478 363.1C88.7545 362.02 89.4478 361.2 90.3278 360.64C91.2211 360.08 92.2211 359.8 93.3278 359.8C94.4478 359.8 95.4478 360.08 96.3278 360.64C97.2078 361.2 97.9011 362.02 98.4078 363.1C98.9278 364.167 99.1878 365.467 99.1878 367C99.1878 368.533 98.9278 369.84 98.4078 370.92C97.9011 371.987 97.2078 372.8 96.3278 373.36C95.4478 373.92 94.4478 374.2 93.3278 374.2ZM93.3278 371.94C93.9811 371.94 94.5478 371.767 95.0278 371.42C95.5078 371.06 95.8811 370.513 96.1478 369.78C96.4278 369.047 96.5678 368.12 96.5678 367C96.5678 365.867 96.4278 364.94 96.1478 364.22C95.8811 363.487 95.5078 362.947 95.0278 362.6C94.5478 362.24 93.9811 362.06 93.3278 362.06C92.7011 362.06 92.1411 362.24 91.6478 362.6C91.1678 362.947 90.7878 363.487 90.5078 364.22C90.2411 364.94 90.1078 365.867 90.1078 367C90.1078 368.12 90.2411 369.047 90.5078 369.78C90.7878 370.513 91.1678 371.06 91.6478 371.42C92.1411 371.767 92.7011 371.94 93.3278 371.94ZM105.885 374.2C104.778 374.2 103.778 373.92 102.885 373.36C102.005 372.8 101.312 371.987 100.805 370.92C100.298 369.84 100.045 368.533 100.045 367C100.045 365.467 100.298 364.167 100.805 363.1C101.312 362.02 102.005 361.2 102.885 360.64C103.778 360.08 104.778 359.8 105.885 359.8C107.005 359.8 108.005 360.08 108.885 360.64C109.765 361.2 110.458 362.02 110.965 363.1C111.485 364.167 111.745 365.467 111.745 367C111.745 368.533 111.485 369.84 110.965 370.92C110.458 371.987 109.765 372.8 108.885 373.36C108.005 373.92 107.005 374.2 105.885 374.2ZM105.885 371.94C106.538 371.94 107.105 371.767 107.585 371.42C108.065 371.06 108.438 370.513 108.705 369.78C108.985 369.047 109.125 368.12 109.125 367C109.125 365.867 108.985 364.94 108.705 364.22C108.438 363.487 108.065 362.947 107.585 362.6C107.105 362.24 106.538 362.06 105.885 362.06C105.258 362.06 104.698 362.24 104.205 362.6C103.725 362.947 103.345 363.487 103.065 364.22C102.798 364.94 102.665 365.867 102.665 367C102.665 368.12 102.798 369.047 103.065 369.78C103.345 370.513 103.725 371.06 104.205 371.42C104.698 371.767 105.258 371.94 105.885 371.94Z" fill="#1C1C1C"/>
<path d="M30.71 334V323.5H34.64C35.53 323.5 36.295 323.645 36.935 323.935C37.575 324.215 38.065 324.625 38.405 325.165C38.755 325.695 38.93 326.34 38.93 327.1C38.93 327.84 38.755 328.48 38.405 329.02C38.065 329.55 37.575 329.96 36.935 330.25C36.295 330.54 35.53 330.685 34.64 330.685H31.325L31.82 330.16V334H30.71ZM31.82 330.25L31.325 329.71H34.61C35.66 329.71 36.455 329.485 36.995 329.035C37.545 328.575 37.82 327.93 37.82 327.1C37.82 326.26 37.545 325.61 36.995 325.15C36.455 324.69 35.66 324.46 34.61 324.46H31.325L31.82 323.935V330.25ZM43.5962 334.075C42.8362 334.075 42.1512 333.905 41.5412 333.565C40.9412 333.215 40.4662 332.74 40.1162 332.14C39.7662 331.53 39.5912 330.835 39.5912 330.055C39.5912 329.265 39.7662 328.57 40.1162 327.97C40.4662 327.37 40.9412 326.9 41.5412 326.56C42.1412 326.22 42.8262 326.05 43.5962 326.05C44.3762 326.05 45.0662 326.22 45.6662 326.56C46.2762 326.9 46.7512 327.37 47.0912 327.97C47.4412 328.57 47.6162 329.265 47.6162 330.055C47.6162 330.835 47.4412 331.53 47.0912 332.14C46.7512 332.74 46.2762 333.215 45.6662 333.565C45.0562 333.905 44.3662 334.075 43.5962 334.075ZM43.5962 333.13C44.1662 333.13 44.6712 333.005 45.1112 332.755C45.5512 332.495 45.8962 332.135 46.1462 331.675C46.4062 331.205 46.5362 330.665 46.5362 330.055C46.5362 329.435 46.4062 328.895 46.1462 328.435C45.8962 327.975 45.5512 327.62 45.1112 327.37C44.6712 327.11 44.1712 326.98 43.6112 326.98C43.0512 326.98 42.5512 327.11 42.1112 327.37C41.6712 327.62 41.3212 327.975 41.0612 328.435C40.8012 328.895 40.6712 329.435 40.6712 330.055C40.6712 330.665 40.8012 331.205 41.0612 331.675C41.3212 332.135 41.6712 332.495 42.1112 332.755C42.5512 333.005 43.0462 333.13 43.5962 333.13ZM51.6055 334.075C50.8655 334.075 50.2955 333.875 49.8955 333.475C49.4955 333.075 49.2955 332.51 49.2955 331.78V324.385H50.3605V331.72C50.3605 332.18 50.4755 332.535 50.7055 332.785C50.9455 333.035 51.2855 333.16 51.7255 333.16C52.1955 333.16 52.5855 333.025 52.8955 332.755L53.2705 333.52C53.0605 333.71 52.8055 333.85 52.5055 333.94C52.2155 334.03 51.9155 334.075 51.6055 334.075ZM47.8855 327.01V326.125H52.7605V327.01H47.8855ZM57.6009 334.075C56.7809 334.075 56.0609 333.905 55.4409 333.565C54.8209 333.215 54.3359 332.74 53.9859 332.14C53.6359 331.53 53.4609 330.835 53.4609 330.055C53.4609 329.275 53.6259 328.585 53.9559 327.985C54.2959 327.385 54.7559 326.915 55.3359 326.575C55.9259 326.225 56.5859 326.05 57.3159 326.05C58.0559 326.05 58.7109 326.22 59.2809 326.56C59.8609 326.89 60.3159 327.36 60.6459 327.97C60.9759 328.57 61.1409 329.265 61.1409 330.055C61.1409 330.105 61.1359 330.16 61.1259 330.22C61.1259 330.27 61.1259 330.325 61.1259 330.385H54.2709V329.59H60.5559L60.1359 329.905C60.1359 329.335 60.0109 328.83 59.7609 328.39C59.5209 327.94 59.1909 327.59 58.7709 327.34C58.3509 327.09 57.8659 326.965 57.3159 326.965C56.7759 326.965 56.2909 327.09 55.8609 327.34C55.4309 327.59 55.0959 327.94 54.8559 328.39C54.6159 328.84 54.4959 329.355 54.4959 329.935V330.1C54.4959 330.7 54.6259 331.23 54.8859 331.69C55.1559 332.14 55.5259 332.495 55.9959 332.755C56.4759 333.005 57.0209 333.13 57.6309 333.13C58.1109 333.13 58.5559 333.045 58.9659 332.875C59.3859 332.705 59.7459 332.445 60.0459 332.095L60.6459 332.785C60.2959 333.205 59.8559 333.525 59.3259 333.745C58.8059 333.965 58.2309 334.075 57.6009 334.075ZM66.6536 326.05C67.2936 326.05 67.8536 326.175 68.3336 326.425C68.8236 326.665 69.2036 327.035 69.4736 327.535C69.7536 328.035 69.8936 328.665 69.8936 329.425V334H68.8286V329.53C68.8286 328.7 68.6186 328.075 68.1986 327.655C67.7886 327.225 67.2086 327.01 66.4586 327.01C65.8986 327.01 65.4086 327.125 64.9886 327.355C64.5786 327.575 64.2586 327.9 64.0286 328.33C63.8086 328.75 63.6986 329.26 63.6986 329.86V334H62.6336V326.125H63.6536V328.285L63.4886 327.88C63.7386 327.31 64.1386 326.865 64.6886 326.545C65.2386 326.215 65.8936 326.05 66.6536 326.05ZM74.5854 334.075C73.8454 334.075 73.2754 333.875 72.8754 333.475C72.4754 333.075 72.2754 332.51 72.2754 331.78V324.385H73.3404V331.72C73.3404 332.18 73.4554 332.535 73.6854 332.785C73.9254 333.035 74.2654 333.16 74.7054 333.16C75.1754 333.16 75.5654 333.025 75.8754 332.755L76.2504 333.52C76.0404 333.71 75.7854 333.85 75.4854 333.94C75.1954 334.03 74.8954 334.075 74.5854 334.075ZM70.8654 327.01V326.125H75.7404V327.01H70.8654ZM77.5141 334V326.125H78.5791V334H77.5141ZM78.0541 324.385C77.8341 324.385 77.6491 324.31 77.4991 324.16C77.3491 324.01 77.2741 323.83 77.2741 323.62C77.2741 323.41 77.3491 323.235 77.4991 323.095C77.6491 322.945 77.8341 322.87 78.0541 322.87C78.2741 322.87 78.4591 322.94 78.6091 323.08C78.7591 323.22 78.8341 323.395 78.8341 323.605C78.8341 323.825 78.7591 324.01 78.6091 324.16C78.4691 324.31 78.2841 324.385 78.0541 324.385ZM88.1382 326.05C88.7782 326.05 89.3382 326.175 89.8182 326.425C90.3082 326.665 90.6882 327.035 90.9582 327.535C91.2382 328.035 91.3782 328.665 91.3782 329.425V334H90.3132V329.53C90.3132 328.7 90.1032 328.075 89.6832 327.655C89.2732 327.225 88.6932 327.01 87.9432 327.01C87.3832 327.01 86.8932 327.125 86.4732 327.355C86.0632 327.575 85.7432 327.9 85.5132 328.33C85.2932 328.75 85.1832 329.26 85.1832 329.86V334H84.1182V326.125H85.1382V328.285L84.9732 327.88C85.2232 327.31 85.6232 326.865 86.1732 326.545C86.7232 326.215 87.3782 326.05 88.1382 326.05ZM96.8349 334.075C96.1649 334.075 95.5799 333.95 95.0799 333.7C94.5799 333.45 94.1899 333.075 93.9099 332.575C93.6399 332.075 93.5049 331.45 93.5049 330.7V326.125H94.5699V330.58C94.5699 331.42 94.7749 332.055 95.1849 332.485C95.6049 332.905 96.1899 333.115 96.9399 333.115C97.4899 333.115 97.9649 333.005 98.3649 332.785C98.7749 332.555 99.0849 332.225 99.2949 331.795C99.5149 331.365 99.6249 330.85 99.6249 330.25V326.125H100.69V334H99.6699V331.84L99.8349 332.23C99.5849 332.81 99.1949 333.265 98.6649 333.595C98.1449 333.915 97.5349 334.075 96.8349 334.075ZM102.983 334V322.87H104.048V334H102.983ZM106.336 334V322.87H107.401V334H106.336ZM114.625 334V332.26L114.58 331.975V329.065C114.58 328.395 114.39 327.88 114.01 327.52C113.64 327.16 113.085 326.98 112.345 326.98C111.835 326.98 111.35 327.065 110.89 327.235C110.43 327.405 110.04 327.63 109.72 327.91L109.24 327.115C109.64 326.775 110.12 326.515 110.68 326.335C111.24 326.145 111.83 326.05 112.45 326.05C113.47 326.05 114.255 326.305 114.805 326.815C115.365 327.315 115.645 328.08 115.645 329.11V334H114.625ZM111.91 334.075C111.32 334.075 110.805 333.98 110.365 333.79C109.935 333.59 109.605 333.32 109.375 332.98C109.145 332.63 109.03 332.23 109.03 331.78C109.03 331.37 109.125 331 109.315 330.67C109.515 330.33 109.835 330.06 110.275 329.86C110.725 329.65 111.325 329.545 112.075 329.545H114.79V330.34H112.105C111.345 330.34 110.815 330.475 110.515 330.745C110.225 331.015 110.08 331.35 110.08 331.75C110.08 332.2 110.255 332.56 110.605 332.83C110.955 333.1 111.445 333.235 112.075 333.235C112.675 333.235 113.19 333.1 113.62 332.83C114.06 332.55 114.38 332.15 114.58 331.63L114.82 332.365C114.62 332.885 114.27 333.3 113.77 333.61C113.28 333.92 112.66 334.075 111.91 334.075ZM127.702 326.05C128.342 326.05 128.897 326.175 129.367 326.425C129.847 326.665 130.217 327.035 130.477 327.535C130.747 328.035 130.882 328.665 130.882 329.425V334H129.817V329.53C129.817 328.7 129.617 328.075 129.217 327.655C128.827 327.225 128.272 327.01 127.552 327.01C127.012 327.01 126.542 327.125 126.142 327.355C125.752 327.575 125.447 327.9 125.227 328.33C125.017 328.75 124.912 329.26 124.912 329.86V334H123.847V329.53C123.847 328.7 123.647 328.075 123.247 327.655C122.847 327.225 122.287 327.01 121.567 327.01C121.037 327.01 120.572 327.125 120.172 327.355C119.772 327.575 119.462 327.9 119.242 328.33C119.032 328.75 118.927 329.26 118.927 329.86V334H117.862V326.125H118.882V328.255L118.717 327.88C118.957 327.31 119.342 326.865 119.872 326.545C120.412 326.215 121.047 326.05 121.777 326.05C122.547 326.05 123.202 326.245 123.742 326.635C124.282 327.015 124.632 327.59 124.792 328.36L124.372 328.195C124.602 327.555 125.007 327.04 125.587 326.65C126.177 326.25 126.882 326.05 127.702 326.05ZM141.281 334V332.26L141.236 331.975V329.065C141.236 328.395 141.046 327.88 140.666 327.52C140.296 327.16 139.741 326.98 139.001 326.98C138.491 326.98 138.006 327.065 137.546 327.235C137.086 327.405 136.696 327.63 136.376 327.91L135.896 327.115C136.296 326.775 136.776 326.515 137.336 326.335C137.896 326.145 138.486 326.05 139.106 326.05C140.126 326.05 140.911 326.305 141.461 326.815C142.021 327.315 142.301 328.08 142.301 329.11V334H141.281ZM138.566 334.075C137.976 334.075 137.461 333.98 137.021 333.79C136.591 333.59 136.261 333.32 136.031 332.98C135.801 332.63 135.686 332.23 135.686 331.78C135.686 331.37 135.781 331 135.971 330.67C136.171 330.33 136.491 330.06 136.931 329.86C137.381 329.65 137.981 329.545 138.731 329.545H141.446V330.34H138.761C138.001 330.34 137.471 330.475 137.171 330.745C136.881 331.015 136.736 331.35 136.736 331.75C136.736 332.2 136.911 332.56 137.261 332.83C137.611 333.1 138.101 333.235 138.731 333.235C139.331 333.235 139.846 333.1 140.276 332.83C140.716 332.55 141.036 332.15 141.236 331.63L141.476 332.365C141.276 332.885 140.926 333.3 140.426 333.61C139.936 333.92 139.316 334.075 138.566 334.075ZM147.789 334.075C147.009 334.075 146.309 333.905 145.689 333.565C145.079 333.215 144.599 332.74 144.249 332.14C143.899 331.53 143.724 330.835 143.724 330.055C143.724 329.265 143.899 328.57 144.249 327.97C144.599 327.37 145.079 326.9 145.689 326.56C146.309 326.22 147.009 326.05 147.789 326.05C148.459 326.05 149.064 326.18 149.604 326.44C150.144 326.7 150.569 327.09 150.879 327.61L150.084 328.15C149.814 327.75 149.479 327.455 149.079 327.265C148.679 327.075 148.244 326.98 147.774 326.98C147.214 326.98 146.709 327.11 146.259 327.37C145.809 327.62 145.454 327.975 145.194 328.435C144.934 328.895 144.804 329.435 144.804 330.055C144.804 330.675 144.934 331.215 145.194 331.675C145.454 332.135 145.809 332.495 146.259 332.755C146.709 333.005 147.214 333.13 147.774 333.13C148.244 333.13 148.679 333.035 149.079 332.845C149.479 332.655 149.814 332.365 150.084 331.975L150.879 332.515C150.569 333.025 150.144 333.415 149.604 333.685C149.064 333.945 148.459 334.075 147.789 334.075ZM158.037 334.075C157.297 334.075 156.727 333.875 156.327 333.475C155.927 333.075 155.727 332.51 155.727 331.78V324.385H156.792V331.72C156.792 332.18 156.907 332.535 157.137 332.785C157.377 333.035 157.717 333.16 158.157 333.16C158.627 333.16 159.017 333.025 159.327 332.755L159.702 333.52C159.492 333.71 159.237 333.85 158.937 333.94C158.647 334.03 158.347 334.075 158.037 334.075ZM154.317 327.01V326.125H159.192V327.01H154.317ZM163.897 334.075C163.137 334.075 162.452 333.905 161.842 333.565C161.242 333.215 160.767 332.74 160.417 332.14C160.067 331.53 159.892 330.835 159.892 330.055C159.892 329.265 160.067 328.57 160.417 327.97C160.767 327.37 161.242 326.9 161.842 326.56C162.442 326.22 163.127 326.05 163.897 326.05C164.677 326.05 165.367 326.22 165.967 326.56C166.577 326.9 167.052 327.37 167.392 327.97C167.742 328.57 167.917 329.265 167.917 330.055C167.917 330.835 167.742 331.53 167.392 332.14C167.052 332.74 166.577 333.215 165.967 333.565C165.357 333.905 164.667 334.075 163.897 334.075ZM163.897 333.13C164.467 333.13 164.972 333.005 165.412 332.755C165.852 332.495 166.197 332.135 166.447 331.675C166.707 331.205 166.837 330.665 166.837 330.055C166.837 329.435 166.707 328.895 166.447 328.435C166.197 327.975 165.852 327.62 165.412 327.37C164.972 327.11 164.472 326.98 163.912 326.98C163.352 326.98 162.852 327.11 162.412 327.37C161.972 327.62 161.622 327.975 161.362 328.435C161.102 328.895 160.972 329.435 160.972 330.055C160.972 330.665 161.102 331.205 161.362 331.675C161.622 332.135 161.972 332.495 162.412 332.755C162.852 333.005 163.347 333.13 163.897 333.13ZM169.417 334V326.125H170.437V328.27L170.332 327.895C170.552 327.295 170.922 326.84 171.442 326.53C171.962 326.21 172.607 326.05 173.377 326.05V327.085C173.337 327.085 173.297 327.085 173.257 327.085C173.217 327.075 173.177 327.07 173.137 327.07C172.307 327.07 171.657 327.325 171.187 327.835C170.717 328.335 170.482 329.05 170.482 329.98V334H169.417ZM177.472 334.075C176.732 334.075 176.162 333.875 175.762 333.475C175.362 333.075 175.162 332.51 175.162 331.78V324.385H176.227V331.72C176.227 332.18 176.342 332.535 176.572 332.785C176.812 333.035 177.152 333.16 177.592 333.16C178.062 333.16 178.452 333.025 178.762 332.755L179.137 333.52C178.927 333.71 178.672 333.85 178.372 333.94C178.082 334.03 177.782 334.075 177.472 334.075ZM173.752 327.01V326.125H178.627V327.01H173.752ZM183.332 334.075C182.572 334.075 181.887 333.905 181.277 333.565C180.677 333.215 180.202 332.74 179.852 332.14C179.502 331.53 179.327 330.835 179.327 330.055C179.327 329.265 179.502 328.57 179.852 327.97C180.202 327.37 180.677 326.9 181.277 326.56C181.877 326.22 182.562 326.05 183.332 326.05C184.112 326.05 184.802 326.22 185.402 326.56C186.012 326.9 186.487 327.37 186.827 327.97C187.177 328.57 187.352 329.265 187.352 330.055C187.352 330.835 187.177 331.53 186.827 332.14C186.487 332.74 186.012 333.215 185.402 333.565C184.792 333.905 184.102 334.075 183.332 334.075ZM183.332 333.13C183.902 333.13 184.407 333.005 184.847 332.755C185.287 332.495 185.632 332.135 185.882 331.675C186.142 331.205 186.272 330.665 186.272 330.055C186.272 329.435 186.142 328.895 185.882 328.435C185.632 327.975 185.287 327.62 184.847 327.37C184.407 327.11 183.907 326.98 183.347 326.98C182.787 326.98 182.287 327.11 181.847 327.37C181.407 327.62 181.057 327.975 180.797 328.435C180.537 328.895 180.407 329.435 180.407 330.055C180.407 330.665 180.537 331.205 180.797 331.675C181.057 332.135 181.407 332.495 181.847 332.755C182.287 333.005 182.782 333.13 183.332 333.13ZM188.852 334V326.125H189.872V328.27L189.767 327.895C189.987 327.295 190.357 326.84 190.877 326.53C191.397 326.21 192.042 326.05 192.812 326.05V327.085C192.772 327.085 192.732 327.085 192.692 327.085C192.652 327.075 192.612 327.07 192.572 327.07C191.742 327.07 191.092 327.325 190.622 327.835C190.152 328.335 189.917 329.05 189.917 329.98V334H188.852ZM199.473 334L195.978 326.125H197.088L200.298 333.43H199.773L203.028 326.125H204.078L200.568 334H199.473ZM204.903 334V326.125H205.968V334H204.903ZM205.443 324.385C205.223 324.385 205.038 324.31 204.888 324.16C204.738 324.01 204.663 323.83 204.663 323.62C204.663 323.41 204.738 323.235 204.888 323.095C205.038 322.945 205.223 322.87 205.443 322.87C205.663 322.87 205.848 322.94 205.998 323.08C206.148 323.22 206.223 323.395 206.223 323.605C206.223 323.825 206.148 324.01 205.998 324.16C205.858 324.31 205.673 324.385 205.443 324.385ZM210.746 334.075C210.006 334.075 209.436 333.875 209.036 333.475C208.636 333.075 208.436 332.51 208.436 331.78V324.385H209.501V331.72C209.501 332.18 209.616 332.535 209.846 332.785C210.086 333.035 210.426 333.16 210.866 333.16C211.336 333.16 211.726 333.025 212.036 332.755L212.411 333.52C212.201 333.71 211.946 333.85 211.646 333.94C211.356 334.03 211.056 334.075 210.746 334.075ZM207.026 327.01V326.125H211.901V327.01H207.026ZM218.61 334V332.26L218.565 331.975V329.065C218.565 328.395 218.375 327.88 217.995 327.52C217.625 327.16 217.07 326.98 216.33 326.98C215.82 326.98 215.335 327.065 214.875 327.235C214.415 327.405 214.025 327.63 213.705 327.91L213.225 327.115C213.625 326.775 214.105 326.515 214.665 326.335C215.225 326.145 215.815 326.05 216.435 326.05C217.455 326.05 218.24 326.305 218.79 326.815C219.35 327.315 219.63 328.08 219.63 329.11V334H218.61ZM215.895 334.075C215.305 334.075 214.79 333.98 214.35 333.79C213.92 333.59 213.59 333.32 213.36 332.98C213.13 332.63 213.015 332.23 213.015 331.78C213.015 331.37 213.11 331 213.3 330.67C213.5 330.33 213.82 330.06 214.26 329.86C214.71 329.65 215.31 329.545 216.06 329.545H218.775V330.34H216.09C215.33 330.34 214.8 330.475 214.5 330.745C214.21 331.015 214.065 331.35 214.065 331.75C214.065 332.2 214.24 332.56 214.59 332.83C214.94 333.1 215.43 333.235 216.06 333.235C216.66 333.235 217.175 333.1 217.605 332.83C218.045 332.55 218.365 332.15 218.565 331.63L218.805 332.365C218.605 332.885 218.255 333.3 217.755 333.61C217.265 333.92 216.645 334.075 215.895 334.075ZM225.193 334.075C224.373 334.075 223.653 333.905 223.033 333.565C222.413 333.215 221.928 332.74 221.578 332.14C221.228 331.53 221.053 330.835 221.053 330.055C221.053 329.275 221.218 328.585 221.548 327.985C221.888 327.385 222.348 326.915 222.928 326.575C223.518 326.225 224.178 326.05 224.908 326.05C225.648 326.05 226.303 326.22 226.873 326.56C227.453 326.89 227.908 327.36 228.238 327.97C228.568 328.57 228.733 329.265 228.733 330.055C228.733 330.105 228.728 330.16 228.718 330.22C228.718 330.27 228.718 330.325 228.718 330.385H221.863V329.59H228.148L227.728 329.905C227.728 329.335 227.603 328.83 227.353 328.39C227.113 327.94 226.783 327.59 226.363 327.34C225.943 327.09 225.458 326.965 224.908 326.965C224.368 326.965 223.883 327.09 223.453 327.34C223.023 327.59 222.688 327.94 222.448 328.39C222.208 328.84 222.088 329.355 222.088 329.935V330.1C222.088 330.7 222.218 331.23 222.478 331.69C222.748 332.14 223.118 332.495 223.588 332.755C224.068 333.005 224.613 333.13 225.223 333.13C225.703 333.13 226.148 333.045 226.558 332.875C226.978 332.705 227.338 332.445 227.638 332.095L228.238 332.785C227.888 333.205 227.448 333.525 226.918 333.745C226.398 333.965 225.823 334.075 225.193 334.075ZM237.541 334.075C236.861 334.075 236.246 333.92 235.696 333.61C235.146 333.29 234.706 332.835 234.376 332.245C234.056 331.645 233.896 330.915 233.896 330.055C233.896 329.195 234.056 328.47 234.376 327.88C234.696 327.28 235.131 326.825 235.681 326.515C236.231 326.205 236.851 326.05 237.541 326.05C238.291 326.05 238.961 326.22 239.551 326.56C240.151 326.89 240.621 327.36 240.961 327.97C241.301 328.57 241.471 329.265 241.471 330.055C241.471 330.855 241.301 331.555 240.961 332.155C240.621 332.755 240.151 333.225 239.551 333.565C238.961 333.905 238.291 334.075 237.541 334.075ZM233.476 336.91V326.125H234.496V328.495L234.391 330.07L234.541 331.66V336.91H233.476ZM237.466 333.13C238.026 333.13 238.526 333.005 238.966 332.755C239.406 332.495 239.756 332.135 240.016 331.675C240.276 331.205 240.406 330.665 240.406 330.055C240.406 329.445 240.276 328.91 240.016 328.45C239.756 327.99 239.406 327.63 238.966 327.37C238.526 327.11 238.026 326.98 237.466 326.98C236.906 326.98 236.401 327.11 235.951 327.37C235.511 327.63 235.161 327.99 234.901 328.45C234.651 328.91 234.526 329.445 234.526 330.055C234.526 330.665 234.651 331.205 234.901 331.675C235.161 332.135 235.511 332.495 235.951 332.755C236.401 333.005 236.906 333.13 237.466 333.13ZM246.222 334.075C245.552 334.075 244.967 333.95 244.467 333.7C243.967 333.45 243.577 333.075 243.297 332.575C243.027 332.075 242.892 331.45 242.892 330.7V326.125H243.957V330.58C243.957 331.42 244.162 332.055 244.572 332.485C244.992 332.905 245.577 333.115 246.327 333.115C246.877 333.115 247.352 333.005 247.752 332.785C248.162 332.555 248.472 332.225 248.682 331.795C248.902 331.365 249.012 330.85 249.012 330.25V326.125H250.077V334H249.057V331.84L249.222 332.23C248.972 332.81 248.582 333.265 248.052 333.595C247.532 333.915 246.922 334.075 246.222 334.075ZM252.37 334V326.125H253.39V328.27L253.285 327.895C253.505 327.295 253.875 326.84 254.395 326.53C254.915 326.21 255.56 326.05 256.33 326.05V327.085C256.29 327.085 256.25 327.085 256.21 327.085C256.17 327.075 256.13 327.07 256.09 327.07C255.26 327.07 254.61 327.325 254.14 327.835C253.67 328.335 253.435 329.05 253.435 329.98V334H252.37ZM260.971 334.075C260.301 334.075 259.716 333.95 259.216 333.7C258.716 333.45 258.326 333.075 258.046 332.575C257.776 332.075 257.641 331.45 257.641 330.7V326.125H258.706V330.58C258.706 331.42 258.911 332.055 259.321 332.485C259.741 332.905 260.326 333.115 261.076 333.115C261.626 333.115 262.101 333.005 262.501 332.785C262.911 332.555 263.221 332.225 263.431 331.795C263.651 331.365 263.761 330.85 263.761 330.25V326.125H264.826V334H263.806V331.84L263.971 332.23C263.721 332.81 263.331 333.265 262.801 333.595C262.281 333.915 261.671 334.075 260.971 334.075ZM269.234 334.075C268.584 334.075 267.969 333.985 267.389 333.805C266.809 333.615 266.354 333.38 266.024 333.1L266.504 332.26C266.824 332.5 267.234 332.71 267.734 332.89C268.234 333.06 268.759 333.145 269.309 333.145C270.059 333.145 270.599 333.03 270.929 332.8C271.259 332.56 271.424 332.245 271.424 331.855C271.424 331.565 271.329 331.34 271.139 331.18C270.959 331.01 270.719 330.885 270.419 330.805C270.119 330.715 269.784 330.64 269.414 330.58C269.044 330.52 268.674 330.45 268.304 330.37C267.944 330.29 267.614 330.175 267.314 330.025C267.014 329.865 266.769 329.65 266.579 329.38C266.399 329.11 266.309 328.75 266.309 328.3C266.309 327.87 266.429 327.485 266.669 327.145C266.909 326.805 267.259 326.54 267.719 326.35C268.189 326.15 268.759 326.05 269.429 326.05C269.939 326.05 270.449 326.12 270.959 326.26C271.469 326.39 271.889 326.565 272.219 326.785L271.754 327.64C271.404 327.4 271.029 327.23 270.629 327.13C270.229 327.02 269.829 326.965 269.429 326.965C268.719 326.965 268.194 327.09 267.854 327.34C267.524 327.58 267.359 327.89 267.359 328.27C267.359 328.57 267.449 328.805 267.629 328.975C267.819 329.145 268.064 329.28 268.364 329.38C268.674 329.47 269.009 329.545 269.369 329.605C269.739 329.665 270.104 329.74 270.464 329.83C270.834 329.91 271.169 330.025 271.469 330.175C271.779 330.315 272.024 330.52 272.204 330.79C272.394 331.05 272.489 331.395 272.489 331.825C272.489 332.285 272.359 332.685 272.099 333.025C271.849 333.355 271.479 333.615 270.989 333.805C270.509 333.985 269.924 334.075 269.234 334.075ZM273.873 334.075C273.653 334.075 273.463 333.995 273.303 333.835C273.153 333.675 273.078 333.48 273.078 333.25C273.078 333.01 273.153 332.815 273.303 332.665C273.463 332.515 273.653 332.44 273.873 332.44C274.093 332.44 274.278 332.515 274.428 332.665C274.588 332.815 274.668 333.01 274.668 333.25C274.668 333.48 274.588 333.675 274.428 333.835C274.278 333.995 274.093 334.075 273.873 334.075Z" fill="black"/>
<path d="M36.315 308.18C35.485 308.18 34.72 308.05 34.02 307.79C33.33 307.52 32.725 307.14 32.205 306.65C31.695 306.16 31.295 305.585 31.005 304.925C30.725 304.265 30.585 303.54 30.585 302.75C30.585 301.96 30.725 301.235 31.005 300.575C31.295 299.915 31.7 299.34 32.22 298.85C32.74 298.36 33.35 297.985 34.05 297.725C34.75 297.455 35.52 297.32 36.36 297.32C37.29 297.32 38.125 297.475 38.865 297.785C39.615 298.095 40.245 298.545 40.755 299.135L39.195 300.575C38.815 300.175 38.4 299.88 37.95 299.69C37.5 299.49 37.01 299.39 36.48 299.39C35.97 299.39 35.505 299.47 35.085 299.63C34.665 299.79 34.3 300.02 33.99 300.32C33.69 300.62 33.455 300.975 33.285 301.385C33.125 301.795 33.045 302.25 33.045 302.75C33.045 303.24 33.125 303.69 33.285 304.1C33.455 304.51 33.69 304.87 33.99 305.18C34.3 305.48 34.66 305.71 35.07 305.87C35.49 306.03 35.95 306.11 36.45 306.11C36.93 306.11 37.395 306.035 37.845 305.885C38.305 305.725 38.75 305.46 39.18 305.09L40.56 306.845C39.99 307.275 39.325 307.605 38.565 307.835C37.815 308.065 37.065 308.18 36.315 308.18ZM38.34 306.53V302.585H40.56V306.845L38.34 306.53ZM42.1423 308V297.5H46.6873C47.6273 297.5 48.4373 297.655 49.1173 297.965C49.7973 298.265 50.3223 298.7 50.6923 299.27C51.0623 299.84 51.2473 300.52 51.2473 301.31C51.2473 302.09 51.0623 302.765 50.6923 303.335C50.3223 303.895 49.7973 304.325 49.1173 304.625C48.4373 304.925 47.6273 305.075 46.6873 305.075H43.4923L44.5723 304.01V308H42.1423ZM48.8173 308L46.1923 304.19H48.7873L51.4423 308H48.8173ZM44.5723 304.28L43.4923 303.14H46.5523C47.3023 303.14 47.8623 302.98 48.2323 302.66C48.6023 302.33 48.7873 301.88 48.7873 301.31C48.7873 300.73 48.6023 300.28 48.2323 299.96C47.8623 299.64 47.3023 299.48 46.5523 299.48H43.4923L44.5723 298.325V304.28ZM51.1175 308L55.7975 297.5H58.1975L62.8925 308H60.3425L56.5025 298.73H57.4625L53.6075 308H51.1175ZM53.4575 305.75L54.1025 303.905H59.5025L60.1625 305.75H53.4575ZM63.3069 308V297.5H65.3169L71.5119 305.06H70.5369V297.5H72.9369V308H70.9419L64.7319 300.44H65.7069V308H63.3069ZM74.7462 308V297.5H77.1762V308H74.7462ZM81.168 308V299.48H77.808V297.5H86.958V299.48H83.598V308H81.168ZM89.8255 301.73H94.8805V303.62H89.8255V301.73ZM90.0055 306.05H95.7205V308H87.5905V297.5H95.5255V299.45H90.0055V306.05ZM100.552 308V297.5H102.982V306.02H108.247V308H100.552ZM113.854 308.18C113.024 308.18 112.254 308.045 111.544 307.775C110.844 307.505 110.234 307.125 109.714 306.635C109.204 306.145 108.804 305.57 108.514 304.91C108.234 304.25 108.094 303.53 108.094 302.75C108.094 301.97 108.234 301.25 108.514 300.59C108.804 299.93 109.209 299.355 109.729 298.865C110.249 298.375 110.859 297.995 111.559 297.725C112.259 297.455 113.019 297.32 113.839 297.32C114.669 297.32 115.429 297.455 116.119 297.725C116.819 297.995 117.424 298.375 117.934 298.865C118.454 299.355 118.859 299.93 119.149 300.59C119.439 301.24 119.584 301.96 119.584 302.75C119.584 303.53 119.439 304.255 119.149 304.925C118.859 305.585 118.454 306.16 117.934 306.65C117.424 307.13 116.819 307.505 116.119 307.775C115.429 308.045 114.674 308.18 113.854 308.18ZM113.839 306.11C114.309 306.11 114.739 306.03 115.129 305.87C115.529 305.71 115.879 305.48 116.179 305.18C116.479 304.88 116.709 304.525 116.869 304.115C117.039 303.705 117.124 303.25 117.124 302.75C117.124 302.25 117.039 301.795 116.869 301.385C116.709 300.975 116.479 300.62 116.179 300.32C115.889 300.02 115.544 299.79 115.144 299.63C114.744 299.47 114.309 299.39 113.839 299.39C113.369 299.39 112.934 299.47 112.534 299.63C112.144 299.79 111.799 300.02 111.499 300.32C111.199 300.62 110.964 300.975 110.794 301.385C110.634 301.795 110.554 302.25 110.554 302.75C110.554 303.24 110.634 303.695 110.794 304.115C110.964 304.525 111.194 304.88 111.484 305.18C111.784 305.48 112.134 305.71 112.534 305.87C112.934 306.03 113.369 306.11 113.839 306.11ZM125.835 308.18C125.005 308.18 124.235 308.045 123.525 307.775C122.825 307.505 122.215 307.125 121.695 306.635C121.185 306.145 120.785 305.57 120.495 304.91C120.215 304.25 120.075 303.53 120.075 302.75C120.075 301.97 120.215 301.25 120.495 300.59C120.785 299.93 121.19 299.355 121.71 298.865C122.23 298.375 122.84 297.995 123.54 297.725C124.24 297.455 125 297.32 125.82 297.32C126.65 297.32 127.41 297.455 128.1 297.725C128.8 297.995 129.405 298.375 129.915 298.865C130.435 299.355 130.84 299.93 131.13 300.59C131.42 301.24 131.565 301.96 131.565 302.75C131.565 303.53 131.42 304.255 131.13 304.925C130.84 305.585 130.435 306.16 129.915 306.65C129.405 307.13 128.8 307.505 128.1 307.775C127.41 308.045 126.655 308.18 125.835 308.18ZM125.82 306.11C126.29 306.11 126.72 306.03 127.11 305.87C127.51 305.71 127.86 305.48 128.16 305.18C128.46 304.88 128.69 304.525 128.85 304.115C129.02 303.705 129.105 303.25 129.105 302.75C129.105 302.25 129.02 301.795 128.85 301.385C128.69 300.975 128.46 300.62 128.16 300.32C127.87 300.02 127.525 299.79 127.125 299.63C126.725 299.47 126.29 299.39 125.82 299.39C125.35 299.39 124.915 299.47 124.515 299.63C124.125 299.79 123.78 300.02 123.48 300.32C123.18 300.62 122.945 300.975 122.775 301.385C122.615 301.795 122.535 302.25 122.535 302.75C122.535 303.24 122.615 303.695 122.775 304.115C122.945 304.525 123.175 304.88 123.465 305.18C123.765 305.48 124.115 305.71 124.515 305.87C124.915 306.03 125.35 306.11 125.82 306.11ZM134.891 305.6L134.756 302.795L139.781 297.5H142.481L137.951 302.375L136.601 303.815L134.891 305.6ZM132.716 308V297.5H135.131V308H132.716ZM139.901 308L136.166 303.425L137.756 301.7L142.736 308H139.901ZM148.893 308V299.48H145.533V297.5H154.683V299.48H151.323V308H148.893ZM155.316 308V297.5H157.746V308H155.316ZM159.562 308V297.5H161.992V306.02H167.257V308H159.562ZM170.175 301.73H175.23V303.62H170.175V301.73ZM170.355 306.05H176.07V308H167.94V297.5H175.875V299.45H170.355V306.05ZM180.779 308.18C179.939 308.18 179.134 308.07 178.364 307.85C177.594 307.62 176.974 307.325 176.504 306.965L177.329 305.135C177.779 305.455 178.309 305.72 178.919 305.93C179.539 306.13 180.164 306.23 180.794 306.23C181.274 306.23 181.659 306.185 181.949 306.095C182.249 305.995 182.469 305.86 182.609 305.69C182.749 305.52 182.819 305.325 182.819 305.105C182.819 304.825 182.709 304.605 182.489 304.445C182.269 304.275 181.979 304.14 181.619 304.04C181.259 303.93 180.859 303.83 180.419 303.74C179.989 303.64 179.554 303.52 179.114 303.38C178.684 303.24 178.289 303.06 177.929 302.84C177.569 302.62 177.274 302.33 177.044 301.97C176.824 301.61 176.714 301.15 176.714 300.59C176.714 299.99 176.874 299.445 177.194 298.955C177.524 298.455 178.014 298.06 178.664 297.77C179.324 297.47 180.149 297.32 181.139 297.32C181.799 297.32 182.449 297.4 183.089 297.56C183.729 297.71 184.294 297.94 184.784 298.25L184.034 300.095C183.544 299.815 183.054 299.61 182.564 299.48C182.074 299.34 181.594 299.27 181.124 299.27C180.654 299.27 180.269 299.325 179.969 299.435C179.669 299.545 179.454 299.69 179.324 299.87C179.194 300.04 179.129 300.24 179.129 300.47C179.129 300.74 179.239 300.96 179.459 301.13C179.679 301.29 179.969 301.42 180.329 301.52C180.689 301.62 181.084 301.72 181.514 301.82C181.954 301.92 182.389 302.035 182.819 302.165C183.259 302.295 183.659 302.47 184.019 302.69C184.379 302.91 184.669 303.2 184.889 303.56C185.119 303.92 185.234 304.375 185.234 304.925C185.234 305.515 185.069 306.055 184.739 306.545C184.409 307.035 183.914 307.43 183.254 307.73C182.604 308.03 181.779 308.18 180.779 308.18Z" fill="#1C1C1C"/>
<defs>
<filter id="filter0_di_1415_110" x="0.900024" y="0.899902" width="325.2" height="413.2" filterUnits="userSpaceOnUse" color-interpolation-filters="sRGB">
<feFlood flood-opacity="0" result="BackgroundImageFix"/>
<feColorMatrix in="SourceAlpha" type="matrix" values="0 0 0 0 0 0 0 0 0 0 0 0 0 0 0 0 0 0 127 0" result="hardAlpha"/>
<feOffset dy="4"/>
<feGaussianBlur stdDeviation="2"/>
<feComposite in2="hardAlpha" operator="out"/>
<feColorMatrix type="matrix" values="0 0 0 0 0 0 0 0 0 0 0 0 0 0 0 0 0 0 0.09 0"/>
<feBlend mode="normal" in2="BackgroundImageFix" result="effect1_dropShadow_1415_110"/>
<feBlend mode="normal" in="SourceGraphic" in2="effect1_dropShadow_1415_110" result="shape"/>
<feColorMatrix in="SourceAlpha" type="matrix" values="0 0 0 0 0 0 0 0 0 0 0 0 0 0 0 0 0 0 127 0" result="hardAlpha"/>
<feMorphology radius="6" operator="dilate" in="SourceAlpha" result="effect2_innerShadow_1415_110"/>
<feOffset dx="21" dy="13"/>
<feGaussianBlur stdDeviation="15"/>
<feComposite in2="hardAlpha" operator="arithmetic" k2="-1" k3="1"/>
<feColorMatrix type="matrix" values="0 0 0 0 0.6375 0 0 0 0 0.589687 0 0 0 0 0.589687 0 0 0 0.1 0"/>
<feBlend mode="normal" in2="shape" result="effect2_innerShadow_1415_110"/>
</filter>
</defs>
</svg>
