<svg width="960" height="212" viewBox="0 0 960 212" fill="none" xmlns="http://www.w3.org/2000/svg">
<g filter="url(#filter0_i_1444_100)">
<path d="M96.2077 102.393C89.2427 102.393 83.1136 100.954 77.8202 98.0747C72.5268 95.1959 68.3943 91.0633 65.4225 85.6771C62.5437 80.198 61.1043 73.6973 61.1043 66.1752C61.1043 58.653 62.5437 52.1988 65.4225 46.8126C68.3943 41.3335 72.4804 37.1545 77.6809 34.2756C82.8814 31.3968 88.7784 29.9573 95.3719 29.9573C102.151 29.9573 107.909 31.3503 112.645 34.1363C117.381 36.9223 121.003 40.7298 123.51 45.5589C126.018 50.3879 127.271 55.867 127.271 61.9962C127.271 63.6678 127.225 65.2465 127.132 66.7324C127.039 68.2182 126.9 69.5184 126.714 70.6327H70.7159V59.2102H120.167L112.784 61.439C112.784 55.1241 111.206 50.295 108.048 46.9519C104.891 43.5158 100.572 41.7978 95.0933 41.7978C91.1001 41.7978 87.6176 42.7264 84.6459 44.5838C81.6741 46.4411 79.3989 49.2271 77.8202 52.9417C76.2415 56.5635 75.4521 61.0211 75.4521 66.3145C75.4521 71.515 76.2879 75.9261 77.9595 79.5479C79.6311 83.1697 81.9992 85.9092 85.0638 87.7666C88.1283 89.6239 91.7501 90.5525 95.9291 90.5525C100.572 90.5525 104.333 89.6703 107.212 87.9059C110.091 86.1414 112.366 83.6804 114.038 80.523L125.878 86.095C124.207 89.4382 121.932 92.3634 119.053 94.8708C116.267 97.2854 112.924 99.1427 109.023 100.443C105.123 101.743 100.851 102.393 96.2077 102.393ZM152.92 0.00798122V81.4981C152.92 84.9341 153.524 87.3022 154.731 88.6024C155.938 89.9025 157.935 90.5525 160.721 90.5525C162.392 90.5525 163.785 90.4597 164.9 90.274C166.107 89.9954 167.593 89.531 169.357 88.881L167.686 100.025C166.107 100.768 164.296 101.325 162.253 101.696C160.21 102.161 158.167 102.393 156.124 102.393C149.902 102.393 145.305 100.814 142.333 97.6568C139.454 94.4065 138.015 89.4382 138.015 82.7518V0.00798122H152.92ZM204.812 102.393C197.847 102.393 191.718 100.954 186.425 98.0747C181.131 95.1959 176.999 91.0633 174.027 85.6771C171.148 80.198 169.709 73.6973 169.709 66.1752C169.709 58.653 171.148 52.1988 174.027 46.8126C176.999 41.3335 181.085 37.1545 186.285 34.2756C191.486 31.3968 197.383 29.9573 203.976 29.9573C210.756 29.9573 216.513 31.3503 221.25 34.1363C225.986 36.9223 229.607 40.7298 232.115 45.5589C234.622 50.3879 235.876 55.867 235.876 61.9962C235.876 63.6678 235.83 65.2465 235.737 66.7324C235.644 68.2182 235.504 69.5184 235.319 70.6327H179.32V59.2102H228.772L221.389 61.439C221.389 55.1241 219.81 50.295 216.653 46.9519C213.495 43.5158 209.177 41.7978 203.698 41.7978C199.705 41.7978 196.222 42.7264 193.25 44.5838C190.279 46.4411 188.003 49.2271 186.425 52.9417C184.846 56.5635 184.057 61.0211 184.057 66.3145C184.057 71.515 184.892 75.9261 186.564 79.5479C188.236 83.1697 190.604 85.9092 193.668 87.7666C196.733 89.6239 200.355 90.5525 204.534 90.5525C209.177 90.5525 212.938 89.6703 215.817 87.9059C218.696 86.1414 220.971 83.6804 222.643 80.523L234.483 86.095C232.811 89.4382 230.536 92.3634 227.657 94.8708C224.871 97.2854 221.528 99.1427 217.628 100.443C213.727 101.743 209.456 102.393 204.812 102.393ZM290.826 31.3503H306.428L278.707 101H262.409L234.549 31.3503H250.847L270.628 88.0452L290.826 31.3503ZM350.099 56.2849C350.099 51.6416 348.799 48.0663 346.199 45.5589C343.691 42.9586 340.209 41.6585 335.751 41.6585C331.572 41.6585 327.997 42.6336 325.025 44.5838C322.054 46.534 319.871 49.6914 318.478 54.0561L305.941 48.7627C307.706 43.0979 311.142 38.5475 316.249 35.1114C321.45 31.6754 328.136 29.9573 336.309 29.9573C341.881 29.9573 346.802 30.886 351.074 32.7433C355.346 34.5078 358.689 37.2009 361.104 40.8227C363.611 44.4445 364.865 49.0878 364.865 54.7526V85.8164C364.865 89.2524 366.583 90.9704 370.019 90.9704C371.691 90.9704 373.316 90.7383 374.895 90.274L374.059 100.582C371.923 101.604 369.23 102.114 365.979 102.114C363.008 102.114 360.315 101.604 357.9 100.582C355.578 99.4677 353.721 97.8425 352.328 95.7066C351.028 93.4778 350.378 90.7383 350.378 87.488V86.5129L353.442 86.3736C352.607 89.9954 350.889 93.0135 348.288 95.428C345.688 97.7497 342.67 99.5141 339.234 100.721C335.798 101.836 332.315 102.393 328.786 102.393C324.422 102.393 320.475 101.696 316.946 100.304C313.51 98.9105 310.77 96.821 308.727 94.035C306.777 91.1562 305.802 87.6273 305.802 83.4483C305.802 78.2478 307.474 73.9759 310.817 70.6327C314.253 67.2896 319.082 65.0143 325.304 63.8071L352.328 58.5137L352.189 68.9612L332.548 73.0008C328.647 73.7438 325.722 74.8117 323.772 76.2047C321.821 77.5977 320.846 79.6408 320.846 82.3339C320.846 84.9341 321.821 87.0236 323.772 88.6024C325.815 90.0882 328.508 90.8311 331.851 90.8311C334.173 90.8311 336.401 90.5525 338.537 89.9954C340.766 89.4382 342.763 88.5559 344.527 87.3487C346.292 86.0485 347.638 84.4234 348.567 82.4732C349.588 80.4301 350.099 78.0156 350.099 75.2296V56.2849ZM399.241 10.8733V80.1051C399.241 83.5411 400.124 86.0485 401.888 87.6273C403.745 89.206 406.206 89.9954 409.271 89.9954C411.778 89.9954 413.961 89.6239 415.818 88.881C417.675 88.0452 419.393 86.9308 420.972 85.5378L424.315 96.4031C422.179 98.2604 419.533 99.7463 416.375 100.861C413.311 101.882 409.875 102.393 406.067 102.393C402.074 102.393 398.406 101.743 395.062 100.443C391.719 99.1427 389.119 97.0532 387.262 94.1743C385.404 91.2026 384.429 87.3487 384.336 82.6125V15.0523L399.241 10.8733ZM423.201 31.3503V43.0515H370.964V31.3503H423.201ZM460.927 102.393C453.962 102.393 447.833 100.954 442.54 98.0747C437.246 95.1959 433.114 91.0633 430.142 85.6771C427.263 80.198 425.824 73.6973 425.824 66.1752C425.824 58.653 427.263 52.1988 430.142 46.8126C433.114 41.3335 437.2 37.1545 442.4 34.2756C447.601 31.3968 453.498 29.9573 460.091 29.9573C466.871 29.9573 472.628 31.3503 477.364 34.1363C482.101 36.9223 485.722 40.7298 488.23 45.5589C490.737 50.3879 491.991 55.867 491.991 61.9962C491.991 63.6678 491.944 65.2465 491.852 66.7324C491.759 68.2182 491.619 69.5184 491.434 70.6327H435.435V59.2102H484.887L477.504 61.439C477.504 55.1241 475.925 50.295 472.768 46.9519C469.61 43.5158 465.292 41.7978 459.813 41.7978C455.819 41.7978 452.337 42.7264 449.365 44.5838C446.394 46.4411 444.118 49.2271 442.54 52.9417C440.961 56.5635 440.171 61.0211 440.171 66.3145C440.171 71.515 441.007 75.9261 442.679 79.5479C444.35 83.1697 446.719 85.9092 449.783 87.7666C452.848 89.6239 456.47 90.5525 460.648 90.5525C465.292 90.5525 469.053 89.6703 471.932 87.9059C474.811 86.1414 477.086 83.6804 478.757 80.523L490.598 86.095C488.926 89.4382 486.651 92.3634 483.772 94.8708C480.986 97.2854 477.643 99.1427 473.743 100.443C469.842 101.743 465.57 102.393 460.927 102.393ZM510.674 82.1946C513.832 82.1946 516.339 83.1233 518.197 84.9806C520.147 86.745 521.122 89.1596 521.122 92.2241C521.122 95.2887 520.147 97.7497 518.197 99.607C516.339 101.464 513.832 102.393 510.674 102.393C507.424 102.393 504.824 101.464 502.874 99.607C501.016 97.7497 500.088 95.2887 500.088 92.2241C500.088 89.1596 501.016 86.745 502.874 84.9806C504.824 83.1233 507.424 82.1946 510.674 82.1946ZM585.21 31.3503L554.704 109.219C552.661 114.605 550.432 118.877 548.017 122.034C545.696 125.192 543.003 127.467 539.938 128.86C536.874 130.253 533.298 130.949 529.212 130.949C525.869 130.949 522.758 130.485 519.879 129.556C517.093 128.721 514.632 127.56 512.496 126.074L516.118 114.512C517.882 115.998 519.74 117.112 521.69 117.855C523.733 118.598 525.915 118.97 528.237 118.97C530.744 118.97 532.973 118.273 534.923 116.88C536.966 115.58 538.777 112.933 540.356 108.94L543.421 101.418L536.038 84.1448L514.307 31.3503H531.023L546.485 75.0903L550.525 88.1845L555.122 73.8366L569.748 31.3503H585.21ZM620.083 29.9573C626.862 29.9573 632.852 31.3968 638.053 34.2756C643.253 37.1545 647.293 41.3335 650.172 46.8126C653.143 52.1988 654.629 58.653 654.629 66.1752C654.629 73.6973 653.143 80.198 650.172 85.6771C647.293 91.0633 643.253 95.1959 638.053 98.0747C632.852 100.954 626.862 102.393 620.083 102.393C613.304 102.393 607.314 100.954 602.113 98.0747C596.913 95.1959 592.827 91.0633 589.855 85.6771C586.883 80.198 585.398 73.6973 585.398 66.1752C585.398 58.653 586.883 52.1988 589.855 46.8126C592.827 41.3335 596.913 37.1545 602.113 34.2756C607.314 31.3968 613.304 29.9573 620.083 29.9573ZM620.083 41.6585C615.904 41.6585 612.329 42.6336 609.357 44.5838C606.478 46.4411 604.249 49.1806 602.671 52.8024C601.092 56.4242 600.303 60.8818 600.303 66.1752C600.303 71.3757 601.092 75.8333 602.671 79.5479C604.249 83.1697 606.478 85.9557 609.357 87.9059C612.329 89.7632 615.904 90.6918 620.083 90.6918C624.262 90.6918 627.791 89.7632 630.67 87.9059C633.549 85.9557 635.777 83.1697 637.356 79.5479C638.935 75.8333 639.724 71.3757 639.724 66.1752C639.724 60.8818 638.935 56.4242 637.356 52.8024C635.777 49.1806 633.549 46.4411 630.67 44.5838C627.791 42.6336 624.262 41.6585 620.083 41.6585ZM690.514 102.393C685.964 102.393 681.738 101.557 677.838 99.8856C674.03 98.214 670.966 95.5209 668.644 91.8062C666.323 88.0916 665.162 83.2626 665.162 77.3191V31.3503H680.067V73.558C680.067 79.8729 681.413 84.2376 684.106 86.6522C686.8 88.9738 690.561 90.1347 695.39 90.1347C697.711 90.1347 699.94 89.7632 702.076 89.0203C704.305 88.1845 706.301 86.9308 708.066 85.2592C709.83 83.4947 711.177 81.2659 712.106 78.5728C713.127 75.8797 713.638 72.7222 713.638 69.1005V31.3503H728.543V101H715.449L714.752 89.7168C712.338 94.0815 709.087 97.2854 705.001 99.3284C700.915 101.371 696.086 102.393 690.514 102.393ZM744.167 101V31.3503H756.843L758.236 43.8873C760.094 39.3368 762.833 35.9008 766.455 33.5791C770.17 31.1646 774.72 29.9573 780.106 29.9573C781.499 29.9573 782.892 30.0966 784.285 30.3752C785.678 30.561 786.839 30.886 787.768 31.3503L785.678 44.4445C784.657 44.073 783.496 43.7944 782.196 43.6087C780.989 43.3301 779.317 43.1908 777.181 43.1908C774.302 43.1908 771.47 43.9801 768.684 45.5589C765.898 47.0447 763.576 49.3199 761.719 52.3845C759.955 55.4491 759.072 59.3495 759.072 64.0857V101H744.167ZM80.049 106.008V187.498C80.049 190.934 80.6526 193.302 81.8599 194.602C83.0671 195.902 85.0638 196.553 87.8497 196.553C89.5213 196.553 90.9143 196.46 92.0287 196.274C93.236 195.995 94.7218 195.531 96.4863 194.881L94.8147 206.025C93.236 206.768 91.4251 207.325 89.382 207.696C87.339 208.161 85.2959 208.393 83.2529 208.393C77.0308 208.393 72.4339 206.814 69.4622 203.657C66.5834 200.406 65.1439 195.438 65.1439 188.752V106.008H80.049ZM108.818 125.649C105.567 125.649 103.06 124.86 101.295 123.281C99.6238 121.61 98.788 119.288 98.788 116.316C98.788 113.344 99.6238 111.069 101.295 109.49C103.06 107.912 105.567 107.122 108.818 107.122C111.975 107.122 114.39 107.912 116.061 109.49C117.826 111.069 118.708 113.344 118.708 116.316C118.708 119.288 117.826 121.61 116.061 123.281C114.39 124.86 111.975 125.649 108.818 125.649ZM116.2 137.35V207H101.295V137.35H116.2ZM161.391 105.033C164.27 105.033 166.87 105.358 169.192 106.008C171.606 106.565 173.417 107.355 174.625 108.376L171.839 119.102C170.817 118.452 169.656 117.988 168.356 117.709C167.056 117.338 165.57 117.152 163.898 117.152C160.091 117.152 157.073 118.034 154.844 119.799C152.708 121.563 151.64 124.442 151.64 128.435V138.604L152.058 142.365V207H137.153V127.321C137.153 123.792 137.664 120.634 138.685 117.848C139.8 115.062 141.425 112.741 143.561 110.883C145.697 108.933 148.251 107.494 151.222 106.565C154.287 105.544 157.676 105.033 161.391 105.033ZM174.207 137.35V149.051H124.059V137.35H174.207ZM209.122 208.393C202.157 208.393 196.028 206.954 190.734 204.075C185.441 201.196 181.308 197.063 178.337 191.677C175.458 186.198 174.018 179.697 174.018 172.175C174.018 164.653 175.458 158.199 178.337 152.813C181.308 147.333 185.394 143.154 190.595 140.276C195.795 137.397 201.692 135.957 208.286 135.957C215.065 135.957 220.823 137.35 225.559 140.136C230.295 142.922 233.917 146.73 236.424 151.559C238.932 156.388 240.186 161.867 240.186 167.996C240.186 169.668 240.139 171.247 240.046 172.732C239.953 174.218 239.814 175.518 239.628 176.633H183.63V165.21H233.081L225.698 167.439C225.698 161.124 224.12 156.295 220.962 152.952C217.805 149.516 213.486 147.798 208.007 147.798C204.014 147.798 200.532 148.726 197.56 150.584C194.588 152.441 192.313 155.227 190.734 158.942C189.156 162.564 188.366 167.021 188.366 172.314C188.366 177.515 189.202 181.926 190.874 185.548C192.545 189.17 194.913 191.909 197.978 193.767C201.042 195.624 204.664 196.553 208.843 196.553C213.486 196.553 217.248 195.67 220.126 193.906C223.005 192.141 225.281 189.68 226.952 186.523L238.793 192.095C237.121 195.438 234.846 198.363 231.967 200.871C229.181 203.285 225.838 205.143 221.937 206.443C218.037 207.743 213.765 208.393 209.122 208.393ZM277.814 208.393C270.849 208.393 264.487 207.046 258.73 204.353C252.972 201.66 248.422 197.853 245.078 192.931L255.387 184.016C257.43 187.823 260.355 190.888 264.162 193.209C268.063 195.438 272.706 196.553 278.092 196.553C282.364 196.553 285.754 195.81 288.261 194.324C290.769 192.838 292.022 190.748 292.022 188.055C292.022 186.291 291.419 184.759 290.211 183.458C289.097 182.065 286.915 180.997 283.664 180.255L269.038 177.19C261.609 175.704 256.315 173.336 253.158 170.086C250 166.742 248.422 162.517 248.422 157.409C248.422 153.602 249.536 150.073 251.765 146.823C253.994 143.572 257.244 140.972 261.516 139.022C265.88 136.979 271.081 135.957 277.117 135.957C284.082 135.957 290.026 137.211 294.948 139.718C299.869 142.133 303.631 145.615 306.231 150.166L295.923 158.802C294.158 155.088 291.558 152.348 288.122 150.584C284.686 148.726 281.111 147.798 277.396 147.798C274.424 147.798 271.87 148.169 269.734 148.912C267.598 149.655 265.973 150.677 264.859 151.977C263.745 153.277 263.187 154.809 263.187 156.574C263.187 158.431 263.884 160.056 265.277 161.449C266.67 162.842 269.177 163.91 272.799 164.653L288.679 167.996C295.365 169.296 300.055 171.525 302.748 174.683C305.534 177.747 306.927 181.508 306.927 185.966C306.927 190.423 305.767 194.37 303.445 197.806C301.123 201.149 297.78 203.75 293.415 205.607C289.051 207.464 283.85 208.393 277.814 208.393ZM324.938 188.195C328.096 188.195 330.603 189.123 332.46 190.981C334.411 192.745 335.386 195.16 335.386 198.224C335.386 201.289 334.411 203.75 332.46 205.607C330.603 207.464 328.096 208.393 324.938 208.393C321.688 208.393 319.088 207.464 317.138 205.607C315.28 203.75 314.352 201.289 314.352 198.224C314.352 195.16 315.28 192.745 317.138 190.981C319.088 189.123 321.688 188.195 324.938 188.195ZM360.7 116.873V186.105C360.7 189.541 361.582 192.049 363.347 193.627C365.204 195.206 367.665 195.995 370.73 195.995C373.237 195.995 375.419 195.624 377.277 194.881C379.134 194.045 380.852 192.931 382.431 191.538L385.774 202.403C383.638 204.26 380.991 205.746 377.834 206.861C374.769 207.882 371.333 208.393 367.526 208.393C363.533 208.393 359.864 207.743 356.521 206.443C353.178 205.143 350.578 203.053 348.72 200.174C346.863 197.203 345.888 193.349 345.795 188.612V121.052L360.7 116.873ZM384.66 137.35V149.051H332.422V137.35H384.66ZM399.262 125.649C396.012 125.649 393.504 124.86 391.74 123.281C390.068 121.61 389.233 119.288 389.233 116.316C389.233 113.344 390.068 111.069 391.74 109.49C393.504 107.912 396.012 107.122 399.262 107.122C402.42 107.122 404.834 107.912 406.506 109.49C408.27 111.069 409.152 113.344 409.152 116.316C409.152 119.288 408.27 121.61 406.506 123.281C404.834 124.86 402.42 125.649 399.262 125.649ZM406.645 137.35V207H391.74V137.35H406.645ZM436.791 106.008V187.498C436.791 190.934 437.395 193.302 438.602 194.602C439.809 195.902 441.806 196.553 444.592 196.553C446.264 196.553 447.657 196.46 448.771 196.274C449.978 195.995 451.464 195.531 453.229 194.881L451.557 206.025C449.978 206.768 448.167 207.325 446.124 207.696C444.081 208.161 442.038 208.393 439.995 208.393C433.773 208.393 429.176 206.814 426.205 203.657C423.326 200.406 421.886 195.438 421.886 188.752V106.008H436.791ZM488.684 208.393C481.719 208.393 475.589 206.954 470.296 204.075C465.003 201.196 460.87 197.063 457.898 191.677C455.02 186.198 453.58 179.697 453.58 172.175C453.58 164.653 455.02 158.199 457.898 152.813C460.87 147.333 464.956 143.154 470.157 140.276C475.357 137.397 481.254 135.957 487.848 135.957C494.627 135.957 500.385 137.35 505.121 140.136C509.857 142.922 513.479 146.73 515.986 151.559C518.494 156.388 519.747 161.867 519.747 167.996C519.747 169.668 519.701 171.247 519.608 172.732C519.515 174.218 519.376 175.518 519.19 176.633H463.192V165.21H512.643L505.26 167.439C505.26 161.124 503.681 156.295 500.524 152.952C497.367 149.516 493.048 147.798 487.569 147.798C483.576 147.798 480.093 148.726 477.122 150.584C474.15 152.441 471.875 155.227 470.296 158.942C468.717 162.564 467.928 167.021 467.928 172.314C467.928 177.515 468.764 181.926 470.435 185.548C472.107 189.17 474.475 191.909 477.54 193.767C480.604 195.624 484.226 196.553 488.405 196.553C493.048 196.553 496.809 195.67 499.688 193.906C502.567 192.141 504.842 189.68 506.514 186.523L518.354 192.095C516.683 195.438 514.408 198.363 511.529 200.871C508.743 203.285 505.399 205.143 501.499 206.443C497.599 207.743 493.327 208.393 488.684 208.393Z" fill="#858585"/>
</g>
<defs>
<filter id="filter0_i_1444_100" x="61.1045" y="0.0078125" width="726.664" height="213.385" filterUnits="userSpaceOnUse" color-interpolation-filters="sRGB">
<feFlood flood-opacity="0" result="BackgroundImageFix"/>
<feBlend mode="normal" in="SourceGraphic" in2="BackgroundImageFix" result="shape"/>
<feColorMatrix in="SourceAlpha" type="matrix" values="0 0 0 0 0 0 0 0 0 0 0 0 0 0 0 0 0 0 127 0" result="hardAlpha"/>
<feOffset dy="4.99951"/>
<feGaussianBlur stdDeviation="28.1222"/>
<feComposite in2="hardAlpha" operator="arithmetic" k2="-1" k3="1"/>
<feColorMatrix type="matrix" values="0 0 0 0 0 0 0 0 0 0 0 0 0 0 0 0 0 0 0.25 0"/>
<feBlend mode="normal" in2="shape" result="effect1_innerShadow_1444_100"/>
</filter>
</defs>
</svg>
