<svg width="802" height="1000" viewBox="0 0 802 1000" fill="none" xmlns="http://www.w3.org/2000/svg">
<g filter="url(#filter0_d_1423_184)">
<rect x="73" y="172" width="258" height="258" rx="29" fill="#D7D7D7"/>
</g>
<g filter="url(#filter1_d_1423_184)">
<path d="M96.7959 493.928H105.172V496.568H96.7959V493.928ZM97.0599 503H93.9399V486.2H106.204V488.816H97.0599V503ZM107.619 503V490.184H110.475V493.712L110.139 492.68C110.523 491.816 111.123 491.16 111.939 490.712C112.771 490.264 113.803 490.04 115.035 490.04V492.896C114.907 492.864 114.787 492.848 114.675 492.848C114.563 492.832 114.451 492.824 114.339 492.824C113.203 492.824 112.299 493.16 111.627 493.832C110.955 494.488 110.619 495.472 110.619 496.784V503H107.619ZM122.407 503.168C120.983 503.168 119.735 502.888 118.663 502.328C117.607 501.752 116.783 500.968 116.191 499.976C115.615 498.984 115.327 497.856 115.327 496.592C115.327 495.312 115.607 494.184 116.167 493.208C116.743 492.216 117.527 491.44 118.519 490.88C119.527 490.32 120.671 490.04 121.951 490.04C123.199 490.04 124.311 490.312 125.287 490.856C126.263 491.4 127.031 492.168 127.591 493.16C128.151 494.152 128.431 495.32 128.431 496.664C128.431 496.792 128.423 496.936 128.407 497.096C128.407 497.256 128.399 497.408 128.383 497.552H117.703V495.56H126.799L125.623 496.184C125.639 495.448 125.487 494.8 125.167 494.24C124.847 493.68 124.407 493.24 123.847 492.92C123.303 492.6 122.671 492.44 121.951 492.44C121.215 492.44 120.567 492.6 120.007 492.92C119.463 493.24 119.031 493.688 118.711 494.264C118.407 494.824 118.255 495.488 118.255 496.256V496.736C118.255 497.504 118.431 498.184 118.783 498.776C119.135 499.368 119.631 499.824 120.271 500.144C120.911 500.464 121.647 500.624 122.479 500.624C123.199 500.624 123.847 500.512 124.423 500.288C124.999 500.064 125.511 499.712 125.959 499.232L127.567 501.08C126.991 501.752 126.263 502.272 125.383 502.64C124.519 502.992 123.527 503.168 122.407 503.168ZM136.256 503.168C134.832 503.168 133.584 502.888 132.512 502.328C131.456 501.752 130.632 500.968 130.04 499.976C129.464 498.984 129.176 497.856 129.176 496.592C129.176 495.312 129.456 494.184 130.016 493.208C130.592 492.216 131.376 491.44 132.368 490.88C133.376 490.32 134.52 490.04 135.8 490.04C137.048 490.04 138.16 490.312 139.136 490.856C140.112 491.4 140.88 492.168 141.44 493.16C142 494.152 142.28 495.32 142.28 496.664C142.28 496.792 142.272 496.936 142.256 497.096C142.256 497.256 142.248 497.408 142.232 497.552H131.552V495.56H140.648L139.472 496.184C139.488 495.448 139.336 494.8 139.016 494.24C138.696 493.68 138.256 493.24 137.696 492.92C137.152 492.6 136.52 492.44 135.8 492.44C135.064 492.44 134.416 492.6 133.856 492.92C133.312 493.24 132.88 493.688 132.56 494.264C132.256 494.824 132.104 495.488 132.104 496.256V496.736C132.104 497.504 132.28 498.184 132.632 498.776C132.984 499.368 133.48 499.824 134.12 500.144C134.76 500.464 135.496 500.624 136.328 500.624C137.048 500.624 137.696 500.512 138.272 500.288C138.848 500.064 139.36 499.712 139.808 499.232L141.416 501.08C140.84 501.752 140.112 502.272 139.232 502.64C138.368 502.992 137.376 503.168 136.256 503.168ZM149.923 503V486.2H157.267C159.091 486.2 160.691 486.552 162.067 487.256C163.443 487.96 164.515 488.936 165.283 490.184C166.051 491.432 166.435 492.904 166.435 494.6C166.435 496.28 166.051 497.752 165.283 499.016C164.515 500.264 163.443 501.24 162.067 501.944C160.691 502.648 159.091 503 157.267 503H149.923ZM153.043 500.36H157.123C158.387 500.36 159.475 500.12 160.387 499.64C161.315 499.16 162.027 498.488 162.523 497.624C163.035 496.76 163.291 495.752 163.291 494.6C163.291 493.432 163.035 492.424 162.523 491.576C162.027 490.712 161.315 490.04 160.387 489.56C159.475 489.08 158.387 488.84 157.123 488.84H153.043V500.36ZM174.407 503.168C172.983 503.168 171.735 502.888 170.663 502.328C169.607 501.752 168.783 500.968 168.191 499.976C167.615 498.984 167.327 497.856 167.327 496.592C167.327 495.312 167.607 494.184 168.167 493.208C168.743 492.216 169.527 491.44 170.519 490.88C171.527 490.32 172.671 490.04 173.951 490.04C175.199 490.04 176.311 490.312 177.287 490.856C178.263 491.4 179.031 492.168 179.591 493.16C180.151 494.152 180.431 495.32 180.431 496.664C180.431 496.792 180.423 496.936 180.407 497.096C180.407 497.256 180.399 497.408 180.383 497.552H169.703V495.56H178.799L177.623 496.184C177.639 495.448 177.487 494.8 177.167 494.24C176.847 493.68 176.407 493.24 175.847 492.92C175.303 492.6 174.671 492.44 173.951 492.44C173.215 492.44 172.567 492.6 172.007 492.92C171.463 493.24 171.031 493.688 170.711 494.264C170.407 494.824 170.255 495.488 170.255 496.256V496.736C170.255 497.504 170.431 498.184 170.783 498.776C171.135 499.368 171.631 499.824 172.271 500.144C172.911 500.464 173.647 500.624 174.479 500.624C175.199 500.624 175.847 500.512 176.423 500.288C176.999 500.064 177.511 499.712 177.959 499.232L179.567 501.08C178.991 501.752 178.263 502.272 177.383 502.64C176.519 502.992 175.527 503.168 174.407 503.168ZM186.193 503.168C185.121 503.168 184.089 503.032 183.097 502.76C182.121 502.472 181.345 502.128 180.769 501.728L181.921 499.448C182.497 499.816 183.185 500.12 183.985 500.36C184.785 500.6 185.585 500.72 186.385 500.72C187.329 500.72 188.009 500.592 188.425 500.336C188.857 500.08 189.073 499.736 189.073 499.304C189.073 498.952 188.929 498.688 188.641 498.512C188.353 498.32 187.977 498.176 187.513 498.08C187.049 497.984 186.529 497.896 185.953 497.816C185.393 497.736 184.825 497.632 184.249 497.504C183.689 497.36 183.177 497.16 182.713 496.904C182.249 496.632 181.873 496.272 181.585 495.824C181.297 495.376 181.153 494.784 181.153 494.048C181.153 493.232 181.385 492.528 181.849 491.936C182.313 491.328 182.961 490.864 183.793 490.544C184.641 490.208 185.641 490.04 186.793 490.04C187.657 490.04 188.529 490.136 189.409 490.328C190.289 490.52 191.017 490.792 191.593 491.144L190.441 493.424C189.833 493.056 189.217 492.808 188.593 492.68C187.985 492.536 187.377 492.464 186.769 492.464C185.857 492.464 185.177 492.6 184.729 492.872C184.297 493.144 184.081 493.488 184.081 493.904C184.081 494.288 184.225 494.576 184.513 494.768C184.801 494.96 185.177 495.112 185.641 495.224C186.105 495.336 186.617 495.432 187.177 495.512C187.753 495.576 188.321 495.68 188.881 495.824C189.441 495.968 189.953 496.168 190.417 496.424C190.897 496.664 191.281 497.008 191.569 497.456C191.857 497.904 192.001 498.488 192.001 499.208C192.001 500.008 191.761 500.704 191.281 501.296C190.817 501.888 190.153 502.352 189.289 502.688C188.425 503.008 187.393 503.168 186.193 503.168ZM193.504 503V490.184H196.504V503H193.504ZM195.016 488.072C194.456 488.072 193.992 487.896 193.624 487.544C193.272 487.192 193.096 486.768 193.096 486.272C193.096 485.76 193.272 485.336 193.624 485C193.992 484.648 194.456 484.472 195.016 484.472C195.576 484.472 196.032 484.64 196.384 484.976C196.752 485.296 196.936 485.704 196.936 486.2C196.936 486.728 196.76 487.176 196.408 487.544C196.056 487.896 195.592 488.072 195.016 488.072ZM205.17 507.824C203.986 507.824 202.826 507.664 201.69 507.344C200.57 507.04 199.65 506.592 198.93 506L200.274 503.744C200.834 504.208 201.538 504.576 202.386 504.848C203.25 505.136 204.122 505.28 205.002 505.28C206.41 505.28 207.442 504.952 208.098 504.296C208.754 503.656 209.082 502.688 209.082 501.392V499.112L209.322 496.208L209.226 493.304V490.184H212.082V501.056C212.082 503.376 211.49 505.08 210.306 506.168C209.122 507.272 207.41 507.824 205.17 507.824ZM204.786 502.424C203.57 502.424 202.466 502.168 201.474 501.656C200.498 501.128 199.722 500.4 199.146 499.472C198.586 498.544 198.306 497.456 198.306 496.208C198.306 494.976 198.586 493.896 199.146 492.968C199.722 492.04 200.498 491.32 201.474 490.808C202.466 490.296 203.57 490.04 204.786 490.04C205.874 490.04 206.85 490.256 207.714 490.688C208.578 491.12 209.266 491.792 209.778 492.704C210.306 493.616 210.57 494.784 210.57 496.208C210.57 497.632 210.306 498.808 209.778 499.736C209.266 500.648 208.578 501.328 207.714 501.776C206.85 502.208 205.874 502.424 204.786 502.424ZM205.242 499.88C205.994 499.88 206.666 499.728 207.258 499.424C207.85 499.104 208.306 498.672 208.626 498.128C208.962 497.568 209.13 496.928 209.13 496.208C209.13 495.488 208.962 494.856 208.626 494.312C208.306 493.752 207.85 493.328 207.258 493.04C206.666 492.736 205.994 492.584 205.242 492.584C204.49 492.584 203.81 492.736 203.202 493.04C202.61 493.328 202.146 493.752 201.81 494.312C201.49 494.856 201.33 495.488 201.33 496.208C201.33 496.928 201.49 497.568 201.81 498.128C202.146 498.672 202.61 499.104 203.202 499.424C203.81 499.728 204.49 499.88 205.242 499.88ZM222.218 490.04C223.242 490.04 224.154 490.24 224.954 490.64C225.77 491.04 226.41 491.656 226.874 492.488C227.338 493.304 227.57 494.36 227.57 495.656V503H224.57V496.04C224.57 494.904 224.298 494.056 223.754 493.496C223.226 492.936 222.482 492.656 221.522 492.656C220.818 492.656 220.194 492.8 219.65 493.088C219.106 493.376 218.682 493.808 218.378 494.384C218.09 494.944 217.946 495.656 217.946 496.52V503H214.946V490.184H217.802V493.64L217.298 492.584C217.746 491.768 218.394 491.144 219.242 490.712C220.106 490.264 221.098 490.04 222.218 490.04ZM233.76 503L241.32 486.2H244.392L251.976 503H248.712L242.208 487.856H243.456L236.976 503H233.76ZM237.24 499.112L238.08 496.664H247.152L247.992 499.112H237.24ZM258.052 503.168C256.82 503.168 255.708 502.896 254.716 502.352C253.74 501.792 252.972 501.024 252.412 500.048C251.852 499.072 251.572 497.92 251.572 496.592C251.572 495.264 251.852 494.112 252.412 493.136C252.972 492.16 253.74 491.4 254.716 490.856C255.708 490.312 256.82 490.04 258.052 490.04C259.124 490.04 260.084 490.28 260.932 490.76C261.78 491.224 262.452 491.936 262.948 492.896C263.444 493.856 263.692 495.088 263.692 496.592C263.692 498.08 263.452 499.312 262.972 500.288C262.492 501.248 261.828 501.968 260.98 502.448C260.132 502.928 259.156 503.168 258.052 503.168ZM258.412 500.6C259.132 500.6 259.772 500.44 260.332 500.12C260.908 499.8 261.364 499.336 261.7 498.728C262.052 498.12 262.228 497.408 262.228 496.592C262.228 495.76 262.052 495.048 261.7 494.456C261.364 493.848 260.908 493.384 260.332 493.064C259.772 492.744 259.132 492.584 258.412 492.584C257.692 492.584 257.044 492.744 256.468 493.064C255.908 493.384 255.452 493.848 255.1 494.456C254.764 495.048 254.596 495.76 254.596 496.592C254.596 497.408 254.764 498.12 255.1 498.728C255.452 499.336 255.908 499.8 256.468 500.12C257.044 500.44 257.692 500.6 258.412 500.6ZM262.3 503V499.976L262.42 496.568L262.18 493.16V485.192H265.156V503H262.3ZM271.432 503L265.936 490.184H269.056L273.784 501.488H272.248L277.144 490.184H280.024L274.528 503H271.432ZM280.819 503V490.184H283.819V503H280.819ZM282.331 488.072C281.771 488.072 281.307 487.896 280.939 487.544C280.587 487.192 280.411 486.768 280.411 486.272C280.411 485.76 280.587 485.336 280.939 485C281.307 484.648 281.771 484.472 282.331 484.472C282.891 484.472 283.347 484.64 283.699 484.976C284.067 485.296 284.251 485.704 284.251 486.2C284.251 486.728 284.075 487.176 283.723 487.544C283.371 487.896 282.907 488.072 282.331 488.072ZM292.557 503.168C291.213 503.168 290.013 502.888 288.957 502.328C287.917 501.752 287.101 500.968 286.509 499.976C285.917 498.984 285.621 497.856 285.621 496.592C285.621 495.312 285.917 494.184 286.509 493.208C287.101 492.216 287.917 491.44 288.957 490.88C290.013 490.32 291.213 490.04 292.557 490.04C293.805 490.04 294.901 490.296 295.845 490.808C296.805 491.304 297.533 492.04 298.029 493.016L295.725 494.36C295.341 493.752 294.869 493.304 294.309 493.016C293.765 492.728 293.173 492.584 292.533 492.584C291.797 492.584 291.133 492.744 290.541 493.064C289.949 493.384 289.485 493.848 289.149 494.456C288.813 495.048 288.645 495.76 288.645 496.592C288.645 497.424 288.813 498.144 289.149 498.752C289.485 499.344 289.949 499.8 290.541 500.12C291.133 500.44 291.797 500.6 292.533 500.6C293.173 500.6 293.765 500.456 294.309 500.168C294.869 499.88 295.341 499.432 295.725 498.824L298.029 500.168C297.533 501.128 296.805 501.872 295.845 502.4C294.901 502.912 293.805 503.168 292.557 503.168ZM305.378 503.168C303.954 503.168 302.706 502.888 301.634 502.328C300.578 501.752 299.754 500.968 299.162 499.976C298.586 498.984 298.298 497.856 298.298 496.592C298.298 495.312 298.578 494.184 299.138 493.208C299.714 492.216 300.498 491.44 301.49 490.88C302.498 490.32 303.642 490.04 304.922 490.04C306.17 490.04 307.282 490.312 308.258 490.856C309.234 491.4 310.002 492.168 310.562 493.16C311.122 494.152 311.402 495.32 311.402 496.664C311.402 496.792 311.394 496.936 311.378 497.096C311.378 497.256 311.37 497.408 311.354 497.552H300.674V495.56H309.77L308.594 496.184C308.61 495.448 308.458 494.8 308.138 494.24C307.818 493.68 307.378 493.24 306.818 492.92C306.274 492.6 305.642 492.44 304.922 492.44C304.186 492.44 303.538 492.6 302.978 492.92C302.434 493.24 302.002 493.688 301.682 494.264C301.378 494.824 301.226 495.488 301.226 496.256V496.736C301.226 497.504 301.402 498.184 301.754 498.776C302.106 499.368 302.602 499.824 303.242 500.144C303.882 500.464 304.618 500.624 305.45 500.624C306.17 500.624 306.818 500.512 307.394 500.288C307.97 500.064 308.482 499.712 308.93 499.232L310.538 501.08C309.962 501.752 309.234 502.272 308.354 502.64C307.49 502.992 306.498 503.168 305.378 503.168Z" fill="#4D4D4D"/>
</g>
<g filter="url(#filter2_d_1423_184)">
<rect x="473.5" y="172" width="258" height="258" rx="29" fill="#D7D7D7"/>
</g>
<g filter="url(#filter3_d_1423_184)">
<path d="M443.752 503V486.2H450.664C452.152 486.2 453.424 486.44 454.48 486.92C455.552 487.4 456.376 488.088 456.952 488.984C457.528 489.88 457.816 490.944 457.816 492.176C457.816 493.408 457.528 494.472 456.952 495.368C456.376 496.248 455.552 496.928 454.48 497.408C453.424 497.872 452.152 498.104 450.664 498.104H445.48L446.872 496.688V503H443.752ZM454.744 503L450.496 496.904H453.832L458.104 503H454.744ZM446.872 497.024L445.48 495.536H450.52C451.896 495.536 452.928 495.24 453.616 494.648C454.32 494.056 454.672 493.232 454.672 492.176C454.672 491.104 454.32 490.28 453.616 489.704C452.928 489.128 451.896 488.84 450.52 488.84H445.48L446.872 487.304V497.024ZM465.963 503.168C464.539 503.168 463.291 502.888 462.219 502.328C461.163 501.752 460.339 500.968 459.747 499.976C459.171 498.984 458.883 497.856 458.883 496.592C458.883 495.312 459.163 494.184 459.723 493.208C460.299 492.216 461.083 491.44 462.075 490.88C463.083 490.32 464.227 490.04 465.507 490.04C466.755 490.04 467.867 490.312 468.843 490.856C469.819 491.4 470.587 492.168 471.147 493.16C471.707 494.152 471.987 495.32 471.987 496.664C471.987 496.792 471.979 496.936 471.963 497.096C471.963 497.256 471.955 497.408 471.939 497.552H461.259V495.56H470.355L469.179 496.184C469.195 495.448 469.043 494.8 468.723 494.24C468.403 493.68 467.963 493.24 467.403 492.92C466.859 492.6 466.227 492.44 465.507 492.44C464.771 492.44 464.123 492.6 463.563 492.92C463.019 493.24 462.587 493.688 462.267 494.264C461.963 494.824 461.811 495.488 461.811 496.256V496.736C461.811 497.504 461.987 498.184 462.339 498.776C462.691 499.368 463.187 499.824 463.827 500.144C464.467 500.464 465.203 500.624 466.035 500.624C466.755 500.624 467.403 500.512 467.979 500.288C468.555 500.064 469.067 499.712 469.515 499.232L471.123 501.08C470.547 501.752 469.819 502.272 468.939 502.64C468.075 502.992 467.083 503.168 465.963 503.168ZM478.612 503.168C477.204 503.168 476.116 502.808 475.348 502.088C474.58 501.352 474.196 500.272 474.196 498.848V487.352H477.196V498.776C477.196 499.384 477.348 499.856 477.652 500.192C477.972 500.528 478.412 500.696 478.972 500.696C479.644 500.696 480.204 500.52 480.652 500.168L481.492 502.304C481.14 502.592 480.708 502.808 480.196 502.952C479.684 503.096 479.156 503.168 478.612 503.168ZM472.084 492.68V490.28H480.628V492.68H472.084ZM488.304 503.168C487.216 503.168 486.256 502.968 485.424 502.568C484.592 502.152 483.944 501.528 483.48 500.696C483.016 499.848 482.784 498.784 482.784 497.504V490.184H485.784V497.096C485.784 498.248 486.04 499.112 486.552 499.688C487.08 500.248 487.824 500.528 488.784 500.528C489.488 500.528 490.096 500.384 490.608 500.096C491.136 499.808 491.544 499.376 491.832 498.8C492.136 498.224 492.288 497.512 492.288 496.664V490.184H495.288V503H492.432V499.544L492.936 500.6C492.504 501.432 491.872 502.072 491.04 502.52C490.208 502.952 489.296 503.168 488.304 503.168ZM498.136 503V490.184H500.992V493.712L500.656 492.68C501.04 491.816 501.64 491.16 502.456 490.712C503.288 490.264 504.32 490.04 505.552 490.04V492.896C505.424 492.864 505.304 492.848 505.192 492.848C505.08 492.832 504.968 492.824 504.856 492.824C503.72 492.824 502.816 493.16 502.144 493.832C501.472 494.488 501.136 495.472 501.136 496.784V503H498.136ZM514.289 490.04C515.313 490.04 516.225 490.24 517.025 490.64C517.841 491.04 518.481 491.656 518.945 492.488C519.409 493.304 519.641 494.36 519.641 495.656V503H516.641V496.04C516.641 494.904 516.369 494.056 515.825 493.496C515.297 492.936 514.553 492.656 513.593 492.656C512.889 492.656 512.265 492.8 511.721 493.088C511.177 493.376 510.753 493.808 510.449 494.384C510.161 494.944 510.017 495.656 510.017 496.52V503H507.017V490.184H509.873V493.64L509.369 492.584C509.817 491.768 510.465 491.144 511.313 490.712C512.177 490.264 513.169 490.04 514.289 490.04ZM535.816 503V500.408L535.648 499.856V495.32C535.648 494.44 535.384 493.76 534.856 493.28C534.328 492.784 533.528 492.536 532.456 492.536C531.736 492.536 531.024 492.648 530.32 492.872C529.632 493.096 529.048 493.408 528.568 493.808L527.392 491.624C528.08 491.096 528.896 490.704 529.84 490.448C530.8 490.176 531.792 490.04 532.816 490.04C534.672 490.04 536.104 490.488 537.112 491.384C538.136 492.264 538.648 493.632 538.648 495.488V503H535.816ZM531.784 503.168C530.824 503.168 529.984 503.008 529.264 502.688C528.544 502.352 527.984 501.896 527.584 501.32C527.2 500.728 527.008 500.064 527.008 499.328C527.008 498.608 527.176 497.96 527.512 497.384C527.864 496.808 528.432 496.352 529.216 496.016C530 495.68 531.04 495.512 532.336 495.512H536.056V497.504H532.552C531.528 497.504 530.84 497.672 530.488 498.008C530.136 498.328 529.96 498.728 529.96 499.208C529.96 499.752 530.176 500.184 530.608 500.504C531.04 500.824 531.64 500.984 532.408 500.984C533.144 500.984 533.8 500.816 534.376 500.48C534.968 500.144 535.392 499.648 535.648 498.992L536.152 500.792C535.864 501.544 535.344 502.128 534.592 502.544C533.856 502.96 532.92 503.168 531.784 503.168ZM548.69 490.04C549.714 490.04 550.626 490.24 551.426 490.64C552.242 491.04 552.882 491.656 553.346 492.488C553.81 493.304 554.042 494.36 554.042 495.656V503H551.042V496.04C551.042 494.904 550.77 494.056 550.226 493.496C549.698 492.936 548.954 492.656 547.994 492.656C547.29 492.656 546.666 492.8 546.122 493.088C545.578 493.376 545.154 493.808 544.85 494.384C544.562 494.944 544.418 495.656 544.418 496.52V503H541.418V490.184H544.274V493.64L543.77 492.584C544.218 491.768 544.866 491.144 545.714 490.712C546.578 490.264 547.57 490.04 548.69 490.04ZM562.215 503.168C560.983 503.168 559.871 502.896 558.879 502.352C557.903 501.792 557.135 501.024 556.575 500.048C556.015 499.072 555.735 497.92 555.735 496.592C555.735 495.264 556.015 494.112 556.575 493.136C557.135 492.16 557.903 491.4 558.879 490.856C559.871 490.312 560.983 490.04 562.215 490.04C563.287 490.04 564.247 490.28 565.095 490.76C565.943 491.224 566.615 491.936 567.111 492.896C567.607 493.856 567.855 495.088 567.855 496.592C567.855 498.08 567.615 499.312 567.135 500.288C566.655 501.248 565.991 501.968 565.143 502.448C564.295 502.928 563.319 503.168 562.215 503.168ZM562.575 500.6C563.295 500.6 563.935 500.44 564.495 500.12C565.071 499.8 565.527 499.336 565.863 498.728C566.215 498.12 566.391 497.408 566.391 496.592C566.391 495.76 566.215 495.048 565.863 494.456C565.527 493.848 565.071 493.384 564.495 493.064C563.935 492.744 563.295 492.584 562.575 492.584C561.855 492.584 561.207 492.744 560.631 493.064C560.071 493.384 559.615 493.848 559.263 494.456C558.927 495.048 558.759 495.76 558.759 496.592C558.759 497.408 558.927 498.12 559.263 498.728C559.615 499.336 560.071 499.8 560.631 500.12C561.207 500.44 561.855 500.6 562.575 500.6ZM566.463 503V499.976L566.583 496.568L566.343 493.16V485.192H569.319V503H566.463ZM580.908 493.184H589.26V495.752H580.908V493.184ZM581.148 500.384H590.628V503H578.028V486.2H590.292V488.816H581.148V500.384ZM590.776 503L596.416 495.656L596.368 497.264L590.992 490.184H594.328L598.096 495.224H596.824L600.616 490.184H603.856L598.432 497.264L598.456 495.656L604.072 503H600.688L596.728 497.648L597.976 497.816L594.088 503H590.776ZM610.663 503.168C609.319 503.168 608.119 502.888 607.063 502.328C606.023 501.752 605.207 500.968 604.615 499.976C604.023 498.984 603.727 497.856 603.727 496.592C603.727 495.312 604.023 494.184 604.615 493.208C605.207 492.216 606.023 491.44 607.063 490.88C608.119 490.32 609.319 490.04 610.663 490.04C611.911 490.04 613.007 490.296 613.951 490.808C614.911 491.304 615.639 492.04 616.135 493.016L613.831 494.36C613.447 493.752 612.975 493.304 612.415 493.016C611.871 492.728 611.279 492.584 610.639 492.584C609.903 492.584 609.239 492.744 608.647 493.064C608.055 493.384 607.591 493.848 607.255 494.456C606.919 495.048 606.751 495.76 606.751 496.592C606.751 497.424 606.919 498.144 607.255 498.752C607.591 499.344 608.055 499.8 608.647 500.12C609.239 500.44 609.903 500.6 610.639 500.6C611.279 500.6 611.871 500.456 612.415 500.168C612.975 499.88 613.447 499.432 613.831 498.824L616.135 500.168C615.639 501.128 614.911 501.872 613.951 502.4C613.007 502.912 611.911 503.168 610.663 503.168ZM624.804 490.04C625.828 490.04 626.74 490.24 627.54 490.64C628.356 491.04 628.996 491.656 629.46 492.488C629.924 493.304 630.156 494.36 630.156 495.656V503H627.156V496.04C627.156 494.904 626.884 494.056 626.34 493.496C625.812 492.936 625.068 492.656 624.108 492.656C623.404 492.656 622.78 492.8 622.236 493.088C621.692 493.376 621.268 493.808 620.964 494.384C620.676 494.944 620.532 495.656 620.532 496.52V503H617.532V485.192H620.532V493.64L619.884 492.584C620.332 491.768 620.98 491.144 621.828 490.712C622.692 490.264 623.684 490.04 624.804 490.04ZM640.777 503V500.408L640.609 499.856V495.32C640.609 494.44 640.345 493.76 639.817 493.28C639.289 492.784 638.489 492.536 637.417 492.536C636.697 492.536 635.985 492.648 635.281 492.872C634.593 493.096 634.009 493.408 633.529 493.808L632.353 491.624C633.041 491.096 633.857 490.704 634.801 490.448C635.761 490.176 636.753 490.04 637.777 490.04C639.633 490.04 641.065 490.488 642.073 491.384C643.097 492.264 643.609 493.632 643.609 495.488V503H640.777ZM636.745 503.168C635.785 503.168 634.945 503.008 634.225 502.688C633.505 502.352 632.945 501.896 632.545 501.32C632.161 500.728 631.969 500.064 631.969 499.328C631.969 498.608 632.137 497.96 632.473 497.384C632.825 496.808 633.393 496.352 634.177 496.016C634.961 495.68 636.001 495.512 637.297 495.512H641.017V497.504H637.513C636.489 497.504 635.801 497.672 635.449 498.008C635.097 498.328 634.921 498.728 634.921 499.208C634.921 499.752 635.137 500.184 635.569 500.504C636.001 500.824 636.601 500.984 637.369 500.984C638.105 500.984 638.761 500.816 639.337 500.48C639.929 500.144 640.353 499.648 640.609 498.992L641.113 500.792C640.825 501.544 640.305 502.128 639.553 502.544C638.817 502.96 637.881 503.168 636.745 503.168ZM653.651 490.04C654.675 490.04 655.587 490.24 656.387 490.64C657.203 491.04 657.843 491.656 658.307 492.488C658.771 493.304 659.003 494.36 659.003 495.656V503H656.003V496.04C656.003 494.904 655.731 494.056 655.187 493.496C654.659 492.936 653.915 492.656 652.955 492.656C652.251 492.656 651.627 492.8 651.083 493.088C650.539 493.376 650.115 493.808 649.811 494.384C649.523 494.944 649.379 495.656 649.379 496.52V503H646.379V490.184H649.235V493.64L648.731 492.584C649.179 491.768 649.827 491.144 650.675 490.712C651.539 490.264 652.531 490.04 653.651 490.04ZM667.561 507.824C666.377 507.824 665.217 507.664 664.081 507.344C662.961 507.04 662.041 506.592 661.321 506L662.665 503.744C663.225 504.208 663.929 504.576 664.777 504.848C665.641 505.136 666.513 505.28 667.393 505.28C668.801 505.28 669.833 504.952 670.489 504.296C671.145 503.656 671.473 502.688 671.473 501.392V499.112L671.713 496.208L671.617 493.304V490.184H674.473V501.056C674.473 503.376 673.881 505.08 672.697 506.168C671.513 507.272 669.801 507.824 667.561 507.824ZM667.177 502.424C665.961 502.424 664.857 502.168 663.865 501.656C662.889 501.128 662.113 500.4 661.537 499.472C660.977 498.544 660.697 497.456 660.697 496.208C660.697 494.976 660.977 493.896 661.537 492.968C662.113 492.04 662.889 491.32 663.865 490.808C664.857 490.296 665.961 490.04 667.177 490.04C668.265 490.04 669.241 490.256 670.105 490.688C670.969 491.12 671.657 491.792 672.169 492.704C672.697 493.616 672.961 494.784 672.961 496.208C672.961 497.632 672.697 498.808 672.169 499.736C671.657 500.648 670.969 501.328 670.105 501.776C669.241 502.208 668.265 502.424 667.177 502.424ZM667.633 499.88C668.385 499.88 669.057 499.728 669.649 499.424C670.241 499.104 670.697 498.672 671.017 498.128C671.353 497.568 671.521 496.928 671.521 496.208C671.521 495.488 671.353 494.856 671.017 494.312C670.697 493.752 670.241 493.328 669.649 493.04C669.057 492.736 668.385 492.584 667.633 492.584C666.881 492.584 666.201 492.736 665.593 493.04C665.001 493.328 664.537 493.752 664.201 494.312C663.881 494.856 663.721 495.488 663.721 496.208C663.721 496.928 663.881 497.568 664.201 498.128C664.537 498.672 665.001 499.104 665.593 499.424C666.201 499.728 666.881 499.88 667.633 499.88ZM683.361 503.168C681.937 503.168 680.689 502.888 679.617 502.328C678.561 501.752 677.737 500.968 677.145 499.976C676.569 498.984 676.281 497.856 676.281 496.592C676.281 495.312 676.561 494.184 677.121 493.208C677.697 492.216 678.481 491.44 679.473 490.88C680.481 490.32 681.625 490.04 682.905 490.04C684.153 490.04 685.265 490.312 686.241 490.856C687.217 491.4 687.985 492.168 688.545 493.16C689.105 494.152 689.385 495.32 689.385 496.664C689.385 496.792 689.377 496.936 689.361 497.096C689.361 497.256 689.353 497.408 689.337 497.552H678.657V495.56H687.753L686.577 496.184C686.593 495.448 686.441 494.8 686.121 494.24C685.801 493.68 685.361 493.24 684.801 492.92C684.257 492.6 683.625 492.44 682.905 492.44C682.169 492.44 681.521 492.6 680.961 492.92C680.417 493.24 679.985 493.688 679.665 494.264C679.361 494.824 679.209 495.488 679.209 496.256V496.736C679.209 497.504 679.385 498.184 679.737 498.776C680.089 499.368 680.585 499.824 681.225 500.144C681.865 500.464 682.601 500.624 683.433 500.624C684.153 500.624 684.801 500.512 685.377 500.288C685.953 500.064 686.465 499.712 686.913 499.232L688.521 501.08C687.945 501.752 687.217 502.272 686.337 502.64C685.473 502.992 684.481 503.168 683.361 503.168ZM697.027 503V486.2H703.939C705.427 486.2 706.699 486.44 707.755 486.92C708.827 487.4 709.651 488.088 710.227 488.984C710.803 489.88 711.091 490.944 711.091 492.176C711.091 493.408 710.803 494.472 710.227 495.368C709.651 496.264 708.827 496.952 707.755 497.432C706.699 497.912 705.427 498.152 703.939 498.152H698.755L700.147 496.688V503H697.027ZM700.147 497.024L698.755 495.512H703.795C705.171 495.512 706.203 495.224 706.891 494.648C707.595 494.056 707.947 493.232 707.947 492.176C707.947 491.104 707.595 490.28 706.891 489.704C706.203 489.128 705.171 488.84 703.795 488.84H698.755L700.147 487.304V497.024ZM718.552 503.168C717.24 503.168 716.072 502.888 715.048 502.328C714.024 501.752 713.216 500.968 712.624 499.976C712.032 498.984 711.736 497.856 711.736 496.592C711.736 495.312 712.032 494.184 712.624 493.208C713.216 492.216 714.024 491.44 715.048 490.88C716.072 490.32 717.24 490.04 718.552 490.04C719.88 490.04 721.056 490.32 722.08 490.88C723.12 491.44 723.928 492.208 724.504 493.184C725.096 494.16 725.392 495.296 725.392 496.592C725.392 497.856 725.096 498.984 724.504 499.976C723.928 500.968 723.12 501.752 722.08 502.328C721.056 502.888 719.88 503.168 718.552 503.168ZM718.552 500.6C719.288 500.6 719.944 500.44 720.52 500.12C721.096 499.8 721.544 499.336 721.864 498.728C722.2 498.12 722.368 497.408 722.368 496.592C722.368 495.76 722.2 495.048 721.864 494.456C721.544 493.848 721.096 493.384 720.52 493.064C719.944 492.744 719.296 492.584 718.576 492.584C717.84 492.584 717.184 492.744 716.608 493.064C716.048 493.384 715.6 493.848 715.264 494.456C714.928 495.048 714.76 495.76 714.76 496.592C714.76 497.408 714.928 498.12 715.264 498.728C715.6 499.336 716.048 499.8 716.608 500.12C717.184 500.44 717.832 500.6 718.552 500.6ZM727.181 503V485.192H730.181V503H727.181ZM733.038 503V490.184H736.038V503H733.038ZM734.55 488.072C733.99 488.072 733.526 487.896 733.158 487.544C732.806 487.192 732.63 486.768 732.63 486.272C732.63 485.76 732.806 485.336 733.158 485C733.526 484.648 733.99 484.472 734.55 484.472C735.11 484.472 735.566 484.64 735.918 484.976C736.286 485.296 736.47 485.704 736.47 486.2C736.47 486.728 736.294 487.176 735.942 487.544C735.59 487.896 735.126 488.072 734.55 488.072ZM744.776 503.168C743.432 503.168 742.232 502.888 741.176 502.328C740.136 501.752 739.32 500.968 738.728 499.976C738.136 498.984 737.84 497.856 737.84 496.592C737.84 495.312 738.136 494.184 738.728 493.208C739.32 492.216 740.136 491.44 741.176 490.88C742.232 490.32 743.432 490.04 744.776 490.04C746.024 490.04 747.12 490.296 748.064 490.808C749.024 491.304 749.752 492.04 750.248 493.016L747.944 494.36C747.56 493.752 747.088 493.304 746.528 493.016C745.984 492.728 745.392 492.584 744.752 492.584C744.016 492.584 743.352 492.744 742.76 493.064C742.168 493.384 741.704 493.848 741.368 494.456C741.032 495.048 740.864 495.76 740.864 496.592C740.864 497.424 741.032 498.144 741.368 498.752C741.704 499.344 742.168 499.8 742.76 500.12C743.352 500.44 744.016 500.6 744.752 500.6C745.392 500.6 745.984 500.456 746.528 500.168C747.088 499.88 747.56 499.432 747.944 498.824L750.248 500.168C749.752 501.128 749.024 501.872 748.064 502.4C747.12 502.912 746.024 503.168 744.776 503.168ZM752.653 507.824C752.029 507.824 751.405 507.72 750.781 507.512C750.157 507.304 749.637 507.016 749.221 506.648L750.421 504.44C750.725 504.712 751.069 504.928 751.453 505.088C751.837 505.248 752.229 505.328 752.629 505.328C753.173 505.328 753.613 505.192 753.949 504.92C754.285 504.648 754.597 504.192 754.885 503.552L755.629 501.872L755.869 501.512L760.717 490.184H763.597L757.597 504.032C757.197 504.992 756.749 505.752 756.253 506.312C755.773 506.872 755.229 507.264 754.621 507.488C754.029 507.712 753.373 507.824 752.653 507.824ZM755.293 503.456L749.509 490.184H752.629L757.333 501.248L755.293 503.456Z" fill="#4D4D4D"/>
</g>
<g filter="url(#filter4_d_1423_184)">
<rect x="73.5" y="612" width="258" height="258" rx="29" fill="#D7D7D7"/>
</g>
<g filter="url(#filter5_d_1423_184)">
<path d="M72.4916 943V926.2H75.0596L85.5956 939.136H84.3236V926.2H87.4196V943H84.8516L74.3156 930.064H75.5876V943H72.4916ZM96.3133 943.168C95.0013 943.168 93.8333 942.888 92.8093 942.328C91.7853 941.752 90.9773 940.968 90.3853 939.976C89.7933 938.984 89.4973 937.856 89.4973 936.592C89.4973 935.312 89.7933 934.184 90.3853 933.208C90.9773 932.216 91.7853 931.44 92.8093 930.88C93.8333 930.32 95.0013 930.04 96.3133 930.04C97.6413 930.04 98.8173 930.32 99.8413 930.88C100.881 931.44 101.689 932.208 102.265 933.184C102.857 934.16 103.153 935.296 103.153 936.592C103.153 937.856 102.857 938.984 102.265 939.976C101.689 940.968 100.881 941.752 99.8413 942.328C98.8173 942.888 97.6413 943.168 96.3133 943.168ZM96.3133 940.6C97.0493 940.6 97.7053 940.44 98.2813 940.12C98.8573 939.8 99.3053 939.336 99.6253 938.728C99.9613 938.12 100.129 937.408 100.129 936.592C100.129 935.76 99.9613 935.048 99.6253 934.456C99.3053 933.848 98.8573 933.384 98.2813 933.064C97.7053 932.744 97.0573 932.584 96.3373 932.584C95.6013 932.584 94.9453 932.744 94.3693 933.064C93.8093 933.384 93.3613 933.848 93.0253 934.456C92.6893 935.048 92.5213 935.76 92.5213 936.592C92.5213 937.408 92.6893 938.12 93.0253 938.728C93.3613 939.336 93.8093 939.8 94.3693 940.12C94.9453 940.44 95.5933 940.6 96.3133 940.6ZM110.783 943V926.2H113.351L120.695 938.464H119.351L126.575 926.2H129.143L129.167 943H126.215L126.191 930.832H126.815L120.671 941.08H119.279L113.039 930.832H113.759V943H110.783ZM132.337 943V930.184H135.337V943H132.337ZM133.849 928.072C133.289 928.072 132.825 927.896 132.457 927.544C132.105 927.192 131.929 926.768 131.929 926.272C131.929 925.76 132.105 925.336 132.457 925C132.825 924.648 133.289 924.472 133.849 924.472C134.409 924.472 134.865 924.64 135.217 924.976C135.585 925.296 135.769 925.704 135.769 926.2C135.769 926.728 135.593 927.176 135.241 927.544C134.889 927.896 134.425 928.072 133.849 928.072ZM145.466 930.04C146.49 930.04 147.402 930.24 148.202 930.64C149.018 931.04 149.658 931.656 150.122 932.488C150.586 933.304 150.818 934.36 150.818 935.656V943H147.818V936.04C147.818 934.904 147.546 934.056 147.002 933.496C146.474 932.936 145.73 932.656 144.77 932.656C144.066 932.656 143.442 932.8 142.898 933.088C142.354 933.376 141.93 933.808 141.626 934.384C141.338 934.944 141.194 935.656 141.194 936.52V943H138.194V930.184H141.05V933.64L140.546 932.584C140.994 931.768 141.642 931.144 142.49 930.712C143.354 930.264 144.346 930.04 145.466 930.04ZM153.544 943V930.184H156.544V943H153.544ZM155.056 928.072C154.496 928.072 154.032 927.896 153.664 927.544C153.312 927.192 153.136 926.768 153.136 926.272C153.136 925.76 153.312 925.336 153.664 925C154.032 924.648 154.496 924.472 155.056 924.472C155.616 924.472 156.072 924.64 156.424 924.976C156.792 925.296 156.976 925.704 156.976 926.2C156.976 926.728 156.8 927.176 156.448 927.544C156.096 927.896 155.632 928.072 155.056 928.072ZM175.577 930.04C176.601 930.04 177.505 930.24 178.289 930.64C179.089 931.04 179.713 931.656 180.161 932.488C180.609 933.304 180.833 934.36 180.833 935.656V943H177.833V936.04C177.833 934.904 177.585 934.056 177.089 933.496C176.593 932.936 175.881 932.656 174.953 932.656C174.297 932.656 173.713 932.8 173.201 933.088C172.705 933.376 172.313 933.8 172.025 934.36C171.753 934.92 171.617 935.632 171.617 936.496V943H168.617V936.04C168.617 934.904 168.369 934.056 167.873 933.496C167.377 932.936 166.665 932.656 165.737 932.656C165.081 932.656 164.497 932.8 163.985 933.088C163.489 933.376 163.097 933.8 162.809 934.36C162.537 934.92 162.401 935.632 162.401 936.496V943H159.401V930.184H162.257V933.592L161.753 932.584C162.185 931.752 162.809 931.12 163.625 930.688C164.457 930.256 165.401 930.04 166.457 930.04C167.657 930.04 168.697 930.336 169.577 930.928C170.473 931.52 171.065 932.416 171.353 933.616L170.177 933.208C170.593 932.248 171.281 931.48 172.241 930.904C173.201 930.328 174.313 930.04 175.577 930.04ZM189.011 943.168C187.923 943.168 186.963 942.968 186.131 942.568C185.299 942.152 184.651 941.528 184.187 940.696C183.723 939.848 183.491 938.784 183.491 937.504V930.184H186.491V937.096C186.491 938.248 186.747 939.112 187.259 939.688C187.787 940.248 188.531 940.528 189.491 940.528C190.195 940.528 190.803 940.384 191.315 940.096C191.843 939.808 192.251 939.376 192.539 938.8C192.843 938.224 192.995 937.512 192.995 936.664V930.184H195.995V943H193.139V939.544L193.643 940.6C193.211 941.432 192.579 942.072 191.747 942.52C190.915 942.952 190.003 943.168 189.011 943.168ZM215.019 930.04C216.043 930.04 216.947 930.24 217.731 930.64C218.531 931.04 219.155 931.656 219.603 932.488C220.051 933.304 220.275 934.36 220.275 935.656V943H217.275V936.04C217.275 934.904 217.027 934.056 216.531 933.496C216.035 932.936 215.323 932.656 214.395 932.656C213.739 932.656 213.155 932.8 212.643 933.088C212.147 933.376 211.755 933.8 211.467 934.36C211.195 934.92 211.059 935.632 211.059 936.496V943H208.059V936.04C208.059 934.904 207.811 934.056 207.315 933.496C206.819 932.936 206.107 932.656 205.179 932.656C204.523 932.656 203.939 932.8 203.427 933.088C202.931 933.376 202.539 933.8 202.251 934.36C201.979 934.92 201.843 935.632 201.843 936.496V943H198.843V930.184H201.699V933.592L201.195 932.584C201.627 931.752 202.251 931.12 203.067 930.688C203.899 930.256 204.843 930.04 205.899 930.04C207.099 930.04 208.139 930.336 209.019 930.928C209.915 931.52 210.507 932.416 210.795 933.616L209.619 933.208C210.035 932.248 210.723 931.48 211.683 930.904C212.643 930.328 213.755 930.04 215.019 930.04ZM228.869 943V926.2H235.781C237.269 926.2 238.541 926.44 239.597 926.92C240.669 927.4 241.493 928.088 242.069 928.984C242.645 929.88 242.933 930.944 242.933 932.176C242.933 933.408 242.645 934.472 242.069 935.368C241.493 936.264 240.669 936.952 239.597 937.432C238.541 937.912 237.269 938.152 235.781 938.152H230.597L231.989 936.688V943H228.869ZM231.989 937.024L230.597 935.512H235.637C237.013 935.512 238.045 935.224 238.733 934.648C239.437 934.056 239.789 933.232 239.789 932.176C239.789 931.104 239.437 930.28 238.733 929.704C238.045 929.128 237.013 928.84 235.637 928.84H230.597L231.989 927.304V937.024ZM250.339 943.168C249.251 943.168 248.291 942.968 247.459 942.568C246.627 942.152 245.979 941.528 245.515 940.696C245.051 939.848 244.819 938.784 244.819 937.504V930.184H247.819V937.096C247.819 938.248 248.075 939.112 248.587 939.688C249.115 940.248 249.859 940.528 250.819 940.528C251.523 940.528 252.131 940.384 252.643 940.096C253.171 939.808 253.579 939.376 253.867 938.8C254.171 938.224 254.323 937.512 254.323 936.664V930.184H257.323V943H254.467V939.544L254.971 940.6C254.539 941.432 253.907 942.072 253.075 942.52C252.243 942.952 251.331 943.168 250.339 943.168ZM260.171 943V930.184H263.027V933.712L262.691 932.68C263.075 931.816 263.675 931.16 264.491 930.712C265.323 930.264 266.355 930.04 267.587 930.04V932.896C267.459 932.864 267.339 932.848 267.227 932.848C267.115 932.832 267.003 932.824 266.891 932.824C265.755 932.824 264.851 933.16 264.179 933.832C263.507 934.488 263.171 935.472 263.171 936.784V943H260.171ZM274.815 943.168C273.471 943.168 272.271 942.888 271.215 942.328C270.175 941.752 269.359 940.968 268.767 939.976C268.175 938.984 267.879 937.856 267.879 936.592C267.879 935.312 268.175 934.184 268.767 933.208C269.359 932.216 270.175 931.44 271.215 930.88C272.271 930.32 273.471 930.04 274.815 930.04C276.063 930.04 277.159 930.296 278.103 930.808C279.063 931.304 279.791 932.04 280.287 933.016L277.983 934.36C277.599 933.752 277.127 933.304 276.567 933.016C276.023 932.728 275.431 932.584 274.791 932.584C274.055 932.584 273.391 932.744 272.799 933.064C272.207 933.384 271.743 933.848 271.407 934.456C271.071 935.048 270.903 935.76 270.903 936.592C270.903 937.424 271.071 938.144 271.407 938.752C271.743 939.344 272.207 939.8 272.799 940.12C273.391 940.44 274.055 940.6 274.791 940.6C275.431 940.6 276.023 940.456 276.567 940.168C277.127 939.88 277.599 939.432 277.983 938.824L280.287 940.168C279.791 941.128 279.063 941.872 278.103 942.4C277.159 942.912 276.063 943.168 274.815 943.168ZM288.955 930.04C289.979 930.04 290.891 930.24 291.691 930.64C292.507 931.04 293.147 931.656 293.611 932.488C294.075 933.304 294.307 934.36 294.307 935.656V943H291.307V936.04C291.307 934.904 291.035 934.056 290.491 933.496C289.963 932.936 289.219 932.656 288.259 932.656C287.555 932.656 286.931 932.8 286.387 933.088C285.843 933.376 285.419 933.808 285.115 934.384C284.827 934.944 284.683 935.656 284.683 936.52V943H281.683V925.192H284.683V933.64L284.035 932.584C284.483 931.768 285.131 931.144 285.979 930.712C286.843 930.264 287.835 930.04 288.955 930.04ZM304.929 943V940.408L304.761 939.856V935.32C304.761 934.44 304.497 933.76 303.969 933.28C303.441 932.784 302.641 932.536 301.569 932.536C300.849 932.536 300.137 932.648 299.433 932.872C298.745 933.096 298.161 933.408 297.681 933.808L296.505 931.624C297.193 931.096 298.009 930.704 298.953 930.448C299.913 930.176 300.905 930.04 301.929 930.04C303.785 930.04 305.217 930.488 306.225 931.384C307.249 932.264 307.761 933.632 307.761 935.488V943H304.929ZM300.897 943.168C299.937 943.168 299.097 943.008 298.377 942.688C297.657 942.352 297.097 941.896 296.697 941.32C296.313 940.728 296.121 940.064 296.121 939.328C296.121 938.608 296.289 937.96 296.625 937.384C296.977 936.808 297.545 936.352 298.329 936.016C299.113 935.68 300.153 935.512 301.449 935.512H305.169V937.504H301.665C300.641 937.504 299.953 937.672 299.601 938.008C299.249 938.328 299.073 938.728 299.073 939.208C299.073 939.752 299.289 940.184 299.721 940.504C300.153 940.824 300.753 940.984 301.521 940.984C302.257 940.984 302.913 940.816 303.489 940.48C304.081 940.144 304.505 939.648 304.761 938.992L305.265 940.792C304.977 941.544 304.457 942.128 303.705 942.544C302.969 942.96 302.033 943.168 300.897 943.168ZM314.491 943.168C313.419 943.168 312.387 943.032 311.395 942.76C310.419 942.472 309.643 942.128 309.067 941.728L310.219 939.448C310.795 939.816 311.483 940.12 312.283 940.36C313.083 940.6 313.883 940.72 314.683 940.72C315.627 940.72 316.307 940.592 316.723 940.336C317.155 940.08 317.371 939.736 317.371 939.304C317.371 938.952 317.227 938.688 316.939 938.512C316.651 938.32 316.275 938.176 315.811 938.08C315.347 937.984 314.827 937.896 314.251 937.816C313.691 937.736 313.123 937.632 312.547 937.504C311.987 937.36 311.475 937.16 311.011 936.904C310.547 936.632 310.171 936.272 309.883 935.824C309.595 935.376 309.451 934.784 309.451 934.048C309.451 933.232 309.683 932.528 310.147 931.936C310.611 931.328 311.259 930.864 312.091 930.544C312.939 930.208 313.939 930.04 315.091 930.04C315.955 930.04 316.827 930.136 317.707 930.328C318.587 930.52 319.315 930.792 319.891 931.144L318.739 933.424C318.131 933.056 317.515 932.808 316.891 932.68C316.283 932.536 315.675 932.464 315.067 932.464C314.155 932.464 313.475 932.6 313.027 932.872C312.595 933.144 312.379 933.488 312.379 933.904C312.379 934.288 312.523 934.576 312.811 934.768C313.099 934.96 313.475 935.112 313.939 935.224C314.403 935.336 314.915 935.432 315.475 935.512C316.051 935.576 316.619 935.68 317.179 935.824C317.739 935.968 318.251 936.168 318.715 936.424C319.195 936.664 319.579 937.008 319.867 937.456C320.155 937.904 320.299 938.488 320.299 939.208C320.299 940.008 320.059 940.704 319.579 941.296C319.115 941.888 318.451 942.352 317.587 942.688C316.723 943.008 315.691 943.168 314.491 943.168ZM327.827 943.168C326.403 943.168 325.155 942.888 324.083 942.328C323.027 941.752 322.203 940.968 321.611 939.976C321.035 938.984 320.747 937.856 320.747 936.592C320.747 935.312 321.027 934.184 321.587 933.208C322.163 932.216 322.947 931.44 323.939 930.88C324.947 930.32 326.091 930.04 327.371 930.04C328.619 930.04 329.731 930.312 330.707 930.856C331.683 931.4 332.451 932.168 333.011 933.16C333.571 934.152 333.851 935.32 333.851 936.664C333.851 936.792 333.843 936.936 333.827 937.096C333.827 937.256 333.819 937.408 333.803 937.552H323.123V935.56H332.219L331.043 936.184C331.059 935.448 330.907 934.8 330.587 934.24C330.267 933.68 329.827 933.24 329.267 932.92C328.723 932.6 328.091 932.44 327.371 932.44C326.635 932.44 325.987 932.6 325.427 932.92C324.883 933.24 324.451 933.688 324.131 934.264C323.827 934.824 323.675 935.488 323.675 936.256V936.736C323.675 937.504 323.851 938.184 324.203 938.776C324.555 939.368 325.051 939.824 325.691 940.144C326.331 940.464 327.067 940.624 327.899 940.624C328.619 940.624 329.267 940.512 329.843 940.288C330.419 940.064 330.931 939.712 331.379 939.232L332.987 941.08C332.411 941.752 331.683 942.272 330.803 942.64C329.939 942.992 328.947 943.168 327.827 943.168Z" fill="#4D4D4D"/>
</g>
<g filter="url(#filter6_d_1423_184)">
<rect x="473" y="612" width="258" height="258" rx="29" fill="#D7D7D7"/>
</g>
<g filter="url(#filter7_d_1423_184)">
<path d="M459.162 933.928H467.538V936.568H459.162V933.928ZM459.426 943H456.306V926.2H468.57V928.816H459.426V943ZM477.693 943V940.408L477.525 939.856V935.32C477.525 934.44 477.261 933.76 476.733 933.28C476.205 932.784 475.405 932.536 474.333 932.536C473.613 932.536 472.901 932.648 472.197 932.872C471.509 933.096 470.925 933.408 470.445 933.808L469.269 931.624C469.957 931.096 470.773 930.704 471.717 930.448C472.677 930.176 473.669 930.04 474.693 930.04C476.549 930.04 477.981 930.488 478.989 931.384C480.013 932.264 480.525 933.632 480.525 935.488V943H477.693ZM473.661 943.168C472.701 943.168 471.861 943.008 471.141 942.688C470.421 942.352 469.861 941.896 469.461 941.32C469.077 940.728 468.885 940.064 468.885 939.328C468.885 938.608 469.053 937.96 469.389 937.384C469.741 936.808 470.309 936.352 471.093 936.016C471.877 935.68 472.917 935.512 474.213 935.512H477.933V937.504H474.429C473.405 937.504 472.717 937.672 472.365 938.008C472.013 938.328 471.837 938.728 471.837 939.208C471.837 939.752 472.053 940.184 472.485 940.504C472.917 940.824 473.517 940.984 474.285 940.984C475.021 940.984 475.677 940.816 476.253 940.48C476.845 940.144 477.269 939.648 477.525 938.992L478.029 940.792C477.741 941.544 477.221 942.128 476.469 942.544C475.733 942.96 474.797 943.168 473.661 943.168ZM487.255 943.168C486.183 943.168 485.151 943.032 484.159 942.76C483.183 942.472 482.407 942.128 481.831 941.728L482.983 939.448C483.559 939.816 484.247 940.12 485.047 940.36C485.847 940.6 486.647 940.72 487.447 940.72C488.391 940.72 489.071 940.592 489.487 940.336C489.919 940.08 490.135 939.736 490.135 939.304C490.135 938.952 489.991 938.688 489.703 938.512C489.415 938.32 489.039 938.176 488.575 938.08C488.111 937.984 487.591 937.896 487.015 937.816C486.455 937.736 485.887 937.632 485.311 937.504C484.751 937.36 484.239 937.16 483.775 936.904C483.311 936.632 482.935 936.272 482.647 935.824C482.359 935.376 482.215 934.784 482.215 934.048C482.215 933.232 482.447 932.528 482.911 931.936C483.375 931.328 484.023 930.864 484.855 930.544C485.703 930.208 486.703 930.04 487.855 930.04C488.719 930.04 489.591 930.136 490.471 930.328C491.351 930.52 492.079 930.792 492.655 931.144L491.503 933.424C490.895 933.056 490.279 932.808 489.655 932.68C489.047 932.536 488.439 932.464 487.831 932.464C486.919 932.464 486.239 932.6 485.791 932.872C485.359 933.144 485.143 933.488 485.143 933.904C485.143 934.288 485.287 934.576 485.575 934.768C485.863 934.96 486.239 935.112 486.703 935.224C487.167 935.336 487.679 935.432 488.239 935.512C488.815 935.576 489.383 935.68 489.943 935.824C490.503 935.968 491.015 936.168 491.479 936.424C491.959 936.664 492.343 937.008 492.631 937.456C492.919 937.904 493.063 938.488 493.063 939.208C493.063 940.008 492.823 940.704 492.343 941.296C491.879 941.888 491.215 942.352 490.351 942.688C489.487 943.008 488.455 943.168 487.255 943.168ZM499.391 943.168C497.983 943.168 496.895 942.808 496.127 942.088C495.359 941.352 494.975 940.272 494.975 938.848V927.352H497.975V938.776C497.975 939.384 498.127 939.856 498.431 940.192C498.751 940.528 499.191 940.696 499.751 940.696C500.423 940.696 500.983 940.52 501.431 940.168L502.271 942.304C501.919 942.592 501.487 942.808 500.975 942.952C500.463 943.096 499.935 943.168 499.391 943.168ZM492.863 932.68V930.28H501.407V932.68H492.863ZM509.5 943V926.2H516.844C518.668 926.2 520.268 926.552 521.644 927.256C523.02 927.96 524.092 928.936 524.86 930.184C525.628 931.432 526.012 932.904 526.012 934.6C526.012 936.28 525.628 937.752 524.86 939.016C524.092 940.264 523.02 941.24 521.644 941.944C520.268 942.648 518.668 943 516.844 943H509.5ZM512.62 940.36H516.7C517.964 940.36 519.052 940.12 519.964 939.64C520.892 939.16 521.604 938.488 522.1 937.624C522.612 936.76 522.868 935.752 522.868 934.6C522.868 933.432 522.612 932.424 522.1 931.576C521.604 930.712 520.892 930.04 519.964 929.56C519.052 929.08 517.964 928.84 516.7 928.84H512.62V940.36ZM533.984 943.168C532.56 943.168 531.312 942.888 530.24 942.328C529.184 941.752 528.36 940.968 527.768 939.976C527.192 938.984 526.904 937.856 526.904 936.592C526.904 935.312 527.184 934.184 527.744 933.208C528.32 932.216 529.104 931.44 530.096 930.88C531.104 930.32 532.248 930.04 533.528 930.04C534.776 930.04 535.888 930.312 536.864 930.856C537.84 931.4 538.608 932.168 539.168 933.16C539.728 934.152 540.008 935.32 540.008 936.664C540.008 936.792 540 936.936 539.984 937.096C539.984 937.256 539.976 937.408 539.96 937.552H529.28V935.56H538.376L537.2 936.184C537.216 935.448 537.064 934.8 536.744 934.24C536.424 933.68 535.984 933.24 535.424 932.92C534.88 932.6 534.248 932.44 533.528 932.44C532.792 932.44 532.144 932.6 531.584 932.92C531.04 933.24 530.608 933.688 530.288 934.264C529.984 934.824 529.832 935.488 529.832 936.256V936.736C529.832 937.504 530.008 938.184 530.36 938.776C530.712 939.368 531.208 939.824 531.848 940.144C532.488 940.464 533.224 940.624 534.056 940.624C534.776 940.624 535.424 940.512 536 940.288C536.576 940.064 537.088 939.712 537.536 939.232L539.144 941.08C538.568 941.752 537.84 942.272 536.96 942.64C536.096 942.992 535.104 943.168 533.984 943.168ZM541.809 943V925.192H544.809V943H541.809ZM547.667 943V930.184H550.667V943H547.667ZM549.179 928.072C548.619 928.072 548.155 927.896 547.787 927.544C547.435 927.192 547.259 926.768 547.259 926.272C547.259 925.76 547.435 925.336 547.787 925C548.155 924.648 548.619 924.472 549.179 924.472C549.739 924.472 550.195 924.64 550.547 924.976C550.915 925.296 551.099 925.704 551.099 926.2C551.099 926.728 550.923 927.176 550.571 927.544C550.219 927.896 549.755 928.072 549.179 928.072ZM556.932 943L551.436 930.184H554.556L559.284 941.488H557.748L562.644 930.184H565.524L560.028 943H556.932ZM571.992 943.168C570.568 943.168 569.32 942.888 568.248 942.328C567.192 941.752 566.368 940.968 565.776 939.976C565.2 938.984 564.912 937.856 564.912 936.592C564.912 935.312 565.192 934.184 565.752 933.208C566.328 932.216 567.112 931.44 568.104 930.88C569.112 930.32 570.256 930.04 571.536 930.04C572.784 930.04 573.896 930.312 574.872 930.856C575.848 931.4 576.616 932.168 577.176 933.16C577.736 934.152 578.016 935.32 578.016 936.664C578.016 936.792 578.008 936.936 577.992 937.096C577.992 937.256 577.984 937.408 577.968 937.552H567.288V935.56H576.384L575.208 936.184C575.224 935.448 575.072 934.8 574.752 934.24C574.432 933.68 573.992 933.24 573.432 932.92C572.888 932.6 572.256 932.44 571.536 932.44C570.8 932.44 570.152 932.6 569.592 932.92C569.048 933.24 568.616 933.688 568.296 934.264C567.992 934.824 567.84 935.488 567.84 936.256V936.736C567.84 937.504 568.016 938.184 568.368 938.776C568.72 939.368 569.216 939.824 569.856 940.144C570.496 940.464 571.232 940.624 572.064 940.624C572.784 940.624 573.432 940.512 574.008 940.288C574.584 940.064 575.096 939.712 575.544 939.232L577.152 941.08C576.576 941.752 575.848 942.272 574.968 942.64C574.104 942.992 573.112 943.168 571.992 943.168ZM579.818 943V930.184H582.674V933.712L582.338 932.68C582.722 931.816 583.322 931.16 584.138 930.712C584.97 930.264 586.002 930.04 587.234 930.04V932.896C587.106 932.864 586.986 932.848 586.874 932.848C586.762 932.832 586.65 932.824 586.538 932.824C585.402 932.824 584.498 933.16 583.826 933.832C583.154 934.488 582.818 935.472 582.818 936.784V943H579.818ZM590.223 947.824C589.599 947.824 588.975 947.72 588.351 947.512C587.727 947.304 587.207 947.016 586.791 946.648L587.991 944.44C588.295 944.712 588.639 944.928 589.023 945.088C589.407 945.248 589.799 945.328 590.199 945.328C590.743 945.328 591.183 945.192 591.519 944.92C591.855 944.648 592.167 944.192 592.455 943.552L593.199 941.872L593.439 941.512L598.287 930.184H601.167L595.167 944.032C594.767 944.992 594.319 945.752 593.823 946.312C593.343 946.872 592.799 947.264 592.191 947.488C591.599 947.712 590.943 947.824 590.223 947.824ZM592.863 943.456L587.079 930.184H590.199L594.903 941.248L592.863 943.456ZM607.803 943V926.2H610.371L620.907 939.136H619.635V926.2H622.731V943H620.163L609.627 930.064H610.899V943H607.803ZM633.761 943V940.408L633.593 939.856V935.32C633.593 934.44 633.329 933.76 632.801 933.28C632.273 932.784 631.473 932.536 630.401 932.536C629.681 932.536 628.969 932.648 628.265 932.872C627.577 933.096 626.993 933.408 626.513 933.808L625.337 931.624C626.025 931.096 626.841 930.704 627.785 930.448C628.745 930.176 629.737 930.04 630.761 930.04C632.617 930.04 634.049 930.488 635.057 931.384C636.081 932.264 636.593 933.632 636.593 935.488V943H633.761ZM629.729 943.168C628.769 943.168 627.929 943.008 627.209 942.688C626.489 942.352 625.929 941.896 625.529 941.32C625.145 940.728 624.953 940.064 624.953 939.328C624.953 938.608 625.121 937.96 625.457 937.384C625.809 936.808 626.377 936.352 627.161 936.016C627.945 935.68 628.985 935.512 630.281 935.512H634.001V937.504H630.497C629.473 937.504 628.785 937.672 628.433 938.008C628.081 938.328 627.905 938.728 627.905 939.208C627.905 939.752 628.121 940.184 628.553 940.504C628.985 940.824 629.585 940.984 630.353 940.984C631.089 940.984 631.745 940.816 632.321 940.48C632.913 940.144 633.337 939.648 633.593 938.992L634.097 940.792C633.809 941.544 633.289 942.128 632.537 942.544C631.801 942.96 630.865 943.168 629.729 943.168ZM644.187 943.168C642.779 943.168 641.691 942.808 640.923 942.088C640.155 941.352 639.771 940.272 639.771 938.848V927.352H642.771V938.776C642.771 939.384 642.923 939.856 643.227 940.192C643.547 940.528 643.987 940.696 644.547 940.696C645.219 940.696 645.779 940.52 646.227 940.168L647.067 942.304C646.715 942.592 646.283 942.808 645.771 942.952C645.259 943.096 644.731 943.168 644.187 943.168ZM637.659 932.68V930.28H646.203V932.68H637.659ZM648.455 943V930.184H651.455V943H648.455ZM649.967 928.072C649.407 928.072 648.943 927.896 648.575 927.544C648.223 927.192 648.047 926.768 648.047 926.272C648.047 925.76 648.223 925.336 648.575 925C648.943 924.648 649.407 924.472 649.967 924.472C650.527 924.472 650.983 924.64 651.335 924.976C651.703 925.296 651.887 925.704 651.887 926.2C651.887 926.728 651.711 927.176 651.359 927.544C651.007 927.896 650.543 928.072 649.967 928.072ZM660.072 943.168C658.76 943.168 657.592 942.888 656.568 942.328C655.544 941.752 654.736 940.968 654.144 939.976C653.552 938.984 653.256 937.856 653.256 936.592C653.256 935.312 653.552 934.184 654.144 933.208C654.736 932.216 655.544 931.44 656.568 930.88C657.592 930.32 658.76 930.04 660.072 930.04C661.4 930.04 662.576 930.32 663.6 930.88C664.64 931.44 665.448 932.208 666.024 933.184C666.616 934.16 666.912 935.296 666.912 936.592C666.912 937.856 666.616 938.984 666.024 939.976C665.448 940.968 664.64 941.752 663.6 942.328C662.576 942.888 661.4 943.168 660.072 943.168ZM660.072 940.6C660.808 940.6 661.464 940.44 662.04 940.12C662.616 939.8 663.064 939.336 663.384 938.728C663.72 938.12 663.888 937.408 663.888 936.592C663.888 935.76 663.72 935.048 663.384 934.456C663.064 933.848 662.616 933.384 662.04 933.064C661.464 932.744 660.816 932.584 660.096 932.584C659.36 932.584 658.704 932.744 658.128 933.064C657.568 933.384 657.12 933.848 656.784 934.456C656.448 935.048 656.28 935.76 656.28 936.592C656.28 937.408 656.448 938.12 656.784 938.728C657.12 939.336 657.568 939.8 658.128 940.12C658.704 940.44 659.352 940.6 660.072 940.6ZM675.973 930.04C676.997 930.04 677.909 930.24 678.709 930.64C679.525 931.04 680.165 931.656 680.629 932.488C681.093 933.304 681.325 934.36 681.325 935.656V943H678.325V936.04C678.325 934.904 678.053 934.056 677.509 933.496C676.981 932.936 676.237 932.656 675.277 932.656C674.573 932.656 673.949 932.8 673.405 933.088C672.861 933.376 672.437 933.808 672.133 934.384C671.845 934.944 671.701 935.656 671.701 936.52V943H668.701V930.184H671.557V933.64L671.053 932.584C671.501 931.768 672.149 931.144 672.997 930.712C673.861 930.264 674.853 930.04 675.973 930.04ZM693.851 943L688.283 926.2H691.523L696.491 941.392H694.883L700.043 926.2H702.923L707.939 941.392H706.379L711.467 926.2H714.443L708.875 943H705.563L700.979 929.296H701.843L697.187 943H693.851ZM715.734 943V930.184H718.734V943H715.734ZM717.246 928.072C716.686 928.072 716.222 927.896 715.854 927.544C715.502 927.192 715.326 926.768 715.326 926.272C715.326 925.76 715.502 925.336 715.854 925C716.222 924.648 716.686 924.472 717.246 924.472C717.806 924.472 718.262 924.64 718.614 924.976C718.982 925.296 719.166 925.704 719.166 926.2C719.166 926.728 718.99 927.176 718.638 927.544C718.286 927.896 717.822 928.072 717.246 928.072ZM727.016 943.168C725.784 943.168 724.672 942.896 723.68 942.352C722.704 941.792 721.936 941.024 721.376 940.048C720.816 939.072 720.536 937.92 720.536 936.592C720.536 935.264 720.816 934.112 721.376 933.136C721.936 932.16 722.704 931.4 723.68 930.856C724.672 930.312 725.784 930.04 727.016 930.04C728.088 930.04 729.048 930.28 729.896 930.76C730.744 931.224 731.416 931.936 731.912 932.896C732.408 933.856 732.656 935.088 732.656 936.592C732.656 938.08 732.416 939.312 731.936 940.288C731.456 941.248 730.792 941.968 729.944 942.448C729.096 942.928 728.12 943.168 727.016 943.168ZM727.376 940.6C728.096 940.6 728.736 940.44 729.296 940.12C729.872 939.8 730.328 939.336 730.664 938.728C731.016 938.12 731.192 937.408 731.192 936.592C731.192 935.76 731.016 935.048 730.664 934.456C730.328 933.848 729.872 933.384 729.296 933.064C728.736 932.744 728.096 932.584 727.376 932.584C726.656 932.584 726.008 932.744 725.432 933.064C724.872 933.384 724.416 933.848 724.064 934.456C723.728 935.048 723.56 935.76 723.56 936.592C723.56 937.408 723.728 938.12 724.064 938.728C724.416 939.336 724.872 939.8 725.432 940.12C726.008 940.44 726.656 940.6 727.376 940.6ZM731.264 943V939.976L731.384 936.568L731.144 933.16V925.192H734.12V943H731.264ZM743.012 943.168C741.588 943.168 740.34 942.888 739.268 942.328C738.212 941.752 737.388 940.968 736.796 939.976C736.22 938.984 735.932 937.856 735.932 936.592C735.932 935.312 736.212 934.184 736.772 933.208C737.348 932.216 738.132 931.44 739.124 930.88C740.132 930.32 741.276 930.04 742.556 930.04C743.804 930.04 744.916 930.312 745.892 930.856C746.868 931.4 747.636 932.168 748.196 933.16C748.756 934.152 749.036 935.32 749.036 936.664C749.036 936.792 749.028 936.936 749.012 937.096C749.012 937.256 749.004 937.408 748.988 937.552H738.308V935.56H747.404L746.228 936.184C746.244 935.448 746.092 934.8 745.772 934.24C745.452 933.68 745.012 933.24 744.452 932.92C743.908 932.6 743.276 932.44 742.556 932.44C741.82 932.44 741.172 932.6 740.612 932.92C740.068 933.24 739.636 933.688 739.316 934.264C739.012 934.824 738.86 935.488 738.86 936.256V936.736C738.86 937.504 739.036 938.184 739.388 938.776C739.74 939.368 740.236 939.824 740.876 940.144C741.516 940.464 742.252 940.624 743.084 940.624C743.804 940.624 744.452 940.512 745.028 940.288C745.604 940.064 746.116 939.712 746.564 939.232L748.172 941.08C747.596 941.752 746.868 942.272 745.988 942.64C745.124 942.992 744.132 943.168 743.012 943.168Z" fill="#4D4D4D"/>
</g>
<g filter="url(#filter8_d_1423_184)">
<path d="M248.675 78.48C246.051 78.48 243.635 78.048 241.427 77.184C239.219 76.32 237.299 75.12 235.667 73.584C234.035 72.016 232.771 70.192 231.875 68.112C230.979 66 230.531 63.696 230.531 61.2C230.531 58.704 230.979 56.416 231.875 54.336C232.771 52.224 234.035 50.4 235.667 48.864C237.299 47.296 239.219 46.08 241.427 45.216C243.635 44.352 246.035 43.92 248.627 43.92C251.251 43.92 253.651 44.352 255.827 45.216C258.035 46.08 259.955 47.296 261.587 48.864C263.219 50.4 264.483 52.224 265.379 54.336C266.275 56.416 266.723 58.704 266.723 61.2C266.723 63.696 266.275 66 265.379 68.112C264.483 70.224 263.219 72.048 261.587 73.584C259.955 75.12 258.035 76.32 255.827 77.184C253.651 78.048 251.267 78.48 248.675 78.48ZM248.627 73.008C250.323 73.008 251.891 72.72 253.331 72.144C254.771 71.568 256.019 70.752 257.075 69.696C258.131 68.608 258.947 67.36 259.523 65.952C260.131 64.512 260.435 62.928 260.435 61.2C260.435 59.472 260.131 57.904 259.523 56.496C258.947 55.056 258.131 53.808 257.075 52.752C256.019 51.664 254.771 50.832 253.331 50.256C251.891 49.68 250.323 49.392 248.627 49.392C246.931 49.392 245.363 49.68 243.923 50.256C242.515 50.832 241.267 51.664 240.179 52.752C239.123 53.808 238.291 55.056 237.683 56.496C237.107 57.904 236.819 59.472 236.819 61.2C236.819 62.896 237.107 64.464 237.683 65.904C238.291 67.344 239.123 68.608 240.179 69.696C241.235 70.752 242.483 71.568 243.923 72.144C245.363 72.72 246.931 73.008 248.627 73.008ZM285.625 78.48C281.017 78.48 277.401 77.184 274.777 74.592C272.185 72 270.889 68.256 270.889 63.36V44.4H277.129V63.12C277.129 66.576 277.865 69.088 279.337 70.656C280.841 72.224 282.953 73.008 285.673 73.008C288.393 73.008 290.489 72.224 291.961 70.656C293.433 69.088 294.169 66.576 294.169 63.12V44.4H300.313V63.36C300.313 68.256 299.001 72 296.377 74.592C293.785 77.184 290.201 78.48 285.625 78.48ZM306.892 78V44.4H320.716C323.692 44.4 326.236 44.88 328.348 45.84C330.492 46.8 332.14 48.176 333.292 49.968C334.444 51.76 335.02 53.888 335.02 56.352C335.02 58.816 334.444 60.944 333.292 62.736C332.14 64.496 330.492 65.856 328.348 66.816C326.236 67.744 323.692 68.208 320.716 68.208H310.348L313.132 65.376V78H306.892ZM328.876 78L320.38 65.808H327.052L335.596 78H328.876ZM313.132 66.048L310.348 63.072H320.428C323.18 63.072 325.244 62.48 326.62 61.296C328.028 60.112 328.732 58.464 328.732 56.352C328.732 54.208 328.028 52.56 326.62 51.408C325.244 50.256 323.18 49.68 320.428 49.68H310.348L313.132 46.608V66.048ZM361.363 78.48C358.739 78.48 356.227 78.112 353.827 77.376C351.427 76.608 349.523 75.632 348.115 74.448L350.275 69.6C351.619 70.656 353.283 71.536 355.267 72.24C357.251 72.944 359.283 73.296 361.363 73.296C363.123 73.296 364.547 73.104 365.635 72.72C366.723 72.336 367.523 71.824 368.035 71.184C368.547 70.512 368.803 69.76 368.803 68.928C368.803 67.904 368.435 67.088 367.699 66.48C366.963 65.84 366.003 65.344 364.819 64.992C363.667 64.608 362.371 64.256 360.931 63.936C359.523 63.616 358.099 63.248 356.659 62.832C355.251 62.384 353.955 61.824 352.771 61.152C351.619 60.448 350.675 59.52 349.939 58.368C349.203 57.216 348.835 55.744 348.835 53.952C348.835 52.128 349.315 50.464 350.275 48.96C351.267 47.424 352.755 46.208 354.739 45.312C356.755 44.384 359.299 43.92 362.371 43.92C364.387 43.92 366.387 44.176 368.371 44.688C370.355 45.2 372.083 45.936 373.555 46.896L371.587 51.744C370.083 50.848 368.531 50.192 366.931 49.776C365.331 49.328 363.795 49.104 362.323 49.104C360.595 49.104 359.187 49.312 358.099 49.728C357.043 50.144 356.259 50.688 355.747 51.36C355.267 52.032 355.027 52.8 355.027 53.664C355.027 54.688 355.379 55.52 356.083 56.16C356.819 56.768 357.763 57.248 358.915 57.6C360.099 57.952 361.411 58.304 362.851 58.656C364.291 58.976 365.715 59.344 367.123 59.76C368.563 60.176 369.859 60.72 371.011 61.392C372.195 62.064 373.139 62.976 373.843 64.128C374.579 65.28 374.947 66.736 374.947 68.496C374.947 70.288 374.451 71.952 373.459 73.488C372.499 74.992 371.011 76.208 368.995 77.136C366.979 78.032 364.435 78.48 361.363 78.48ZM384.735 58.368H401.439V63.504H384.735V58.368ZM385.215 72.768H404.175V78H378.975V44.4H403.503V49.632H385.215V72.768ZM408.971 78V44.4H422.795C425.771 44.4 428.315 44.88 430.427 45.84C432.571 46.8 434.219 48.176 435.371 49.968C436.523 51.76 437.099 53.888 437.099 56.352C437.099 58.816 436.523 60.944 435.371 62.736C434.219 64.496 432.571 65.856 430.427 66.816C428.315 67.744 425.771 68.208 422.795 68.208H412.427L415.211 65.376V78H408.971ZM430.955 78L422.459 65.808H429.131L437.675 78H430.955ZM415.211 66.048L412.427 63.072H422.507C425.259 63.072 427.323 62.48 428.699 61.296C430.107 60.112 430.811 58.464 430.811 56.352C430.811 54.208 430.107 52.56 428.699 51.408C427.323 50.256 425.259 49.68 422.507 49.68H412.427L415.211 46.608V66.048ZM451.856 78L437.168 44.4H443.936L457.04 74.784H453.152L466.4 44.4H472.64L458 78H451.856ZM474.026 78V44.4H480.266V78H474.026ZM502.746 78.48C500.186 78.48 497.802 78.064 495.594 77.232C493.418 76.368 491.514 75.168 489.882 73.632C488.282 72.064 487.034 70.224 486.138 68.112C485.242 66 484.794 63.696 484.794 61.2C484.794 58.704 485.242 56.4 486.138 54.288C487.034 52.176 488.298 50.352 489.93 48.816C491.562 47.248 493.466 46.048 495.642 45.216C497.818 44.352 500.202 43.92 502.794 43.92C505.546 43.92 508.058 44.4 510.33 45.36C512.602 46.288 514.522 47.68 516.09 49.536L512.058 53.328C510.842 52.016 509.482 51.04 507.978 50.4C506.474 49.728 504.842 49.392 503.082 49.392C501.322 49.392 499.706 49.68 498.234 50.256C496.794 50.832 495.53 51.648 494.442 52.704C493.386 53.76 492.554 55.008 491.946 56.448C491.37 57.888 491.082 59.472 491.082 61.2C491.082 62.928 491.37 64.512 491.946 65.952C492.554 67.392 493.386 68.64 494.442 69.696C495.53 70.752 496.794 71.568 498.234 72.144C499.706 72.72 501.322 73.008 503.082 73.008C504.842 73.008 506.474 72.688 507.978 72.048C509.482 71.376 510.842 70.368 512.058 69.024L516.09 72.864C514.522 74.688 512.602 76.08 510.33 77.04C508.058 78 505.53 78.48 502.746 78.48ZM525.669 58.368H542.373V63.504H525.669V58.368ZM526.149 72.768H545.109V78H519.909V44.4H544.437V49.632H526.149V72.768ZM560.321 78.48C557.697 78.48 555.185 78.112 552.785 77.376C550.385 76.608 548.481 75.632 547.073 74.448L549.233 69.6C550.577 70.656 552.241 71.536 554.225 72.24C556.209 72.944 558.241 73.296 560.321 73.296C562.081 73.296 563.505 73.104 564.593 72.72C565.681 72.336 566.481 71.824 566.993 71.184C567.505 70.512 567.761 69.76 567.761 68.928C567.761 67.904 567.393 67.088 566.657 66.48C565.921 65.84 564.961 65.344 563.777 64.992C562.625 64.608 561.329 64.256 559.889 63.936C558.481 63.616 557.057 63.248 555.617 62.832C554.209 62.384 552.913 61.824 551.729 61.152C550.577 60.448 549.633 59.52 548.897 58.368C548.161 57.216 547.793 55.744 547.793 53.952C547.793 52.128 548.273 50.464 549.233 48.96C550.225 47.424 551.713 46.208 553.697 45.312C555.713 44.384 558.257 43.92 561.329 43.92C563.345 43.92 565.345 44.176 567.329 44.688C569.313 45.2 571.041 45.936 572.513 46.896L570.545 51.744C569.041 50.848 567.489 50.192 565.889 49.776C564.289 49.328 562.753 49.104 561.281 49.104C559.553 49.104 558.145 49.312 557.057 49.728C556.001 50.144 555.217 50.688 554.705 51.36C554.225 52.032 553.985 52.8 553.985 53.664C553.985 54.688 554.337 55.52 555.041 56.16C555.777 56.768 556.721 57.248 557.873 57.6C559.057 57.952 560.369 58.304 561.809 58.656C563.249 58.976 564.673 59.344 566.081 59.76C567.521 60.176 568.817 60.72 569.969 61.392C571.153 62.064 572.097 62.976 572.801 64.128C573.537 65.28 573.905 66.736 573.905 68.496C573.905 70.288 573.409 71.952 572.417 73.488C571.457 74.992 569.969 76.208 567.953 77.136C565.937 78.032 563.393 78.48 560.321 78.48Z" fill="#2F2F2F"/>
</g>
<defs>
<filter id="filter0_d_1423_184" x="0" y="120" width="396" height="396" filterUnits="userSpaceOnUse" color-interpolation-filters="sRGB">
<feFlood flood-opacity="0" result="BackgroundImageFix"/>
<feColorMatrix in="SourceAlpha" type="matrix" values="0 0 0 0 0 0 0 0 0 0 0 0 0 0 0 0 0 0 127 0" result="hardAlpha"/>
<feMorphology radius="11" operator="erode" in="SourceAlpha" result="effect1_dropShadow_1423_184"/>
<feOffset dx="-4" dy="17"/>
<feGaussianBlur stdDeviation="40"/>
<feComposite in2="hardAlpha" operator="out"/>
<feColorMatrix type="matrix" values="0 0 0 0 0 0 0 0 0 0 0 0 0 0 0 0 0 0 0.25 0"/>
<feBlend mode="normal" in2="BackgroundImageFix" result="effect1_dropShadow_1423_184"/>
<feBlend mode="normal" in="SourceGraphic" in2="effect1_dropShadow_1423_184" result="shape"/>
</filter>
<filter id="filter1_d_1423_184" x="89.9399" y="484.472" width="225.463" height="31.3521" filterUnits="userSpaceOnUse" color-interpolation-filters="sRGB">
<feFlood flood-opacity="0" result="BackgroundImageFix"/>
<feColorMatrix in="SourceAlpha" type="matrix" values="0 0 0 0 0 0 0 0 0 0 0 0 0 0 0 0 0 0 127 0" result="hardAlpha"/>
<feOffset dy="4"/>
<feGaussianBlur stdDeviation="2"/>
<feComposite in2="hardAlpha" operator="out"/>
<feColorMatrix type="matrix" values="0 0 0 0 0 0 0 0 0 0 0 0 0 0 0 0 0 0 0.25 0"/>
<feBlend mode="normal" in2="BackgroundImageFix" result="effect1_dropShadow_1423_184"/>
<feBlend mode="normal" in="SourceGraphic" in2="effect1_dropShadow_1423_184" result="shape"/>
</filter>
<filter id="filter2_d_1423_184" x="400.5" y="120" width="396" height="396" filterUnits="userSpaceOnUse" color-interpolation-filters="sRGB">
<feFlood flood-opacity="0" result="BackgroundImageFix"/>
<feColorMatrix in="SourceAlpha" type="matrix" values="0 0 0 0 0 0 0 0 0 0 0 0 0 0 0 0 0 0 127 0" result="hardAlpha"/>
<feMorphology radius="11" operator="erode" in="SourceAlpha" result="effect1_dropShadow_1423_184"/>
<feOffset dx="-4" dy="17"/>
<feGaussianBlur stdDeviation="40"/>
<feComposite in2="hardAlpha" operator="out"/>
<feColorMatrix type="matrix" values="0 0 0 0 0 0 0 0 0 0 0 0 0 0 0 0 0 0 0.25 0"/>
<feBlend mode="normal" in2="BackgroundImageFix" result="effect1_dropShadow_1423_184"/>
<feBlend mode="normal" in="SourceGraphic" in2="effect1_dropShadow_1423_184" result="shape"/>
</filter>
<filter id="filter3_d_1423_184" x="439.752" y="484.472" width="327.845" height="31.3521" filterUnits="userSpaceOnUse" color-interpolation-filters="sRGB">
<feFlood flood-opacity="0" result="BackgroundImageFix"/>
<feColorMatrix in="SourceAlpha" type="matrix" values="0 0 0 0 0 0 0 0 0 0 0 0 0 0 0 0 0 0 127 0" result="hardAlpha"/>
<feOffset dy="4"/>
<feGaussianBlur stdDeviation="2"/>
<feComposite in2="hardAlpha" operator="out"/>
<feColorMatrix type="matrix" values="0 0 0 0 0 0 0 0 0 0 0 0 0 0 0 0 0 0 0.25 0"/>
<feBlend mode="normal" in2="BackgroundImageFix" result="effect1_dropShadow_1423_184"/>
<feBlend mode="normal" in="SourceGraphic" in2="effect1_dropShadow_1423_184" result="shape"/>
</filter>
<filter id="filter4_d_1423_184" x="0.5" y="560" width="396" height="396" filterUnits="userSpaceOnUse" color-interpolation-filters="sRGB">
<feFlood flood-opacity="0" result="BackgroundImageFix"/>
<feColorMatrix in="SourceAlpha" type="matrix" values="0 0 0 0 0 0 0 0 0 0 0 0 0 0 0 0 0 0 127 0" result="hardAlpha"/>
<feMorphology radius="11" operator="erode" in="SourceAlpha" result="effect1_dropShadow_1423_184"/>
<feOffset dx="-4" dy="17"/>
<feGaussianBlur stdDeviation="40"/>
<feComposite in2="hardAlpha" operator="out"/>
<feColorMatrix type="matrix" values="0 0 0 0 0 0 0 0 0 0 0 0 0 0 0 0 0 0 0.25 0"/>
<feBlend mode="normal" in2="BackgroundImageFix" result="effect1_dropShadow_1423_184"/>
<feBlend mode="normal" in="SourceGraphic" in2="effect1_dropShadow_1423_184" result="shape"/>
</filter>
<filter id="filter5_d_1423_184" x="68.4916" y="924.472" width="269.359" height="26.6958" filterUnits="userSpaceOnUse" color-interpolation-filters="sRGB">
<feFlood flood-opacity="0" result="BackgroundImageFix"/>
<feColorMatrix in="SourceAlpha" type="matrix" values="0 0 0 0 0 0 0 0 0 0 0 0 0 0 0 0 0 0 127 0" result="hardAlpha"/>
<feOffset dy="4"/>
<feGaussianBlur stdDeviation="2"/>
<feComposite in2="hardAlpha" operator="out"/>
<feColorMatrix type="matrix" values="0 0 0 0 0 0 0 0 0 0 0 0 0 0 0 0 0 0 0.25 0"/>
<feBlend mode="normal" in2="BackgroundImageFix" result="effect1_dropShadow_1423_184"/>
<feBlend mode="normal" in="SourceGraphic" in2="effect1_dropShadow_1423_184" result="shape"/>
</filter>
<filter id="filter6_d_1423_184" x="400" y="560" width="396" height="396" filterUnits="userSpaceOnUse" color-interpolation-filters="sRGB">
<feFlood flood-opacity="0" result="BackgroundImageFix"/>
<feColorMatrix in="SourceAlpha" type="matrix" values="0 0 0 0 0 0 0 0 0 0 0 0 0 0 0 0 0 0 127 0" result="hardAlpha"/>
<feMorphology radius="11" operator="erode" in="SourceAlpha" result="effect1_dropShadow_1423_184"/>
<feOffset dx="-4" dy="17"/>
<feGaussianBlur stdDeviation="40"/>
<feComposite in2="hardAlpha" operator="out"/>
<feColorMatrix type="matrix" values="0 0 0 0 0 0 0 0 0 0 0 0 0 0 0 0 0 0 0.25 0"/>
<feBlend mode="normal" in2="BackgroundImageFix" result="effect1_dropShadow_1423_184"/>
<feBlend mode="normal" in="SourceGraphic" in2="effect1_dropShadow_1423_184" result="shape"/>
</filter>
<filter id="filter7_d_1423_184" x="452.306" y="924.472" width="300.731" height="31.3521" filterUnits="userSpaceOnUse" color-interpolation-filters="sRGB">
<feFlood flood-opacity="0" result="BackgroundImageFix"/>
<feColorMatrix in="SourceAlpha" type="matrix" values="0 0 0 0 0 0 0 0 0 0 0 0 0 0 0 0 0 0 127 0" result="hardAlpha"/>
<feOffset dy="4"/>
<feGaussianBlur stdDeviation="2"/>
<feComposite in2="hardAlpha" operator="out"/>
<feColorMatrix type="matrix" values="0 0 0 0 0 0 0 0 0 0 0 0 0 0 0 0 0 0 0.25 0"/>
<feBlend mode="normal" in2="BackgroundImageFix" result="effect1_dropShadow_1423_184"/>
<feBlend mode="normal" in="SourceGraphic" in2="effect1_dropShadow_1423_184" result="shape"/>
</filter>
<filter id="filter8_d_1423_184" x="226.531" y="43.9199" width="351.374" height="42.5601" filterUnits="userSpaceOnUse" color-interpolation-filters="sRGB">
<feFlood flood-opacity="0" result="BackgroundImageFix"/>
<feColorMatrix in="SourceAlpha" type="matrix" values="0 0 0 0 0 0 0 0 0 0 0 0 0 0 0 0 0 0 127 0" result="hardAlpha"/>
<feOffset dy="4"/>
<feGaussianBlur stdDeviation="2"/>
<feComposite in2="hardAlpha" operator="out"/>
<feColorMatrix type="matrix" values="0 0 0 0 0 0 0 0 0 0 0 0 0 0 0 0 0 0 0.25 0"/>
<feBlend mode="normal" in2="BackgroundImageFix" result="effect1_dropShadow_1423_184"/>
<feBlend mode="normal" in="SourceGraphic" in2="effect1_dropShadow_1423_184" result="shape"/>
</filter>
</defs>
</svg>
