<svg width="1695" height="520" viewBox="0 0 1695 520" fill="none" xmlns="http://www.w3.org/2000/svg">
<g filter="url(#filter0_d_1423_136)">
<rect x="76.5" y="152" width="258" height="258" rx="29" fill="#D7D7D7"/>
</g>
<g filter="url(#filter1_d_1423_136)">
<path d="M75.4916 483V466.2H78.0596L88.5956 479.136H87.3236V466.2H90.4196V483H87.8516L77.3156 470.064H78.5876V483H75.4916ZM99.3133 483.168C98.0013 483.168 96.8333 482.888 95.8093 482.328C94.7853 481.752 93.9773 480.968 93.3853 479.976C92.7933 478.984 92.4973 477.856 92.4973 476.592C92.4973 475.312 92.7933 474.184 93.3853 473.208C93.9773 472.216 94.7853 471.44 95.8093 470.88C96.8333 470.32 98.0013 470.04 99.3133 470.04C100.641 470.04 101.817 470.32 102.841 470.88C103.881 471.44 104.689 472.208 105.265 473.184C105.857 474.16 106.153 475.296 106.153 476.592C106.153 477.856 105.857 478.984 105.265 479.976C104.689 480.968 103.881 481.752 102.841 482.328C101.817 482.888 100.641 483.168 99.3133 483.168ZM99.3133 480.6C100.049 480.6 100.705 480.44 101.281 480.12C101.857 479.8 102.305 479.336 102.625 478.728C102.961 478.12 103.129 477.408 103.129 476.592C103.129 475.76 102.961 475.048 102.625 474.456C102.305 473.848 101.857 473.384 101.281 473.064C100.705 472.744 100.057 472.584 99.3373 472.584C98.6013 472.584 97.9453 472.744 97.3693 473.064C96.8093 473.384 96.3613 473.848 96.0253 474.456C95.6893 475.048 95.5213 475.76 95.5213 476.592C95.5213 477.408 95.6893 478.12 96.0253 478.728C96.3613 479.336 96.8093 479.8 97.3693 480.12C97.9453 480.44 98.5933 480.6 99.3133 480.6ZM113.783 483V466.2H116.351L123.695 478.464H122.351L129.575 466.2H132.143L132.167 483H129.215L129.191 470.832H129.815L123.671 481.08H122.279L116.039 470.832H116.759V483H113.783ZM135.337 483V470.184H138.337V483H135.337ZM136.849 468.072C136.289 468.072 135.825 467.896 135.457 467.544C135.105 467.192 134.929 466.768 134.929 466.272C134.929 465.76 135.105 465.336 135.457 465C135.825 464.648 136.289 464.472 136.849 464.472C137.409 464.472 137.865 464.64 138.217 464.976C138.585 465.296 138.769 465.704 138.769 466.2C138.769 466.728 138.593 467.176 138.241 467.544C137.889 467.896 137.425 468.072 136.849 468.072ZM148.466 470.04C149.49 470.04 150.402 470.24 151.202 470.64C152.018 471.04 152.658 471.656 153.122 472.488C153.586 473.304 153.818 474.36 153.818 475.656V483H150.818V476.04C150.818 474.904 150.546 474.056 150.002 473.496C149.474 472.936 148.73 472.656 147.77 472.656C147.066 472.656 146.442 472.8 145.898 473.088C145.354 473.376 144.93 473.808 144.626 474.384C144.338 474.944 144.194 475.656 144.194 476.52V483H141.194V470.184H144.05V473.64L143.546 472.584C143.994 471.768 144.642 471.144 145.49 470.712C146.354 470.264 147.346 470.04 148.466 470.04ZM156.544 483V470.184H159.544V483H156.544ZM158.056 468.072C157.496 468.072 157.032 467.896 156.664 467.544C156.312 467.192 156.136 466.768 156.136 466.272C156.136 465.76 156.312 465.336 156.664 465C157.032 464.648 157.496 464.472 158.056 464.472C158.616 464.472 159.072 464.64 159.424 464.976C159.792 465.296 159.976 465.704 159.976 466.2C159.976 466.728 159.8 467.176 159.448 467.544C159.096 467.896 158.632 468.072 158.056 468.072ZM178.577 470.04C179.601 470.04 180.505 470.24 181.289 470.64C182.089 471.04 182.713 471.656 183.161 472.488C183.609 473.304 183.833 474.36 183.833 475.656V483H180.833V476.04C180.833 474.904 180.585 474.056 180.089 473.496C179.593 472.936 178.881 472.656 177.953 472.656C177.297 472.656 176.713 472.8 176.201 473.088C175.705 473.376 175.313 473.8 175.025 474.36C174.753 474.92 174.617 475.632 174.617 476.496V483H171.617V476.04C171.617 474.904 171.369 474.056 170.873 473.496C170.377 472.936 169.665 472.656 168.737 472.656C168.081 472.656 167.497 472.8 166.985 473.088C166.489 473.376 166.097 473.8 165.809 474.36C165.537 474.92 165.401 475.632 165.401 476.496V483H162.401V470.184H165.257V473.592L164.753 472.584C165.185 471.752 165.809 471.12 166.625 470.688C167.457 470.256 168.401 470.04 169.457 470.04C170.657 470.04 171.697 470.336 172.577 470.928C173.473 471.52 174.065 472.416 174.353 473.616L173.177 473.208C173.593 472.248 174.281 471.48 175.241 470.904C176.201 470.328 177.313 470.04 178.577 470.04ZM192.011 483.168C190.923 483.168 189.963 482.968 189.131 482.568C188.299 482.152 187.651 481.528 187.187 480.696C186.723 479.848 186.491 478.784 186.491 477.504V470.184H189.491V477.096C189.491 478.248 189.747 479.112 190.259 479.688C190.787 480.248 191.531 480.528 192.491 480.528C193.195 480.528 193.803 480.384 194.315 480.096C194.843 479.808 195.251 479.376 195.539 478.8C195.843 478.224 195.995 477.512 195.995 476.664V470.184H198.995V483H196.139V479.544L196.643 480.6C196.211 481.432 195.579 482.072 194.747 482.52C193.915 482.952 193.003 483.168 192.011 483.168ZM218.019 470.04C219.043 470.04 219.947 470.24 220.731 470.64C221.531 471.04 222.155 471.656 222.603 472.488C223.051 473.304 223.275 474.36 223.275 475.656V483H220.275V476.04C220.275 474.904 220.027 474.056 219.531 473.496C219.035 472.936 218.323 472.656 217.395 472.656C216.739 472.656 216.155 472.8 215.643 473.088C215.147 473.376 214.755 473.8 214.467 474.36C214.195 474.92 214.059 475.632 214.059 476.496V483H211.059V476.04C211.059 474.904 210.811 474.056 210.315 473.496C209.819 472.936 209.107 472.656 208.179 472.656C207.523 472.656 206.939 472.8 206.427 473.088C205.931 473.376 205.539 473.8 205.251 474.36C204.979 474.92 204.843 475.632 204.843 476.496V483H201.843V470.184H204.699V473.592L204.195 472.584C204.627 471.752 205.251 471.12 206.067 470.688C206.899 470.256 207.843 470.04 208.899 470.04C210.099 470.04 211.139 470.336 212.019 470.928C212.915 471.52 213.507 472.416 213.795 473.616L212.619 473.208C213.035 472.248 213.723 471.48 214.683 470.904C215.643 470.328 216.755 470.04 218.019 470.04ZM231.869 483V466.2H238.781C240.269 466.2 241.541 466.44 242.597 466.92C243.669 467.4 244.493 468.088 245.069 468.984C245.645 469.88 245.933 470.944 245.933 472.176C245.933 473.408 245.645 474.472 245.069 475.368C244.493 476.264 243.669 476.952 242.597 477.432C241.541 477.912 240.269 478.152 238.781 478.152H233.597L234.989 476.688V483H231.869ZM234.989 477.024L233.597 475.512H238.637C240.013 475.512 241.045 475.224 241.733 474.648C242.437 474.056 242.789 473.232 242.789 472.176C242.789 471.104 242.437 470.28 241.733 469.704C241.045 469.128 240.013 468.84 238.637 468.84H233.597L234.989 467.304V477.024ZM253.339 483.168C252.251 483.168 251.291 482.968 250.459 482.568C249.627 482.152 248.979 481.528 248.515 480.696C248.051 479.848 247.819 478.784 247.819 477.504V470.184H250.819V477.096C250.819 478.248 251.075 479.112 251.587 479.688C252.115 480.248 252.859 480.528 253.819 480.528C254.523 480.528 255.131 480.384 255.643 480.096C256.171 479.808 256.579 479.376 256.867 478.8C257.171 478.224 257.323 477.512 257.323 476.664V470.184H260.323V483H257.467V479.544L257.971 480.6C257.539 481.432 256.907 482.072 256.075 482.52C255.243 482.952 254.331 483.168 253.339 483.168ZM263.171 483V470.184H266.027V473.712L265.691 472.68C266.075 471.816 266.675 471.16 267.491 470.712C268.323 470.264 269.355 470.04 270.587 470.04V472.896C270.459 472.864 270.339 472.848 270.227 472.848C270.115 472.832 270.003 472.824 269.891 472.824C268.755 472.824 267.851 473.16 267.179 473.832C266.507 474.488 266.171 475.472 266.171 476.784V483H263.171ZM277.815 483.168C276.471 483.168 275.271 482.888 274.215 482.328C273.175 481.752 272.359 480.968 271.767 479.976C271.175 478.984 270.879 477.856 270.879 476.592C270.879 475.312 271.175 474.184 271.767 473.208C272.359 472.216 273.175 471.44 274.215 470.88C275.271 470.32 276.471 470.04 277.815 470.04C279.063 470.04 280.159 470.296 281.103 470.808C282.063 471.304 282.791 472.04 283.287 473.016L280.983 474.36C280.599 473.752 280.127 473.304 279.567 473.016C279.023 472.728 278.431 472.584 277.791 472.584C277.055 472.584 276.391 472.744 275.799 473.064C275.207 473.384 274.743 473.848 274.407 474.456C274.071 475.048 273.903 475.76 273.903 476.592C273.903 477.424 274.071 478.144 274.407 478.752C274.743 479.344 275.207 479.8 275.799 480.12C276.391 480.44 277.055 480.6 277.791 480.6C278.431 480.6 279.023 480.456 279.567 480.168C280.127 479.88 280.599 479.432 280.983 478.824L283.287 480.168C282.791 481.128 282.063 481.872 281.103 482.4C280.159 482.912 279.063 483.168 277.815 483.168ZM291.955 470.04C292.979 470.04 293.891 470.24 294.691 470.64C295.507 471.04 296.147 471.656 296.611 472.488C297.075 473.304 297.307 474.36 297.307 475.656V483H294.307V476.04C294.307 474.904 294.035 474.056 293.491 473.496C292.963 472.936 292.219 472.656 291.259 472.656C290.555 472.656 289.931 472.8 289.387 473.088C288.843 473.376 288.419 473.808 288.115 474.384C287.827 474.944 287.683 475.656 287.683 476.52V483H284.683V465.192H287.683V473.64L287.035 472.584C287.483 471.768 288.131 471.144 288.979 470.712C289.843 470.264 290.835 470.04 291.955 470.04ZM307.929 483V480.408L307.761 479.856V475.32C307.761 474.44 307.497 473.76 306.969 473.28C306.441 472.784 305.641 472.536 304.569 472.536C303.849 472.536 303.137 472.648 302.433 472.872C301.745 473.096 301.161 473.408 300.681 473.808L299.505 471.624C300.193 471.096 301.009 470.704 301.953 470.448C302.913 470.176 303.905 470.04 304.929 470.04C306.785 470.04 308.217 470.488 309.225 471.384C310.249 472.264 310.761 473.632 310.761 475.488V483H307.929ZM303.897 483.168C302.937 483.168 302.097 483.008 301.377 482.688C300.657 482.352 300.097 481.896 299.697 481.32C299.313 480.728 299.121 480.064 299.121 479.328C299.121 478.608 299.289 477.96 299.625 477.384C299.977 476.808 300.545 476.352 301.329 476.016C302.113 475.68 303.153 475.512 304.449 475.512H308.169V477.504H304.665C303.641 477.504 302.953 477.672 302.601 478.008C302.249 478.328 302.073 478.728 302.073 479.208C302.073 479.752 302.289 480.184 302.721 480.504C303.153 480.824 303.753 480.984 304.521 480.984C305.257 480.984 305.913 480.816 306.489 480.48C307.081 480.144 307.505 479.648 307.761 478.992L308.265 480.792C307.977 481.544 307.457 482.128 306.705 482.544C305.969 482.96 305.033 483.168 303.897 483.168ZM317.491 483.168C316.419 483.168 315.387 483.032 314.395 482.76C313.419 482.472 312.643 482.128 312.067 481.728L313.219 479.448C313.795 479.816 314.483 480.12 315.283 480.36C316.083 480.6 316.883 480.72 317.683 480.72C318.627 480.72 319.307 480.592 319.723 480.336C320.155 480.08 320.371 479.736 320.371 479.304C320.371 478.952 320.227 478.688 319.939 478.512C319.651 478.32 319.275 478.176 318.811 478.08C318.347 477.984 317.827 477.896 317.251 477.816C316.691 477.736 316.123 477.632 315.547 477.504C314.987 477.36 314.475 477.16 314.011 476.904C313.547 476.632 313.171 476.272 312.883 475.824C312.595 475.376 312.451 474.784 312.451 474.048C312.451 473.232 312.683 472.528 313.147 471.936C313.611 471.328 314.259 470.864 315.091 470.544C315.939 470.208 316.939 470.04 318.091 470.04C318.955 470.04 319.827 470.136 320.707 470.328C321.587 470.52 322.315 470.792 322.891 471.144L321.739 473.424C321.131 473.056 320.515 472.808 319.891 472.68C319.283 472.536 318.675 472.464 318.067 472.464C317.155 472.464 316.475 472.6 316.027 472.872C315.595 473.144 315.379 473.488 315.379 473.904C315.379 474.288 315.523 474.576 315.811 474.768C316.099 474.96 316.475 475.112 316.939 475.224C317.403 475.336 317.915 475.432 318.475 475.512C319.051 475.576 319.619 475.68 320.179 475.824C320.739 475.968 321.251 476.168 321.715 476.424C322.195 476.664 322.579 477.008 322.867 477.456C323.155 477.904 323.299 478.488 323.299 479.208C323.299 480.008 323.059 480.704 322.579 481.296C322.115 481.888 321.451 482.352 320.587 482.688C319.723 483.008 318.691 483.168 317.491 483.168ZM330.827 483.168C329.403 483.168 328.155 482.888 327.083 482.328C326.027 481.752 325.203 480.968 324.611 479.976C324.035 478.984 323.747 477.856 323.747 476.592C323.747 475.312 324.027 474.184 324.587 473.208C325.163 472.216 325.947 471.44 326.939 470.88C327.947 470.32 329.091 470.04 330.371 470.04C331.619 470.04 332.731 470.312 333.707 470.856C334.683 471.4 335.451 472.168 336.011 473.16C336.571 474.152 336.851 475.32 336.851 476.664C336.851 476.792 336.843 476.936 336.827 477.096C336.827 477.256 336.819 477.408 336.803 477.552H326.123V475.56H335.219L334.043 476.184C334.059 475.448 333.907 474.8 333.587 474.24C333.267 473.68 332.827 473.24 332.267 472.92C331.723 472.6 331.091 472.44 330.371 472.44C329.635 472.44 328.987 472.6 328.427 472.92C327.883 473.24 327.451 473.688 327.131 474.264C326.827 474.824 326.675 475.488 326.675 476.256V476.736C326.675 477.504 326.851 478.184 327.203 478.776C327.555 479.368 328.051 479.824 328.691 480.144C329.331 480.464 330.067 480.624 330.899 480.624C331.619 480.624 332.267 480.512 332.843 480.288C333.419 480.064 333.931 479.712 334.379 479.232L335.987 481.08C335.411 481.752 334.683 482.272 333.803 482.64C332.939 482.992 331.947 483.168 330.827 483.168Z" fill="#4D4D4D"/>
</g>
<g filter="url(#filter2_d_1423_136)">
<rect x="506" y="152" width="258" height="258" rx="29" fill="#D7D7D7"/>
</g>
<g filter="url(#filter3_d_1423_136)">
<path d="M492.162 473.928H500.538V476.568H492.162V473.928ZM492.426 483H489.306V466.2H501.57V468.816H492.426V483ZM510.693 483V480.408L510.525 479.856V475.32C510.525 474.44 510.261 473.76 509.733 473.28C509.205 472.784 508.405 472.536 507.333 472.536C506.613 472.536 505.901 472.648 505.197 472.872C504.509 473.096 503.925 473.408 503.445 473.808L502.269 471.624C502.957 471.096 503.773 470.704 504.717 470.448C505.677 470.176 506.669 470.04 507.693 470.04C509.549 470.04 510.981 470.488 511.989 471.384C513.013 472.264 513.525 473.632 513.525 475.488V483H510.693ZM506.661 483.168C505.701 483.168 504.861 483.008 504.141 482.688C503.421 482.352 502.861 481.896 502.461 481.32C502.077 480.728 501.885 480.064 501.885 479.328C501.885 478.608 502.053 477.96 502.389 477.384C502.741 476.808 503.309 476.352 504.093 476.016C504.877 475.68 505.917 475.512 507.213 475.512H510.933V477.504H507.429C506.405 477.504 505.717 477.672 505.365 478.008C505.013 478.328 504.837 478.728 504.837 479.208C504.837 479.752 505.053 480.184 505.485 480.504C505.917 480.824 506.517 480.984 507.285 480.984C508.021 480.984 508.677 480.816 509.253 480.48C509.845 480.144 510.269 479.648 510.525 478.992L511.029 480.792C510.741 481.544 510.221 482.128 509.469 482.544C508.733 482.96 507.797 483.168 506.661 483.168ZM520.255 483.168C519.183 483.168 518.151 483.032 517.159 482.76C516.183 482.472 515.407 482.128 514.831 481.728L515.983 479.448C516.559 479.816 517.247 480.12 518.047 480.36C518.847 480.6 519.647 480.72 520.447 480.72C521.391 480.72 522.071 480.592 522.487 480.336C522.919 480.08 523.135 479.736 523.135 479.304C523.135 478.952 522.991 478.688 522.703 478.512C522.415 478.32 522.039 478.176 521.575 478.08C521.111 477.984 520.591 477.896 520.015 477.816C519.455 477.736 518.887 477.632 518.311 477.504C517.751 477.36 517.239 477.16 516.775 476.904C516.311 476.632 515.935 476.272 515.647 475.824C515.359 475.376 515.215 474.784 515.215 474.048C515.215 473.232 515.447 472.528 515.911 471.936C516.375 471.328 517.023 470.864 517.855 470.544C518.703 470.208 519.703 470.04 520.855 470.04C521.719 470.04 522.591 470.136 523.471 470.328C524.351 470.52 525.079 470.792 525.655 471.144L524.503 473.424C523.895 473.056 523.279 472.808 522.655 472.68C522.047 472.536 521.439 472.464 520.831 472.464C519.919 472.464 519.239 472.6 518.791 472.872C518.359 473.144 518.143 473.488 518.143 473.904C518.143 474.288 518.287 474.576 518.575 474.768C518.863 474.96 519.239 475.112 519.703 475.224C520.167 475.336 520.679 475.432 521.239 475.512C521.815 475.576 522.383 475.68 522.943 475.824C523.503 475.968 524.015 476.168 524.479 476.424C524.959 476.664 525.343 477.008 525.631 477.456C525.919 477.904 526.063 478.488 526.063 479.208C526.063 480.008 525.823 480.704 525.343 481.296C524.879 481.888 524.215 482.352 523.351 482.688C522.487 483.008 521.455 483.168 520.255 483.168ZM532.391 483.168C530.983 483.168 529.895 482.808 529.127 482.088C528.359 481.352 527.975 480.272 527.975 478.848V467.352H530.975V478.776C530.975 479.384 531.127 479.856 531.431 480.192C531.751 480.528 532.191 480.696 532.751 480.696C533.423 480.696 533.983 480.52 534.431 480.168L535.271 482.304C534.919 482.592 534.487 482.808 533.975 482.952C533.463 483.096 532.935 483.168 532.391 483.168ZM525.863 472.68V470.28H534.407V472.68H525.863ZM542.5 483V466.2H549.844C551.668 466.2 553.268 466.552 554.644 467.256C556.02 467.96 557.092 468.936 557.86 470.184C558.628 471.432 559.012 472.904 559.012 474.6C559.012 476.28 558.628 477.752 557.86 479.016C557.092 480.264 556.02 481.24 554.644 481.944C553.268 482.648 551.668 483 549.844 483H542.5ZM545.62 480.36H549.7C550.964 480.36 552.052 480.12 552.964 479.64C553.892 479.16 554.604 478.488 555.1 477.624C555.612 476.76 555.868 475.752 555.868 474.6C555.868 473.432 555.612 472.424 555.1 471.576C554.604 470.712 553.892 470.04 552.964 469.56C552.052 469.08 550.964 468.84 549.7 468.84H545.62V480.36ZM566.984 483.168C565.56 483.168 564.312 482.888 563.24 482.328C562.184 481.752 561.36 480.968 560.768 479.976C560.192 478.984 559.904 477.856 559.904 476.592C559.904 475.312 560.184 474.184 560.744 473.208C561.32 472.216 562.104 471.44 563.096 470.88C564.104 470.32 565.248 470.04 566.528 470.04C567.776 470.04 568.888 470.312 569.864 470.856C570.84 471.4 571.608 472.168 572.168 473.16C572.728 474.152 573.008 475.32 573.008 476.664C573.008 476.792 573 476.936 572.984 477.096C572.984 477.256 572.976 477.408 572.96 477.552H562.28V475.56H571.376L570.2 476.184C570.216 475.448 570.064 474.8 569.744 474.24C569.424 473.68 568.984 473.24 568.424 472.92C567.88 472.6 567.248 472.44 566.528 472.44C565.792 472.44 565.144 472.6 564.584 472.92C564.04 473.24 563.608 473.688 563.288 474.264C562.984 474.824 562.832 475.488 562.832 476.256V476.736C562.832 477.504 563.008 478.184 563.36 478.776C563.712 479.368 564.208 479.824 564.848 480.144C565.488 480.464 566.224 480.624 567.056 480.624C567.776 480.624 568.424 480.512 569 480.288C569.576 480.064 570.088 479.712 570.536 479.232L572.144 481.08C571.568 481.752 570.84 482.272 569.96 482.64C569.096 482.992 568.104 483.168 566.984 483.168ZM574.809 483V465.192H577.809V483H574.809ZM580.667 483V470.184H583.667V483H580.667ZM582.179 468.072C581.619 468.072 581.155 467.896 580.787 467.544C580.435 467.192 580.259 466.768 580.259 466.272C580.259 465.76 580.435 465.336 580.787 465C581.155 464.648 581.619 464.472 582.179 464.472C582.739 464.472 583.195 464.64 583.547 464.976C583.915 465.296 584.099 465.704 584.099 466.2C584.099 466.728 583.923 467.176 583.571 467.544C583.219 467.896 582.755 468.072 582.179 468.072ZM589.932 483L584.436 470.184H587.556L592.284 481.488H590.748L595.644 470.184H598.524L593.028 483H589.932ZM604.992 483.168C603.568 483.168 602.32 482.888 601.248 482.328C600.192 481.752 599.368 480.968 598.776 479.976C598.2 478.984 597.912 477.856 597.912 476.592C597.912 475.312 598.192 474.184 598.752 473.208C599.328 472.216 600.112 471.44 601.104 470.88C602.112 470.32 603.256 470.04 604.536 470.04C605.784 470.04 606.896 470.312 607.872 470.856C608.848 471.4 609.616 472.168 610.176 473.16C610.736 474.152 611.016 475.32 611.016 476.664C611.016 476.792 611.008 476.936 610.992 477.096C610.992 477.256 610.984 477.408 610.968 477.552H600.288V475.56H609.384L608.208 476.184C608.224 475.448 608.072 474.8 607.752 474.24C607.432 473.68 606.992 473.24 606.432 472.92C605.888 472.6 605.256 472.44 604.536 472.44C603.8 472.44 603.152 472.6 602.592 472.92C602.048 473.24 601.616 473.688 601.296 474.264C600.992 474.824 600.84 475.488 600.84 476.256V476.736C600.84 477.504 601.016 478.184 601.368 478.776C601.72 479.368 602.216 479.824 602.856 480.144C603.496 480.464 604.232 480.624 605.064 480.624C605.784 480.624 606.432 480.512 607.008 480.288C607.584 480.064 608.096 479.712 608.544 479.232L610.152 481.08C609.576 481.752 608.848 482.272 607.968 482.64C607.104 482.992 606.112 483.168 604.992 483.168ZM612.818 483V470.184H615.674V473.712L615.338 472.68C615.722 471.816 616.322 471.16 617.138 470.712C617.97 470.264 619.002 470.04 620.234 470.04V472.896C620.106 472.864 619.986 472.848 619.874 472.848C619.762 472.832 619.65 472.824 619.538 472.824C618.402 472.824 617.498 473.16 616.826 473.832C616.154 474.488 615.818 475.472 615.818 476.784V483H612.818ZM623.223 487.824C622.599 487.824 621.975 487.72 621.351 487.512C620.727 487.304 620.207 487.016 619.791 486.648L620.991 484.44C621.295 484.712 621.639 484.928 622.023 485.088C622.407 485.248 622.799 485.328 623.199 485.328C623.743 485.328 624.183 485.192 624.519 484.92C624.855 484.648 625.167 484.192 625.455 483.552L626.199 481.872L626.439 481.512L631.287 470.184H634.167L628.167 484.032C627.767 484.992 627.319 485.752 626.823 486.312C626.343 486.872 625.799 487.264 625.191 487.488C624.599 487.712 623.943 487.824 623.223 487.824ZM625.863 483.456L620.079 470.184H623.199L627.903 481.248L625.863 483.456ZM640.803 483V466.2H643.371L653.907 479.136H652.635V466.2H655.731V483H653.163L642.627 470.064H643.899V483H640.803ZM666.761 483V480.408L666.593 479.856V475.32C666.593 474.44 666.329 473.76 665.801 473.28C665.273 472.784 664.473 472.536 663.401 472.536C662.681 472.536 661.969 472.648 661.265 472.872C660.577 473.096 659.993 473.408 659.513 473.808L658.337 471.624C659.025 471.096 659.841 470.704 660.785 470.448C661.745 470.176 662.737 470.04 663.761 470.04C665.617 470.04 667.049 470.488 668.057 471.384C669.081 472.264 669.593 473.632 669.593 475.488V483H666.761ZM662.729 483.168C661.769 483.168 660.929 483.008 660.209 482.688C659.489 482.352 658.929 481.896 658.529 481.32C658.145 480.728 657.953 480.064 657.953 479.328C657.953 478.608 658.121 477.96 658.457 477.384C658.809 476.808 659.377 476.352 660.161 476.016C660.945 475.68 661.985 475.512 663.281 475.512H667.001V477.504H663.497C662.473 477.504 661.785 477.672 661.433 478.008C661.081 478.328 660.905 478.728 660.905 479.208C660.905 479.752 661.121 480.184 661.553 480.504C661.985 480.824 662.585 480.984 663.353 480.984C664.089 480.984 664.745 480.816 665.321 480.48C665.913 480.144 666.337 479.648 666.593 478.992L667.097 480.792C666.809 481.544 666.289 482.128 665.537 482.544C664.801 482.96 663.865 483.168 662.729 483.168ZM677.187 483.168C675.779 483.168 674.691 482.808 673.923 482.088C673.155 481.352 672.771 480.272 672.771 478.848V467.352H675.771V478.776C675.771 479.384 675.923 479.856 676.227 480.192C676.547 480.528 676.987 480.696 677.547 480.696C678.219 480.696 678.779 480.52 679.227 480.168L680.067 482.304C679.715 482.592 679.283 482.808 678.771 482.952C678.259 483.096 677.731 483.168 677.187 483.168ZM670.659 472.68V470.28H679.203V472.68H670.659ZM681.455 483V470.184H684.455V483H681.455ZM682.967 468.072C682.407 468.072 681.943 467.896 681.575 467.544C681.223 467.192 681.047 466.768 681.047 466.272C681.047 465.76 681.223 465.336 681.575 465C681.943 464.648 682.407 464.472 682.967 464.472C683.527 464.472 683.983 464.64 684.335 464.976C684.703 465.296 684.887 465.704 684.887 466.2C684.887 466.728 684.711 467.176 684.359 467.544C684.007 467.896 683.543 468.072 682.967 468.072ZM693.072 483.168C691.76 483.168 690.592 482.888 689.568 482.328C688.544 481.752 687.736 480.968 687.144 479.976C686.552 478.984 686.256 477.856 686.256 476.592C686.256 475.312 686.552 474.184 687.144 473.208C687.736 472.216 688.544 471.44 689.568 470.88C690.592 470.32 691.76 470.04 693.072 470.04C694.4 470.04 695.576 470.32 696.6 470.88C697.64 471.44 698.448 472.208 699.024 473.184C699.616 474.16 699.912 475.296 699.912 476.592C699.912 477.856 699.616 478.984 699.024 479.976C698.448 480.968 697.64 481.752 696.6 482.328C695.576 482.888 694.4 483.168 693.072 483.168ZM693.072 480.6C693.808 480.6 694.464 480.44 695.04 480.12C695.616 479.8 696.064 479.336 696.384 478.728C696.72 478.12 696.888 477.408 696.888 476.592C696.888 475.76 696.72 475.048 696.384 474.456C696.064 473.848 695.616 473.384 695.04 473.064C694.464 472.744 693.816 472.584 693.096 472.584C692.36 472.584 691.704 472.744 691.128 473.064C690.568 473.384 690.12 473.848 689.784 474.456C689.448 475.048 689.28 475.76 689.28 476.592C689.28 477.408 689.448 478.12 689.784 478.728C690.12 479.336 690.568 479.8 691.128 480.12C691.704 480.44 692.352 480.6 693.072 480.6ZM708.973 470.04C709.997 470.04 710.909 470.24 711.709 470.64C712.525 471.04 713.165 471.656 713.629 472.488C714.093 473.304 714.325 474.36 714.325 475.656V483H711.325V476.04C711.325 474.904 711.053 474.056 710.509 473.496C709.981 472.936 709.237 472.656 708.277 472.656C707.573 472.656 706.949 472.8 706.405 473.088C705.861 473.376 705.437 473.808 705.133 474.384C704.845 474.944 704.701 475.656 704.701 476.52V483H701.701V470.184H704.557V473.64L704.053 472.584C704.501 471.768 705.149 471.144 705.997 470.712C706.861 470.264 707.853 470.04 708.973 470.04ZM726.851 483L721.283 466.2H724.523L729.491 481.392H727.883L733.043 466.2H735.923L740.939 481.392H739.379L744.467 466.2H747.443L741.875 483H738.563L733.979 469.296H734.843L730.187 483H726.851ZM748.734 483V470.184H751.734V483H748.734ZM750.246 468.072C749.686 468.072 749.222 467.896 748.854 467.544C748.502 467.192 748.326 466.768 748.326 466.272C748.326 465.76 748.502 465.336 748.854 465C749.222 464.648 749.686 464.472 750.246 464.472C750.806 464.472 751.262 464.64 751.614 464.976C751.982 465.296 752.166 465.704 752.166 466.2C752.166 466.728 751.99 467.176 751.638 467.544C751.286 467.896 750.822 468.072 750.246 468.072ZM760.016 483.168C758.784 483.168 757.672 482.896 756.68 482.352C755.704 481.792 754.936 481.024 754.376 480.048C753.816 479.072 753.536 477.92 753.536 476.592C753.536 475.264 753.816 474.112 754.376 473.136C754.936 472.16 755.704 471.4 756.68 470.856C757.672 470.312 758.784 470.04 760.016 470.04C761.088 470.04 762.048 470.28 762.896 470.76C763.744 471.224 764.416 471.936 764.912 472.896C765.408 473.856 765.656 475.088 765.656 476.592C765.656 478.08 765.416 479.312 764.936 480.288C764.456 481.248 763.792 481.968 762.944 482.448C762.096 482.928 761.12 483.168 760.016 483.168ZM760.376 480.6C761.096 480.6 761.736 480.44 762.296 480.12C762.872 479.8 763.328 479.336 763.664 478.728C764.016 478.12 764.192 477.408 764.192 476.592C764.192 475.76 764.016 475.048 763.664 474.456C763.328 473.848 762.872 473.384 762.296 473.064C761.736 472.744 761.096 472.584 760.376 472.584C759.656 472.584 759.008 472.744 758.432 473.064C757.872 473.384 757.416 473.848 757.064 474.456C756.728 475.048 756.56 475.76 756.56 476.592C756.56 477.408 756.728 478.12 757.064 478.728C757.416 479.336 757.872 479.8 758.432 480.12C759.008 480.44 759.656 480.6 760.376 480.6ZM764.264 483V479.976L764.384 476.568L764.144 473.16V465.192H767.12V483H764.264ZM776.012 483.168C774.588 483.168 773.34 482.888 772.268 482.328C771.212 481.752 770.388 480.968 769.796 479.976C769.22 478.984 768.932 477.856 768.932 476.592C768.932 475.312 769.212 474.184 769.772 473.208C770.348 472.216 771.132 471.44 772.124 470.88C773.132 470.32 774.276 470.04 775.556 470.04C776.804 470.04 777.916 470.312 778.892 470.856C779.868 471.4 780.636 472.168 781.196 473.16C781.756 474.152 782.036 475.32 782.036 476.664C782.036 476.792 782.028 476.936 782.012 477.096C782.012 477.256 782.004 477.408 781.988 477.552H771.308V475.56H780.404L779.228 476.184C779.244 475.448 779.092 474.8 778.772 474.24C778.452 473.68 778.012 473.24 777.452 472.92C776.908 472.6 776.276 472.44 775.556 472.44C774.82 472.44 774.172 472.6 773.612 472.92C773.068 473.24 772.636 473.688 772.316 474.264C772.012 474.824 771.86 475.488 771.86 476.256V476.736C771.86 477.504 772.036 478.184 772.388 478.776C772.74 479.368 773.236 479.824 773.876 480.144C774.516 480.464 775.252 480.624 776.084 480.624C776.804 480.624 777.452 480.512 778.028 480.288C778.604 480.064 779.116 479.712 779.564 479.232L781.172 481.08C780.596 481.752 779.868 482.272 778.988 482.64C778.124 482.992 777.132 483.168 776.012 483.168Z" fill="#4D4D4D"/>
</g>
<g filter="url(#filter4_d_1423_136)">
<rect x="936" y="152" width="258" height="258" rx="29" fill="#D7D7D7"/>
</g>
<g filter="url(#filter5_d_1423_136)">
<path d="M959.796 473.928H968.172V476.568H959.796V473.928ZM960.06 483H956.94V466.2H969.204V468.816H960.06V483ZM970.619 483V470.184H973.475V473.712L973.139 472.68C973.523 471.816 974.123 471.16 974.939 470.712C975.771 470.264 976.803 470.04 978.035 470.04V472.896C977.907 472.864 977.787 472.848 977.675 472.848C977.563 472.832 977.451 472.824 977.339 472.824C976.203 472.824 975.299 473.16 974.627 473.832C973.955 474.488 973.619 475.472 973.619 476.784V483H970.619ZM985.407 483.168C983.983 483.168 982.735 482.888 981.663 482.328C980.607 481.752 979.783 480.968 979.191 479.976C978.615 478.984 978.327 477.856 978.327 476.592C978.327 475.312 978.607 474.184 979.167 473.208C979.743 472.216 980.527 471.44 981.519 470.88C982.527 470.32 983.671 470.04 984.951 470.04C986.199 470.04 987.311 470.312 988.287 470.856C989.263 471.4 990.031 472.168 990.591 473.16C991.151 474.152 991.431 475.32 991.431 476.664C991.431 476.792 991.423 476.936 991.407 477.096C991.407 477.256 991.399 477.408 991.383 477.552H980.703V475.56H989.799L988.623 476.184C988.639 475.448 988.487 474.8 988.167 474.24C987.847 473.68 987.407 473.24 986.847 472.92C986.303 472.6 985.671 472.44 984.951 472.44C984.215 472.44 983.567 472.6 983.007 472.92C982.463 473.24 982.031 473.688 981.711 474.264C981.407 474.824 981.255 475.488 981.255 476.256V476.736C981.255 477.504 981.431 478.184 981.783 478.776C982.135 479.368 982.631 479.824 983.271 480.144C983.911 480.464 984.647 480.624 985.479 480.624C986.199 480.624 986.847 480.512 987.423 480.288C987.999 480.064 988.511 479.712 988.959 479.232L990.567 481.08C989.991 481.752 989.263 482.272 988.383 482.64C987.519 482.992 986.527 483.168 985.407 483.168ZM999.256 483.168C997.832 483.168 996.584 482.888 995.512 482.328C994.456 481.752 993.632 480.968 993.04 479.976C992.464 478.984 992.176 477.856 992.176 476.592C992.176 475.312 992.456 474.184 993.016 473.208C993.592 472.216 994.376 471.44 995.368 470.88C996.376 470.32 997.52 470.04 998.8 470.04C1000.05 470.04 1001.16 470.312 1002.14 470.856C1003.11 471.4 1003.88 472.168 1004.44 473.16C1005 474.152 1005.28 475.32 1005.28 476.664C1005.28 476.792 1005.27 476.936 1005.26 477.096C1005.26 477.256 1005.25 477.408 1005.23 477.552H994.552V475.56H1003.65L1002.47 476.184C1002.49 475.448 1002.34 474.8 1002.02 474.24C1001.7 473.68 1001.26 473.24 1000.7 472.92C1000.15 472.6 999.52 472.44 998.8 472.44C998.064 472.44 997.416 472.6 996.856 472.92C996.312 473.24 995.88 473.688 995.56 474.264C995.256 474.824 995.104 475.488 995.104 476.256V476.736C995.104 477.504 995.28 478.184 995.632 478.776C995.984 479.368 996.48 479.824 997.12 480.144C997.76 480.464 998.496 480.624 999.328 480.624C1000.05 480.624 1000.7 480.512 1001.27 480.288C1001.85 480.064 1002.36 479.712 1002.81 479.232L1004.42 481.08C1003.84 481.752 1003.11 482.272 1002.23 482.64C1001.37 482.992 1000.38 483.168 999.256 483.168ZM1012.92 483V466.2H1020.27C1022.09 466.2 1023.69 466.552 1025.07 467.256C1026.44 467.96 1027.51 468.936 1028.28 470.184C1029.05 471.432 1029.43 472.904 1029.43 474.6C1029.43 476.28 1029.05 477.752 1028.28 479.016C1027.51 480.264 1026.44 481.24 1025.07 481.944C1023.69 482.648 1022.09 483 1020.27 483H1012.92ZM1016.04 480.36H1020.12C1021.39 480.36 1022.47 480.12 1023.39 479.64C1024.31 479.16 1025.03 478.488 1025.52 477.624C1026.03 476.76 1026.29 475.752 1026.29 474.6C1026.29 473.432 1026.03 472.424 1025.52 471.576C1025.03 470.712 1024.31 470.04 1023.39 469.56C1022.47 469.08 1021.39 468.84 1020.12 468.84H1016.04V480.36ZM1037.41 483.168C1035.98 483.168 1034.73 482.888 1033.66 482.328C1032.61 481.752 1031.78 480.968 1031.19 479.976C1030.61 478.984 1030.33 477.856 1030.33 476.592C1030.33 475.312 1030.61 474.184 1031.17 473.208C1031.74 472.216 1032.53 471.44 1033.52 470.88C1034.53 470.32 1035.67 470.04 1036.95 470.04C1038.2 470.04 1039.31 470.312 1040.29 470.856C1041.26 471.4 1042.03 472.168 1042.59 473.16C1043.15 474.152 1043.43 475.32 1043.43 476.664C1043.43 476.792 1043.42 476.936 1043.41 477.096C1043.41 477.256 1043.4 477.408 1043.38 477.552H1032.7V475.56H1041.8L1040.62 476.184C1040.64 475.448 1040.49 474.8 1040.17 474.24C1039.85 473.68 1039.41 473.24 1038.85 472.92C1038.3 472.6 1037.67 472.44 1036.95 472.44C1036.21 472.44 1035.57 472.6 1035.01 472.92C1034.46 473.24 1034.03 473.688 1033.71 474.264C1033.41 474.824 1033.25 475.488 1033.25 476.256V476.736C1033.25 477.504 1033.43 478.184 1033.78 478.776C1034.13 479.368 1034.63 479.824 1035.27 480.144C1035.91 480.464 1036.65 480.624 1037.48 480.624C1038.2 480.624 1038.85 480.512 1039.42 480.288C1040 480.064 1040.51 479.712 1040.96 479.232L1042.57 481.08C1041.99 481.752 1041.26 482.272 1040.38 482.64C1039.52 482.992 1038.53 483.168 1037.41 483.168ZM1049.19 483.168C1048.12 483.168 1047.09 483.032 1046.1 482.76C1045.12 482.472 1044.34 482.128 1043.77 481.728L1044.92 479.448C1045.5 479.816 1046.18 480.12 1046.98 480.36C1047.78 480.6 1048.58 480.72 1049.38 480.72C1050.33 480.72 1051.01 480.592 1051.42 480.336C1051.86 480.08 1052.07 479.736 1052.07 479.304C1052.07 478.952 1051.93 478.688 1051.64 478.512C1051.35 478.32 1050.98 478.176 1050.51 478.08C1050.05 477.984 1049.53 477.896 1048.95 477.816C1048.39 477.736 1047.82 477.632 1047.25 477.504C1046.69 477.36 1046.18 477.16 1045.71 476.904C1045.25 476.632 1044.87 476.272 1044.58 475.824C1044.3 475.376 1044.15 474.784 1044.15 474.048C1044.15 473.232 1044.38 472.528 1044.85 471.936C1045.31 471.328 1045.96 470.864 1046.79 470.544C1047.64 470.208 1048.64 470.04 1049.79 470.04C1050.66 470.04 1051.53 470.136 1052.41 470.328C1053.29 470.52 1054.02 470.792 1054.59 471.144L1053.44 473.424C1052.83 473.056 1052.22 472.808 1051.59 472.68C1050.98 472.536 1050.38 472.464 1049.77 472.464C1048.86 472.464 1048.18 472.6 1047.73 472.872C1047.3 473.144 1047.08 473.488 1047.08 473.904C1047.08 474.288 1047.22 474.576 1047.51 474.768C1047.8 474.96 1048.18 475.112 1048.64 475.224C1049.1 475.336 1049.62 475.432 1050.18 475.512C1050.75 475.576 1051.32 475.68 1051.88 475.824C1052.44 475.968 1052.95 476.168 1053.42 476.424C1053.9 476.664 1054.28 477.008 1054.57 477.456C1054.86 477.904 1055 478.488 1055 479.208C1055 480.008 1054.76 480.704 1054.28 481.296C1053.82 481.888 1053.15 482.352 1052.29 482.688C1051.42 483.008 1050.39 483.168 1049.19 483.168ZM1056.5 483V470.184H1059.5V483H1056.5ZM1058.02 468.072C1057.46 468.072 1056.99 467.896 1056.62 467.544C1056.27 467.192 1056.1 466.768 1056.1 466.272C1056.1 465.76 1056.27 465.336 1056.62 465C1056.99 464.648 1057.46 464.472 1058.02 464.472C1058.58 464.472 1059.03 464.64 1059.38 464.976C1059.75 465.296 1059.94 465.704 1059.94 466.2C1059.94 466.728 1059.76 467.176 1059.41 467.544C1059.06 467.896 1058.59 468.072 1058.02 468.072ZM1068.17 487.824C1066.99 487.824 1065.83 487.664 1064.69 487.344C1063.57 487.04 1062.65 486.592 1061.93 486L1063.27 483.744C1063.83 484.208 1064.54 484.576 1065.39 484.848C1066.25 485.136 1067.12 485.28 1068 485.28C1069.41 485.28 1070.44 484.952 1071.1 484.296C1071.75 483.656 1072.08 482.688 1072.08 481.392V479.112L1072.32 476.208L1072.23 473.304V470.184H1075.08V481.056C1075.08 483.376 1074.49 485.08 1073.31 486.168C1072.12 487.272 1070.41 487.824 1068.17 487.824ZM1067.79 482.424C1066.57 482.424 1065.47 482.168 1064.47 481.656C1063.5 481.128 1062.72 480.4 1062.15 479.472C1061.59 478.544 1061.31 477.456 1061.31 476.208C1061.31 474.976 1061.59 473.896 1062.15 472.968C1062.72 472.04 1063.5 471.32 1064.47 470.808C1065.47 470.296 1066.57 470.04 1067.79 470.04C1068.87 470.04 1069.85 470.256 1070.71 470.688C1071.58 471.12 1072.27 471.792 1072.78 472.704C1073.31 473.616 1073.57 474.784 1073.57 476.208C1073.57 477.632 1073.31 478.808 1072.78 479.736C1072.27 480.648 1071.58 481.328 1070.71 481.776C1069.85 482.208 1068.87 482.424 1067.79 482.424ZM1068.24 479.88C1068.99 479.88 1069.67 479.728 1070.26 479.424C1070.85 479.104 1071.31 478.672 1071.63 478.128C1071.96 477.568 1072.13 476.928 1072.13 476.208C1072.13 475.488 1071.96 474.856 1071.63 474.312C1071.31 473.752 1070.85 473.328 1070.26 473.04C1069.67 472.736 1068.99 472.584 1068.24 472.584C1067.49 472.584 1066.81 472.736 1066.2 473.04C1065.61 473.328 1065.15 473.752 1064.81 474.312C1064.49 474.856 1064.33 475.488 1064.33 476.208C1064.33 476.928 1064.49 477.568 1064.81 478.128C1065.15 478.672 1065.61 479.104 1066.2 479.424C1066.81 479.728 1067.49 479.88 1068.24 479.88ZM1085.22 470.04C1086.24 470.04 1087.15 470.24 1087.95 470.64C1088.77 471.04 1089.41 471.656 1089.87 472.488C1090.34 473.304 1090.57 474.36 1090.57 475.656V483H1087.57V476.04C1087.57 474.904 1087.3 474.056 1086.75 473.496C1086.23 472.936 1085.48 472.656 1084.52 472.656C1083.82 472.656 1083.19 472.8 1082.65 473.088C1082.11 473.376 1081.68 473.808 1081.38 474.384C1081.09 474.944 1080.95 475.656 1080.95 476.52V483H1077.95V470.184H1080.8V473.64L1080.3 472.584C1080.75 471.768 1081.39 471.144 1082.24 470.712C1083.11 470.264 1084.1 470.04 1085.22 470.04ZM1096.76 483L1104.32 466.2H1107.39L1114.98 483H1111.71L1105.21 467.856H1106.46L1099.98 483H1096.76ZM1100.24 479.112L1101.08 476.664H1110.15L1110.99 479.112H1100.24ZM1121.05 483.168C1119.82 483.168 1118.71 482.896 1117.72 482.352C1116.74 481.792 1115.97 481.024 1115.41 480.048C1114.85 479.072 1114.57 477.92 1114.57 476.592C1114.57 475.264 1114.85 474.112 1115.41 473.136C1115.97 472.16 1116.74 471.4 1117.72 470.856C1118.71 470.312 1119.82 470.04 1121.05 470.04C1122.12 470.04 1123.08 470.28 1123.93 470.76C1124.78 471.224 1125.45 471.936 1125.95 472.896C1126.44 473.856 1126.69 475.088 1126.69 476.592C1126.69 478.08 1126.45 479.312 1125.97 480.288C1125.49 481.248 1124.83 481.968 1123.98 482.448C1123.13 482.928 1122.16 483.168 1121.05 483.168ZM1121.41 480.6C1122.13 480.6 1122.77 480.44 1123.33 480.12C1123.91 479.8 1124.36 479.336 1124.7 478.728C1125.05 478.12 1125.23 477.408 1125.23 476.592C1125.23 475.76 1125.05 475.048 1124.7 474.456C1124.36 473.848 1123.91 473.384 1123.33 473.064C1122.77 472.744 1122.13 472.584 1121.41 472.584C1120.69 472.584 1120.04 472.744 1119.47 473.064C1118.91 473.384 1118.45 473.848 1118.1 474.456C1117.76 475.048 1117.6 475.76 1117.6 476.592C1117.6 477.408 1117.76 478.12 1118.1 478.728C1118.45 479.336 1118.91 479.8 1119.47 480.12C1120.04 480.44 1120.69 480.6 1121.41 480.6ZM1125.3 483V479.976L1125.42 476.568L1125.18 473.16V465.192H1128.16V483H1125.3ZM1134.43 483L1128.94 470.184H1132.06L1136.78 481.488H1135.25L1140.14 470.184H1143.02L1137.53 483H1134.43ZM1143.82 483V470.184H1146.82V483H1143.82ZM1145.33 468.072C1144.77 468.072 1144.31 467.896 1143.94 467.544C1143.59 467.192 1143.41 466.768 1143.41 466.272C1143.41 465.76 1143.59 465.336 1143.94 465C1144.31 464.648 1144.77 464.472 1145.33 464.472C1145.89 464.472 1146.35 464.64 1146.7 464.976C1147.07 465.296 1147.25 465.704 1147.25 466.2C1147.25 466.728 1147.08 467.176 1146.72 467.544C1146.37 467.896 1145.91 468.072 1145.33 468.072ZM1155.56 483.168C1154.21 483.168 1153.01 482.888 1151.96 482.328C1150.92 481.752 1150.1 480.968 1149.51 479.976C1148.92 478.984 1148.62 477.856 1148.62 476.592C1148.62 475.312 1148.92 474.184 1149.51 473.208C1150.1 472.216 1150.92 471.44 1151.96 470.88C1153.01 470.32 1154.21 470.04 1155.56 470.04C1156.8 470.04 1157.9 470.296 1158.84 470.808C1159.8 471.304 1160.53 472.04 1161.03 473.016L1158.72 474.36C1158.34 473.752 1157.87 473.304 1157.31 473.016C1156.76 472.728 1156.17 472.584 1155.53 472.584C1154.8 472.584 1154.13 472.744 1153.54 473.064C1152.95 473.384 1152.48 473.848 1152.15 474.456C1151.81 475.048 1151.64 475.76 1151.64 476.592C1151.64 477.424 1151.81 478.144 1152.15 478.752C1152.48 479.344 1152.95 479.8 1153.54 480.12C1154.13 480.44 1154.8 480.6 1155.53 480.6C1156.17 480.6 1156.76 480.456 1157.31 480.168C1157.87 479.88 1158.34 479.432 1158.72 478.824L1161.03 480.168C1160.53 481.128 1159.8 481.872 1158.84 482.4C1157.9 482.912 1156.8 483.168 1155.56 483.168ZM1168.38 483.168C1166.95 483.168 1165.71 482.888 1164.63 482.328C1163.58 481.752 1162.75 480.968 1162.16 479.976C1161.59 478.984 1161.3 477.856 1161.3 476.592C1161.3 475.312 1161.58 474.184 1162.14 473.208C1162.71 472.216 1163.5 471.44 1164.49 470.88C1165.5 470.32 1166.64 470.04 1167.92 470.04C1169.17 470.04 1170.28 470.312 1171.26 470.856C1172.23 471.4 1173 472.168 1173.56 473.16C1174.12 474.152 1174.4 475.32 1174.4 476.664C1174.4 476.792 1174.39 476.936 1174.38 477.096C1174.38 477.256 1174.37 477.408 1174.35 477.552H1163.67V475.56H1172.77L1171.59 476.184C1171.61 475.448 1171.46 474.8 1171.14 474.24C1170.82 473.68 1170.38 473.24 1169.82 472.92C1169.27 472.6 1168.64 472.44 1167.92 472.44C1167.19 472.44 1166.54 472.6 1165.98 472.92C1165.43 473.24 1165 473.688 1164.68 474.264C1164.38 474.824 1164.23 475.488 1164.23 476.256V476.736C1164.23 477.504 1164.4 478.184 1164.75 478.776C1165.11 479.368 1165.6 479.824 1166.24 480.144C1166.88 480.464 1167.62 480.624 1168.45 480.624C1169.17 480.624 1169.82 480.512 1170.39 480.288C1170.97 480.064 1171.48 479.712 1171.93 479.232L1173.54 481.08C1172.96 481.752 1172.23 482.272 1171.35 482.64C1170.49 482.992 1169.5 483.168 1168.38 483.168Z" fill="#4D4D4D"/>
</g>
<g filter="url(#filter6_d_1423_136)">
<rect x="1366.5" y="152" width="258" height="258" rx="29" fill="#D7D7D7"/>
</g>
<g filter="url(#filter7_d_1423_136)">
<path d="M1336.75 483V466.2H1343.66C1345.15 466.2 1346.42 466.44 1347.48 466.92C1348.55 467.4 1349.38 468.088 1349.95 468.984C1350.53 469.88 1350.82 470.944 1350.82 472.176C1350.82 473.408 1350.53 474.472 1349.95 475.368C1349.38 476.248 1348.55 476.928 1347.48 477.408C1346.42 477.872 1345.15 478.104 1343.66 478.104H1338.48L1339.87 476.688V483H1336.75ZM1347.74 483L1343.5 476.904H1346.83L1351.1 483H1347.74ZM1339.87 477.024L1338.48 475.536H1343.52C1344.9 475.536 1345.93 475.24 1346.62 474.648C1347.32 474.056 1347.67 473.232 1347.67 472.176C1347.67 471.104 1347.32 470.28 1346.62 469.704C1345.93 469.128 1344.9 468.84 1343.52 468.84H1338.48L1339.87 467.304V477.024ZM1358.96 483.168C1357.54 483.168 1356.29 482.888 1355.22 482.328C1354.16 481.752 1353.34 480.968 1352.75 479.976C1352.17 478.984 1351.88 477.856 1351.88 476.592C1351.88 475.312 1352.16 474.184 1352.72 473.208C1353.3 472.216 1354.08 471.44 1355.07 470.88C1356.08 470.32 1357.23 470.04 1358.51 470.04C1359.75 470.04 1360.87 470.312 1361.84 470.856C1362.82 471.4 1363.59 472.168 1364.15 473.16C1364.71 474.152 1364.99 475.32 1364.99 476.664C1364.99 476.792 1364.98 476.936 1364.96 477.096C1364.96 477.256 1364.95 477.408 1364.94 477.552H1354.26V475.56H1363.35L1362.18 476.184C1362.19 475.448 1362.04 474.8 1361.72 474.24C1361.4 473.68 1360.96 473.24 1360.4 472.92C1359.86 472.6 1359.23 472.44 1358.51 472.44C1357.77 472.44 1357.12 472.6 1356.56 472.92C1356.02 473.24 1355.59 473.688 1355.27 474.264C1354.96 474.824 1354.81 475.488 1354.81 476.256V476.736C1354.81 477.504 1354.99 478.184 1355.34 478.776C1355.69 479.368 1356.19 479.824 1356.83 480.144C1357.47 480.464 1358.2 480.624 1359.03 480.624C1359.75 480.624 1360.4 480.512 1360.98 480.288C1361.55 480.064 1362.07 479.712 1362.51 479.232L1364.12 481.08C1363.55 481.752 1362.82 482.272 1361.94 482.64C1361.07 482.992 1360.08 483.168 1358.96 483.168ZM1371.61 483.168C1370.2 483.168 1369.12 482.808 1368.35 482.088C1367.58 481.352 1367.2 480.272 1367.2 478.848V467.352H1370.2V478.776C1370.2 479.384 1370.35 479.856 1370.65 480.192C1370.97 480.528 1371.41 480.696 1371.97 480.696C1372.64 480.696 1373.2 480.52 1373.65 480.168L1374.49 482.304C1374.14 482.592 1373.71 482.808 1373.2 482.952C1372.68 483.096 1372.16 483.168 1371.61 483.168ZM1365.08 472.68V470.28H1373.63V472.68H1365.08ZM1381.3 483.168C1380.22 483.168 1379.26 482.968 1378.42 482.568C1377.59 482.152 1376.94 481.528 1376.48 480.696C1376.02 479.848 1375.78 478.784 1375.78 477.504V470.184H1378.78V477.096C1378.78 478.248 1379.04 479.112 1379.55 479.688C1380.08 480.248 1380.82 480.528 1381.78 480.528C1382.49 480.528 1383.1 480.384 1383.61 480.096C1384.14 479.808 1384.54 479.376 1384.83 478.8C1385.14 478.224 1385.29 477.512 1385.29 476.664V470.184H1388.29V483H1385.43V479.544L1385.94 480.6C1385.5 481.432 1384.87 482.072 1384.04 482.52C1383.21 482.952 1382.3 483.168 1381.3 483.168ZM1391.14 483V470.184H1393.99V473.712L1393.66 472.68C1394.04 471.816 1394.64 471.16 1395.46 470.712C1396.29 470.264 1397.32 470.04 1398.55 470.04V472.896C1398.42 472.864 1398.3 472.848 1398.19 472.848C1398.08 472.832 1397.97 472.824 1397.86 472.824C1396.72 472.824 1395.82 473.16 1395.14 473.832C1394.47 474.488 1394.14 475.472 1394.14 476.784V483H1391.14ZM1407.29 470.04C1408.31 470.04 1409.23 470.24 1410.03 470.64C1410.84 471.04 1411.48 471.656 1411.95 472.488C1412.41 473.304 1412.64 474.36 1412.64 475.656V483H1409.64V476.04C1409.64 474.904 1409.37 474.056 1408.83 473.496C1408.3 472.936 1407.55 472.656 1406.59 472.656C1405.89 472.656 1405.27 472.8 1404.72 473.088C1404.18 473.376 1403.75 473.808 1403.45 474.384C1403.16 474.944 1403.02 475.656 1403.02 476.52V483H1400.02V470.184H1402.87V473.64L1402.37 472.584C1402.82 471.768 1403.47 471.144 1404.31 470.712C1405.18 470.264 1406.17 470.04 1407.29 470.04ZM1428.82 483V480.408L1428.65 479.856V475.32C1428.65 474.44 1428.38 473.76 1427.86 473.28C1427.33 472.784 1426.53 472.536 1425.46 472.536C1424.74 472.536 1424.02 472.648 1423.32 472.872C1422.63 473.096 1422.05 473.408 1421.57 473.808L1420.39 471.624C1421.08 471.096 1421.9 470.704 1422.84 470.448C1423.8 470.176 1424.79 470.04 1425.82 470.04C1427.67 470.04 1429.1 470.488 1430.11 471.384C1431.14 472.264 1431.65 473.632 1431.65 475.488V483H1428.82ZM1424.78 483.168C1423.82 483.168 1422.98 483.008 1422.26 482.688C1421.54 482.352 1420.98 481.896 1420.58 481.32C1420.2 480.728 1420.01 480.064 1420.01 479.328C1420.01 478.608 1420.18 477.96 1420.51 477.384C1420.86 476.808 1421.43 476.352 1422.22 476.016C1423 475.68 1424.04 475.512 1425.34 475.512H1429.06V477.504H1425.55C1424.53 477.504 1423.84 477.672 1423.49 478.008C1423.14 478.328 1422.96 478.728 1422.96 479.208C1422.96 479.752 1423.18 480.184 1423.61 480.504C1424.04 480.824 1424.64 480.984 1425.41 480.984C1426.14 480.984 1426.8 480.816 1427.38 480.48C1427.97 480.144 1428.39 479.648 1428.65 478.992L1429.15 480.792C1428.86 481.544 1428.34 482.128 1427.59 482.544C1426.86 482.96 1425.92 483.168 1424.78 483.168ZM1441.69 470.04C1442.71 470.04 1443.63 470.24 1444.43 470.64C1445.24 471.04 1445.88 471.656 1446.35 472.488C1446.81 473.304 1447.04 474.36 1447.04 475.656V483H1444.04V476.04C1444.04 474.904 1443.77 474.056 1443.23 473.496C1442.7 472.936 1441.95 472.656 1440.99 472.656C1440.29 472.656 1439.67 472.8 1439.12 473.088C1438.58 473.376 1438.15 473.808 1437.85 474.384C1437.56 474.944 1437.42 475.656 1437.42 476.52V483H1434.42V470.184H1437.27V473.64L1436.77 472.584C1437.22 471.768 1437.87 471.144 1438.71 470.712C1439.58 470.264 1440.57 470.04 1441.69 470.04ZM1455.21 483.168C1453.98 483.168 1452.87 482.896 1451.88 482.352C1450.9 481.792 1450.13 481.024 1449.57 480.048C1449.01 479.072 1448.73 477.92 1448.73 476.592C1448.73 475.264 1449.01 474.112 1449.57 473.136C1450.13 472.16 1450.9 471.4 1451.88 470.856C1452.87 470.312 1453.98 470.04 1455.21 470.04C1456.29 470.04 1457.25 470.28 1458.09 470.76C1458.94 471.224 1459.61 471.936 1460.11 472.896C1460.61 473.856 1460.85 475.088 1460.85 476.592C1460.85 478.08 1460.61 479.312 1460.13 480.288C1459.65 481.248 1458.99 481.968 1458.14 482.448C1457.29 482.928 1456.32 483.168 1455.21 483.168ZM1455.57 480.6C1456.29 480.6 1456.93 480.44 1457.49 480.12C1458.07 479.8 1458.53 479.336 1458.86 478.728C1459.21 478.12 1459.39 477.408 1459.39 476.592C1459.39 475.76 1459.21 475.048 1458.86 474.456C1458.53 473.848 1458.07 473.384 1457.49 473.064C1456.93 472.744 1456.29 472.584 1455.57 472.584C1454.85 472.584 1454.21 472.744 1453.63 473.064C1453.07 473.384 1452.61 473.848 1452.26 474.456C1451.93 475.048 1451.76 475.76 1451.76 476.592C1451.76 477.408 1451.93 478.12 1452.26 478.728C1452.61 479.336 1453.07 479.8 1453.63 480.12C1454.21 480.44 1454.85 480.6 1455.57 480.6ZM1459.46 483V479.976L1459.58 476.568L1459.34 473.16V465.192H1462.32V483H1459.46ZM1473.91 473.184H1482.26V475.752H1473.91V473.184ZM1474.15 480.384H1483.63V483H1471.03V466.2H1483.29V468.816H1474.15V480.384ZM1483.78 483L1489.42 475.656L1489.37 477.264L1483.99 470.184H1487.33L1491.1 475.224H1489.82L1493.62 470.184H1496.86L1491.43 477.264L1491.46 475.656L1497.07 483H1493.69L1489.73 477.648L1490.98 477.816L1487.09 483H1483.78ZM1503.66 483.168C1502.32 483.168 1501.12 482.888 1500.06 482.328C1499.02 481.752 1498.21 480.968 1497.62 479.976C1497.02 478.984 1496.73 477.856 1496.73 476.592C1496.73 475.312 1497.02 474.184 1497.62 473.208C1498.21 472.216 1499.02 471.44 1500.06 470.88C1501.12 470.32 1502.32 470.04 1503.66 470.04C1504.91 470.04 1506.01 470.296 1506.95 470.808C1507.91 471.304 1508.64 472.04 1509.14 473.016L1506.83 474.36C1506.45 473.752 1505.98 473.304 1505.42 473.016C1504.87 472.728 1504.28 472.584 1503.64 472.584C1502.9 472.584 1502.24 472.744 1501.65 473.064C1501.06 473.384 1500.59 473.848 1500.26 474.456C1499.92 475.048 1499.75 475.76 1499.75 476.592C1499.75 477.424 1499.92 478.144 1500.26 478.752C1500.59 479.344 1501.06 479.8 1501.65 480.12C1502.24 480.44 1502.9 480.6 1503.64 480.6C1504.28 480.6 1504.87 480.456 1505.42 480.168C1505.98 479.88 1506.45 479.432 1506.83 478.824L1509.14 480.168C1508.64 481.128 1507.91 481.872 1506.95 482.4C1506.01 482.912 1504.91 483.168 1503.66 483.168ZM1517.8 470.04C1518.83 470.04 1519.74 470.24 1520.54 470.64C1521.36 471.04 1522 471.656 1522.46 472.488C1522.92 473.304 1523.16 474.36 1523.16 475.656V483H1520.16V476.04C1520.16 474.904 1519.88 474.056 1519.34 473.496C1518.81 472.936 1518.07 472.656 1517.11 472.656C1516.4 472.656 1515.78 472.8 1515.24 473.088C1514.69 473.376 1514.27 473.808 1513.96 474.384C1513.68 474.944 1513.53 475.656 1513.53 476.52V483H1510.53V465.192H1513.53V473.64L1512.88 472.584C1513.33 471.768 1513.98 471.144 1514.83 470.712C1515.69 470.264 1516.68 470.04 1517.8 470.04ZM1533.78 483V480.408L1533.61 479.856V475.32C1533.61 474.44 1533.35 473.76 1532.82 473.28C1532.29 472.784 1531.49 472.536 1530.42 472.536C1529.7 472.536 1528.99 472.648 1528.28 472.872C1527.59 473.096 1527.01 473.408 1526.53 473.808L1525.35 471.624C1526.04 471.096 1526.86 470.704 1527.8 470.448C1528.76 470.176 1529.75 470.04 1530.78 470.04C1532.63 470.04 1534.07 470.488 1535.07 471.384C1536.1 472.264 1536.61 473.632 1536.61 475.488V483H1533.78ZM1529.75 483.168C1528.79 483.168 1527.95 483.008 1527.23 482.688C1526.51 482.352 1525.95 481.896 1525.55 481.32C1525.16 480.728 1524.97 480.064 1524.97 479.328C1524.97 478.608 1525.14 477.96 1525.47 477.384C1525.83 476.808 1526.39 476.352 1527.18 476.016C1527.96 475.68 1529 475.512 1530.3 475.512H1534.02V477.504H1530.51C1529.49 477.504 1528.8 477.672 1528.45 478.008C1528.1 478.328 1527.92 478.728 1527.92 479.208C1527.92 479.752 1528.14 480.184 1528.57 480.504C1529 480.824 1529.6 480.984 1530.37 480.984C1531.11 480.984 1531.76 480.816 1532.34 480.48C1532.93 480.144 1533.35 479.648 1533.61 478.992L1534.11 480.792C1533.83 481.544 1533.31 482.128 1532.55 482.544C1531.82 482.96 1530.88 483.168 1529.75 483.168ZM1546.65 470.04C1547.68 470.04 1548.59 470.24 1549.39 470.64C1550.2 471.04 1550.84 471.656 1551.31 472.488C1551.77 473.304 1552 474.36 1552 475.656V483H1549V476.04C1549 474.904 1548.73 474.056 1548.19 473.496C1547.66 472.936 1546.92 472.656 1545.96 472.656C1545.25 472.656 1544.63 472.8 1544.08 473.088C1543.54 473.376 1543.12 473.808 1542.81 474.384C1542.52 474.944 1542.38 475.656 1542.38 476.52V483H1539.38V470.184H1542.24V473.64L1541.73 472.584C1542.18 471.768 1542.83 471.144 1543.68 470.712C1544.54 470.264 1545.53 470.04 1546.65 470.04ZM1560.56 487.824C1559.38 487.824 1558.22 487.664 1557.08 487.344C1555.96 487.04 1555.04 486.592 1554.32 486L1555.66 483.744C1556.22 484.208 1556.93 484.576 1557.78 484.848C1558.64 485.136 1559.51 485.28 1560.39 485.28C1561.8 485.28 1562.83 484.952 1563.49 484.296C1564.14 483.656 1564.47 482.688 1564.47 481.392V479.112L1564.71 476.208L1564.62 473.304V470.184H1567.47V481.056C1567.47 483.376 1566.88 485.08 1565.7 486.168C1564.51 487.272 1562.8 487.824 1560.56 487.824ZM1560.18 482.424C1558.96 482.424 1557.86 482.168 1556.86 481.656C1555.89 481.128 1555.11 480.4 1554.54 479.472C1553.98 478.544 1553.7 477.456 1553.7 476.208C1553.7 474.976 1553.98 473.896 1554.54 472.968C1555.11 472.04 1555.89 471.32 1556.86 470.808C1557.86 470.296 1558.96 470.04 1560.18 470.04C1561.26 470.04 1562.24 470.256 1563.1 470.688C1563.97 471.12 1564.66 471.792 1565.17 472.704C1565.7 473.616 1565.96 474.784 1565.96 476.208C1565.96 477.632 1565.7 478.808 1565.17 479.736C1564.66 480.648 1563.97 481.328 1563.1 481.776C1562.24 482.208 1561.26 482.424 1560.18 482.424ZM1560.63 479.88C1561.38 479.88 1562.06 479.728 1562.65 479.424C1563.24 479.104 1563.7 478.672 1564.02 478.128C1564.35 477.568 1564.52 476.928 1564.52 476.208C1564.52 475.488 1564.35 474.856 1564.02 474.312C1563.7 473.752 1563.24 473.328 1562.65 473.04C1562.06 472.736 1561.38 472.584 1560.63 472.584C1559.88 472.584 1559.2 472.736 1558.59 473.04C1558 473.328 1557.54 473.752 1557.2 474.312C1556.88 474.856 1556.72 475.488 1556.72 476.208C1556.72 476.928 1556.88 477.568 1557.2 478.128C1557.54 478.672 1558 479.104 1558.59 479.424C1559.2 479.728 1559.88 479.88 1560.63 479.88ZM1576.36 483.168C1574.94 483.168 1573.69 482.888 1572.62 482.328C1571.56 481.752 1570.74 480.968 1570.14 479.976C1569.57 478.984 1569.28 477.856 1569.28 476.592C1569.28 475.312 1569.56 474.184 1570.12 473.208C1570.7 472.216 1571.48 471.44 1572.47 470.88C1573.48 470.32 1574.62 470.04 1575.9 470.04C1577.15 470.04 1578.26 470.312 1579.24 470.856C1580.22 471.4 1580.98 472.168 1581.54 473.16C1582.1 474.152 1582.38 475.32 1582.38 476.664C1582.38 476.792 1582.38 476.936 1582.36 477.096C1582.36 477.256 1582.35 477.408 1582.34 477.552H1571.66V475.56H1580.75L1579.58 476.184C1579.59 475.448 1579.44 474.8 1579.12 474.24C1578.8 473.68 1578.36 473.24 1577.8 472.92C1577.26 472.6 1576.62 472.44 1575.9 472.44C1575.17 472.44 1574.52 472.6 1573.96 472.92C1573.42 473.24 1572.98 473.688 1572.66 474.264C1572.36 474.824 1572.21 475.488 1572.21 476.256V476.736C1572.21 477.504 1572.38 478.184 1572.74 478.776C1573.09 479.368 1573.58 479.824 1574.22 480.144C1574.86 480.464 1575.6 480.624 1576.43 480.624C1577.15 480.624 1577.8 480.512 1578.38 480.288C1578.95 480.064 1579.46 479.712 1579.91 479.232L1581.52 481.08C1580.94 481.752 1580.22 482.272 1579.34 482.64C1578.47 482.992 1577.48 483.168 1576.36 483.168ZM1590.03 483V466.2H1596.94C1598.43 466.2 1599.7 466.44 1600.76 466.92C1601.83 467.4 1602.65 468.088 1603.23 468.984C1603.8 469.88 1604.09 470.944 1604.09 472.176C1604.09 473.408 1603.8 474.472 1603.23 475.368C1602.65 476.264 1601.83 476.952 1600.76 477.432C1599.7 477.912 1598.43 478.152 1596.94 478.152H1591.76L1593.15 476.688V483H1590.03ZM1593.15 477.024L1591.76 475.512H1596.8C1598.17 475.512 1599.2 475.224 1599.89 474.648C1600.6 474.056 1600.95 473.232 1600.95 472.176C1600.95 471.104 1600.6 470.28 1599.89 469.704C1599.2 469.128 1598.17 468.84 1596.8 468.84H1591.76L1593.15 467.304V477.024ZM1611.55 483.168C1610.24 483.168 1609.07 482.888 1608.05 482.328C1607.02 481.752 1606.22 480.968 1605.62 479.976C1605.03 478.984 1604.74 477.856 1604.74 476.592C1604.74 475.312 1605.03 474.184 1605.62 473.208C1606.22 472.216 1607.02 471.44 1608.05 470.88C1609.07 470.32 1610.24 470.04 1611.55 470.04C1612.88 470.04 1614.06 470.32 1615.08 470.88C1616.12 471.44 1616.93 472.208 1617.5 473.184C1618.1 474.16 1618.39 475.296 1618.39 476.592C1618.39 477.856 1618.1 478.984 1617.5 479.976C1616.93 480.968 1616.12 481.752 1615.08 482.328C1614.06 482.888 1612.88 483.168 1611.55 483.168ZM1611.55 480.6C1612.29 480.6 1612.94 480.44 1613.52 480.12C1614.1 479.8 1614.54 479.336 1614.86 478.728C1615.2 478.12 1615.37 477.408 1615.37 476.592C1615.37 475.76 1615.2 475.048 1614.86 474.456C1614.54 473.848 1614.1 473.384 1613.52 473.064C1612.94 472.744 1612.3 472.584 1611.58 472.584C1610.84 472.584 1610.18 472.744 1609.61 473.064C1609.05 473.384 1608.6 473.848 1608.26 474.456C1607.93 475.048 1607.76 475.76 1607.76 476.592C1607.76 477.408 1607.93 478.12 1608.26 478.728C1608.6 479.336 1609.05 479.8 1609.61 480.12C1610.18 480.44 1610.83 480.6 1611.55 480.6ZM1620.18 483V465.192H1623.18V483H1620.18ZM1626.04 483V470.184H1629.04V483H1626.04ZM1627.55 468.072C1626.99 468.072 1626.53 467.896 1626.16 467.544C1625.81 467.192 1625.63 466.768 1625.63 466.272C1625.63 465.76 1625.81 465.336 1626.16 465C1626.53 464.648 1626.99 464.472 1627.55 464.472C1628.11 464.472 1628.57 464.64 1628.92 464.976C1629.29 465.296 1629.47 465.704 1629.47 466.2C1629.47 466.728 1629.29 467.176 1628.94 467.544C1628.59 467.896 1628.13 468.072 1627.55 468.072ZM1637.78 483.168C1636.43 483.168 1635.23 482.888 1634.18 482.328C1633.14 481.752 1632.32 480.968 1631.73 479.976C1631.14 478.984 1630.84 477.856 1630.84 476.592C1630.84 475.312 1631.14 474.184 1631.73 473.208C1632.32 472.216 1633.14 471.44 1634.18 470.88C1635.23 470.32 1636.43 470.04 1637.78 470.04C1639.02 470.04 1640.12 470.296 1641.06 470.808C1642.02 471.304 1642.75 472.04 1643.25 473.016L1640.94 474.36C1640.56 473.752 1640.09 473.304 1639.53 473.016C1638.98 472.728 1638.39 472.584 1637.75 472.584C1637.02 472.584 1636.35 472.744 1635.76 473.064C1635.17 473.384 1634.7 473.848 1634.37 474.456C1634.03 475.048 1633.86 475.76 1633.86 476.592C1633.86 477.424 1634.03 478.144 1634.37 478.752C1634.7 479.344 1635.17 479.8 1635.76 480.12C1636.35 480.44 1637.02 480.6 1637.75 480.6C1638.39 480.6 1638.98 480.456 1639.53 480.168C1640.09 479.88 1640.56 479.432 1640.94 478.824L1643.25 480.168C1642.75 481.128 1642.02 481.872 1641.06 482.4C1640.12 482.912 1639.02 483.168 1637.78 483.168ZM1645.65 487.824C1645.03 487.824 1644.4 487.72 1643.78 487.512C1643.16 487.304 1642.64 487.016 1642.22 486.648L1643.42 484.44C1643.72 484.712 1644.07 484.928 1644.45 485.088C1644.84 485.248 1645.23 485.328 1645.63 485.328C1646.17 485.328 1646.61 485.192 1646.95 484.92C1647.28 484.648 1647.6 484.192 1647.88 483.552L1648.63 481.872L1648.87 481.512L1653.72 470.184H1656.6L1650.6 484.032C1650.2 484.992 1649.75 485.752 1649.25 486.312C1648.77 486.872 1648.23 487.264 1647.62 487.488C1647.03 487.712 1646.37 487.824 1645.65 487.824ZM1648.29 483.456L1642.51 470.184H1645.63L1650.33 481.248L1648.29 483.456Z" fill="#4D4D4D"/>
</g>
<g filter="url(#filter8_d_1423_136)">
<path d="M691.675 78.48C689.051 78.48 686.635 78.048 684.427 77.184C682.219 76.32 680.299 75.12 678.667 73.584C677.035 72.016 675.771 70.192 674.875 68.112C673.979 66 673.531 63.696 673.531 61.2C673.531 58.704 673.979 56.416 674.875 54.336C675.771 52.224 677.035 50.4 678.667 48.864C680.299 47.296 682.219 46.08 684.427 45.216C686.635 44.352 689.035 43.92 691.627 43.92C694.251 43.92 696.651 44.352 698.827 45.216C701.035 46.08 702.955 47.296 704.587 48.864C706.219 50.4 707.483 52.224 708.379 54.336C709.275 56.416 709.723 58.704 709.723 61.2C709.723 63.696 709.275 66 708.379 68.112C707.483 70.224 706.219 72.048 704.587 73.584C702.955 75.12 701.035 76.32 698.827 77.184C696.651 78.048 694.267 78.48 691.675 78.48ZM691.627 73.008C693.323 73.008 694.891 72.72 696.331 72.144C697.771 71.568 699.019 70.752 700.075 69.696C701.131 68.608 701.947 67.36 702.523 65.952C703.131 64.512 703.435 62.928 703.435 61.2C703.435 59.472 703.131 57.904 702.523 56.496C701.947 55.056 701.131 53.808 700.075 52.752C699.019 51.664 697.771 50.832 696.331 50.256C694.891 49.68 693.323 49.392 691.627 49.392C689.931 49.392 688.363 49.68 686.923 50.256C685.515 50.832 684.267 51.664 683.179 52.752C682.123 53.808 681.291 55.056 680.683 56.496C680.107 57.904 679.819 59.472 679.819 61.2C679.819 62.896 680.107 64.464 680.683 65.904C681.291 67.344 682.123 68.608 683.179 69.696C684.235 70.752 685.483 71.568 686.923 72.144C688.363 72.72 689.931 73.008 691.627 73.008ZM728.625 78.48C724.017 78.48 720.401 77.184 717.777 74.592C715.185 72 713.889 68.256 713.889 63.36V44.4H720.129V63.12C720.129 66.576 720.865 69.088 722.337 70.656C723.841 72.224 725.953 73.008 728.673 73.008C731.393 73.008 733.489 72.224 734.961 70.656C736.433 69.088 737.169 66.576 737.169 63.12V44.4H743.313V63.36C743.313 68.256 742.001 72 739.377 74.592C736.785 77.184 733.201 78.48 728.625 78.48ZM749.892 78V44.4H763.716C766.692 44.4 769.236 44.88 771.348 45.84C773.492 46.8 775.14 48.176 776.292 49.968C777.444 51.76 778.02 53.888 778.02 56.352C778.02 58.816 777.444 60.944 776.292 62.736C775.14 64.496 773.492 65.856 771.348 66.816C769.236 67.744 766.692 68.208 763.716 68.208H753.348L756.132 65.376V78H749.892ZM771.876 78L763.38 65.808H770.052L778.596 78H771.876ZM756.132 66.048L753.348 63.072H763.428C766.18 63.072 768.244 62.48 769.62 61.296C771.028 60.112 771.732 58.464 771.732 56.352C771.732 54.208 771.028 52.56 769.62 51.408C768.244 50.256 766.18 49.68 763.428 49.68H753.348L756.132 46.608V66.048ZM804.363 78.48C801.739 78.48 799.227 78.112 796.827 77.376C794.427 76.608 792.523 75.632 791.115 74.448L793.275 69.6C794.619 70.656 796.283 71.536 798.267 72.24C800.251 72.944 802.283 73.296 804.363 73.296C806.123 73.296 807.547 73.104 808.635 72.72C809.723 72.336 810.523 71.824 811.035 71.184C811.547 70.512 811.803 69.76 811.803 68.928C811.803 67.904 811.435 67.088 810.699 66.48C809.963 65.84 809.003 65.344 807.819 64.992C806.667 64.608 805.371 64.256 803.931 63.936C802.523 63.616 801.099 63.248 799.659 62.832C798.251 62.384 796.955 61.824 795.771 61.152C794.619 60.448 793.675 59.52 792.939 58.368C792.203 57.216 791.835 55.744 791.835 53.952C791.835 52.128 792.315 50.464 793.275 48.96C794.267 47.424 795.755 46.208 797.739 45.312C799.755 44.384 802.299 43.92 805.371 43.92C807.387 43.92 809.387 44.176 811.371 44.688C813.355 45.2 815.083 45.936 816.555 46.896L814.587 51.744C813.083 50.848 811.531 50.192 809.931 49.776C808.331 49.328 806.795 49.104 805.323 49.104C803.595 49.104 802.187 49.312 801.099 49.728C800.043 50.144 799.259 50.688 798.747 51.36C798.267 52.032 798.027 52.8 798.027 53.664C798.027 54.688 798.379 55.52 799.083 56.16C799.819 56.768 800.763 57.248 801.915 57.6C803.099 57.952 804.411 58.304 805.851 58.656C807.291 58.976 808.715 59.344 810.123 59.76C811.563 60.176 812.859 60.72 814.011 61.392C815.195 62.064 816.139 62.976 816.843 64.128C817.579 65.28 817.947 66.736 817.947 68.496C817.947 70.288 817.451 71.952 816.459 73.488C815.499 74.992 814.011 76.208 811.995 77.136C809.979 78.032 807.435 78.48 804.363 78.48ZM827.735 58.368H844.439V63.504H827.735V58.368ZM828.215 72.768H847.175V78H821.975V44.4H846.503V49.632H828.215V72.768ZM851.971 78V44.4H865.795C868.771 44.4 871.315 44.88 873.427 45.84C875.571 46.8 877.219 48.176 878.371 49.968C879.523 51.76 880.099 53.888 880.099 56.352C880.099 58.816 879.523 60.944 878.371 62.736C877.219 64.496 875.571 65.856 873.427 66.816C871.315 67.744 868.771 68.208 865.795 68.208H855.427L858.211 65.376V78H851.971ZM873.955 78L865.459 65.808H872.131L880.675 78H873.955ZM858.211 66.048L855.427 63.072H865.507C868.259 63.072 870.323 62.48 871.699 61.296C873.107 60.112 873.811 58.464 873.811 56.352C873.811 54.208 873.107 52.56 871.699 51.408C870.323 50.256 868.259 49.68 865.507 49.68H855.427L858.211 46.608V66.048ZM894.856 78L880.168 44.4H886.936L900.04 74.784H896.152L909.4 44.4H915.64L901 78H894.856ZM917.026 78V44.4H923.266V78H917.026ZM945.746 78.48C943.186 78.48 940.802 78.064 938.594 77.232C936.418 76.368 934.514 75.168 932.882 73.632C931.282 72.064 930.034 70.224 929.138 68.112C928.242 66 927.794 63.696 927.794 61.2C927.794 58.704 928.242 56.4 929.138 54.288C930.034 52.176 931.298 50.352 932.93 48.816C934.562 47.248 936.466 46.048 938.642 45.216C940.818 44.352 943.202 43.92 945.794 43.92C948.546 43.92 951.058 44.4 953.33 45.36C955.602 46.288 957.522 47.68 959.09 49.536L955.058 53.328C953.842 52.016 952.482 51.04 950.978 50.4C949.474 49.728 947.842 49.392 946.082 49.392C944.322 49.392 942.706 49.68 941.234 50.256C939.794 50.832 938.53 51.648 937.442 52.704C936.386 53.76 935.554 55.008 934.946 56.448C934.37 57.888 934.082 59.472 934.082 61.2C934.082 62.928 934.37 64.512 934.946 65.952C935.554 67.392 936.386 68.64 937.442 69.696C938.53 70.752 939.794 71.568 941.234 72.144C942.706 72.72 944.322 73.008 946.082 73.008C947.842 73.008 949.474 72.688 950.978 72.048C952.482 71.376 953.842 70.368 955.058 69.024L959.09 72.864C957.522 74.688 955.602 76.08 953.33 77.04C951.058 78 948.53 78.48 945.746 78.48ZM968.669 58.368H985.373V63.504H968.669V58.368ZM969.149 72.768H988.109V78H962.909V44.4H987.437V49.632H969.149V72.768ZM1003.32 78.48C1000.7 78.48 998.185 78.112 995.785 77.376C993.385 76.608 991.481 75.632 990.073 74.448L992.233 69.6C993.577 70.656 995.241 71.536 997.225 72.24C999.209 72.944 1001.24 73.296 1003.32 73.296C1005.08 73.296 1006.51 73.104 1007.59 72.72C1008.68 72.336 1009.48 71.824 1009.99 71.184C1010.51 70.512 1010.76 69.76 1010.76 68.928C1010.76 67.904 1010.39 67.088 1009.66 66.48C1008.92 65.84 1007.96 65.344 1006.78 64.992C1005.63 64.608 1004.33 64.256 1002.89 63.936C1001.48 63.616 1000.06 63.248 998.617 62.832C997.209 62.384 995.913 61.824 994.729 61.152C993.577 60.448 992.633 59.52 991.897 58.368C991.161 57.216 990.793 55.744 990.793 53.952C990.793 52.128 991.273 50.464 992.233 48.96C993.225 47.424 994.713 46.208 996.697 45.312C998.713 44.384 1001.26 43.92 1004.33 43.92C1006.35 43.92 1008.35 44.176 1010.33 44.688C1012.31 45.2 1014.04 45.936 1015.51 46.896L1013.55 51.744C1012.04 50.848 1010.49 50.192 1008.89 49.776C1007.29 49.328 1005.75 49.104 1004.28 49.104C1002.55 49.104 1001.15 49.312 1000.06 49.728C999.001 50.144 998.217 50.688 997.705 51.36C997.225 52.032 996.985 52.8 996.985 53.664C996.985 54.688 997.337 55.52 998.041 56.16C998.777 56.768 999.721 57.248 1000.87 57.6C1002.06 57.952 1003.37 58.304 1004.81 58.656C1006.25 58.976 1007.67 59.344 1009.08 59.76C1010.52 60.176 1011.82 60.72 1012.97 61.392C1014.15 62.064 1015.1 62.976 1015.8 64.128C1016.54 65.28 1016.91 66.736 1016.91 68.496C1016.91 70.288 1016.41 71.952 1015.42 73.488C1014.46 74.992 1012.97 76.208 1010.95 77.136C1008.94 78.032 1006.39 78.48 1003.32 78.48Z" fill="#2F2F2F"/>
</g>
<defs>
<filter id="filter0_d_1423_136" x="3.5" y="100" width="396" height="396" filterUnits="userSpaceOnUse" color-interpolation-filters="sRGB">
<feFlood flood-opacity="0" result="BackgroundImageFix"/>
<feColorMatrix in="SourceAlpha" type="matrix" values="0 0 0 0 0 0 0 0 0 0 0 0 0 0 0 0 0 0 127 0" result="hardAlpha"/>
<feMorphology radius="11" operator="erode" in="SourceAlpha" result="effect1_dropShadow_1423_136"/>
<feOffset dx="-4" dy="17"/>
<feGaussianBlur stdDeviation="40"/>
<feComposite in2="hardAlpha" operator="out"/>
<feColorMatrix type="matrix" values="0 0 0 0 0 0 0 0 0 0 0 0 0 0 0 0 0 0 0.25 0"/>
<feBlend mode="normal" in2="BackgroundImageFix" result="effect1_dropShadow_1423_136"/>
<feBlend mode="normal" in="SourceGraphic" in2="effect1_dropShadow_1423_136" result="shape"/>
</filter>
<filter id="filter1_d_1423_136" x="71.4916" y="464.472" width="269.359" height="26.6958" filterUnits="userSpaceOnUse" color-interpolation-filters="sRGB">
<feFlood flood-opacity="0" result="BackgroundImageFix"/>
<feColorMatrix in="SourceAlpha" type="matrix" values="0 0 0 0 0 0 0 0 0 0 0 0 0 0 0 0 0 0 127 0" result="hardAlpha"/>
<feOffset dy="4"/>
<feGaussianBlur stdDeviation="2"/>
<feComposite in2="hardAlpha" operator="out"/>
<feColorMatrix type="matrix" values="0 0 0 0 0 0 0 0 0 0 0 0 0 0 0 0 0 0 0.25 0"/>
<feBlend mode="normal" in2="BackgroundImageFix" result="effect1_dropShadow_1423_136"/>
<feBlend mode="normal" in="SourceGraphic" in2="effect1_dropShadow_1423_136" result="shape"/>
</filter>
<filter id="filter2_d_1423_136" x="433" y="100" width="396" height="396" filterUnits="userSpaceOnUse" color-interpolation-filters="sRGB">
<feFlood flood-opacity="0" result="BackgroundImageFix"/>
<feColorMatrix in="SourceAlpha" type="matrix" values="0 0 0 0 0 0 0 0 0 0 0 0 0 0 0 0 0 0 127 0" result="hardAlpha"/>
<feMorphology radius="11" operator="erode" in="SourceAlpha" result="effect1_dropShadow_1423_136"/>
<feOffset dx="-4" dy="17"/>
<feGaussianBlur stdDeviation="40"/>
<feComposite in2="hardAlpha" operator="out"/>
<feColorMatrix type="matrix" values="0 0 0 0 0 0 0 0 0 0 0 0 0 0 0 0 0 0 0.25 0"/>
<feBlend mode="normal" in2="BackgroundImageFix" result="effect1_dropShadow_1423_136"/>
<feBlend mode="normal" in="SourceGraphic" in2="effect1_dropShadow_1423_136" result="shape"/>
</filter>
<filter id="filter3_d_1423_136" x="485.306" y="464.472" width="300.731" height="31.3521" filterUnits="userSpaceOnUse" color-interpolation-filters="sRGB">
<feFlood flood-opacity="0" result="BackgroundImageFix"/>
<feColorMatrix in="SourceAlpha" type="matrix" values="0 0 0 0 0 0 0 0 0 0 0 0 0 0 0 0 0 0 127 0" result="hardAlpha"/>
<feOffset dy="4"/>
<feGaussianBlur stdDeviation="2"/>
<feComposite in2="hardAlpha" operator="out"/>
<feColorMatrix type="matrix" values="0 0 0 0 0 0 0 0 0 0 0 0 0 0 0 0 0 0 0.25 0"/>
<feBlend mode="normal" in2="BackgroundImageFix" result="effect1_dropShadow_1423_136"/>
<feBlend mode="normal" in="SourceGraphic" in2="effect1_dropShadow_1423_136" result="shape"/>
</filter>
<filter id="filter4_d_1423_136" x="863" y="100" width="396" height="396" filterUnits="userSpaceOnUse" color-interpolation-filters="sRGB">
<feFlood flood-opacity="0" result="BackgroundImageFix"/>
<feColorMatrix in="SourceAlpha" type="matrix" values="0 0 0 0 0 0 0 0 0 0 0 0 0 0 0 0 0 0 127 0" result="hardAlpha"/>
<feMorphology radius="11" operator="erode" in="SourceAlpha" result="effect1_dropShadow_1423_136"/>
<feOffset dx="-4" dy="17"/>
<feGaussianBlur stdDeviation="40"/>
<feComposite in2="hardAlpha" operator="out"/>
<feColorMatrix type="matrix" values="0 0 0 0 0 0 0 0 0 0 0 0 0 0 0 0 0 0 0.25 0"/>
<feBlend mode="normal" in2="BackgroundImageFix" result="effect1_dropShadow_1423_136"/>
<feBlend mode="normal" in="SourceGraphic" in2="effect1_dropShadow_1423_136" result="shape"/>
</filter>
<filter id="filter5_d_1423_136" x="952.94" y="464.472" width="225.462" height="31.3521" filterUnits="userSpaceOnUse" color-interpolation-filters="sRGB">
<feFlood flood-opacity="0" result="BackgroundImageFix"/>
<feColorMatrix in="SourceAlpha" type="matrix" values="0 0 0 0 0 0 0 0 0 0 0 0 0 0 0 0 0 0 127 0" result="hardAlpha"/>
<feOffset dy="4"/>
<feGaussianBlur stdDeviation="2"/>
<feComposite in2="hardAlpha" operator="out"/>
<feColorMatrix type="matrix" values="0 0 0 0 0 0 0 0 0 0 0 0 0 0 0 0 0 0 0.25 0"/>
<feBlend mode="normal" in2="BackgroundImageFix" result="effect1_dropShadow_1423_136"/>
<feBlend mode="normal" in="SourceGraphic" in2="effect1_dropShadow_1423_136" result="shape"/>
</filter>
<filter id="filter6_d_1423_136" x="1293.5" y="100" width="396" height="396" filterUnits="userSpaceOnUse" color-interpolation-filters="sRGB">
<feFlood flood-opacity="0" result="BackgroundImageFix"/>
<feColorMatrix in="SourceAlpha" type="matrix" values="0 0 0 0 0 0 0 0 0 0 0 0 0 0 0 0 0 0 127 0" result="hardAlpha"/>
<feMorphology radius="11" operator="erode" in="SourceAlpha" result="effect1_dropShadow_1423_136"/>
<feOffset dx="-4" dy="17"/>
<feGaussianBlur stdDeviation="40"/>
<feComposite in2="hardAlpha" operator="out"/>
<feColorMatrix type="matrix" values="0 0 0 0 0 0 0 0 0 0 0 0 0 0 0 0 0 0 0.25 0"/>
<feBlend mode="normal" in2="BackgroundImageFix" result="effect1_dropShadow_1423_136"/>
<feBlend mode="normal" in="SourceGraphic" in2="effect1_dropShadow_1423_136" result="shape"/>
</filter>
<filter id="filter7_d_1423_136" x="1332.75" y="464.472" width="327.845" height="31.3521" filterUnits="userSpaceOnUse" color-interpolation-filters="sRGB">
<feFlood flood-opacity="0" result="BackgroundImageFix"/>
<feColorMatrix in="SourceAlpha" type="matrix" values="0 0 0 0 0 0 0 0 0 0 0 0 0 0 0 0 0 0 127 0" result="hardAlpha"/>
<feOffset dy="4"/>
<feGaussianBlur stdDeviation="2"/>
<feComposite in2="hardAlpha" operator="out"/>
<feColorMatrix type="matrix" values="0 0 0 0 0 0 0 0 0 0 0 0 0 0 0 0 0 0 0.25 0"/>
<feBlend mode="normal" in2="BackgroundImageFix" result="effect1_dropShadow_1423_136"/>
<feBlend mode="normal" in="SourceGraphic" in2="effect1_dropShadow_1423_136" result="shape"/>
</filter>
<filter id="filter8_d_1423_136" x="669.531" y="43.9199" width="351.374" height="42.5601" filterUnits="userSpaceOnUse" color-interpolation-filters="sRGB">
<feFlood flood-opacity="0" result="BackgroundImageFix"/>
<feColorMatrix in="SourceAlpha" type="matrix" values="0 0 0 0 0 0 0 0 0 0 0 0 0 0 0 0 0 0 127 0" result="hardAlpha"/>
<feOffset dy="4"/>
<feGaussianBlur stdDeviation="2"/>
<feComposite in2="hardAlpha" operator="out"/>
<feColorMatrix type="matrix" values="0 0 0 0 0 0 0 0 0 0 0 0 0 0 0 0 0 0 0.25 0"/>
<feBlend mode="normal" in2="BackgroundImageFix" result="effect1_dropShadow_1423_136"/>
<feBlend mode="normal" in="SourceGraphic" in2="effect1_dropShadow_1423_136" result="shape"/>
</filter>
</defs>
</svg>
